<?xml version="1.0" standalone="no"?>
<!DOCTYPE svg PUBLIC "-//W3C//DTD SVG 1.1//EN" "http://www.w3.org/Graphics/SVG/1.1/DTD/svg11.dtd" >
<svg xmlns="http://www.w3.org/2000/svg" xmlns:xlink="http://www.w3.org/1999/xlink" version="1.1">
<metadata></metadata>
<defs>
<font id="formadjrtextbold_italic" horiz-adv-x="1196" >
<font-face units-per-em="2048" ascent="1536" descent="-512" />
<missing-glyph horiz-adv-x="385" />
<glyph horiz-adv-x="0" />
<glyph horiz-adv-x="682" />
<glyph unicode=" "  horiz-adv-x="385" />
<glyph unicode="&#x09;" horiz-adv-x="385" />
<glyph unicode="&#xa0;" horiz-adv-x="385" />
<glyph unicode="!" horiz-adv-x="477" d="M-74 25l56 245q1 10 10 17.5t20 7.5h256q7 0 14 -8.5t5 -16.5l-56 -245q-1 -10 -10 -17.5t-20 -7.5h-256q-7 0 -14 8.5t-5 16.5zM23 440l221 969q1 10 10 17.5t20 7.5h256q7 0 14 -8.5t5 -16.5l-221 -969q-1 -10 -10.5 -17t-20.5 -7h-256q-7 0 -13.5 8t-4.5 16z" />
<glyph unicode="&#x22;" horiz-adv-x="827" d="M162 926l76 483q2 11 10 18t18 7h242q7 0 13.5 -7.5t4.5 -15.5l-149 -487q-2 -8 -11.5 -15.5t-19.5 -7.5h-164q-8 0 -15 9t-5 16zM541 926l75 483q1 10 9.5 17.5t19.5 7.5h242q7 0 13.5 -7.5t4.5 -15.5l-149 -487q-2 -8 -11.5 -15.5t-19.5 -7.5h-164q-7 0 -14 9t-6 16z " />
<glyph unicode="#" horiz-adv-x="1368" d="M-39 315l47 172q1 10 10.5 17.5t20.5 7.5h207l98 418h-205q-7 0 -13.5 8t-4.5 16l39 172q1 10 10 17.5t20 7.5h207l62 258q1 10 10 17.5t20 7.5h238q7 0 13.5 -8.5t4.5 -16.5l-61 -258h205l61 258q1 10 10.5 17.5t20.5 7.5h238q7 0 13.5 -8.5t4.5 -16.5l-61 -258h208 q7 0 14 -8.5t5 -16.5l-39 -172q-1 -10 -10.5 -17t-20.5 -7h-211l-98 -418h209q7 0 13.5 -8.5t4.5 -16.5l-47 -172q-1 -10 -10 -17t-20 -7h-203l-64 -266q-1 -10 -10 -17.5t-20 -7.5h-238q-7 0 -13.5 8.5t-4.5 16.5l63 266h-205l-63 -266q-1 -10 -10.5 -17.5t-20.5 -7.5h-238 q-7 0 -13.5 8.5t-4.5 16.5l64 266h-213q-7 0 -14 8t-5 16zM532 512h205l99 418h-205z" />
<glyph unicode="$" horiz-adv-x="1236" d="M-2 459q2 8 9.5 16t17.5 8h276q10 0 17.5 -6.5t9.5 -17.5q8 -121 73.5 -189.5t190.5 -68.5q49 0 87.5 13t61.5 32.5t38 46t20.5 50.5t5.5 48q0 101 -103 148q-115 51 -227 96q-122 45 -227 127q-105 77 -105 244q0 184 116.5 307t338.5 147l27 113q1 10 10 17t20 7h263 q7 0 13.5 -8t4.5 -16l-31 -135q137 -41 219.5 -141t89.5 -263q1 -7 -6.5 -15.5t-15.5 -8.5h-277q-11 0 -18.5 7t-7.5 17q-6 89 -63 142t-148 53q-89 0 -149 -48.5t-60 -125.5q0 -91 104 -137q93 -41 230 -95q127 -53 229 -133q105 -82 105 -246q0 -199 -135.5 -331 t-385.5 -144l-34 -149q-1 -10 -10.5 -17.5t-20.5 -7.5h-262q-7 0 -14 8.5t-5 16.5l43 188q-150 54 -236 169.5t-79 281.5z" />
<glyph unicode="%" horiz-adv-x="1832" d="M143 1100q81 354 447 354q177 0 264 -106q89 -109 49 -289q-81 -342 -442 -342q-176 0 -266 100q-95 103 -52 283zM166 6q-3 6 2 12l1225 1397q19 19 41 19h227q7 0 10 -6.5t-2 -12.5l-1225 -1397q-18 -18 -41 -18h-227q-7 0 -10 6zM397 1079q-46 -184 84 -184 q64 0 104.5 43.5t63.5 140.5q44 197 -82 197t-170 -197zM934 375q78 342 442 342q178 0 268 -102t50 -281q-81 -354 -447 -354q-175 0 -264 108t-49 287zM1188 354q-47 -196 82 -196q61 0 103.5 47t66.5 149q40 185 -84 185q-64 0 -104.5 -44t-63.5 -141z" />
<glyph unicode="&#x26;" horiz-adv-x="1431" d="M-23 422q14 66 46.5 123.5t71.5 99.5t95.5 82t106 66.5t115.5 56.5q-101 195 -68 330q32 136 147.5 214.5t307.5 78.5q112 0 202.5 -40.5t137.5 -118t26 -175.5q-30 -128 -139 -205q-116 -82 -240 -137q10 -17 33 -54.5t44 -72t40 -68.5l51 -88q64 107 93 199 q13 22 32 22h236q7 0 12.5 -7t3.5 -15q-93 -254 -244 -424l156 -269q4 -6 0 -13t-12 -7h-305q-21 0 -37 20l-37 68q-193 -115 -412 -115q-111 0 -206 32.5t-161 89.5t-93 142.5t-3 184.5zM279 410q-25 -113 28 -170.5t164 -57.5q138 0 272 94l-184 326q-6 13 -21.5 37.5 t-19.5 32.5q-98 -55 -159 -117.5t-80 -144.5zM629 1171q-10 -43 2.5 -89t52.5 -117q99 43 157.5 88.5t71.5 103.5q13 64 -25.5 100.5t-109.5 36.5q-120 0 -149 -123z" />
<glyph unicode="'" horiz-adv-x="454" d="M168 926l76 483q2 11 10 18t18 7h242q7 0 13.5 -7.5t4.5 -15.5l-149 -487q-2 -8 -11.5 -15.5t-19.5 -7.5h-164q-8 0 -15 9t-5 16z" />
<glyph unicode="(" horiz-adv-x="589" d="M39 614q103 455 410 861q16 20 38 20h193q8 0 11 -7t-1 -13q-283 -422 -387 -861q-104 -449 -14 -876q2 -8 -5 -16.5t-14 -8.5h-192q-11 0 -20.5 7.5t-10.5 17.5q-110 426 -8 876z" />
<glyph unicode=")" horiz-adv-x="589" d="M-154.5 -279.5q-3.5 7.5 0.5 13.5q288 433 392 880q104 433 14 856q-2 8 4.5 16.5t13.5 8.5h193q10 0 19.5 -7t11.5 -15q113 -398 8 -859q-54 -240 -158 -454.5t-256 -425.5q-17 -21 -39 -21h-192q-8 0 -11.5 7.5z" />
<glyph unicode="*" horiz-adv-x="720" d="M98 1069q-2 8 3 18.5t12 14.5l168 80l-131 75q-8 5 -10.5 15t3.5 18l95 125q6 8 16 10t18 -4l134 -94l16 184q4 25 27 25h133q8 0 15 -9t5 -16l-31 -184l187 107q8 4 17 0.5t11 -11.5l35 -112q2 -8 -2.5 -18.5t-11.5 -14.5l-174 -86l129 -72q8 -5 10 -15t-4 -18l-90 -126 q-6 -8 -16.5 -10.5t-18.5 3.5l-131 93l-14 -177q-2 -11 -9.5 -17.5t-17.5 -6.5h-137q-8 0 -15 8.5t-6 15.5l33 181l-178 -101q-8 -4 -17.5 -0.5t-11.5 11.5z" />
<glyph unicode="+" horiz-adv-x="1126" d="M61 616l39 179q1 10 10.5 17t20.5 7h340l88 385q1 10 10.5 17.5t20.5 7.5h186q7 0 14 -8.5t5 -16.5l-88 -385h337q7 0 14 -8t5 -16l-39 -179q-1 -10 -10.5 -17t-20.5 -7h-338l-88 -383q-1 -10 -10 -17.5t-20 -7.5h-187q-7 0 -13.5 8.5t-4.5 16.5l88 383h-340q-7 0 -14 8 t-5 16z" />
<glyph unicode="," horiz-adv-x="452" d="M-170 -217l115 225l59 260q1 10 10.5 17.5t20.5 7.5h241q7 0 14 -8.5t5 -16.5l-53 -233q-3 -23 -23 -43l-211 -213q-19 -19 -41 -19h-123q-7 0 -11.5 7.5t-2.5 15.5z" />
<glyph unicode="-" horiz-adv-x="538" d="M-27 498l37 164q1 10 10.5 17t20.5 7h442q7 0 14 -8t5 -16l-37 -164q-1 -10 -10.5 -17.5t-20.5 -7.5h-442q-7 0 -14 8.5t-5 16.5z" />
<glyph unicode="&#xad;" horiz-adv-x="538" d="M-27 498l37 164q1 10 10.5 17t20.5 7h442q7 0 14 -8t5 -16l-37 -164q-1 -10 -10.5 -17.5t-20.5 -7.5h-442q-7 0 -14 8.5t-5 16.5z" />
<glyph unicode="." horiz-adv-x="452" d="M-92 25l55 243q1 10 10.5 17.5t20.5 7.5h270q7 0 14 -8.5t5 -16.5l-56 -243q-1 -10 -10 -17.5t-20 -7.5h-271q-7 0 -13.5 8.5t-4.5 16.5z" />
<glyph unicode="/" horiz-adv-x="743" d="M-182 -264l823 1737q9 22 35 22h176q7 0 11.5 -7t2.5 -15l-823 -1737q-10 -23 -35 -23h-176q-7 0 -11.5 7.5t-2.5 15.5z" />
<glyph unicode="0" horiz-adv-x="1236" d="M35.5 337.5q-34.5 174.5 17.5 416.5q85 365 257 537.5t433 172.5q273 0 400 -207q123 -209 35 -585q-81 -353 -254.5 -528t-429.5 -175q-185 0 -304.5 97t-154 271.5zM335 520q-8 -99 8 -170t62 -106t123 -35q115 0 191 98q75 98 137 365q32 136 41.5 236t-5.5 172.5 t-60 108.5t-121 36q-121 0 -197 -101q-74 -99 -139 -370q-32 -135 -40 -234z" />
<glyph unicode="1" horiz-adv-x="825" d="M113 950l43 189q3 21 28 32q221 74 351 242q17 21 38 21h261q7 0 13.5 -8.5t4.5 -16.5l-197 -770l-123 -614q-2 -11 -10 -18t-18 -7h-283q-7 0 -13.5 8.5t-4.5 16.5l180 710l74 355q-125 -98 -326 -158q-7 -2 -13 4t-5 14z" />
<glyph unicode="2" horiz-adv-x="1114" d="M-104 25l41 176q53 230 200 348q136 111 305 194q156 77 279 144q121 68 121 192q0 75 -46 117t-128 41q-194 -3 -260 -264q-1 -10 -10.5 -17.5t-20.5 -7.5h-236q-7 0 -13.5 8.5t-4.5 16.5q53 239 191.5 363t379.5 124q199 0 318 -98t116 -258q0 -191 -129 -305 q-132 -117 -290 -199q-140 -72 -301 -160q-144 -77 -168 -184l-7 -25h682q7 0 14 -8t5 -16l-41 -182q-1 -10 -10.5 -17.5t-20.5 -7.5h-948q-7 0 -13.5 8.5t-4.5 16.5z" />
<glyph unicode="3" horiz-adv-x="1130" d="M-25 426q1 10 9.5 17.5t19.5 7.5h252q8 0 14.5 -7.5t5.5 -17.5q-12 -109 44 -173.5t157 -64.5q114 0 177 73.5t63 197.5q0 104 -47.5 153.5t-145.5 49.5h-98q-7 0 -13.5 8t-4.5 16l32 150q1 10 10.5 17t20.5 7h98q126 0 194 56.5t68 152.5q0 85 -49 130.5t-135 45.5 q-83 0 -138 -52t-75 -155q-1 -10 -9 -17t-19 -7h-248q-7 0 -14 8t-5 16q92 416 537 416q203 0 337 -102t134 -258q0 -142 -85.5 -229.5t-232.5 -114.5q102 -31 154.5 -108.5t52.5 -176.5q0 -114 -47 -207.5t-127 -153t-183 -92t-218 -32.5q-252 0 -381.5 118.5t-104.5 327.5 z" />
<glyph unicode="4" horiz-adv-x="1191" d="M-37 350l47 215q3 23 23 43l702 807q19 19 41 19h363q7 0 13.5 -8.5t4.5 -16.5l-194 -852h133q7 0 13.5 -8.5t4.5 -16.5l-41 -182q-1 -10 -10.5 -17t-20.5 -7h-133l-69 -303q-1 -10 -10.5 -17.5t-20.5 -7.5h-262q-7 0 -14 8.5t-5 16.5l70 303h-616q-7 0 -14 8t-5 16z M276 557h375l82 361l66 249z" />
<glyph unicode="5" horiz-adv-x="1173" d="M-20 358q0 8 8 16.5t18 8.5h260q8 0 15.5 -7.5t7.5 -17.5q-9 -178 168 -178q135 0 221 115t86 293q0 213 -174 213q-79 0 -142 -38.5t-100 -107.5q-9 -22 -37 -22h-219q-8 0 -13.5 7.5t-4.5 14.5l231 756q2 8 11.5 15.5t19.5 7.5h848q7 0 13.5 -8.5t4.5 -16.5l-41 -182 q-1 -10 -10.5 -17.5t-20.5 -7.5h-598l-88 -260q113 76 254 76q184 0 285.5 -118t101.5 -310q0 -135 -48.5 -251t-133.5 -197.5t-206 -128t-261 -46.5q-237 0 -350 113q-115 115 -106 278z" />
<glyph unicode="6" horiz-adv-x="1204" d="M29 459q0 192 45 362q34 135 93.5 249t145 203.5t202.5 140t253 50.5q210 0 326.5 -93.5t109.5 -264.5q0 -8 -8 -16.5t-18 -8.5h-252q-11 0 -19 7.5t-8 17.5q-2 63 -39.5 103t-116.5 40q-118 0 -209.5 -109t-121.5 -296q133 119 303 119q171 0 286 -115 q113 -116 113 -297q0 -255 -165 -418.5t-423 -163.5q-218 0 -357.5 137.5t-139.5 352.5zM330 420q0 -102 50 -164.5t136 -62.5q112 0 185 95.5t73 231.5q0 105 -47 165t-137 60q-92 0 -159 -64.5t-91 -166.5q-10 -45 -10 -94z" />
<glyph unicode="7" horiz-adv-x="995" d="M90 20q129 333 296.5 641t356.5 541h-583q-7 0 -14 8.5t-5 16.5l41 182q1 10 10.5 17.5t20.5 7.5h897q7 0 13.5 -8.5t4.5 -16.5l-41 -188q-3 -24 -20 -45q-446 -605 -653 -1156q-2 -8 -12.5 -15t-20.5 -7h-275q-7 0 -12.5 7t-3.5 15z" />
<glyph unicode="8" horiz-adv-x="1200" d="M-33 383q0 91 40 173t123.5 145t197.5 87q-166 113 -166 254q0 193 149 304.5t387 111.5q229 0 366.5 -99t137.5 -269q0 -114 -80.5 -213t-232.5 -152q201 -100 201 -287q0 -133 -83 -239t-218.5 -162.5t-294.5 -56.5q-106 0 -201 28t-167.5 78.5t-115.5 127.5t-43 169z M279 393q0 -92 64.5 -152.5t162.5 -60.5q114 0 196 82q82 79 82 187q0 94 -66.5 149t-164.5 55q-120 0 -197 -80t-77 -180zM461 1022q0 -80 57 -134t144 -54q99 0 163 73q66 72 66 168q0 84 -57.5 133t-141.5 49q-99 0 -165 -66.5t-66 -168.5z" />
<glyph unicode="9" horiz-adv-x="1202" d="M-2 328q0 8 8.5 16t18.5 8h251q11 0 19 -7t8 -17q2 -63 39.5 -103.5t116.5 -40.5q116 0 209 110t123 296q-133 -119 -304 -119q-170 0 -284 117q-115 115 -115 295q0 166 79.5 300t213.5 207.5t295 73.5q230 0 364 -135t134 -354q0 -189 -46 -363q-34 -135 -93.5 -249 t-145 -203.5t-202.5 -140t-253 -50.5q-210 0 -326.5 94t-109.5 265zM428 913q0 -105 47 -165t137 -60q80 0 143 51t95 135q22 68 22 140q0 102 -50 164.5t-136 62.5q-112 0 -185 -96t-73 -232z" />
<glyph unicode=":" horiz-adv-x="452" d="M-96 25l55 243q1 10 10.5 17.5t20.5 7.5h270q7 0 14 -8.5t5 -16.5l-56 -243q-1 -10 -10 -17.5t-20 -7.5h-271q-7 0 -13.5 8.5t-4.5 16.5zM84 786l55 244q1 10 10.5 17.5t20.5 7.5h270q7 0 14 -8.5t5 -16.5l-56 -244q-1 -10 -10 -17t-20 -7h-271q-7 0 -13.5 8t-4.5 16z " />
<glyph unicode=";" horiz-adv-x="452" d="M-172 -217l115 225l59 260q1 10 10.5 17.5t20.5 7.5h241q7 0 14 -8.5t5 -16.5l-53 -233q-3 -23 -23 -43l-211 -213q-19 -19 -41 -19h-123q-7 0 -11.5 7.5t-2.5 15.5zM84 786l55 244q1 10 10.5 17.5t20.5 7.5h270q7 0 14 -8.5t5 -16.5l-56 -244q-1 -10 -10 -17t-20 -7 h-271q-7 0 -13.5 8t-4.5 16z" />
<glyph unicode="&#x3c;" horiz-adv-x="1126" d="M59 616l39 179q3 23 29 34l1018 410q8 2 12.5 -2.5t3.5 -11.5l-47 -205q-2 -11 -10.5 -21.5t-18.5 -11.5l-774 -297l633 -297q20 -12 17 -35l-39 -172q-1 -7 -11 -11.5t-18 -2.5l-817 410q-20 12 -17 34z" />
<glyph unicode="=" horiz-adv-x="1126" d="M-2 350l39 178q1 10 10.5 17.5t20.5 7.5h913q7 0 13.5 -8.5t4.5 -16.5l-38 -178q-1 -10 -10.5 -17t-20.5 -7h-914q-7 0 -13.5 8t-4.5 16zM121 883l39 178q1 10 10 17t20 7h914q7 0 13.5 -8t4.5 -16l-39 -178q-1 -10 -10 -17.5t-20 -7.5h-914q-7 0 -13.5 8.5t-4.5 16.5z " />
<glyph unicode="&#x3e;" horiz-adv-x="1126" d="M-41 186l43 201q2 11 10.5 21.5t18.5 11.5l776 299l-635 295q-19 12 -16 35l43 176q1 7 10.5 11.5t17.5 2.5l817 -410q20 -12 17 -34l-39 -179q-3 -23 -29 -34l-1018 -410q-8 -2 -12.5 2.5t-3.5 11.5z" />
<glyph unicode="?" horiz-adv-x="1048" d="M82 1030q62 206 212.5 314t385.5 108q104 0 190 -33t141 -92.5t77.5 -141t-1.5 -179.5q-15 -63 -45 -113t-67 -83.5t-80 -62.5l-86 -58t-81 -61t-69.5 -80t-48.5 -108q-1 -10 -10 -17t-20 -7h-261q-7 0 -13.5 8t-4.5 16q21 79 57 145t77 110.5t86 82t88 66.5t79 56.5 t62.5 61t35.5 70.5q20 93 -21.5 152.5t-129.5 60.5q-197 3 -260 -215q-1 -10 -10.5 -17t-20.5 -7h-244q-7 0 -13.5 8t-4.5 16zM203 25l55 245q1 10 10.5 17.5t20.5 7.5h262q7 0 13.5 -8.5t4.5 -16.5l-55 -245q-1 -10 -10.5 -17.5t-20.5 -7.5h-262q-7 0 -13.5 8.5t-4.5 16.5z " />
<glyph unicode="@" horiz-adv-x="1695" d="M-19 284.5q-9 145.5 23 311.5q42 208 126.5 365.5t203 255.5t264 147t317.5 49q153 0 281 -46t217.5 -130t144.5 -203t62.5 -266t-29.5 -317q-53 -230 -166 -318q-115 -92 -231 -92q-88 0 -161 42t-91 116q-127 -168 -334 -168q-100 0 -177 41.5t-118.5 112.5t-55.5 165 t13 199q51 217 186.5 351t327.5 134q92 0 161 -38.5t106 -108.5l18 102q1 10 9.5 17.5t19.5 7.5h229q7 0 14 -8.5t5 -16.5l-158 -690q-12 -61 -2 -86t43 -25q139 0 205 283q43 179 23.5 325.5t-88 251t-189 161.5t-279.5 57q-273 0 -471 -168q-200 -170 -270 -525 q-37 -173 -15.5 -318.5t86 -251.5t175.5 -165t253 -59q143 0 252 45.5t199 155.5q14 18 39 18h127q7 0 11 -7.5t-1 -13.5q-132 -186 -285.5 -266t-355.5 -80q-139 0 -258.5 47.5t-204 134t-138.5 206.5t-63 265.5zM555.5 308.5q33.5 -92.5 132.5 -91.5q105 0 175 69.5 t106 219.5q38 154 4 247.5t-133 94.5q-106 2 -176 -67.5t-105 -215.5q-37 -164 -3.5 -256.5z" />
<glyph unicode="A" horiz-adv-x="1376" d="M-168 7q-4 7 0 13l803 1393q17 21 37 21h370q11 0 19 -7.5t8 -17.5l154 -1384q0 -8 -8 -16.5t-15 -8.5h-254q-22 0 -26 25l-31 340h-537l-184 -342q-13 -23 -37 -23h-287q-8 0 -12 7zM485 612h383l-55 613z" />
<glyph unicode="B" horiz-adv-x="1308" d="M-68 25l177 692l145 692q1 10 9.5 17.5t19.5 7.5h573q233 0 363 -95q103 -76 103 -221q0 -38 -7 -80q-20 -118 -103.5 -196.5t-207.5 -98.5q206 -71 206 -275q0 -35 -6 -75q-18 -102 -76 -180t-142 -123t-177.5 -67.5t-192.5 -22.5h-665q-7 0 -14 8.5t-5 16.5zM299 217 h340q221 0 256 197q5 30 5 57q0 74 -40 114q-54 54 -164 54h-311zM434 856h354q82 0 140 41t71 117q5 27 5 51q0 63 -35 101q-48 52 -140 51h-299z" />
<glyph unicode="C" horiz-adv-x="1441" d="M31 596q0 242 100.5 439t287 313t423.5 116q124 0 231 -34.5t190.5 -100t134 -171t56.5 -238.5q0 -8 -8.5 -16.5t-15.5 -8.5h-256q-8 0 -16.5 7.5t-8.5 17.5q-6 134 -93.5 219.5t-240.5 85.5q-93 0 -170.5 -35t-130.5 -95t-90.5 -140.5t-54.5 -170t-17 -184.5 q0 -180 92.5 -285.5t255.5 -105.5q127 0 221.5 65.5t131.5 190.5q1 10 10 17t20 7h263q7 0 13.5 -8t4.5 -16q-68 -224 -242.5 -360t-423.5 -136q-196 0 -348.5 81t-235.5 223.5t-83 322.5z" />
<glyph unicode="D" horiz-adv-x="1427" d="M-68 25l177 692l147 692q1 10 9.5 17.5t19.5 7.5h460q111 0 210.5 -24.5t181 -74t140.5 -120t91.5 -166t32.5 -207.5q0 -165 -51 -304.5t-137.5 -237.5t-202.5 -166.5t-245 -101t-265 -32.5h-549q-7 0 -14 8.5t-5 16.5zM303 231h225q85 0 164.5 23t149.5 71t121.5 116 t81.5 164t30 208q0 185 -86 287t-244 102h-217q1 0 -18 -67t-51 -188t-56 -224q-24 -108 -49 -231t-38 -192z" />
<glyph unicode="E" horiz-adv-x="1177" d="M-66 25l177 692l145 692q1 10 9.5 17.5t19.5 7.5h956q7 0 14 -8.5t5 -16.5l-41 -182q-1 -10 -10.5 -17.5t-20.5 -7.5h-660l-88 -330h613q7 0 13.5 -8t4.5 -16l-41 -182q-1 -10 -10.5 -17.5t-20.5 -7.5h-612l-82 -410h676q7 0 13.5 -8t4.5 -16l-41 -182q-1 -10 -10 -17.5 t-20 -7.5h-975q-7 0 -14 8.5t-5 16.5z" />
<glyph unicode="F" horiz-adv-x="1103" d="M-68 25l177 692l145 692q1 10 9.5 17.5t19.5 7.5h925q7 0 14 -8.5t5 -16.5l-41 -182q-1 -10 -10.5 -17.5t-20.5 -7.5h-627l-104 -393h612q7 0 14 -8.5t5 -16.5l-41 -182q-1 -10 -10.5 -17t-20.5 -7h-612l-117 -553q-1 -10 -9.5 -17.5t-19.5 -7.5h-274q-7 0 -14 8.5 t-5 16.5z" />
<glyph unicode="G" horiz-adv-x="1490" d="M31 584q0 174 64 335t173 281t264 192t328 72q257 0 425 -132t185 -361q0 -2 -296 -2q-11 0 -19.5 7t-9.5 17q-23 115 -103 176.5t-198 61.5q-141 0 -255 -90t-175.5 -237.5t-61.5 -319.5q0 -175 87.5 -277t254.5 -102q149 0 241 79t132 267h-350q-7 0 -14 8t-5 16 l39 177q1 10 10.5 17t20.5 7h659q8 0 15 -8.5t6 -15.5q-73 -418 -281 -602q-205 -181 -495 -181q-298 0 -469 168q-172 166 -172 447z" />
<glyph unicode="H" horiz-adv-x="1441" d="M-68 25l177 692l145 692q1 10 9.5 17.5t19.5 7.5h276q7 0 14 -8.5t5 -16.5l-134 -528h629l111 528q2 11 10 18t18 7h277q7 0 13.5 -8.5t4.5 -16.5l-176 -692l-145 -692q-1 -10 -9.5 -17.5t-19.5 -7.5h-274q-7 0 -14 8.5t-5 16.5l158 624h-633l-133 -624 q-1 -10 -9.5 -17.5t-19.5 -7.5h-276q-7 0 -14 8.5t-5 16.5z" />
<glyph unicode="I" horiz-adv-x="528" d="M-57 25l176 692l145 692q1 10 9.5 17.5t19.5 7.5h272q7 0 14 -8.5t5 -16.5l-176 -692l-146 -692q-1 -10 -9.5 -17.5t-19.5 -7.5h-272q-7 0 -13.5 8.5t-4.5 16.5z" />
<glyph unicode="J" horiz-adv-x="1093" d="M-31 489q1 10 9.5 17.5t19.5 7.5h254q8 0 15 -8.5t5 -16.5q-8 -49 -8 -91q0 -66 20 -111q34 -74 130 -74q95 0 144.5 69t90.5 232l70 283l129 612q1 10 9.5 17.5t19.5 7.5h282q7 0 14 -8.5t5 -16.5l-156 -612l-59 -285q-61 -274 -199.5 -408.5t-368.5 -134.5 q-154 0 -260 67.5t-148 185.5q-27 75 -27 163q0 50 9 104z" />
<glyph unicode="K" horiz-adv-x="1296" d="M-68 25l174 692l148 692q1 10 9.5 17.5t19.5 7.5h272q7 0 13.5 -8.5t4.5 -16.5l-137 -551l531 557q19 19 41 19h350q6 0 9 -6t-3 -11l-602 -573l377 -821q2 -8 -3 -15.5t-12 -7.5h-305q-25 0 -35 23l-104 237l-154 358l-184 -176l-90 -417q-1 -10 -9.5 -17.5t-19.5 -7.5 h-272q-7 0 -14 8.5t-5 16.5z" />
<glyph unicode="L" horiz-adv-x="1013" d="M-68 25l177 692l145 692q1 10 9.5 17.5t19.5 7.5h274q7 0 13.5 -8.5t4.5 -16.5l-169 -674l-103 -504h574q7 0 13.5 -8t4.5 -16l-41 -182q-1 -10 -10.5 -17.5t-20.5 -7.5h-872q-7 0 -14 8.5t-5 16.5z" />
<glyph unicode="M" horiz-adv-x="1755" d="M-68 25l174 692l148 692q1 10 9.5 17.5t19.5 7.5h340q10 0 18 -7t10 -18l142 -1024l598 1028q17 21 36 21h375q7 0 14 -8.5t5 -16.5l-174 -692l-148 -692q-1 -10 -9.5 -17.5t-19.5 -7.5h-266q-7 0 -13.5 8.5t-4.5 16.5l98 428l139 557l-575 -990q-16 -20 -37 -20h-197 q-10 0 -18 7t-10 18l-144 1028l-22 -113l-103 -487l-98 -428q-1 -10 -10.5 -17.5t-20.5 -7.5h-237q-7 0 -14 8.5t-5 16.5z" />
<glyph unicode="N" horiz-adv-x="1435" d="M-68 25l174 692l148 692q1 10 9.5 17.5t19.5 7.5h313q10 0 20.5 -7.5t12.5 -15.5l354 -1014l8 37l94 451l119 524q1 10 10.5 17.5t20.5 7.5h248q7 0 13.5 -8.5t4.5 -16.5l-174 -692l-147 -692q-1 -10 -9.5 -17.5t-19.5 -7.5h-324q-10 0 -20 7.5t-12 15.5l-351 1007 l-18 -104l-92 -447l-105 -454q-1 -10 -10 -17.5t-20 -7.5h-248q-7 0 -14 8.5t-5 16.5z" />
<glyph unicode="O" horiz-adv-x="1542" d="M31 575q0 185 64 349.5t173.5 283t263.5 187.5t328 69q300 0 476.5 -161.5t176.5 -436.5q0 -140 -39.5 -274t-115 -246t-176 -197t-230.5 -132.5t-272 -47.5q-298 0 -473.5 166.5t-175.5 439.5zM352 580q0 -173 92.5 -272t251.5 -99q149 0 263 88t172.5 234t58.5 323 q0 172 -92 271.5t-252 99.5q-111 0 -204.5 -52.5t-156.5 -141t-98 -205.5t-35 -246z" />
<glyph unicode="P" horiz-adv-x="1241" d="M-68 25l174 692l148 692q1 10 9.5 17.5t19.5 7.5h497q230 0 360 -101t130 -289q0 -257 -170 -401q-171 -145 -457 -145h-289l-100 -473q-1 -10 -9.5 -17.5t-19.5 -7.5h-274q-7 0 -14 8.5t-5 16.5zM403 725h295q69 0 127 28t98 94.5t40 162.5q0 100 -50 148t-153 48h-236z " />
<glyph unicode="Q" horiz-adv-x="1544" d="M23 575q0 185 64 349.5t173.5 283t263.5 187.5t328 69q300 0 476.5 -161.5t176.5 -436.5q0 -176 -62.5 -339.5t-174.5 -288.5l32 2h86q7 0 14 -8.5t5 -16.5l-43 -190q-1 -10 -10.5 -17.5t-20.5 -7.5h-440q-117 -31 -219 -31q-298 0 -473.5 166.5t-175.5 439.5zM344 580 q0 -173 92.5 -272t251.5 -99q149 0 263 88t172.5 234t58.5 323q0 172 -92 271.5t-252 99.5q-111 0 -204.5 -52.5t-156.5 -141t-98 -205.5t-35 -246z" />
<glyph unicode="R" horiz-adv-x="1320" d="M-68 25l174 692l148 692q1 10 9.5 17.5t19.5 7.5h542q230 0 360 -95.5t130 -273.5q0 -196 -107 -328t-299 -180l224 -534q4 -7 -1.5 -15t-13.5 -8h-313q-10 0 -20.5 7.5t-12.5 15.5l-110 296l-93 213h-207l-108 -507q-1 -10 -9.5 -17.5t-19.5 -7.5h-274q-7 0 -14 8.5 t-5 16.5zM414 760h329q109 0 187 68.5t78 201.5q0 176 -203 176h-281z" />
<glyph unicode="S" horiz-adv-x="1314" d="M-31 459q2 8 9.5 16t17.5 8h276q10 0 17.5 -6.5t9.5 -17.5q8 -121 90 -189.5t236 -68.5q78 0 134.5 18.5t85 49t41.5 61t13 61.5q0 105 -123 146q-117 39 -268 81q-141 39 -270 119q-123 77 -123 254q0 94 38.5 178t112 150.5t193.5 105.5t272 39q119 0 219 -24.5 t179.5 -74.5t126.5 -134t53 -197q1 -7 -7 -15.5t-16 -8.5h-276q-11 0 -19 7t-8 17q-8 88 -81 141.5t-191 53.5q-117 0 -194 -48.5t-77 -125.5q0 -97 125 -137q54 -18 271 -82q142 -42 272 -121q123 -79 123 -254q0 -96 -40 -183.5t-116 -157.5t-198 -111.5t-273 -41.5 q-107 0 -203 19.5t-176.5 59.5t-138.5 97.5t-89 138.5q-28 74 -28 160v17z" />
<glyph unicode="T" horiz-adv-x="1171" d="M131 1227l41 182q1 10 10.5 17.5t20.5 7.5h1097q7 0 14 -8.5t5 -16.5l-41 -182q-1 -10 -10.5 -17.5t-20.5 -7.5h-385l-129 -485l-141 -692q-1 -10 -9.5 -17.5t-19.5 -7.5h-282q-7 0 -14 8.5t-5 16.5l178 692l97 485h-387q-7 0 -14 8.5t-5 16.5z" />
<glyph unicode="U" horiz-adv-x="1316" d="M41 532l92 390l103 487q2 11 10 18t18 7h283q7 0 13.5 -8.5t4.5 -16.5l-123 -479l-88 -395q-15 -67 -15 -120q-1 -72 27 -118q48 -80 193 -80q279 0 352 318l88 389l105 485q1 10 10.5 17.5t20.5 7.5h251q7 0 14 -8.5t5 -16.5l-121 -487l-90 -390q-65 -281 -227 -422 t-453 -141q-272 -1 -403 153q-89 105 -89 258q0 71 19 152z" />
<glyph unicode="V" horiz-adv-x="1310" d="M152 1409q0 8 7.5 16.5t14.5 8.5h279q22 0 26 -25l66 -1188l608 1190q10 23 35 23h276q8 0 12.5 -8t0.5 -15l-766 -1388q-13 -23 -37 -23h-359q-11 0 -18.5 7.5t-7.5 17.5z" />
<glyph unicode="W" horiz-adv-x="1875" d="M160 1409q0 8 8.5 16.5t15.5 8.5h254q8 0 16.5 -9t8.5 -16l-43 -1143l477 1145q14 23 35 23h313q7 0 16 -9t9 -16l-47 -1167l495 1169q14 23 35 23h266q7 0 12 -7.5t3 -15.5l-654 -1388q-10 -23 -34 -23h-328q-8 0 -16.5 9t-8.5 16l-2 976l-428 -978q-14 -23 -35 -23 h-338q-7 0 -15.5 8.5t-8.5 16.5z" />
<glyph unicode="X" horiz-adv-x="1282" d="M-170 6q-3 6 2 12l641 742l-280 651q-4 7 1 15t13 8h305q10 0 20.5 -7.5t12.5 -15.5l164 -420l325 422q17 21 39 21h326q7 0 10 -6.5t-2 -12.5l-588 -680l301 -712q4 -7 -1 -15t-13 -8h-303q-10 0 -20.5 7.5t-12.5 15.5l-182 489l-383 -494q-14 -18 -39 -18h-326 q-7 0 -10 6z" />
<glyph unicode="Y" horiz-adv-x="1257" d="M160 1409q-2 8 4.5 16.5t13.5 8.5h285q11 0 20.5 -7.5t10.5 -17.5l149 -637l434 641q17 21 39 21h299q7 0 11 -7.5t-1 -13.5l-698 -921l-96 -467q-1 -10 -9.5 -17.5t-19.5 -7.5h-276q-7 0 -14 8.5t-5 16.5l123 467z" />
<glyph unicode="Z" horiz-adv-x="1200" d="M-127 25l45 204q3 19 25 41l958 932h-678q-7 0 -13.5 8.5t-4.5 16.5l41 182q1 10 10 17.5t20 7.5h1029q7 0 13.5 -8.5t4.5 -16.5l-47 -213q-3 -19 -25 -41l-946 -924h725q7 0 14 -8t5 -16l-41 -182q-1 -10 -10.5 -17.5t-20.5 -7.5h-1086q-7 0 -13.5 8.5t-4.5 16.5z" />
<glyph unicode="[" horiz-adv-x="614" d="M-154 -262l400 1732q1 10 10 17.5t20 7.5h422q7 0 14 -8.5t5 -16.5l-43 -182q-1 -10 -10.5 -17t-20.5 -7h-180l-303 -1319h180q7 0 13.5 -8.5t4.5 -16.5l-41 -182q-1 -10 -10 -17.5t-20 -7.5h-422q-7 0 -14 8.5t-5 16.5z" />
<glyph unicode="\" horiz-adv-x="743" d="M49 1470q-2 8 5 16.5t14 8.5h176q11 0 20 -7.5t10 -17.5l422 -1732q2 -8 -4.5 -16.5t-13.5 -8.5h-176q-11 0 -20.5 7.5t-10.5 17.5z" />
<glyph unicode="]" horiz-adv-x="614" d="M-154 -262l41 182q1 10 10.5 17.5t20.5 7.5h180l303 1319h-180q-7 0 -13.5 8t-4.5 16l43 182q1 10 10 17.5t20 7.5h422q7 0 14 -8.5t5 -16.5l-400 -1732q-1 -10 -10 -17.5t-20 -7.5h-422q-7 0 -14 8.5t-5 16.5z" />
<glyph unicode="^" horiz-adv-x="1126" d="M-25.5 478.5q-3.5 7.5 0.5 13.5l623 921q17 21 39 21h178q11 0 20.5 -7.5t10.5 -17.5l196 -913q2 -8 -4.5 -16.5t-13.5 -8.5h-172q-11 0 -19.5 7.5t-9.5 17.5l-135 702l-459 -706q-17 -21 -39 -21h-204q-8 0 -11.5 7.5z" />
<glyph unicode="_" horiz-adv-x="845" d="M-217 -324l37 164q1 10 10 17.5t20 7.5h750q7 0 13.5 -8.5t4.5 -16.5l-36 -164q-1 -10 -10.5 -17t-20.5 -7h-750q-7 0 -13.5 8t-4.5 16z" />
<glyph unicode="`" horiz-adv-x="1024" d="M242 1323l65 182q2 8 13 12.5t18 0.5l512 -211q7 -4 11.5 -14.5t2.5 -18.5l-41 -98q-2 -8 -12 -13t-20 -4l-533 135q-7 1 -12.5 11t-3.5 18z" />
<glyph unicode="a" horiz-adv-x="1128" d="M-4 256q0 61 15.5 110.5t40 84.5t65.5 63.5t79.5 45.5t96 31.5t101 22t106.5 15.5q156 20 221 47t65 82q0 40 -44 67t-119 27q-139 0 -179 -94q-10 -23 -34 -23h-256q-8 0 -14 8t-5 15q50 152 185.5 237.5t316.5 85.5q199 0 315.5 -87.5t116.5 -245.5q0 -43 -14 -111 l-45 -201l-88 -411q-1 -10 -10.5 -17.5t-20.5 -7.5h-242q-7 0 -13.5 8.5t-4.5 16.5l31 106q-65 -78 -154 -118t-189 -40q-142 0 -232.5 77.5t-90.5 205.5zM303 285q0 -109 131 -109q106 2 181.5 69t101.5 187l16 74q-67 -35 -227 -62q-203 -34 -203 -159z" />
<glyph unicode="b" d="M-86 25l170 692l149 692q1 10 10.5 17.5t20.5 7.5h264q7 0 14 -8.5t5 -16.5l-107 -444q123 110 285 110q141 0 240.5 -80.5t133.5 -220.5q15 -63 15 -137q0 -88 -22 -191q-21 -93 -61 -173.5t-100.5 -148t-149.5 -106t-195 -38.5q-117 0 -204.5 48t-131.5 138l-27 -141 q-2 -11 -10 -18t-18 -7h-263q-7 0 -13.5 8.5t-4.5 16.5zM340 580q-20 -87 -20 -156q0 -80 28 -136q50 -104 170 -104q199 0 264 297q20 86 20 155q0 78 -26 132q-50 102 -170 102q-98 0 -166 -74t-100 -216z" />
<glyph unicode="c" horiz-adv-x="1116" d="M-6 416q0 295 175.5 480t453.5 185q199 -1 319 -101q117 -97 117 -264v-11q0 -8 -8.5 -16.5t-18.5 -8.5h-241q-8 0 -16.5 7.5t-8.5 17.5q0 167 -170 167q-98 0 -165.5 -66t-97.5 -170.5t-30 -238.5q0 -219 182 -219q77 0 137.5 53.5t84.5 149.5q2 11 10 18t18 7h248 q7 0 13.5 -8.5t4.5 -16.5q-47 -179 -186 -291q-141 -117 -354 -117q-210 0 -338 119q-129 120 -129 324z" />
<glyph unicode="d" d="M16 280q-15 63 -15 137q0 88 22 191q21 93 60.5 174t100 148t149.5 106t195 39q111 0 196 -44t132 -128l111 506q1 10 10 17.5t20 7.5h265q7 0 13.5 -8.5t4.5 -16.5l-168 -692l-149 -692q-1 -10 -10.5 -17.5t-20.5 -7.5h-264q-7 0 -14 8.5t-5 16.5l17 57 q-117 -102 -277 -102q-141 0 -240 80t-133 220zM332 573q-20 -86 -20 -155q0 -80 26 -134q49 -101 165 -100h5h4q190 0 262 291q17 84 17 151q-1 78 -23 132q-42 102 -145 110q-10 2 -52 2q-177 -15 -239 -297z" />
<glyph unicode="e" horiz-adv-x="1165" d="M-8 422q0 95 22 186t71.5 177.5t121.5 151.5t180.5 104.5t239.5 39.5q261 0 385 -160q83 -107 83 -264q0 -78 -20 -168q-1 -10 -10.5 -17t-20.5 -7h-749v-41q0 -123 45.5 -184.5t142.5 -61.5q189 0 244 154q3 24 33 24h244q7 0 13.5 -8t4.5 -16q-21 -73 -64.5 -136 t-110.5 -113.5t-164 -80t-214 -29.5q-234 0 -355.5 123.5t-121.5 325.5zM332 659h450q5 22 5 44q0 60 -38 109q-51 67 -151 67q-94 0 -161.5 -59t-104.5 -161z" />
<glyph unicode="f" horiz-adv-x="817" d="M37 25l113 440l86 373h-136q-7 0 -13.5 8t-4.5 16l39 168q1 10 10.5 17.5t20.5 7.5h135l16 69q19 87 63 152.5t102.5 103t122.5 56t132 18.5q80 0 178 -16q7 -1 14 -11t5 -18l-37 -166q-1 -10 -10.5 -15t-20.5 -3q-45 10 -109 10q-114 0 -147 -139l-10 -41h229 q7 0 14 -8.5t5 -16.5l-39 -168q-1 -10 -10.5 -17t-20.5 -7h-227l-84 -373l-93 -440q-2 -11 -10 -18t-18 -7h-277q-7 0 -13.5 8.5t-4.5 16.5z" />
<glyph unicode="g" horiz-adv-x="1193" d="M-92 -76q0 8 8 16.5t18 8.5h252q26 0 29 -25q12 -62 65 -96.5t130 -34.5q203 0 260 240l22 96q-133 -123 -303 -123q-142 0 -242.5 77t-134.5 213q-16 61 -16 133q0 86 22 185q22 93 62.5 173t101.5 146t150 104t196 38q111 0 197 -46.5t133 -133.5l25 135q2 11 10 18 t18 7h258q7 0 14 -8.5t5 -16.5l-127 -518l-105 -483q-46 -208 -189.5 -323.5t-393.5 -115.5h-20q-120 0 -217 32q-106 36 -170 114q-58 72 -58 172v16zM328 580q-20 -81 -20 -145q0 -76 28 -129q49 -95 167 -95h5h4q176 0 250 238q1 7 16 71q10 60 10 111q0 77 -24 132 q-39 91 -129 105q-3 0 -31 1t-33 1q-183 -15 -243 -290z" />
<glyph unicode="h" horiz-adv-x="1155" d="M-82 25l121 481l199 903q1 10 10 17.5t20 7.5h262q7 0 14 -8.5t5 -16.5l-121 -477q147 147 328 147q182 -1 268 -109q56 -72 56 -179q0 -56 -15 -121l-47 -221l-92 -424q-1 -10 -10.5 -17.5t-20.5 -7.5h-262q-7 0 -14 8.5t-5 16.5l107 424l49 217q7 29 7 55q0 49 -26 83 q-39 50 -122 50t-166 -86t-119 -242l-16 -77l-95 -424q-1 -10 -10 -17.5t-20 -7.5h-266q-7 0 -14 8.5t-5 16.5z" />
<glyph unicode="i" horiz-adv-x="487" d="M-76 25l125 501l107 504q1 10 10 17.5t20 7.5h269q7 0 13.5 -8.5t4.5 -16.5l-127 -504l-106 -501q-1 -10 -9.5 -17.5t-19.5 -7.5h-268q-7 0 -14 8.5t-5 16.5zM195 1182l53 227q1 10 10.5 17.5t20.5 7.5h262q7 0 13.5 -8.5t4.5 -16.5l-53 -227q-1 -10 -10.5 -17.5 t-20.5 -7.5h-262q-7 0 -13.5 8.5t-4.5 16.5z" />
<glyph unicode="j" horiz-adv-x="487" d="M-354 -324l39 166q1 7 10.5 13t17.5 4q1 0 27.5 -4.5t42.5 -4.5q53 0 86 31.5t53 108.5l92 372l142 668q1 10 10 17.5t20 7.5h271q7 0 13.5 -8.5t4.5 -16.5l-166 -668l-86 -401q-18 -86 -61.5 -152t-103 -103.5t-123.5 -56t-132 -18.5q-29 0 -139 17q-8 2 -13.5 10 t-4.5 18zM195 1182l53 227q1 10 10.5 17.5t20.5 7.5h262q7 0 13.5 -8.5t4.5 -16.5l-53 -227q-1 -10 -10.5 -17.5t-20.5 -7.5h-262q-7 0 -13.5 8.5t-4.5 16.5z" />
<glyph unicode="k" horiz-adv-x="1058" d="M-86 25l172 692l147 692q1 10 9.5 17.5t19.5 7.5h262q7 0 14 -8.5t5 -16.5l-170 -686l-4 -16l342 331q17 17 43 17h329q6 0 8.5 -6.5t-1.5 -10.5l-408 -362l225 -653q2 -8 -3.5 -15.5t-12.5 -7.5h-266q-11 0 -20.5 7.5t-10.5 17.5l-57 196l-88 262l-160 -155l-66 -303 q-1 -10 -10 -17.5t-20 -7.5h-261q-7 0 -13.5 8.5t-4.5 16.5z" />
<glyph unicode="l" horiz-adv-x="479" d="M-76 25l172 692l148 692q1 10 10 17.5t20 7.5h261q7 0 13.5 -8.5t4.5 -16.5l-172 -692l-148 -692q-1 -10 -10 -17.5t-20 -7.5h-260q-7 0 -14 8.5t-5 16.5z" />
<glyph unicode="m" horiz-adv-x="1708" d="M-86 25l92 354l144 651q1 10 10 17.5t20 7.5h252q7 0 14 -8.5t5 -16.5l-31 -108q75 79 147 118t164 39q103 0 172.5 -50.5t93.5 -139.5q86 105 168 147.5t174 42.5q169 1 247 -113q50 -74 51 -177q0 -56 -15 -119l-66 -291l-75 -354q-1 -10 -9.5 -17.5t-19.5 -7.5h-270 q-7 0 -14 8.5t-5 16.5l94 354l66 287q9 39 9 70q0 39 -14 67q-24 51 -79 51q-76 0 -156 -83.5t-116 -227.5l-37 -164l-74 -354q-1 -10 -9.5 -17.5t-19.5 -7.5h-268q-7 0 -13.5 8.5t-4.5 16.5l92 354l67 287q9 38 9 70q0 39 -14 67q-25 51 -83 51q-67 0 -151 -84 q-83 -83 -121 -244l-33 -147l-71 -354q-1 -10 -9.5 -17.5t-19.5 -7.5h-275q-7 0 -13.5 8.5t-4.5 16.5z" />
<glyph unicode="n" horiz-adv-x="1155" d="M-82 25l121 481l115 524q1 10 10 17.5t20 7.5h248q7 0 14 -8.5t5 -16.5l-31 -108q157 157 336 157q182 -1 268 -109q56 -72 56 -179q0 -56 -15 -121l-49 -221l-90 -424q-1 -10 -10.5 -17.5t-20.5 -7.5h-262q-7 0 -14 8.5t-5 16.5l105 424l51 217q7 29 7 53q0 50 -27 84 q-40 51 -121 51q-85 0 -167 -85.5t-118 -242.5l-18 -77l-93 -424q-1 -10 -10 -17.5t-20 -7.5h-266q-7 0 -14 8.5t-5 16.5z" />
<glyph unicode="o" horiz-adv-x="1175" d="M-6 418q0 295 173.5 479t444.5 184q214 0 348 -120.5t134 -321.5q0 -189 -78.5 -341.5t-219.5 -238.5t-317 -86q-213 0 -349 121.5t-136 323.5zM303 397q0 -108 49 -163.5t137 -55.5q132 0 211.5 123t79.5 350q0 110 -49 168t-135 58q-132 0 -212.5 -127.5t-80.5 -352.5z " />
<glyph unicode="p" d="M-166 -324l182 752l129 602q1 10 10.5 17.5t20.5 7.5h262q7 0 14 -8.5t5 -16.5l-19 -65q123 110 287 110q141 0 240.5 -80.5t133.5 -220.5q15 -63 15 -137q0 -88 -22 -191q-21 -93 -61 -173.5t-100.5 -148t-149.5 -106t-195 -38.5q-111 0 -197 45.5t-133 130.5l-104 -480 q-1 -10 -10.5 -17t-20.5 -7h-268q-7 0 -14 8t-5 16zM340 580q-20 -87 -20 -156q0 -81 28 -136q50 -104 170 -104q199 0 264 297q20 86 20 155q0 78 -26 132q-50 102 -170 102q-98 0 -166 -74t-100 -216z" />
<glyph unicode="q" d="M16 280q-15 64 -15 137q0 88 22 191q21 93 60.5 174t100 148t149.5 106t195 39q111 0 197 -45t133 -129l25 129q2 11 10 18t18 7h263q7 0 13.5 -8.5t4.5 -16.5l-164 -672l-147 -682q-1 -10 -10.5 -17t-20.5 -7h-264q-7 0 -14 8t-5 16l97 404q-121 -100 -275 -100 q-141 0 -240 80.5t-133 219.5zM332 573q-20 -86 -20 -155q0 -79 26 -134q49 -100 165 -100h5h4q190 0 262 291q17 84 17 151q0 77 -23 132q-42 102 -145 110q-10 2 -52 2q-177 -15 -239 -297z" />
<glyph unicode="r" horiz-adv-x="811" d="M-86 25l125 503l106 502q1 10 10.5 17.5t20.5 7.5h258q7 0 14 -8.5t5 -16.5l-41 -153q81 91 184 138.5t215 47.5q19 0 39 -4q8 -1 14 -10t4 -17l-41 -180q-3 -23 -30 -23q-10 2 -31 2q-94 0 -185 -43.5t-161 -127.5t-94 -191l-101 -444q-1 -10 -10 -17.5t-20 -7.5h-263 q-7 0 -13.5 8.5t-4.5 16.5z" />
<glyph unicode="s" horiz-adv-x="1099" d="M-43 330q2 8 11 16t16 8h249q10 0 17.5 -6.5t9.5 -17.5q1 -77 64.5 -120.5t169.5 -43.5q83 0 125.5 35t42.5 88q0 65 -93 92q-119 35 -200 61q-116 37 -201 97q-92 65 -92 200q0 64 31 124t90 108.5t155 78t215 29.5q127 0 229 -34q103 -33 169 -109q63 -72 63 -173v-9 q0 -8 -8.5 -16.5t-18.5 -8.5h-235q-11 0 -19 7.5t-8 17.5q-5 65 -52 102t-136 37q-82 0 -124 -36.5t-42 -86.5q0 -63 92 -90q63 -19 199 -57q111 -35 201 -93q90 -59 90 -188q0 -156 -136 -262q-135 -105 -356 -105q-151 0 -271.5 44.5t-187.5 126.5q-60 73 -60 162 q0 11 1 22z" />
<glyph unicode="t" horiz-adv-x="749" d="M55 862l39 168q1 10 10.5 17.5t20.5 7.5h111l51 239q1 10 10 17.5t20 7.5h267q7 0 13.5 -8.5t4.5 -16.5l-59 -239h227q7 0 13.5 -8.5t4.5 -16.5l-38 -168q-1 -10 -10.5 -17t-20.5 -7h-227l-119 -521q-7 -27 -7 -47q0 -28 14 -44q22 -27 77 -27q52 0 118 16q8 2 14 -4.5 t5 -13.5l-35 -154q-2 -8 -12 -19t-17 -12q-112 -32 -194 -32q-69 0 -125 18t-98 58q-43 40 -55 102q-5 26 -5 57q0 42 10 94l123 529h-112q-7 0 -14 8t-5 16z" />
<glyph unicode="u" horiz-adv-x="1155" d="M0 385l47 221l92 424q1 10 10.5 17.5t20.5 7.5h260q7 0 14 -8.5t5 -16.5l-105 -424l-49 -217q-7 -29 -7 -55q0 -48 26 -82q39 -50 122 -50.5t166 85t119 241.5l16 78l94 424q1 10 10.5 17.5t20.5 7.5h264q7 0 14 -8.5t5 -16.5l-121 -481l-113 -524q-1 -10 -10 -17.5 t-20 -7.5h-248q-7 0 -14 8.5t-5 16.5l31 108q-158 -158 -336 -158q-181 0 -267 109q-56 72 -57 180q0 56 15 121z" />
<glyph unicode="v" horiz-adv-x="1067" d="M59 1030q0 8 8 16.5t15 8.5h252q22 0 26 -25l41 -784l430 786q13 23 37 23h271q8 0 12 -7.5t0 -13.5l-590 -1018q-16 -20 -37 -20h-323q-11 0 -19 7t-8 17z" />
<glyph unicode="w" horiz-adv-x="1480" d="M55 25l11 1005q0 11 7 18t17 7h229q8 0 16 -9t7 -16l-63 -790l325 792q14 23 35 23h322q8 0 15.5 -9t6.5 -16l-37 -772l301 774q2 8 12.5 15.5t20.5 7.5h266q7 0 12 -7.5t3 -15.5l-455 -1009q-10 -23 -35 -23h-313q-8 0 -16.5 9t-8.5 16l17 782l-324 -784 q-14 -23 -35 -23h-311q-8 0 -16.5 9t-8.5 16z" />
<glyph unicode="x" horiz-adv-x="1003" d="M-177 6q-3 6 3 12l463 568l-211 446q-2 8 2.5 15.5t11.5 7.5h270q21 0 35 -23l123 -291l213 293q17 21 39 21h285q8 0 11 -6.5t-3 -12.5l-428 -526l209 -487q4 -7 -1.5 -15t-13.5 -8h-272q-10 0 -20.5 7.5t-12.5 15.5l-120 311l-240 -314q-16 -20 -39 -20h-293 q-8 0 -11 6z" />
<glyph unicode="y" horiz-adv-x="1046" d="M41 -328l197 346l-175 1012q-1 7 6 16t15 9h262q11 0 19 -7.5t8 -17.5l80 -663l344 665q13 23 37 23h288q8 0 12.5 -7.5t0.5 -13.5l-781 -1362q-16 -20 -37 -20h-264q-8 0 -12 7t0 13z" />
<glyph unicode="z" horiz-adv-x="1030" d="M-90 25l39 168q3 19 24 40l611 605h-418q-7 0 -14 8t-5 16l37 168q1 10 10.5 17.5t20.5 7.5h768q7 0 13.5 -8.5t4.5 -16.5l-38 -172q-3 -19 -25 -41l-616 -600h499q7 0 14 -8t5 -16l-39 -168q-1 -10 -10.5 -17.5t-20.5 -7.5h-842q-7 0 -13.5 8.5t-4.5 16.5z" />
<glyph unicode="{" horiz-adv-x="614" d="M-63.5 21q19.5 88 77.5 184l84 137q32 55 37 100q3 25 -10.5 37.5t-44.5 12.5h-37q-7 0 -13.5 8t-4.5 16l26 115l15 61q1 10 10 17.5t20 7.5h37q56 0 75.5 43t10.5 106l-22 164q-16 129 37.5 236t161 168t245.5 61h78q7 0 13.5 -8.5t4.5 -16.5l-43 -182q-1 -10 -10 -17 t-20 -7h-76q-71 0 -105.5 -58t-21.5 -176l22 -164q8 -82 -36.5 -155t-147.5 -109q90 -41 96 -117q6 -81 -33 -143l-83 -139q-54 -90 -67.5 -149.5t7 -84t66.5 -24.5h75q7 0 14 -8.5t5 -16.5l-41 -182q-1 -10 -10.5 -17.5t-20.5 -7.5h-78q-121 0 -195 41t-95.5 110t-2 157z " />
<glyph unicode="|" horiz-adv-x="409" d="M-133 -262l397 1732q1 10 10.5 17.5t20.5 7.5h176q7 0 13.5 -8.5t4.5 -16.5l-397 -1732q-1 -10 -10.5 -17.5t-20.5 -7.5h-176q-7 0 -13.5 8.5t-4.5 16.5z" />
<glyph unicode="}" horiz-adv-x="614" d="M-154 -262l41 182q1 10 10.5 17.5t20.5 7.5h76q72 0 108 62.5t17 195.5l-19 139q-9 64 31 143q40 76 152 117q-60 24 -84 69t-16.5 94t38.5 101l96 164q47 79 57.5 133t-10 77.5t-67.5 23.5h-76q-7 0 -13.5 8t-4.5 16l43 182q1 10 10 17.5t20 7.5h78q138 0 218.5 -62.5 t83 -165.5t-73.5 -237l-97 -164q-32 -49 -39 -100q-6 -49 56 -49h37q7 0 13.5 -8.5t4.5 -16.5l-27 -114l-14 -62q-1 -10 -10.5 -17t-20.5 -7h-36q-38 0 -60 -24t-24.5 -57t0.5 -69l18 -137q13 -97 -8.5 -184.5t-74 -156.5t-145 -110t-212.5 -41h-78q-7 0 -14 8.5t-5 16.5z " />
<glyph unicode="~" horiz-adv-x="1126" d="M23 590q39 211 139.5 337t259.5 126q54 0 97.5 -15t71.5 -38.5t50 -52.5t37.5 -57.5t30 -52t32.5 -38.5t39 -15q61 0 100 62.5t52 165.5q3 24 26 24h168q8 0 15 -8.5t6 -15.5q-38 -209 -136.5 -326t-252.5 -117q-52 0 -95 15t-70.5 38.5t-50 52.5t-40 57.5t-34 52 t-37.5 38.5t-46 15q-58 0 -95.5 -67t-51.5 -181q-4 -25 -27 -25h-168q-7 0 -14 8.5t-6 16.5z" />
<glyph unicode="&#xa1;" horiz-adv-x="477" d="M-160 -354l221 968q1 10 10.5 17.5t20.5 7.5h256q7 0 14 -8.5t5 -16.5l-222 -968q-1 -10 -10 -17.5t-20 -7.5h-256q-7 0 -14 8.5t-5 16.5zM102 784l56 246q1 10 10 17.5t20 7.5h256q7 0 14 -8.5t5 -16.5l-55 -246q-1 -10 -10.5 -17t-20.5 -7h-256q-7 0 -14 8t-5 16z" />
<glyph unicode="&#xa2;" horiz-adv-x="1155" d="M49 621q0 263 146 444q144 178 376 213l29 131q1 10 10.5 17.5t20.5 7.5h262q7 0 13.5 -8.5t4.5 -16.5l-34 -156q113 -39 177 -129t60 -215q0 -8 -8.5 -16t-18.5 -8h-241q-8 0 -16.5 7t-8.5 17q0 168 -170 168q-98 0 -165.5 -66t-97.5 -170.5t-30 -238.5q0 -219 183 -219 q77 0 137 53.5t84 149.5q1 10 9.5 17t19.5 7h247q7 0 14 -8t5 -16q-39 -155 -151 -262t-275 -136l-37 -163q-1 -10 -10.5 -17.5t-20.5 -7.5h-262q-7 0 -13.5 8.5t-4.5 16.5l43 184q-130 45 -203.5 152.5t-73.5 259.5z" />
<glyph unicode="&#xa3;" horiz-adv-x="1257" d="M-121 25l39 172q1 10 10.5 19t20.5 11l39 11q78 19 120 71t64 129q20 72 16 211h-178q-7 0 -13.5 8.5t-4.5 16.5l37 162q1 10 10 17t20 7h125q3 94 19 176q45 194 191.5 311t379.5 117q108 0 196.5 -26t155 -78t98 -138.5t19.5 -199.5q0 -8 -8 -16.5t-18 -8.5h-256 q-8 0 -15.5 7.5t-7.5 17.5q8 98 -38.5 150.5t-143.5 52.5q-93 0 -155 -56.5t-77 -132.5q-16 -68 -20 -176h272q7 0 14 -8t5 -16l-37 -162q-1 -10 -10.5 -17.5t-20.5 -7.5h-223q-4 -97 -21 -168q-15 -73 -75.5 -145t-153.5 -105l350 -10q60 -1 103.5 16t72 53t46.5 78.5 t34 106.5q1 10 10.5 17.5t20.5 7.5h262q7 0 13.5 -8.5t4.5 -16.5q-66 -263 -200 -381t-355 -112l-718 18q-7 0 -14 8.5t-5 16.5z" />
<glyph unicode="&#xa4;" horiz-adv-x="1187" d="M-23.5 305q0.5 11 7.5 17l229 188q-37 75 -37 172q0 158 92 270l-121 156q-6 8 -4.5 19.5t9.5 17.5l116 106q8 6 18 5t15 -7l135 -174q84 35 189 35q132 0 233 -63l229 184q8 7 18.5 6.5t16.5 -8.5l97 -103q6 -7 5.5 -17.5t-7.5 -16.5l-230 -185q45 -85 45 -184 q0 -156 -94 -274l94 -123q6 -7 4.5 -19t-8.5 -18l-115 -109q-18 -14 -32 4l-111 146q-87 -35 -186 -35q-132 0 -246 72l-227 -187q-8 -7 -18.5 -6.5t-16.5 8.5l-94 105q-6 7 -5.5 18zM387 682q0 -94 55.5 -155.5t141.5 -61.5q104 0 170.5 73.5t66.5 184.5q0 94 -55 155.5 t-141 61.5q-104 0 -171 -73.5t-67 -184.5z" />
<glyph unicode="&#xa5;" horiz-adv-x="1257" d="M39 238l35 157q1 10 10 17.5t20 7.5h306l32 131h-307q-7 0 -13.5 8t-4.5 16l35 158q1 10 10 17.5t20 7.5h217l-237 653q-2 8 3.5 15.5t12.5 7.5h273q11 0 20 -7.5t10 -17.5l168 -582l426 586q17 21 39 21h297q7 0 10 -6.5t-2 -12.5l-540 -657h217q7 0 13.5 -8.5 t4.5 -16.5l-35 -158q-1 -10 -10 -17t-20 -7h-310l-26 -131h305q7 0 13.5 -8.5t4.5 -16.5l-35 -157q-1 -10 -10 -17.5t-20 -7.5h-301l-39 -188q-1 -10 -9.5 -17.5t-19.5 -7.5h-276q-7 0 -14 8.5t-5 16.5l49 188h-299q-7 0 -13.5 8.5t-4.5 16.5z" />
<glyph unicode="&#xa6;" horiz-adv-x="409" d="M-133 -262l162 708q1 10 10 17.5t20 7.5h177q7 0 13.5 -8.5t4.5 -16.5l-162 -708q-1 -10 -10.5 -17.5t-20.5 -7.5h-176q-7 0 -13.5 8.5t-4.5 16.5zM102 762l162 708q1 10 10.5 17.5t20.5 7.5h176q7 0 13.5 -8.5t4.5 -16.5l-161 -708q-1 -10 -10.5 -17.5t-20.5 -7.5h-176 q-7 0 -14 8.5t-5 16.5z" />
<glyph unicode="&#xa7;" horiz-adv-x="1298" d="M-94 -31q2 8 10.5 16.5t15.5 8.5h250q10 0 17.5 -7t7.5 -18q1 -97 81.5 -151t215.5 -54q117 0 173 49.5t56 135.5q0 75 -110 112q-14 4 -103 32t-141 44q-134 41 -244 111t-110 213q0 100 70.5 185.5t207.5 137.5q-141 88 -141 244q0 79 34.5 150.5t101 128t174.5 90 t243 33.5q104 0 197.5 -20.5t167.5 -59.5t116.5 -102.5t40.5 -143.5q0 -8 -8.5 -16.5t-18.5 -8.5h-235q-11 0 -19 7.5t-8 17.5q-17 139 -250 139q-114 0 -170.5 -50t-56.5 -134q0 -77 111 -111q14 -4 241 -74q134 -41 242 -104q111 -65 111 -201q0 -116 -69.5 -210.5 t-191.5 -145.5q123 -81 123 -211q0 -188 -151 -309q-149 -119 -402 -119q-169 0 -304.5 49t-210.5 140t-64 206zM334 506q0 -35 21.5 -62t79 -51.5t91 -35.5t121.5 -36q18 -5 27 -8q86 17 141 69.5t55 113.5q0 24 -10.5 44t-33.5 37t-46.5 30t-64 26.5t-69.5 22.5t-79 23 q-7 2 -11 3t-10 3t-11 3q-91 -23 -146 -74t-55 -108z" />
<glyph unicode="&#xa8;" horiz-adv-x="1024" d="M299 1212l53 228q1 10 10.5 17t20.5 7h201q7 0 13.5 -8t4.5 -16l-53 -228q-1 -10 -10.5 -17t-20.5 -7h-201q-7 0 -13.5 8t-4.5 16zM723 1212l53 228q1 10 10.5 17t20.5 7h201q7 0 13.5 -8t4.5 -16l-53 -228q-1 -10 -10.5 -17t-20.5 -7h-201q-7 0 -13.5 8t-4.5 16z" />
<glyph unicode="&#xa9;" horiz-adv-x="1542" d="M47 713q0 341 197 546t526 205t527 -203t198 -548q0 -217 -89.5 -386t-255 -263.5t-380.5 -94.5q-216 0 -381 94.5t-253.5 263t-88.5 386.5zM184 713q0 -291 154.5 -459t433.5 -168t432.5 167t153.5 460q0 294 -153.5 464.5t-434.5 170.5q-284 0 -435 -168t-151 -467z M336 715q0 214 123 346q122 131 325 131q74 0 136.5 -16.5t116 -52t92 -96t57.5 -144.5q2 -8 -5 -16.5t-14 -8.5h-141q-12 0 -22 7.5t-11 17.5q-42 157 -211 157q-116 0 -179.5 -85t-63.5 -238t63 -236.5t178 -83.5q177 0 219 181q1 10 9.5 17t19.5 7h148q8 0 14.5 -8.5 t5.5 -15.5q-40 -173 -143 -251.5t-267 -78.5q-208 0 -327 131q-123 132 -123 336z" />
<glyph unicode="&#xaa;" horiz-adv-x="933" d="M117.5 905q-9.5 77 13.5 164q42 168 145 274q105 111 263 111q148 0 221 -88l8 43q1 10 9.5 17.5t19.5 7.5h219q7 0 13.5 -8.5t4.5 -16.5l-86 -350l-80 -369q-1 -10 -10 -17t-20 -7h-222q-7 0 -11.5 6t-2.5 14l6 25q-91 -66 -221 -66q-79 0 -138.5 34t-90.5 91.5 t-40.5 134.5zM402 875.5q28 -68.5 104 -66.5q68 0 114.5 54.5t75.5 174.5q27 114 -2 182.5t-108 69.5q-66 2 -111.5 -53.5t-71.5 -171.5q-29 -121 -1 -189.5z" />
<glyph unicode="&#xab;" horiz-adv-x="1107" d="M-5 529.5q1 11.5 7 19.5l369 369q18 18 41 18h223q7 0 10 -6t-2 -12l-403 -406l223 -354q2 -7 -1.5 -14t-10.5 -7h-205q-20 0 -37 21l-211 352q-4 8 -3 19.5zM460 529.5q1 11.5 7 19.5l369 369q18 18 41 18h225q7 0 10 -6t-2 -12l-405 -406l225 -354q2 -7 -1.5 -14 t-10.5 -7h-205q-20 0 -37 21l-213 352q-4 8 -3 19.5z" />
<glyph unicode="&#xac;" horiz-adv-x="1167" d="M82 616l39 179q1 10 10.5 17t20.5 7h913q7 0 13.5 -8t4.5 -16l-45 -203l-88 -383q-1 -10 -10 -17.5t-20 -7.5h-187q-7 0 -13.5 8.5t-4.5 16.5l88 383h-703q-7 0 -13.5 8t-4.5 16z" />
<glyph unicode="&#xae;" horiz-adv-x="804" d="M133 1090q0 167 97.5 267.5t258.5 100.5t258 -99.5t97 -268.5q0 -159 -96 -263q-99 -102 -259 -102q-159 0 -258 102q-98 101 -98 263zM215 1090q0 -136 72 -213.5t202 -77.5q128 0 200.5 77.5t72.5 213.5t-72 215t-201 79q-133 0 -203.5 -77.5t-70.5 -216.5zM315 918 v352q0 7 8.5 15.5t16.5 8.5h143q83 0 128.5 -32t45.5 -93q0 -86 -90 -114l90 -142q5 -6 1 -13t-11 -7h-72q-20 0 -36 20l-41 70l-41 59h-37v-124q0 -8 -9 -16.5t-16 -8.5h-55q-8 0 -16.5 8.5t-8.5 16.5zM420 1114h67q28 0 48 14t20 39q0 26 -18.5 40t-51.5 14h-65v-107z" />
<glyph unicode="&#xaf;" horiz-adv-x="1024" d="M301 1212l35 156q1 10 10.5 17.5t20.5 7.5h620q7 0 14 -8.5t5 -16.5l-35 -156q-1 -10 -10.5 -17t-20.5 -7h-621q-7 0 -13.5 8t-4.5 16z" />
<glyph unicode="&#xb0;" horiz-adv-x="753" d="M121 1128q0 141 100 234q100 92 246 92q145 0 248 -92q98 -94 98 -234t-98 -231q-101 -94 -248 -94q-148 0 -246 94q-100 90 -100 231zM332 1128q0 -74 37 -114.5t98 -40.5q59 0 97 41t38 114t-38 114.5t-97 41.5q-61 0 -98 -41t-37 -115z" />
<glyph unicode="&#xb1;" horiz-adv-x="1126" d="M-74 25l39 178q1 10 10.5 17t20.5 7h913q7 0 14 -8t5 -16l-39 -178q-1 -10 -10.5 -17.5t-20.5 -7.5h-913q-7 0 -14 8.5t-5 16.5zM82 698l39 179q1 10 10.5 17t20.5 7h340l88 385q1 10 10 17.5t20 7.5h187q7 0 13.5 -8.5t4.5 -16.5l-88 -385h338q7 0 13.5 -8t4.5 -16 l-39 -179q-1 -10 -10 -17t-20 -7h-338l-88 -383q-1 -10 -10.5 -17.5t-20.5 -7.5h-186q-7 0 -14 8.5t-5 16.5l88 383h-340q-7 0 -13.5 8t-4.5 16z" />
<glyph unicode="&#xb2;" horiz-adv-x="677" d="M41 670l20 90q28 128 103 192q72 61 158 103q19 9 61 26.5t62 27.5t46.5 26.5t39.5 35t18 41.5q7 43 -13 68t-61 25q-83 0 -119 -113q-1 -10 -10 -17.5t-20 -7.5h-138q-8 0 -15 8.5t-5 16.5q62 258 321 258q127 0 198.5 -66t47.5 -176q-12 -53 -37 -96t-60.5 -74 t-70.5 -52.5t-80 -41.5q-23 -11 -61.5 -27t-60 -25.5t-46.5 -24t-38.5 -30.5t-18.5 -36l356 -4q7 0 14 -8.5t5 -16.5l-23 -102q-1 -10 -10 -17.5t-20 -7.5h-525q-7 0 -13.5 8.5t-4.5 16.5z" />
<glyph unicode="&#xb3;" horiz-adv-x="673" d="M80 868q2 8 10.5 16.5t15.5 8.5h148q11 0 17 -7.5t5 -17.5q-12 -98 74 -98q40 0 72 29.5t45 83.5q32 116 -82 116h-45q-7 0 -13.5 8.5t-4.5 16.5l16 78q1 10 10.5 17t20.5 7h45q51 0 82 27t39 68q8 38 -11.5 64t-56.5 26q-67 0 -94 -82q-10 -23 -35 -23h-145q-8 0 -14 8 t-5 15q73 217 305 217q130 0 202 -62.5t52 -160.5q-23 -110 -162 -156q64 -21 91.5 -72t9.5 -125q-25 -112 -116.5 -173.5t-207.5 -61.5q-137 0 -207.5 60.5t-60.5 172.5z" />
<glyph unicode="&#xb4;" horiz-adv-x="1024" d="M393 1270q-3 23 17 35l526 211q7 4 17 -1.5t12 -13.5l43 -182q2 -11 -3.5 -20.5t-15.5 -10.5l-536 -129q-11 -2 -20.5 3.5t-10.5 15.5z" />
<glyph unicode="&#xb5;" horiz-adv-x="1138" d="M-174 -324l176 752l135 602q1 10 10.5 17.5t20.5 7.5h264q7 0 14 -8.5t5 -16.5l-70 -287l-86 -364q-13 -81 26 -129.5t117 -48.5q83 0 166 85.5t119 241.5l16 78l95 424q1 10 10 17.5t20 7.5h264q7 0 14 -8.5t5 -16.5l-121 -481l-113 -524q-1 -10 -10 -17.5t-20 -7.5 h-248q-7 0 -14 8.5t-5 16.5l31 108q-158 -158 -336 -158q-52 0 -106 13l-68 -312q-1 -10 -10.5 -17t-20.5 -7h-262q-7 0 -13.5 8t-4.5 16z" />
<glyph unicode="&#xb6;" horiz-adv-x="1445" d="M115 993q99 441 628 441h762q7 0 14 -8.5t5 -16.5l-209 -836l-191 -897q-1 -10 -9 -17t-19 -7h-277q-7 0 -13.5 8t-4.5 16l143 592l57 230h-151l-49 -232l-125 -590q-1 -10 -10.5 -17t-20.5 -7h-276q-7 0 -14 8t-5 16l142 586l59 236q-242 0 -365 135t-71 360z" />
<glyph unicode="&#xb7;" horiz-adv-x="454" d="M16 496l56 243q1 10 10 17.5t20 7.5h271q7 0 13.5 -8.5t4.5 -16.5l-55 -243q-1 -10 -10.5 -17.5t-20.5 -7.5h-270q-7 0 -14 8.5t-5 16.5z" />
<glyph unicode="&#xb8;" horiz-adv-x="1024" d="M57 -295l191 315q5 8 16 14t21 5l200 -19q7 0 12 -8t3 -16l-170 -342q-13 -22 -35 -19l-225 46q-8 2 -12.5 9.5t-0.5 14.5z" />
<glyph unicode="&#xb9;" horiz-adv-x="528" d="M158 1143l24 106q3 22 29 33q114 41 180 131q21 21 41 21h154q7 0 13.5 -8.5t4.5 -16.5l-100 -403l-72 -336q-1 -10 -10.5 -17.5t-20.5 -7.5h-163q-7 0 -14 8.5t-5 16.5l82 346l41 192q-66 -53 -166 -84q-7 -1 -13.5 5t-4.5 14z" />
<glyph unicode="&#xba;" horiz-adv-x="929" d="M125 1059q43 189 172.5 295t327.5 106q199 0 290 -117q91 -123 48 -303q-43 -189 -172 -295t-324 -106q-199 0 -292 116t-50 304zM396.5 868.5q27.5 -65.5 103.5 -65.5q70 0 113.5 52.5t72.5 178.5q29 128 3.5 195t-103.5 67q-70 -2 -115 -57.5t-74 -181.5 q-28 -123 -0.5 -188.5z" />
<glyph unicode="&#xbb;" horiz-adv-x="1114" d="M-90 143.5q-2 6.5 4 10.5l401 397l-223 364q-4 6 0 13.5t12 7.5h205q20 0 37 -21l211 -364q5 -7 3 -19t-9 -18l-363 -360q-17 -17 -43 -17h-225q-8 0 -10 6.5zM377 143.5q-2 6.5 4 10.5l399 397l-221 364q-4 6 0 13.5t12 7.5h205q20 0 37 -21l209 -364q5 -7 3 -19t-9 -18 l-363 -360q-17 -17 -43 -17h-223q-8 0 -10 6.5z" />
<glyph unicode="&#xbc;" horiz-adv-x="1689" d="M160 1143l24 106q3 22 29 33q114 41 180 131q21 21 41 21h154q7 0 13.5 -8.5t4.5 -16.5l-100 -403l-72 -336q-1 -10 -10.5 -17.5t-20.5 -7.5h-163q-7 0 -14 8.5t-5 16.5l82 346l41 192q-66 -53 -166 -84q-7 -1 -13.5 5t-4.5 14zM210 7q-4 7 1 13l999 1393q17 21 39 21 h166q7 0 11 -7.5t-1 -13.5l-999 -1393q-16 -20 -39 -20h-166q-7 0 -11 7zM852 186l29 125q3 24 22 43l354 416q18 18 41 18h220q7 0 13.5 -8t4.5 -16l-104 -453h61q7 0 13.5 -8t4.5 -16l-22 -101q-1 -10 -10.5 -17t-20.5 -7h-61l-33 -139q-1 -10 -10.5 -17.5t-20.5 -7.5 h-155q-7 0 -14 8.5t-5 16.5l33 139h-322q-7 0 -13.5 8t-4.5 16zM1034 311h191l37 156l45 170z" />
<glyph unicode="&#xbd;" horiz-adv-x="1744" d="M160 1143l24 106q3 22 29 33q114 41 180 131q21 21 41 21h154q7 0 13.5 -8.5t4.5 -16.5l-100 -403l-72 -336q-1 -10 -10.5 -17.5t-20.5 -7.5h-163q-7 0 -14 8.5t-5 16.5l82 346l41 192q-66 -53 -166 -84q-7 -1 -13.5 5t-4.5 14zM210 7q-4 7 1 13l999 1393q17 21 39 21 h166q7 0 11 -7.5t-1 -13.5l-999 -1393q-16 -20 -39 -20h-166q-7 0 -11 7zM918 25l20 90q28 129 102 192q72 61 158 103q19 9 61 26.5t62 27.5t46.5 26.5t39.5 35t18 41.5q7 43 -12.5 67.5t-60.5 24.5q-83 0 -119 -112q-1 -10 -10.5 -17.5t-20.5 -7.5h-137q-8 0 -15 9t-6 16 q62 258 322 258q127 0 198.5 -66t47.5 -176q-12 -53 -37 -96t-60.5 -74t-70.5 -52.5t-80 -41.5q-23 -11 -61.5 -27t-60 -25.5t-46.5 -24t-38.5 -30.5t-18.5 -36l356 -4q7 0 13.5 -8.5t4.5 -16.5l-22 -102q-1 -10 -10.5 -17.5t-20.5 -7.5h-524q-7 0 -13.5 8.5t-4.5 16.5z" />
<glyph unicode="&#xbe;" horiz-adv-x="1794" d="M80 868q2 8 10.5 16.5t15.5 8.5h148q11 0 17 -7.5t5 -17.5q-12 -98 74 -98q40 0 72 29.5t45 83.5q32 116 -82 116h-45q-7 0 -13.5 8.5t-4.5 16.5l16 78q1 10 10.5 17t20.5 7h45q51 0 82 27t39 68q8 38 -11.5 64t-56.5 26q-67 0 -94 -82q-10 -23 -35 -23h-145q-8 0 -14 8 t-5 15q73 217 305 217q130 0 202 -62.5t52 -160.5q-23 -110 -162 -156q64 -21 91.5 -72t9.5 -125q-25 -112 -116.5 -173.5t-207.5 -61.5q-137 0 -207.5 60.5t-60.5 172.5zM314.5 7q-3.5 7 0.5 13l1000 1393q17 21 39 21h166q7 0 11 -7.5t-1 -13.5l-1000 -1393 q-16 -20 -38 -20h-166q-8 0 -11.5 7zM956 186l29 125q3 23 23 43l354 416q18 18 41 18h219q7 0 13.5 -8t4.5 -16l-104 -453h61q7 0 14 -8t5 -16l-23 -101q-1 -10 -10 -17t-20 -7h-62l-33 -139q-1 -10 -10 -17.5t-20 -7.5h-156q-7 0 -13.5 8.5t-4.5 16.5l32 139h-321 q-7 0 -14 8t-5 16zM1139 311h190l37 156l45 170z" />
<glyph unicode="&#xbf;" horiz-adv-x="1048" d="M-105.5 -130q-22.5 82 1.5 179q15 63 45 113t67 83.5t80 62.5t86 57.5t81 60.5t69.5 80t48.5 108q1 10 10 17.5t20 7.5h261q7 0 13.5 -8.5t4.5 -16.5q-21 -79 -56.5 -145t-76.5 -110.5t-86 -81.5t-88 -66.5t-79 -57t-63 -60.5t-36 -70q-20 -93 21.5 -152.5t129.5 -60.5 q197 -3 260 215q1 10 10.5 17t20.5 7h244q7 0 13.5 -8t4.5 -16q-62 -206 -212.5 -314t-385.5 -108q-104 0 -190 33t-141 92.5t-77.5 141.5zM414 784l55 246q1 10 10.5 17.5t20.5 7.5h262q7 0 13.5 -8.5t4.5 -16.5l-55 -246q-1 -10 -10.5 -17t-20.5 -7h-262q-7 0 -13.5 8 t-4.5 16z" />
<glyph unicode="&#xc0;" horiz-adv-x="1376" d="M-168 7q-4 7 0 13l803 1393q17 21 37 21h370q11 0 19 -7.5t8 -17.5l154 -1384q0 -8 -8 -16.5t-15 -8.5h-254q-22 0 -26 25l-31 340h-537l-184 -342q-13 -23 -37 -23h-287q-8 0 -12 7zM485 612h383l-55 613zM498 1702l65 182q2 8 13 12t18 0l512 -210q7 -4 11.5 -14.5 t2.5 -18.5l-41 -99q-1 -8 -11 -13t-21 -3l-533 135q-7 1 -12.5 11t-3.5 18z" />
<glyph unicode="&#xc1;" horiz-adv-x="1376" d="M-168 7q-4 7 0 13l803 1393q17 21 37 21h370q11 0 19 -7.5t8 -17.5l154 -1384q0 -8 -8 -16.5t-15 -8.5h-254q-22 0 -26 25l-31 340h-537l-184 -342q-13 -23 -37 -23h-287q-8 0 -12 7zM485 612h383l-55 613zM625 1649q-3 22 16 34l526 211q7 4 17 -1t12 -13l43 -182 q2 -11 -3 -20.5t-15 -10.5l-537 -129q-11 -2 -20.5 3t-10.5 15z" />
<glyph unicode="&#xc2;" horiz-adv-x="1376" d="M-168 7q-4 7 0 13l803 1393q17 21 37 21h370q11 0 19 -7.5t8 -17.5l154 -1384q0 -8 -8 -16.5t-15 -8.5h-254q-22 0 -26 25l-31 340h-537l-184 -342q-13 -23 -37 -23h-287q-8 0 -12 7zM485 612h383l-55 613zM486.5 1674q3.5 11 11.5 16l356 198q16 13 45 13h74 q26 0 43 -17l241 -198q8 -6 9.5 -16.5t-4.5 -18.5l-84 -105q-6 -7 -17 -9t-18 3l-248 150l-328 -146q-7 -4 -17 0t-15 12l-48 99q-4 8 -0.5 19z" />
<glyph unicode="&#xc3;" horiz-adv-x="1376" d="M-168 7q-4 7 0 13l803 1393q17 21 37 21h370q11 0 19 -7.5t8 -17.5l154 -1384q0 -8 -8 -16.5t-15 -8.5h-254q-22 0 -26 25l-31 340h-537l-184 -342q-13 -23 -37 -23h-287q-8 0 -12 7zM485 612h383l-55 613zM537 1593q32 116 100.5 186t167.5 70q39 0 72.5 -17t52.5 -37 t40.5 -37t39.5 -17q57 0 80 82q1 10 10.5 17t21.5 7h105q7 0 13.5 -8t4.5 -16q-32 -121 -98.5 -188.5t-163.5 -67.5q-43 0 -77.5 17t-52.5 37t-40.5 37t-44.5 17q-52 0 -76 -82q-1 -10 -10 -17t-20 -7h-107q-7 0 -13.5 8t-4.5 16z" />
<glyph unicode="&#xc4;" horiz-adv-x="1376" d="M-168 7q-4 7 0 13l803 1393q17 21 37 21h370q11 0 19 -7.5t8 -17.5l154 -1384q0 -8 -8 -16.5t-15 -8.5h-254q-22 0 -26 25l-31 340h-537l-184 -342q-13 -23 -37 -23h-287q-8 0 -12 7zM485 612h383l-55 613zM526 1591l54 228q1 10 10 17t20 7h201q7 0 13.5 -8t4.5 -16 l-53 -228q-1 -10 -10.5 -17t-20.5 -7h-200q-7 0 -14 8t-5 16zM950 1591l54 228q1 10 10 17t20 7h201q7 0 13.5 -8t4.5 -16l-53 -228q-1 -10 -10.5 -17t-20.5 -7h-200q-7 0 -14 8t-5 16z" />
<glyph unicode="&#xc5;" horiz-adv-x="1376" d="M-168 7q-4 7 0 13l803 1393q17 21 37 21h370q11 0 19 -7.5t8 -17.5l154 -1384q0 -8 -8 -16.5t-15 -8.5h-254q-22 0 -26 25l-31 340h-537l-184 -342q-13 -23 -37 -23h-287q-8 0 -12 7zM485 612h383l-55 613zM662 1739q0 134 92 217q88 82 219 82q97 0 163 -54t66 -135 q0 -131 -90 -215q-93 -84 -219 -84q-99 0 -165 54t-66 135zM821 1745q0 -42 21 -64t59 -22q55 0 98 54t43 130q0 42 -21 64t-58 22q-57 0 -99.5 -53.5t-42.5 -130.5z" />
<glyph unicode="&#xc6;" horiz-adv-x="1892" d="M-167 7q-3 7 1 13l985 1393q17 21 39 21h1098q7 0 13.5 -8.5t4.5 -16.5l-41 -182q-1 -10 -10 -17.5t-20 -7.5h-555l-93 -330h512q7 0 14 -8t5 -16l-41 -182q-1 -10 -10.5 -17.5t-20.5 -7.5h-512l-78 -410h572q7 0 13.5 -8t4.5 -16l-41 -182q-1 -10 -10.5 -17.5 t-20.5 -7.5h-872q-7 0 -13.5 8.5t-4.5 16.5l88 340h-434l-234 -345q-16 -20 -39 -20h-289q-8 0 -11 7zM573 612h330l27 105l102 506h-43z" />
<glyph unicode="&#xc7;" horiz-adv-x="1441" d="M31 596q0 242 100.5 439t287 313t423.5 116q124 0 231 -34.5t190.5 -100t134 -171t56.5 -238.5q0 -8 -8.5 -16.5t-15.5 -8.5h-256q-8 0 -16.5 7.5t-8.5 17.5q-6 134 -93.5 219.5t-240.5 85.5q-93 0 -170.5 -35t-130.5 -95t-90.5 -140.5t-54.5 -170t-17 -184.5 q0 -180 92.5 -285.5t255.5 -105.5q127 0 221.5 65.5t131.5 190.5q1 10 10 17t20 7h263q7 0 13.5 -8t4.5 -16q-68 -224 -242.5 -360t-423.5 -136q-196 0 -348.5 81t-235.5 223.5t-83 322.5zM268 -295l191 315q5 8 16 14t21 5l200 -19q7 0 12 -8t3 -16l-170 -342 q-13 -22 -35 -19l-225 46q-8 2 -12.5 9.5t-0.5 14.5z" />
<glyph unicode="&#xc8;" horiz-adv-x="1177" d="M-66 25l177 692l145 692q1 10 9.5 17.5t19.5 7.5h956q7 0 14 -8.5t5 -16.5l-41 -182q-1 -10 -10.5 -17.5t-20.5 -7.5h-660l-88 -330h613q7 0 13.5 -8t4.5 -16l-41 -182q-1 -10 -10.5 -17.5t-20.5 -7.5h-612l-82 -410h676q7 0 13.5 -8t4.5 -16l-41 -182q-1 -10 -10 -17.5 t-20 -7.5h-975q-7 0 -14 8.5t-5 16.5zM473 1702l66 182q2 8 12.5 12t17.5 0l512 -210q7 -4 12 -14.5t3 -18.5l-41 -99q-1 -7 -11.5 -12.5t-21.5 -3.5l-533 135q-7 1 -12.5 11t-3.5 18z" />
<glyph unicode="&#xc9;" horiz-adv-x="1177" d="M-66 25l177 692l145 692q1 10 9.5 17.5t19.5 7.5h956q7 0 14 -8.5t5 -16.5l-41 -182q-1 -10 -10.5 -17.5t-20.5 -7.5h-660l-88 -330h613q7 0 13.5 -8t4.5 -16l-41 -182q-1 -10 -10.5 -17.5t-20.5 -7.5h-612l-82 -410h676q7 0 13.5 -8t4.5 -16l-41 -182q-1 -10 -10 -17.5 t-20 -7.5h-975q-7 0 -14 8.5t-5 16.5zM594 1649q-3 22 16 34l527 211q7 4 16.5 -1t11.5 -13l43 -182q2 -11 -3 -20.5t-15 -10.5l-537 -129q-27 -4 -30 18z" />
<glyph unicode="&#xca;" horiz-adv-x="1177" d="M-66 25l177 692l145 692q1 10 9.5 17.5t19.5 7.5h956q7 0 14 -8.5t5 -16.5l-41 -182q-1 -10 -10.5 -17.5t-20.5 -7.5h-660l-88 -330h613q7 0 13.5 -8t4.5 -16l-41 -182q-1 -10 -10.5 -17.5t-20.5 -7.5h-612l-82 -410h676q7 0 13.5 -8t4.5 -16l-41 -182q-1 -10 -10 -17.5 t-20 -7.5h-975q-7 0 -14 8.5t-5 16.5zM460 1674q3 11 11 16l356 198q16 13 45 13h74q26 0 43 -17l242 -198q8 -6 9 -16.5t-5 -18.5l-84 -105q-6 -7 -17 -9t-18 3l-248 150l-327 -146q-7 -4 -17.5 0t-15.5 12l-47 99q-4 8 -1 19z" />
<glyph unicode="&#xcb;" horiz-adv-x="1177" d="M-66 25l177 692l145 692q1 10 9.5 17.5t19.5 7.5h956q7 0 14 -8.5t5 -16.5l-41 -182q-1 -10 -10.5 -17.5t-20.5 -7.5h-660l-88 -330h613q7 0 13.5 -8t4.5 -16l-41 -182q-1 -10 -10.5 -17.5t-20.5 -7.5h-612l-82 -410h676q7 0 13.5 -8t4.5 -16l-41 -182q-1 -10 -10 -17.5 t-20 -7.5h-975q-7 0 -14 8.5t-5 16.5zM524 1591l54 228q1 10 10 17t20 7h201q7 0 13.5 -8t4.5 -16l-53 -228q-1 -10 -10.5 -17t-20.5 -7h-200q-7 0 -14 8t-5 16zM948 1591l53 228q1 10 10.5 17t20.5 7h201q7 0 13.5 -8t4.5 -16l-53 -228q-1 -10 -10.5 -17t-20.5 -7h-200 q-7 0 -14 8t-5 16z" />
<glyph unicode="&#xcc;" horiz-adv-x="528" d="M-57 25l176 692l145 692q1 10 9.5 17.5t19.5 7.5h272q7 0 14 -8.5t5 -16.5l-176 -692l-146 -692q-1 -10 -9.5 -17.5t-19.5 -7.5h-272q-7 0 -13.5 8.5t-4.5 16.5zM68 1702l65 182q2 8 13 12t18 0l512 -210q7 -4 11.5 -14.5t2.5 -18.5l-41 -99q-1 -7 -11.5 -12.5 t-21.5 -3.5l-532 135q-7 1 -12.5 11t-3.5 18z" />
<glyph unicode="&#xcd;" horiz-adv-x="528" d="M-57 25l176 692l145 692q1 10 9.5 17.5t19.5 7.5h272q7 0 14 -8.5t5 -16.5l-176 -692l-146 -692q-1 -10 -9.5 -17.5t-19.5 -7.5h-272q-7 0 -13.5 8.5t-4.5 16.5zM233 1649q-3 22 17 34l526 211q7 4 17 -1t12 -13l43 -182q2 -11 -3.5 -20.5t-15.5 -10.5l-536 -129 q-11 -2 -20.5 3t-10.5 15z" />
<glyph unicode="&#xce;" horiz-adv-x="528" d="M-57 25l176 692l145 692q1 10 9.5 17.5t19.5 7.5h272q7 0 14 -8.5t5 -16.5l-176 -692l-146 -692q-1 -10 -9.5 -17.5t-19.5 -7.5h-272q-7 0 -13.5 8.5t-4.5 16.5zM87 1674q3 11 11 16l357 198q16 13 45 13h73q26 0 43 -17l242 -198q8 -6 9 -16.5t-5 -18.5l-84 -105 q-6 -7 -17 -9t-18 3l-247 150l-328 -146q-7 -4 -17.5 0t-15.5 12l-47 99q-4 8 -1 19z" />
<glyph unicode="&#xcf;" horiz-adv-x="528" d="M-57 25l176 692l145 692q1 10 9.5 17.5t19.5 7.5h272q7 0 14 -8.5t5 -16.5l-176 -692l-146 -692q-1 -10 -9.5 -17.5t-19.5 -7.5h-272q-7 0 -13.5 8.5t-4.5 16.5zM129 1591l53 228q1 10 10.5 17t20.5 7h201q7 0 13.5 -8t4.5 -16l-53 -228q-1 -10 -10.5 -17t-20.5 -7h-201 q-7 0 -13.5 8t-4.5 16zM553 1591l53 228q1 10 10.5 17t20.5 7h201q7 0 13.5 -8t4.5 -16l-53 -228q-1 -10 -10.5 -17t-20.5 -7h-201q-7 0 -13.5 8t-4.5 16z" />
<glyph unicode="&#xd0;" horiz-adv-x="1447" d="M-49 666l41 182q1 10 10.5 17t20.5 7h139l114 537q1 10 9.5 17.5t19.5 7.5h461q188 0 334.5 -67.5t233.5 -203t87 -321.5q0 -165 -51 -304.5t-137.5 -237.5t-202.5 -166.5t-245 -101t-265 -32.5h-549q-7 0 -13.5 8.5t-4.5 16.5l158 616h-142q-7 0 -13.5 8.5t-4.5 16.5z M324 231h225q85 0 164.5 23t149.5 71t121.5 116t81.5 164t30 208q0 185 -86 287t-244 102h-217q0 -4 -27 -98q-16 -57 -61 -232h336q7 0 13.5 -8t4.5 -16l-41 -182q-1 -10 -10.5 -17.5t-20.5 -7.5h-337q-86 -406 -82 -410z" />
<glyph unicode="&#xd1;" horiz-adv-x="1435" d="M-68 25l174 692l148 692q1 10 9.5 17.5t19.5 7.5h313q10 0 20.5 -7.5t12.5 -15.5l354 -1014l8 37l94 451l119 524q1 10 10.5 17.5t20.5 7.5h248q7 0 13.5 -8.5t4.5 -16.5l-174 -692l-147 -692q-1 -10 -9.5 -17.5t-19.5 -7.5h-324q-10 0 -20 7.5t-12 15.5l-351 1007 l-18 -104l-92 -447l-105 -454q-1 -10 -10 -17.5t-20 -7.5h-248q-7 0 -14 8.5t-5 16.5zM594 1593q32 116 100.5 186t167.5 70q39 0 72.5 -17t52.5 -37t40.5 -37t39.5 -17q57 0 80 82q1 10 11 17t22 7h104q7 0 14 -8t5 -16q-32 -120 -99 -188t-164 -68q-43 0 -77.5 17 t-52.5 37t-40.5 37t-44.5 17q-51 0 -75 -82q-1 -10 -10.5 -17t-20.5 -7h-107q-7 0 -13.5 8t-4.5 16z" />
<glyph unicode="&#xd2;" horiz-adv-x="1542" d="M31 575q0 185 64 349.5t173.5 283t263.5 187.5t328 69q300 0 476.5 -161.5t176.5 -436.5q0 -140 -39.5 -274t-115 -246t-176 -197t-230.5 -132.5t-272 -47.5q-298 0 -473.5 166.5t-175.5 439.5zM352 580q0 -173 92.5 -272t251.5 -99q149 0 263 88t172.5 234t58.5 323 q0 172 -92 271.5t-252 99.5q-111 0 -204.5 -52.5t-156.5 -141t-98 -205.5t-35 -246zM580 1702l65 182q2 8 13 12t18 0l512 -210q7 -4 11.5 -14.5t2.5 -18.5l-41 -99q-1 -7 -11.5 -12.5t-21.5 -3.5l-532 135q-7 1 -12.5 11t-3.5 18z" />
<glyph unicode="&#xd3;" horiz-adv-x="1542" d="M31 575q0 185 64 349.5t173.5 283t263.5 187.5t328 69q300 0 476.5 -161.5t176.5 -436.5q0 -140 -39.5 -274t-115 -246t-176 -197t-230.5 -132.5t-272 -47.5q-298 0 -473.5 166.5t-175.5 439.5zM352 580q0 -173 92.5 -272t251.5 -99q149 0 263 88t172.5 234t58.5 323 q0 172 -92 271.5t-252 99.5q-111 0 -204.5 -52.5t-156.5 -141t-98 -205.5t-35 -246zM686 1649q-3 22 16 34l527 211q7 4 16.5 -1t11.5 -13l43 -182q2 -11 -3 -20.5t-15 -10.5l-537 -129q-27 -4 -30 18z" />
<glyph unicode="&#xd4;" horiz-adv-x="1542" d="M31 575q0 185 64 349.5t173.5 283t263.5 187.5t328 69q300 0 476.5 -161.5t176.5 -436.5q0 -140 -39.5 -274t-115 -246t-176 -197t-230.5 -132.5t-272 -47.5q-298 0 -473.5 166.5t-175.5 439.5zM352 580q0 -173 92.5 -272t251.5 -99q149 0 263 88t172.5 234t58.5 323 q0 172 -92 271.5t-252 99.5q-111 0 -204.5 -52.5t-156.5 -141t-98 -205.5t-35 -246zM566.5 1674q3.5 11 11.5 16l356 198q16 13 45 13h74q26 0 43 -17l241 -198q8 -6 9 -16.5t-5 -18.5l-84 -105q-6 -7 -16.5 -9t-17.5 3l-248 150l-328 -146q-7 -4 -17.5 0t-15.5 12l-47 99 q-4 8 -0.5 19z" />
<glyph unicode="&#xd5;" horiz-adv-x="1542" d="M31 575q0 185 64 349.5t173.5 283t263.5 187.5t328 69q300 0 476.5 -161.5t176.5 -436.5q0 -140 -39.5 -274t-115 -246t-176 -197t-230.5 -132.5t-272 -47.5q-298 0 -473.5 166.5t-175.5 439.5zM352 580q0 -173 92.5 -272t251.5 -99q149 0 263 88t172.5 234t58.5 323 q0 172 -92 271.5t-252 99.5q-111 0 -204.5 -52.5t-156.5 -141t-98 -205.5t-35 -246zM612 1593q32 116 101 186t168 70q39 0 72.5 -17t52 -37t40 -37t39.5 -17q57 0 80 82q1 10 11 17t22 7h105q7 0 13.5 -8t4.5 -16q-32 -121 -98.5 -188.5t-163.5 -67.5q-43 0 -77.5 17 t-52.5 37t-40.5 37t-44.5 17q-52 0 -76 -82q-1 -10 -10.5 -17t-20.5 -7h-106q-7 0 -14 8t-5 16z" />
<glyph unicode="&#xd6;" horiz-adv-x="1542" d="M31 575q0 185 64 349.5t173.5 283t263.5 187.5t328 69q300 0 476.5 -161.5t176.5 -436.5q0 -140 -39.5 -274t-115 -246t-176 -197t-230.5 -132.5t-272 -47.5q-298 0 -473.5 166.5t-175.5 439.5zM352 580q0 -173 92.5 -272t251.5 -99q149 0 263 88t172.5 234t58.5 323 q0 172 -92 271.5t-252 99.5q-111 0 -204.5 -52.5t-156.5 -141t-98 -205.5t-35 -246zM610 1591l54 228q1 10 10 17t20 7h201q7 0 13.5 -8t4.5 -16l-53 -228q-1 -10 -10.5 -17t-20.5 -7h-200q-7 0 -14 8t-5 16zM1034 1591l53 228q1 10 10.5 17t20.5 7h201q7 0 13.5 -8t4.5 -16 l-53 -228q-1 -10 -10.5 -17t-20.5 -7h-200q-7 0 -14 8t-5 16z" />
<glyph unicode="&#xd7;" horiz-adv-x="1126" d="M35.5 417q0.5 11 7.5 17l360 293l-192 248q-6 7 -4.5 19t8.5 18l141 127q19 15 33 -2l201 -260l323 262q8 7 18.5 6.5t16.5 -8.5l113 -123q6 -7 5.5 -18t-7.5 -17l-338 -274l207 -267q6 -7 4.5 -19t-8.5 -18l-140 -129q-18 -14 -32 4l-215 279l-351 -283q-8 -7 -18 -6.5 t-16 8.5l-111 125q-6 7 -5.5 18z" />
<glyph unicode="&#xd8;" horiz-adv-x="1542" d="M-93.5 67q0.5 11 7.5 17l190 180q-75 135 -75 311q0 185 64 349.5t173.5 283t263.5 187.5t328 69q249 0 414 -112l196 184q7 6 18 5.5t17 -7.5l123 -143q6 -7 5.5 -18t-7.5 -17l-190 -178q77 -127 77 -312q0 -140 -39.5 -274t-115 -246t-176 -197t-230.5 -132.5 t-272 -47.5q-249 0 -412 117l-196 -182q-7 -6 -18 -5.5t-17 7.5l-123 143q-6 7 -5.5 18zM350 580q0 -60 12 -113l719 674q-94 84 -237 84q-111 0 -204.5 -52.5t-156.5 -141t-98 -205.5t-35 -246zM453 297q91 -88 241 -88q149 0 263 88t172.5 234t58.5 323q0 64 -12 117z" />
<glyph unicode="&#xd9;" horiz-adv-x="1316" d="M43 532l92 390l103 487q2 11 10 18t18 7h283q7 0 13.5 -8.5t4.5 -16.5l-123 -479l-88 -395q-36 -158 12.5 -238t192.5 -80q279 0 352 318l88 389l105 485q1 10 10.5 17.5t20.5 7.5h252q7 0 13.5 -8.5t4.5 -16.5l-121 -487l-90 -390q-65 -281 -227 -422t-453 -141 q-272 0 -403 153.5t-70 409.5zM467 1702l65 182q2 8 13 12t18 0l512 -210q7 -4 12 -14.5t3 -18.5l-41 -99q-1 -7 -11.5 -12.5t-21.5 -3.5l-533 135q-7 1 -12.5 11t-3.5 18z" />
<glyph unicode="&#xda;" horiz-adv-x="1316" d="M43 532l92 390l103 487q2 11 10 18t18 7h283q7 0 13.5 -8.5t4.5 -16.5l-123 -479l-88 -395q-36 -158 12.5 -238t192.5 -80q279 0 352 318l88 389l105 485q1 10 10.5 17.5t20.5 7.5h252q7 0 13.5 -8.5t4.5 -16.5l-121 -487l-90 -390q-65 -281 -227 -422t-453 -141 q-272 0 -403 153.5t-70 409.5zM618 1649q-3 22 17 34l526 211q7 4 17 -1t12 -13l43 -182q2 -11 -3.5 -20.5t-15.5 -10.5l-536 -129q-11 -2 -20.5 3t-10.5 15z" />
<glyph unicode="&#xdb;" horiz-adv-x="1316" d="M43 532l92 390l103 487q2 11 10 18t18 7h283q7 0 13.5 -8.5t4.5 -16.5l-123 -479l-88 -395q-36 -158 12.5 -238t192.5 -80q279 0 352 318l88 389l105 485q1 10 10.5 17.5t20.5 7.5h252q7 0 13.5 -8.5t4.5 -16.5l-121 -487l-90 -390q-65 -281 -227 -422t-453 -141 q-272 0 -403 153.5t-70 409.5zM484.5 1674q3.5 11 11.5 16l356 198q16 13 45 13h74q26 0 43 -17l241 -198q8 -6 9.5 -16.5t-4.5 -18.5l-84 -105q-6 -7 -17 -9t-18 3l-248 150l-328 -146q-7 -4 -17.5 0t-15.5 12l-47 99q-4 8 -0.5 19z" />
<glyph unicode="&#xdc;" horiz-adv-x="1316" d="M43 532l92 390l103 487q2 11 10 18t18 7h283q7 0 13.5 -8.5t4.5 -16.5l-123 -479l-88 -395q-36 -158 12.5 -238t192.5 -80q279 0 352 318l88 389l105 485q1 10 10.5 17.5t20.5 7.5h252q7 0 13.5 -8.5t4.5 -16.5l-121 -487l-90 -390q-65 -281 -227 -422t-453 -141 q-272 0 -403 153.5t-70 409.5zM524 1591l54 228q1 10 10 17t20 7h201q7 0 13.5 -8t4.5 -16l-53 -228q-1 -10 -10.5 -17t-20.5 -7h-200q-7 0 -14 8t-5 16zM948 1591l53 228q1 10 10.5 17t20.5 7h201q7 0 13.5 -8t4.5 -16l-53 -228q-1 -10 -10.5 -17t-20.5 -7h-200q-7 0 -14 8 t-5 16z" />
<glyph unicode="&#xdd;" horiz-adv-x="1257" d="M162 1409q-2 8 4.5 16.5t13.5 8.5h285q11 0 20.5 -7.5t10.5 -17.5l149 -637l434 641q17 21 39 21h299q7 0 11 -7.5t-1 -13.5l-698 -921l-96 -467q-1 -10 -9.5 -17.5t-19.5 -7.5h-276q-7 0 -14 8.5t-5 16.5l123 467zM588 1649q-3 22 16 34l526 211q7 4 17 -1t12 -13 l43 -182q2 -11 -3 -20.5t-15 -10.5l-537 -129q-11 -2 -20.5 3t-10.5 15z" />
<glyph unicode="&#xde;" horiz-adv-x="1241" d="M-68 25l174 692l148 692q1 10 10.5 17.5t20.5 7.5h272q7 0 13.5 -8.5t4.5 -16.5l-55 -221h203q230 0 359.5 -100.5t129.5 -288.5q0 -258 -170 -402q-171 -145 -456 -145h-283l-49 -227q-1 -10 -9.5 -17.5t-19.5 -7.5h-274q-7 0 -14 8.5t-5 16.5zM352 479h289 q51 0 97 16.5t84 50t60.5 90t22.5 128.5q0 197 -203 197h-237l-68 -271z" />
<glyph unicode="&#xdf;" horiz-adv-x="1220" d="M-76 25l115 440l123 536q55 240 203 346.5t380 106.5q233 0 353 -111q120 -114 80 -278q-26 -115 -114.5 -191.5t-207.5 -97.5q158 -25 218.5 -128.5t27.5 -248.5q-26 -107 -88 -186t-148.5 -124.5t-184 -67t-208.5 -21.5h-53q-7 0 -14 8.5t-5 16.5l37 170q1 10 10.5 17 t20.5 7h53q209 0 264 211q30 114 -21 173t-165 59h-29q-7 0 -13.5 8t-4.5 16l33 150q1 10 10 17t20 7h29q94 0 145.5 51t73.5 144q20 88 -16.5 134t-128.5 46q-98 0 -162.5 -56t-95.5 -186l-121 -528l-90 -440q-1 -10 -9.5 -17.5t-19.5 -7.5h-278q-7 0 -14 8.5t-5 16.5z" />
<glyph unicode="&#xe0;" d="M9 280.5q-34 139.5 7 327.5q21 93 61 174t100.5 148t149.5 106t195 39q114 0 202 -47.5t132 -136.5l27 139q2 11 10 18t18 7h263q7 0 13.5 -8.5t4.5 -16.5l-125 -504l-106 -501q-1 -10 -10.5 -17.5t-20.5 -7.5h-260q-7 0 -14 8.5t-5 16.5l19 65q-123 -110 -287 -110 q-141 0 -240.5 80.5t-133.5 220zM299 1323l66 182q2 8 12.5 12.5t17.5 0.5l512 -211q7 -4 12 -14.5t3 -18.5l-41 -98q-2 -8 -12.5 -13t-20.5 -4l-533 135q-7 1 -12.5 11t-3.5 18zM326 573q-43 -186 6.5 -288.5t169.5 -100.5q193 -3 266 291q37 179 -6 282t-146 111 q-10 2 -51 2q-177 -15 -239 -297z" />
<glyph unicode="&#xe1;" d="M9 280.5q-34 139.5 7 327.5q21 93 61 174t100.5 148t149.5 106t195 39q114 0 202 -47.5t132 -136.5l27 139q2 11 10 18t18 7h263q7 0 13.5 -8.5t4.5 -16.5l-125 -504l-106 -501q-1 -10 -10.5 -17.5t-20.5 -7.5h-260q-7 0 -14 8.5t-5 16.5l19 65q-123 -110 -287 -110 q-141 0 -240.5 80.5t-133.5 220zM326 573q-43 -186 6.5 -288.5t169.5 -100.5q193 -3 266 291q37 179 -6 282t-146 111q-10 2 -51 2q-177 -15 -239 -297zM434 1270q-3 23 17 35l526 211q7 4 17 -1.5t12 -13.5l43 -182q2 -11 -3.5 -20.5t-15.5 -10.5l-536 -129 q-11 -2 -20.5 3.5t-10.5 15.5z" />
<glyph unicode="&#xe2;" d="M9 280.5q-34 139.5 7 327.5q21 93 61 174t100.5 148t149.5 106t195 39q114 0 202 -47.5t132 -136.5l27 139q2 11 10 18t18 7h263q7 0 13.5 -8.5t4.5 -16.5l-125 -504l-106 -501q-1 -10 -10.5 -17.5t-20.5 -7.5h-260q-7 0 -14 8.5t-5 16.5l19 65q-123 -110 -287 -110 q-141 0 -240.5 80.5t-133.5 220zM316.5 1295q3.5 11 11.5 16l356 198q16 13 45 13h74q26 0 43 -17l241 -198q8 -6 9.5 -16.5t-4.5 -18.5l-84 -105q-6 -7 -17 -9t-18 3l-248 150l-328 -146q-7 -4 -17 0.5t-15 12.5l-48 98q-4 8 -0.5 19zM326 573q-43 -186 6.5 -288.5 t169.5 -100.5q193 -3 266 291q37 179 -6 282t-146 111q-10 2 -51 2q-177 -15 -239 -297z" />
<glyph unicode="&#xe3;" d="M9 280.5q-34 139.5 7 327.5q21 93 61 174t100.5 148t149.5 106t195 39q114 0 202 -47.5t132 -136.5l27 139q2 11 10 18t18 7h263q7 0 13.5 -8.5t4.5 -16.5l-125 -504l-106 -501q-1 -10 -10.5 -17.5t-20.5 -7.5h-260q-7 0 -14 8.5t-5 16.5l19 65q-123 -110 -287 -110 q-141 0 -240.5 80.5t-133.5 220zM326 573q-43 -186 6.5 -288.5t169.5 -100.5q193 -3 266 291q37 179 -6 282t-146 111q-10 2 -51 2q-177 -15 -239 -297zM373 1214q32 116 100.5 186t167.5 70q39 0 72.5 -17t52.5 -37t40.5 -37t39.5 -17q57 0 80 82q1 10 10.5 17t21.5 7h105 q7 0 13.5 -8t4.5 -16q-32 -121 -98.5 -188.5t-163.5 -67.5q-43 0 -77.5 17t-52.5 37t-40.5 37t-44.5 17q-52 0 -76 -82q-1 -10 -10 -17t-20 -7h-107q-7 0 -13.5 8t-4.5 16z" />
<glyph unicode="&#xe4;" d="M9 280.5q-34 139.5 7 327.5q21 93 61 174t100.5 148t149.5 106t195 39q114 0 202 -47.5t132 -136.5l27 139q2 11 10 18t18 7h263q7 0 13.5 -8.5t4.5 -16.5l-125 -504l-106 -501q-1 -10 -10.5 -17.5t-20.5 -7.5h-260q-7 0 -14 8.5t-5 16.5l19 65q-123 -110 -287 -110 q-141 0 -240.5 80.5t-133.5 220zM326 573q-43 -186 6.5 -288.5t169.5 -100.5q193 -3 266 291q37 179 -6 282t-146 111q-10 2 -51 2q-177 -15 -239 -297zM360 1212l54 228q1 10 10 17t20 7h201q7 0 14 -8t5 -16l-54 -228q-1 -10 -10 -17t-20 -7h-201q-7 0 -14 8t-5 16z M784 1212l54 228q1 10 10 17t20 7h201q7 0 13.5 -8t4.5 -16l-53 -228q-1 -10 -10 -17t-20 -7h-201q-7 0 -14 8t-5 16z" />
<glyph unicode="&#xe5;" d="M9 280.5q-34 139.5 7 327.5q21 93 61 174t100.5 148t149.5 106t195 39q114 0 202 -47.5t132 -136.5l27 139q2 11 10 18t18 7h263q7 0 13.5 -8.5t4.5 -16.5l-125 -504l-106 -501q-1 -10 -10.5 -17.5t-20.5 -7.5h-260q-7 0 -14 8.5t-5 16.5l19 65q-123 -110 -287 -110 q-141 0 -240.5 80.5t-133.5 220zM326 573q-43 -186 6.5 -288.5t169.5 -100.5q193 -3 266 291q37 179 -6 282t-146 111q-10 2 -51 2q-177 -15 -239 -297zM477 1360q0 134 92 217q88 82 219 82q97 0 163.5 -54t66.5 -135q0 -131 -90 -215q-93 -84 -219 -84q-99 0 -165.5 54 t-66.5 135zM637 1366q0 -42 21 -64t59 -22q55 0 98 54t43 130q0 42 -21 64t-59 22q-56 0 -98.5 -53.5t-42.5 -130.5z" />
<glyph unicode="&#xe6;" horiz-adv-x="1941" d="M9 280.5q-34 139.5 7 327.5q21 93 61 174t100.5 148t149.5 106t195 39q114 0 202 -47.5t132 -136.5l27 139q2 11 10 18t18 7h203q7 0 14 -8.5t5 -16.5l-15 -53q132 104 328 104q239 0 353.5 -162.5t53.5 -429.5q-1 -10 -10 -17t-20 -7h-748q-2 -14 -2 -41 q0 -123 46 -184.5t143 -61.5q188 0 243 154q3 24 33 24h244q7 0 13.5 -8t4.5 -16q-21 -73 -63 -135.5t-105.5 -114t-156 -80.5t-205.5 -29q-122 0 -209.5 49.5t-132.5 137.5l-29 -135q-1 -10 -9.5 -17.5t-19.5 -7.5h-200q-7 0 -14 8.5t-5 16.5l19 65q-123 -110 -287 -110 q-141 0 -240.5 80.5t-133.5 220zM326 573q-43 -186 6.5 -287.5t169.5 -101.5q98 0 166 74t100 217q43 189 -7.5 292t-170.5 103q-199 0 -264 -297zM1112 659h449q18 86 -33.5 153t-151.5 67q-94 0 -162.5 -60t-101.5 -160z" />
<glyph unicode="&#xe7;" horiz-adv-x="1116" d="M-6 416q0 295 175.5 480t453.5 185q199 0 319.5 -100.5t116.5 -275.5q0 -8 -8.5 -16.5t-18.5 -8.5h-241q-8 0 -16.5 7.5t-8.5 17.5q0 167 -170 167q-98 0 -165.5 -66t-97.5 -170.5t-30 -238.5q0 -219 182 -219q77 0 137.5 53.5t84.5 149.5q2 11 10 18t18 7h248 q7 0 13.5 -8.5t4.5 -16.5q-47 -179 -186 -291q-141 -117 -354 -117q-210 0 -338 119q-129 120 -129 324zM98 -295l191 315q5 8 16 14t21 5l200 -19q7 0 12 -8t3 -16l-170 -342q-13 -22 -35 -19l-225 46q-8 2 -12.5 9.5t-0.5 14.5z" />
<glyph unicode="&#xe8;" horiz-adv-x="1165" d="M-8 422q0 95 22 186t71.5 177.5t121.5 151.5t180.5 104.5t239.5 39.5q262 0 385.5 -160t62.5 -432q-1 -10 -10.5 -17t-20.5 -7h-749v-41q0 -123 45.5 -184.5t142.5 -61.5q189 0 244 154q3 24 33 24h244q7 0 13.5 -8t4.5 -16q-21 -73 -64.5 -136t-110.5 -113.5t-164 -80 t-214 -29.5q-234 0 -355.5 123.5t-121.5 325.5zM307 1323l66 182q2 8 12.5 12.5t17.5 0.5l512 -211q7 -4 12 -14.5t3 -18.5l-41 -98q-2 -8 -12.5 -13t-20.5 -4l-532 135q-7 1 -13 11t-4 18zM332 659h450q18 86 -33 153t-151 67q-94 0 -161.5 -59t-104.5 -161z" />
<glyph unicode="&#xe9;" horiz-adv-x="1165" d="M-8 422q0 95 22 186t71.5 177.5t121.5 151.5t180.5 104.5t239.5 39.5q262 0 385.5 -160t62.5 -432q-1 -10 -10.5 -17t-20.5 -7h-749v-41q0 -123 45.5 -184.5t142.5 -61.5q189 0 244 154q3 24 33 24h244q7 0 13.5 -8t4.5 -16q-21 -73 -64.5 -136t-110.5 -113.5t-164 -80 t-214 -29.5q-234 0 -355.5 123.5t-121.5 325.5zM332 659h450q18 86 -33 153t-151 67q-94 0 -161.5 -59t-104.5 -161zM436 1270q-3 23 17 35l526 211q7 4 17 -1.5t12 -13.5l43 -182q2 -11 -3.5 -20.5t-15.5 -10.5l-536 -129q-11 -2 -20.5 3.5t-10.5 15.5z" />
<glyph unicode="&#xea;" horiz-adv-x="1165" d="M-8 422q0 95 22 186t71.5 177.5t121.5 151.5t180.5 104.5t239.5 39.5q262 0 385.5 -160t62.5 -432q-1 -10 -10.5 -17t-20.5 -7h-749v-41q0 -123 45.5 -184.5t142.5 -61.5q189 0 244 154q3 24 33 24h244q7 0 13.5 -8t4.5 -16q-21 -73 -64.5 -136t-110.5 -113.5t-164 -80 t-214 -29.5q-234 0 -355.5 123.5t-121.5 325.5zM316.5 1295q3.5 11 11.5 16l356 198q16 13 45 13h74q26 0 43 -17l241 -198q8 -6 9.5 -16.5t-4.5 -18.5l-84 -105q-6 -7 -17 -9t-18 3l-248 150l-328 -146q-7 -4 -17 0.5t-15 12.5l-48 98q-4 8 -0.5 19zM332 659h450 q18 86 -33 153t-151 67q-94 0 -161.5 -59t-104.5 -161z" />
<glyph unicode="&#xeb;" horiz-adv-x="1165" d="M-8 422q0 95 22 186t71.5 177.5t121.5 151.5t180.5 104.5t239.5 39.5q262 0 385.5 -160t62.5 -432q-1 -10 -10.5 -17t-20.5 -7h-749v-41q0 -123 45.5 -184.5t142.5 -61.5q189 0 244 154q3 24 33 24h244q7 0 13.5 -8t4.5 -16q-21 -73 -64.5 -136t-110.5 -113.5t-164 -80 t-214 -29.5q-234 0 -355.5 123.5t-121.5 325.5zM332 659h450q18 86 -33 153t-151 67q-94 0 -161.5 -59t-104.5 -161zM362 1212l54 228q1 10 10 17t20 7h201q7 0 14 -8t5 -16l-54 -228q-1 -10 -10 -17t-20 -7h-201q-7 0 -14 8t-5 16zM786 1212l54 228q1 10 10 17t20 7h201 q7 0 14 -8t5 -16l-54 -228q-1 -10 -10 -17t-20 -7h-201q-7 0 -14 8t-5 16z" />
<glyph unicode="&#xec;" horiz-adv-x="487" d="M-76 25l125 501l107 504q1 10 10 17.5t20 7.5h269q7 0 13.5 -8.5t4.5 -16.5l-127 -504l-106 -501q-1 -10 -9.5 -17.5t-19.5 -7.5h-268q-7 0 -14 8.5t-5 16.5zM-41 1323l66 182q2 8 12.5 12.5t17.5 0.5l512 -211q7 -4 12 -14.5t3 -18.5l-41 -98q-2 -8 -12.5 -13t-20.5 -4 l-533 135q-7 1 -12.5 11t-3.5 18z" />
<glyph unicode="&#xed;" horiz-adv-x="487" d="M-76 25l125 501l107 504q1 10 10 17.5t20 7.5h269q7 0 13.5 -8.5t4.5 -16.5l-127 -504l-106 -501q-1 -10 -9.5 -17.5t-19.5 -7.5h-268q-7 0 -14 8.5t-5 16.5zM111 1270q-3 23 16 35l526 211q7 4 17 -1.5t12 -13.5l43 -182q2 -11 -3 -20.5t-15 -10.5l-537 -129 q-11 -2 -20.5 3.5t-10.5 15.5z" />
<glyph unicode="&#xee;" horiz-adv-x="487" d="M-76 25l125 501l107 504q1 10 10 17.5t20 7.5h269q7 0 13.5 -8.5t4.5 -16.5l-127 -504l-106 -501q-1 -10 -9.5 -17.5t-19.5 -7.5h-268q-7 0 -14 8.5t-5 16.5zM-19 1295q3 11 11 16l356 198q16 13 45 13h74q26 0 43 -17l242 -198q8 -6 9 -16.5t-5 -18.5l-84 -105 q-6 -7 -17 -9t-18 3l-248 150l-328 -146q-7 -4 -17 0.5t-15 12.5l-47 98q-4 8 -1 19z" />
<glyph unicode="&#xef;" horiz-adv-x="487" d="M-76 25l125 501l107 504q1 10 10 17.5t20 7.5h269q7 0 13.5 -8.5t4.5 -16.5l-127 -504l-106 -501q-1 -10 -9.5 -17.5t-19.5 -7.5h-268q-7 0 -14 8.5t-5 16.5zM20 1212l54 228q1 10 10 17t20 7h201q7 0 14 -8t5 -16l-54 -228q-1 -10 -10 -17t-20 -7h-201q-7 0 -14 8t-5 16 zM444 1212l54 228q1 10 10 17t20 7h201q7 0 14 -8t5 -16l-54 -228q-1 -10 -10 -17t-20 -7h-201q-7 0 -14 8t-5 16z" />
<glyph unicode="&#xf0;" horiz-adv-x="1210" d="M-12 422q0 96 35.5 185.5t100 159.5t163.5 112.5t217 42.5q124 0 213.5 -48t136.5 -126q33 156 -59 311l-275 -86q-9 -2 -18 2t-10 14l-33 127q-2 11 3.5 21.5t12.5 11.5l191 59q-80 68 -179 117q-8 2 -10 12.5t4 16.5l121 131q8 8 19.5 10t19.5 -2q178 -84 299 -199 l279 86q9 2 18 -2t10 -14l31 -127q2 -11 -3.5 -21.5t-12.5 -11.5l-201 -61q90 -153 90 -359q0 -159 -34.5 -292.5t-95 -228t-143 -161t-178 -98t-200.5 -31.5q-228 0 -370 126.5t-142 322.5zM309 406q0 -115 55.5 -171.5t141.5 -56.5q111 0 183.5 86t72.5 219 q0 115 -55.5 171.5t-143.5 56.5q-109 0 -181.5 -86t-72.5 -219z" />
<glyph unicode="&#xf1;" horiz-adv-x="1155" d="M-82 25l121 481l115 524q1 10 10 17.5t20 7.5h248q7 0 14 -8.5t5 -16.5l-31 -108q157 157 336 157q182 0 267.5 -108.5t41.5 -300.5l-49 -221l-90 -424q-1 -10 -10.5 -17.5t-20.5 -7.5h-262q-7 0 -14 8.5t-5 16.5l105 424l51 217q20 86 -20 137t-121 51q-85 0 -167 -85.5 t-118 -242.5l-18 -77l-93 -424q-1 -10 -10 -17.5t-20 -7.5h-266q-7 0 -14 8.5t-5 16.5zM369 1214q32 116 100.5 186t167.5 70q39 0 72.5 -17t52.5 -37t40.5 -37t39.5 -17q57 0 80 82q1 10 10.5 17t21.5 7h105q7 0 13.5 -8t4.5 -16q-32 -121 -98.5 -188.5t-163.5 -67.5 q-43 0 -77.5 17t-52.5 37t-40.5 37t-44.5 17q-52 0 -76 -82q-1 -10 -10 -17t-20 -7h-107q-7 0 -13.5 8t-4.5 16z" />
<glyph unicode="&#xf2;" horiz-adv-x="1175" d="M-6 418q0 295 173.5 479t444.5 184q214 0 348 -120.5t134 -321.5q0 -189 -78.5 -341.5t-219.5 -238.5t-317 -86q-213 0 -349 121.5t-136 323.5zM303 397q0 -108 49 -163.5t137 -55.5q132 0 211.5 123t79.5 350q0 110 -49 168t-135 58q-132 0 -212.5 -127.5t-80.5 -352.5z M307 1323l66 182q2 8 12.5 12.5t17.5 0.5l512 -211q7 -4 12 -14.5t3 -18.5l-41 -98q-2 -8 -12.5 -13t-20.5 -4l-532 135q-7 1 -13 11t-4 18z" />
<glyph unicode="&#xf3;" horiz-adv-x="1175" d="M-6 418q0 295 173.5 479t444.5 184q214 0 348 -120.5t134 -321.5q0 -189 -78.5 -341.5t-219.5 -238.5t-317 -86q-213 0 -349 121.5t-136 323.5zM303 397q0 -108 49 -163.5t137 -55.5q132 0 211.5 123t79.5 350q0 110 -49 168t-135 58q-132 0 -212.5 -127.5t-80.5 -352.5z M455 1270q-3 23 16 35l526 211q7 4 17 -1.5t12 -13.5l43 -182q2 -11 -3 -20.5t-15 -10.5l-537 -129q-11 -2 -20.5 3.5t-10.5 15.5z" />
<glyph unicode="&#xf4;" horiz-adv-x="1175" d="M-6 418q0 295 173.5 479t444.5 184q214 0 348 -120.5t134 -321.5q0 -189 -78.5 -341.5t-219.5 -238.5t-317 -86q-213 0 -349 121.5t-136 323.5zM300 1295q3 11 11 16l357 198q16 13 45 13h73q26 0 43 -17l242 -198q8 -6 9 -16.5t-5 -18.5l-84 -105q-6 -7 -17 -9t-18 3 l-247 150l-328 -146q-7 -4 -17.5 0.5t-15.5 12.5l-47 98q-4 8 -1 19zM303 397q0 -108 49 -163.5t137 -55.5q132 0 211.5 123t79.5 350q0 110 -49 168t-135 58q-132 0 -212.5 -127.5t-80.5 -352.5z" />
<glyph unicode="&#xf5;" horiz-adv-x="1175" d="M-6 418q0 295 173.5 479t444.5 184q214 0 348 -120.5t134 -321.5q0 -189 -78.5 -341.5t-219.5 -238.5t-317 -86q-213 0 -349 121.5t-136 323.5zM303 397q0 -108 49 -163.5t137 -55.5q132 0 211.5 123t79.5 350q0 110 -49 168t-135 58q-132 0 -212.5 -127.5t-80.5 -352.5z M362 1214q32 116 101 186t168 70q39 0 72.5 -17t52.5 -37t40.5 -37t39.5 -17q56 0 79 82q1 10 11 17t22 7h105q7 0 13.5 -8t4.5 -16q-32 -121 -98.5 -188.5t-163.5 -67.5q-43 0 -77.5 17t-52.5 37t-40.5 37t-44.5 17q-52 0 -76 -82q-1 -10 -10.5 -17t-20.5 -7h-106 q-7 0 -14 8t-5 16z" />
<glyph unicode="&#xf6;" horiz-adv-x="1175" d="M-6 418q0 295 173.5 479t444.5 184q214 0 348 -120.5t134 -321.5q0 -189 -78.5 -341.5t-219.5 -238.5t-317 -86q-213 0 -349 121.5t-136 323.5zM303 397q0 -108 49 -163.5t137 -55.5q132 0 211.5 123t79.5 350q0 110 -49 168t-135 58q-132 0 -212.5 -127.5t-80.5 -352.5z M352 1212l54 228q1 10 10 17t20 7h201q7 0 13.5 -8t4.5 -16l-53 -228q-1 -10 -10.5 -17t-20.5 -7h-200q-7 0 -14 8t-5 16zM776 1212l53 228q1 10 10.5 17t20.5 7h201q7 0 13.5 -8t4.5 -16l-53 -228q-1 -10 -10.5 -17t-20.5 -7h-200q-7 0 -14 8t-5 16z" />
<glyph unicode="&#xf7;" horiz-adv-x="1126" d="M63 616l39 179q1 10 10.5 17t20.5 7h914q7 0 13.5 -8t4.5 -16l-39 -179q-1 -10 -10.5 -17t-20.5 -7h-913q-7 0 -14 8t-5 16zM274 154l56 243q1 10 10 17.5t20 7.5h271q7 0 13.5 -8.5t4.5 -16.5l-55 -243q-1 -10 -10.5 -17.5t-20.5 -7.5h-270q-7 0 -14 8.5t-5 16.5z M473 1018l55 244q1 10 10.5 17t20.5 7h270q7 0 14 -8t5 -16l-55 -244q-1 -10 -10.5 -17.5t-20.5 -7.5h-270q-7 0 -14 8.5t-5 16.5z" />
<glyph unicode="&#xf8;" horiz-adv-x="1175" d="M-103.5 32q0.5 11 7.5 17l145 139q-57 103 -57 230q0 295 173.5 479t444.5 184q172 0 297 -80l8 9l146 139q7 6 18 5.5t17 -7.5l84 -100q6 -7 5.5 -18t-7.5 -17l-148 -138q62 -105 62 -235q0 -189 -78.5 -341.5t-219.5 -238.5t-317 -86q-170 0 -305 84l-152 -143 q-7 -6 -17.5 -5.5t-16.5 7.5l-84 98q-6 7 -5.5 18zM301 401l434 412q-49 64 -141 64q-131 0 -212 -127t-81 -349zM340 246q52 -68 147 -68q132 0 211.5 123t79.5 350v8z" />
<glyph unicode="&#xf9;" horiz-adv-x="1155" d="M-2 385l47 221l92 424q1 10 10.5 17.5t20.5 7.5h260q7 0 13.5 -8.5t4.5 -16.5l-104 -424l-49 -217q-20 -87 19 -137.5t122 -50.5t166 85.5t119 241.5l16 78l94 424q1 10 10.5 17.5t20.5 7.5h264q7 0 14 -8.5t5 -16.5l-121 -481l-113 -524q-1 -10 -10 -17.5t-20 -7.5h-248 q-7 0 -14 8.5t-5 16.5l31 108q-158 -158 -336 -158q-182 0 -267.5 109t-41.5 301zM293 1323l65 182q2 8 13 12.5t18 0.5l512 -211q7 -4 11.5 -14.5t2.5 -18.5l-41 -98q-2 -8 -12 -13t-20 -4l-533 135q-7 1 -12.5 11t-3.5 18z" />
<glyph unicode="&#xfa;" horiz-adv-x="1155" d="M-2 385l47 221l92 424q1 10 10.5 17.5t20.5 7.5h260q7 0 13.5 -8.5t4.5 -16.5l-104 -424l-49 -217q-20 -87 19 -137.5t122 -50.5t166 85.5t119 241.5l16 78l94 424q1 10 10.5 17.5t20.5 7.5h264q7 0 14 -8.5t5 -16.5l-121 -481l-113 -524q-1 -10 -10 -17.5t-20 -7.5h-248 q-7 0 -14 8.5t-5 16.5l31 108q-158 -158 -336 -158q-182 0 -267.5 109t-41.5 301zM444 1270q-3 23 17 35l526 211q7 4 17 -1.5t12 -13.5l43 -182q2 -11 -3.5 -20.5t-15.5 -10.5l-536 -129q-11 -2 -20.5 3.5t-10.5 15.5z" />
<glyph unicode="&#xfb;" horiz-adv-x="1155" d="M-2 385l47 221l92 424q1 10 10.5 17.5t20.5 7.5h260q7 0 13.5 -8.5t4.5 -16.5l-104 -424l-49 -217q-20 -87 19 -137.5t122 -50.5t166 85.5t119 241.5l16 78l94 424q1 10 10.5 17.5t20.5 7.5h264q7 0 14 -8.5t5 -16.5l-121 -481l-113 -524q-1 -10 -10 -17.5t-20 -7.5h-248 q-7 0 -14 8.5t-5 16.5l31 108q-158 -158 -336 -158q-182 0 -267.5 109t-41.5 301zM308 1295q3 11 11 16l357 198q16 13 45 13h74q26 0 43 -17l241 -198q8 -6 9 -16.5t-5 -18.5l-84 -105q-6 -7 -16.5 -9t-17.5 3l-248 150l-328 -146q-7 -4 -17.5 0.5t-15.5 12.5l-47 98 q-4 8 -1 19z" />
<glyph unicode="&#xfc;" horiz-adv-x="1155" d="M-2 385l47 221l92 424q1 10 10.5 17.5t20.5 7.5h260q7 0 13.5 -8.5t4.5 -16.5l-104 -424l-49 -217q-20 -87 19 -137.5t122 -50.5t166 85.5t119 241.5l16 78l94 424q1 10 10.5 17.5t20.5 7.5h264q7 0 14 -8.5t5 -16.5l-121 -481l-113 -524q-1 -10 -10 -17.5t-20 -7.5h-248 q-7 0 -14 8.5t-5 16.5l31 108q-158 -158 -336 -158q-182 0 -267.5 109t-41.5 301zM350 1212l53 228q1 10 10.5 17t20.5 7h201q7 0 13.5 -8t4.5 -16l-53 -228q-1 -10 -10.5 -17t-20.5 -7h-200q-7 0 -14 8t-5 16zM774 1212l53 228q1 10 10.5 17t20.5 7h201q7 0 13.5 -8 t4.5 -16l-53 -228q-1 -10 -10.5 -17t-20.5 -7h-200q-7 0 -14 8t-5 16z" />
<glyph unicode="&#xfd;" horiz-adv-x="1046" d="M43 -328l197 346l-174 1012q-2 8 5 16.5t15 8.5h262q11 0 19 -7.5t8 -17.5l80 -663l344 665q13 23 37 23h288q8 0 12.5 -7.5t0.5 -13.5l-781 -1362q-16 -20 -37 -20h-264q-8 0 -12 7t0 13zM391 1270q-3 23 17 35l526 211q7 4 17 -1.5t12 -13.5l43 -182q2 -11 -3.5 -20.5 t-15.5 -10.5l-536 -129q-11 -2 -20.5 3.5t-10.5 15.5z" />
<glyph unicode="&#xfe;" d="M-166 -324l211 875l188 858q1 10 10.5 17.5t20.5 7.5h262q7 0 14 -8.5t5 -16.5l-111 -448q120 114 291 114q141 0 240.5 -80.5t133.5 -220.5t-7 -328q-21 -93 -61 -173.5t-100.5 -148t-149.5 -106t-195 -38.5q-111 0 -197 45.5t-133 130.5l-104 -480q-1 -10 -10.5 -17 t-20.5 -7h-268q-7 0 -14 8t-5 16zM340 580q-43 -189 7.5 -292.5t170.5 -103.5q199 0 264 297q43 186 -6.5 287.5t-169.5 101.5q-98 0 -166 -74t-100 -216z" />
<glyph unicode="&#xff;" horiz-adv-x="1046" d="M43 -328l197 346l-174 1012q-2 8 5 16.5t15 8.5h262q11 0 19 -7.5t8 -17.5l80 -663l344 665q13 23 37 23h288q8 0 12.5 -7.5t0.5 -13.5l-781 -1362q-16 -20 -37 -20h-264q-8 0 -12 7t0 13zM297 1212l53 228q1 10 10.5 17t20.5 7h201q7 0 13.5 -8t4.5 -16l-53 -228 q-1 -10 -10.5 -17t-20.5 -7h-201q-7 0 -13.5 8t-4.5 16zM721 1212l53 228q1 10 10.5 17t20.5 7h201q7 0 13.5 -8t4.5 -16l-53 -228q-1 -10 -10.5 -17t-20.5 -7h-201q-7 0 -13.5 8t-4.5 16z" />
<glyph unicode="&#x152;" horiz-adv-x="2084" d="M29 596q0 160 51 297.5t138 235.5t202 167.5t245 103.5t265 34h1233q7 0 13.5 -8.5t4.5 -16.5l-41 -182q-1 -10 -10.5 -17.5t-20.5 -7.5h-663l-82 -330h608q7 0 14 -8t5 -16l-41 -182q-1 -10 -10.5 -17.5t-20.5 -7.5h-608l-90 -410h680q7 0 13.5 -8t4.5 -16l-41 -182 q-1 -10 -10.5 -17.5t-20.5 -7.5h-1163q-142 0 -259.5 36t-206.5 107.5t-139 187t-50 265.5zM354 627q0 -195 89 -295.5t237 -100.5h219l9 32q10 32 28 94.5t33 123.5l57 236l53 237q45 232 45 248h-223q-107 0 -204.5 -37.5t-174.5 -107.5t-122.5 -181.5t-45.5 -248.5z" />
<glyph unicode="&#x153;" horiz-adv-x="1939" d="M-6 418q0 295 173.5 479t444.5 184q116 0 213.5 -38.5t161.5 -108.5q163 147 422 147q262 0 386 -160.5t63 -431.5q-1 -10 -10.5 -17t-20.5 -7h-748q-2 -14 -2 -41q0 -123 46 -184.5t143 -61.5q188 0 243 154q3 24 33 24h244q7 0 13.5 -8t4.5 -16q-21 -73 -64.5 -136 t-110.5 -113.5t-164 -80t-214 -29.5q-251 0 -374 146q-165 -146 -398 -146q-213 0 -349 121.5t-136 323.5zM303 397q0 -108 49 -163.5t137 -55.5q132 0 211.5 123t79.5 350q0 110 -49 168t-135 58q-132 0 -212.5 -127.5t-80.5 -352.5zM1116 659h449q18 86 -33.5 153 t-151.5 67q-94 0 -162.5 -60t-101.5 -160z" />
<glyph unicode="&#x178;" horiz-adv-x="1257" d="M162 1409q-2 8 4.5 16.5t13.5 8.5h285q11 0 20.5 -7.5t10.5 -17.5l149 -637l434 641q17 21 39 21h299q7 0 11 -7.5t-1 -13.5l-698 -921l-96 -467q-1 -10 -9.5 -17.5t-19.5 -7.5h-276q-7 0 -14 8.5t-5 16.5l123 467zM489 1591l54 228q1 10 10 17t20 7h201q7 0 14 -8t5 -16 l-54 -228q-1 -10 -10 -17t-20 -7h-201q-7 0 -14 8t-5 16zM913 1591l54 228q1 10 10 17t20 7h201q7 0 14 -8t5 -16l-54 -228q-1 -10 -10 -17t-20 -7h-201q-7 0 -14 8t-5 16z" />
<glyph unicode="&#x2c6;" horiz-adv-x="1024" d="M259 1295q3 11 11 16l357 198q16 13 45 13h73q26 0 43 -17l242 -198q8 -6 9 -16.5t-5 -18.5l-84 -105q-6 -7 -17 -9t-18 3l-247 150l-328 -146q-7 -4 -17.5 0.5t-15.5 12.5l-47 98q-4 8 -1 19z" />
<glyph unicode="&#x2dc;" horiz-adv-x="1024" d="M309 1214q32 116 101 186t168 70q39 0 72.5 -17t52 -37t40 -37t39.5 -17q57 0 80 82q1 10 11 17t22 7h104q7 0 14 -8t5 -16q-32 -121 -98.5 -188.5t-163.5 -67.5q-43 0 -77.5 17t-52.5 37t-40.5 37t-44.5 17q-52 0 -76 -82q-1 -10 -10.5 -17t-20.5 -7h-106q-7 0 -14 8 t-5 16z" />
<glyph unicode="&#x2000;" horiz-adv-x="1019" />
<glyph unicode="&#x2001;" horiz-adv-x="2038" />
<glyph unicode="&#x2002;" horiz-adv-x="1019" />
<glyph unicode="&#x2003;" horiz-adv-x="2038" />
<glyph unicode="&#x2004;" horiz-adv-x="679" />
<glyph unicode="&#x2005;" horiz-adv-x="509" />
<glyph unicode="&#x2006;" horiz-adv-x="339" />
<glyph unicode="&#x2007;" horiz-adv-x="339" />
<glyph unicode="&#x2008;" horiz-adv-x="254" />
<glyph unicode="&#x2009;" horiz-adv-x="407" />
<glyph unicode="&#x200a;" horiz-adv-x="113" />
<glyph unicode="&#x2010;" horiz-adv-x="538" d="M-27 498l37 164q1 10 10.5 17t20.5 7h442q7 0 14 -8t5 -16l-37 -164q-1 -10 -10.5 -17.5t-20.5 -7.5h-442q-7 0 -14 8.5t-5 16.5z" />
<glyph unicode="&#x2011;" horiz-adv-x="538" d="M-27 498l37 164q1 10 10.5 17t20.5 7h442q7 0 14 -8t5 -16l-37 -164q-1 -10 -10.5 -17.5t-20.5 -7.5h-442q-7 0 -14 8.5t-5 16.5z" />
<glyph unicode="&#x2012;" horiz-adv-x="538" d="M-27 498l37 164q1 10 10.5 17t20.5 7h442q7 0 14 -8t5 -16l-37 -164q-1 -10 -10.5 -17.5t-20.5 -7.5h-442q-7 0 -14 8.5t-5 16.5z" />
<glyph unicode="&#x2013;" horiz-adv-x="845" d="M-20 528l36 164q1 10 10.5 17.5t20.5 7.5h750q7 0 13.5 -8.5t4.5 -16.5l-37 -164q-1 -10 -10 -17t-20 -7h-750q-7 0 -13.5 8t-4.5 16z" />
<glyph unicode="&#x2014;" horiz-adv-x="1255" d="M-20 528l36 164q1 10 10.5 17.5t20.5 7.5h1159q7 0 14 -8.5t5 -16.5l-37 -164q-1 -10 -10.5 -17t-20.5 -7h-1159q-7 0 -13.5 8t-4.5 16z" />
<glyph unicode="&#x2018;" horiz-adv-x="442" d="M109 926l53 233q4 25 22 43l211 213q19 19 41 19h123q7 0 11.5 -7.5t2.5 -15.5l-114 -225l-60 -260q-1 -10 -10 -17.5t-20 -7.5h-242q-7 0 -13.5 8.5t-4.5 16.5z" />
<glyph unicode="&#x2019;" horiz-adv-x="442" d="M84 924l115 225l59 260q1 10 10.5 17.5t20.5 7.5h241q7 0 14 -8.5t5 -16.5l-53 -233q-3 -23 -23 -43l-211 -213q-19 -19 -41 -19h-123q-7 0 -11.5 7.5t-2.5 15.5z" />
<glyph unicode="&#x201a;" horiz-adv-x="452" d="M-193 -217l115 225l60 260q1 10 10 17.5t20 7.5h242q7 0 13.5 -8.5t4.5 -16.5l-53 -233q-3 -25 -22 -43l-211 -213q-19 -19 -41 -19h-123q-7 0 -12 7.5t-3 15.5z" />
<glyph unicode="&#x201c;" horiz-adv-x="831" d="M100 926l54 233q4 25 22 43l211 213q19 19 41 19h123q7 0 11.5 -7.5t2.5 -15.5l-114 -225l-60 -260q-1 -10 -10.5 -17.5t-20.5 -7.5h-241q-7 0 -14 8.5t-5 16.5zM489 926l54 233q3 25 22 43l211 213q19 19 41 19h123q7 0 11.5 -7.5t2.5 -15.5l-114 -225l-60 -260 q-1 -10 -10 -17.5t-20 -7.5h-242q-7 0 -14 8.5t-5 16.5z" />
<glyph unicode="&#x201d;" horiz-adv-x="831" d="M84 924l115 225l59 260q1 10 10.5 17.5t20.5 7.5h241q7 0 14 -8.5t5 -16.5l-53 -233q-3 -23 -23 -43l-211 -213q-19 -19 -41 -19h-123q-7 0 -11.5 7.5t-2.5 15.5zM473 924l115 225l59 260q1 10 10.5 17.5t20.5 7.5h242q7 0 13.5 -8.5t4.5 -16.5l-53 -233q-3 -23 -23 -43 l-211 -213q-19 -19 -41 -19h-123q-7 0 -11.5 7.5t-2.5 15.5z" />
<glyph unicode="&#x201e;" horiz-adv-x="811" d="M-211 -217l115 225l59 260q1 10 10.5 17.5t20.5 7.5h242q7 0 13.5 -8.5t4.5 -16.5l-53 -233q-3 -23 -23 -43l-211 -213q-19 -19 -41 -19h-123q-7 0 -11.5 7.5t-2.5 15.5zM178 -217l115 225l59 260q1 10 10.5 17.5t20.5 7.5h242q7 0 13.5 -8.5t4.5 -16.5l-53 -233 q-3 -23 -23 -43l-211 -213q-19 -19 -41 -19h-122q-7 0 -12 7.5t-3 15.5z" />
<glyph unicode="&#x2022;" horiz-adv-x="606" d="M-29 373l111 479q1 10 10.5 17.5t20.5 7.5h454q7 0 14 -8.5t5 -16.5l-111 -479q-1 -10 -10.5 -17.5t-20.5 -7.5h-454q-7 0 -14 8.5t-5 16.5z" />
<glyph unicode="&#x2026;" horiz-adv-x="1398" d="M-92 25l55 243q1 10 10.5 17.5t20.5 7.5h270q7 0 14 -8.5t5 -16.5l-56 -243q-1 -10 -10 -17.5t-20 -7.5h-271q-7 0 -13.5 8.5t-4.5 16.5zM381 25l55 243q1 10 10.5 17.5t20.5 7.5h270q7 0 14 -8.5t5 -16.5l-56 -243q-1 -10 -10 -17.5t-20 -7.5h-271q-7 0 -13.5 8.5 t-4.5 16.5zM854 25l55 243q1 10 10.5 17.5t20.5 7.5h270q7 0 14 -8.5t5 -16.5l-55 -243q-1 -10 -10.5 -17.5t-20.5 -7.5h-271q-7 0 -13.5 8.5t-4.5 16.5z" />
<glyph unicode="&#x202f;" horiz-adv-x="407" />
<glyph unicode="&#x2039;" horiz-adv-x="643" d="M-5 529.5q1 11.5 7 19.5l369 369q18 18 41 18h223q7 0 10 -6t-2 -10l-403 -404l223 -358q2 -7 -1.5 -14t-10.5 -7h-205q-20 0 -37 21l-211 352q-4 8 -3 19.5z" />
<glyph unicode="&#x203a;" horiz-adv-x="643" d="M-91 143.5q-3 6.5 3 10.5l401 391l-223 370q-4 6 0 13.5t12 7.5h205q20 0 37 -21l211 -364q5 -7 3 -19t-9 -18l-363 -360q-17 -17 -43 -17h-225q-6 0 -9 6.5z" />
<glyph unicode="&#x205f;" horiz-adv-x="509" />
<glyph unicode="&#x20ac;" horiz-adv-x="1398" d="M-14 463l37 158q1 10 10 17t20 7h99q1 31 20 131h-90q-7 0 -14 8.5t-5 16.5l37 157q1 10 10.5 17.5t20.5 7.5h113q103 216 282.5 348.5t407.5 132.5q214 0 354 -94q139 -95 148 -328q0 -7 -8.5 -15.5t-16.5 -8.5h-256q-8 0 -16.5 7t-8.5 17q-6 93 -54.5 138t-160.5 45 q-100 0 -185.5 -65.5t-149.5 -176.5h321q7 0 14 -8.5t5 -16.5l-37 -157q-1 -10 -10.5 -17.5t-20.5 -7.5h-354q-22 -94 -27 -131h352q7 0 14 -8t5 -16l-37 -158q-1 -10 -10.5 -17.5t-20.5 -7.5h-309q22 -229 215 -229q121 0 190.5 52.5t122.5 164.5q10 23 35 23h262 q8 0 13.5 -8t1.5 -15q-107 -245 -252 -350q-143 -107 -379 -107q-224 0 -360.5 126t-161.5 343h-148q-7 0 -13.5 8.5t-4.5 16.5z" />
<glyph unicode="&#x2122;" horiz-adv-x="1318" d="M137 1339v70q0 7 8.5 16t16.5 9h436q8 0 16.5 -9t8.5 -16v-70q0 -7 -8.5 -15.5t-16.5 -8.5h-141l-2 -185l4 -278q0 -8 -8.5 -16.5t-16.5 -8.5h-108q-8 0 -16.5 8.5t-8.5 16.5l4 278l-2 185h-141q-8 0 -16.5 8.5t-8.5 15.5zM670 852l2 278l-2 279q0 8 8.5 16.5t15.5 8.5 h146q10 0 20 -7.5t12 -15.5l146 -395l137 395q2 8 12.5 15.5t20.5 7.5h135q7 0 16 -9t9 -16l-2 -279l2 -278q0 -8 -9 -16.5t-16 -8.5h-102q-7 0 -16 8.5t-9 16.5v254l2 86l-119 -342q-2 -8 -12 -15.5t-20 -7.5h-76q-10 0 -20.5 7.5t-12.5 15.5l-135 364l6 -108v-254 q0 -8 -8.5 -16.5t-16.5 -8.5h-90q-7 0 -15.5 8.5t-8.5 16.5z" />
<glyph unicode="&#x25fc;" horiz-adv-x="1054" d="M0 0v1055h1055v-1055h-1055z" />
</font>
</defs>
</svg>
