<?xml version="1.0" standalone="no"?>
<!DOCTYPE svg PUBLIC "-//W3C//DTD SVG 1.1//EN" "http://www.w3.org/Graphics/SVG/1.1/DTD/svg11.dtd" >
<svg xmlns="http://www.w3.org/2000/svg" xmlns:xlink="http://www.w3.org/1999/xlink" version="1.1">
<metadata></metadata>
<defs>
<font id="formadjrmicrobold" horiz-adv-x="1216" >
<font-face units-per-em="2048" ascent="1536" descent="-512" />
<missing-glyph horiz-adv-x="405" />
<glyph horiz-adv-x="0" />
<glyph horiz-adv-x="682" />
<glyph unicode=" "  horiz-adv-x="405" />
<glyph unicode="&#x09;" horiz-adv-x="405" />
<glyph unicode="&#xa0;" horiz-adv-x="405" />
<glyph unicode="!" horiz-adv-x="497" d="M96 27v241q0 10 8 18.5t19 8.5h252q10 0 18 -8t8 -19v-241q0 -11 -8 -19t-18 -8h-252q-11 0 -19 8t-8 19zM96 442v965q0 11 8 19t19 8h252q10 0 18 -8t8 -19v-965q0 -10 -7.5 -18t-18.5 -8h-252q-11 0 -19 8t-8 18z" />
<glyph unicode="&#x22;" horiz-adv-x="858" d="M92 1407q-1 10 6.5 18.5t18.5 8.5h237q11 0 18.5 -8.5t6.5 -18.5l-35 -479q-2 -11 -10.5 -19t-18.5 -8h-159q-10 0 -18.5 8t-10.5 19zM481 1407q-1 10 6.5 18.5t18.5 8.5h237q11 0 18.5 -8.5t6.5 -18.5l-35 -479q-2 -11 -10 -19t-18 -8h-160q-10 0 -18.5 8t-10.5 19z" />
<glyph unicode="#" horiz-adv-x="1388" d="M12 317l31 168q1 10 10.5 18.5t20.5 8.5h205l59 418h-205q-10 0 -17 7.5t-5 18.5l22 168q1 10 10.5 18.5t20.5 8.5h205l37 256q2 11 11 19t19 8h234q10 0 17 -8t5 -19l-37 -256h205l37 256q1 10 10.5 18.5t20.5 8.5h233q10 0 17.5 -8t5.5 -19l-37 -256h207q10 0 17 -8 t5 -19l-22 -168q-1 -10 -10.5 -18t-20.5 -8h-207l-59 -418h207q10 0 17 -8t5 -19l-31 -168q-1 -10 -10 -18t-20 -8h-201l-37 -264q-1 -10 -10.5 -18.5t-20.5 -8.5h-233q-10 0 -17.5 8t-5.5 19l37 264h-205l-36 -264q-1 -10 -10.5 -18.5t-20.5 -8.5h-234q-10 0 -17 8t-5 19 l37 264h-211q-11 0 -17.5 8t-5.5 18zM565 512h205l59 418h-204z" />
<glyph unicode="$" horiz-adv-x="1257" d="M61 457q0 10 8 18t19 8h272q11 0 20 -8t9 -18q15 -127 74 -191.5t192 -64.5q228 0 228 190q0 119 -123 154q-27 6 -81 19t-101 24.5t-91 21.5q-148 34 -272 117q-125 82 -125 301q0 169 96 280.5t273 143.5v119q0 11 7.5 18.5t18.5 7.5h258q11 0 19 -8t8 -18v-123 q158 -32 256.5 -134.5t124.5 -277.5q1 -10 -5.5 -18t-17.5 -8h-272q-28 0 -31 26q-12 93 -72.5 143t-160.5 50q-89 0 -141 -42.5t-52 -127.5q0 -117 125 -144q49 -12 149 -34.5t126 -28.5q150 -35 272 -115q125 -82 125 -303q0 -194 -109.5 -311.5t-308.5 -147.5v-153 q0 -11 -8 -19t-18 -8h-258q-10 0 -18.5 8.5t-8.5 18.5v164q-182 36 -289 155t-117 316z" />
<glyph unicode="%" horiz-adv-x="1853" d="M61 1079q0 178 104.5 276.5t283.5 98.5q176 0 280.5 -99t104.5 -276q0 -176 -103.5 -269t-281.5 -93q-179 0 -283.5 92t-104.5 270zM279 7q-4 7 2 13l1036 1393q21 21 43 21h203q8 0 12 -7.5t-2 -13.5l-1036 -1393q-20 -20 -43 -20h-203q-8 0 -12 7zM322 1079 q0 -184 127 -184q64 0 94 43.5t30 140.5q0 197 -127 197q-124 0 -124 -197zM1020 354q0 176 103.5 269.5t281.5 93.5q179 0 283 -92.5t104 -270.5t-104 -276t-283 -98q-176 0 -280.5 98.5t-104.5 275.5zM1280 354q0 -196 127 -196q125 0 125 196q0 185 -127 185 q-64 0 -94.5 -44t-30.5 -141z" />
<glyph unicode="&#x26;" horiz-adv-x="1452" d="M57 389q0 65 19 124t49.5 103.5t76.5 86t91.5 71.5t103.5 60q-147 186 -147 325q0 131 115 223q117 91 311 91q112 0 200.5 -35.5t143 -107.5t57.5 -171q0 -50 -17 -95.5t-42.5 -78.5t-68.5 -68t-80 -58t-93 -54q34 -38 170 -203l70 -84q33 104 43 191q2 11 10 18.5 t18 7.5h232q10 0 17 -7.5t5 -18.5q-27 -220 -149 -408l229 -281q5 -6 1 -13t-11 -7h-311q-23 0 -43 20l-64 78q-186 -125 -411 -125q-140 0 -257.5 46t-192.5 142.5t-75 227.5zM360 406q0 -112 67 -168t179 -56q142 0 248 92l-262 328q-9 12 -28.5 34.5t-28.5 33.5 q-84 -57 -129.5 -119.5t-45.5 -144.5zM539 1153q0 -37 23.5 -79t82.5 -113q87 46 132.5 91.5t45.5 104.5q0 66 -39 101.5t-108 35.5q-63 0 -100 -36.5t-37 -104.5z" />
<glyph unicode="'" horiz-adv-x="475" d="M96 1407q-1 10 6.5 18.5t18.5 8.5h237q11 0 18.5 -8.5t6.5 -18.5l-35 -479q-2 -11 -10.5 -19t-18.5 -8h-159q-10 0 -18.5 8t-10.5 19z" />
<glyph unicode="(" horiz-adv-x="569" d="M53 614q0 462 207 859q13 22 39 22h188q7 0 13 -8.5t4 -16.5q-187 -416 -187 -856q0 -454 189 -876q2 -8 -4 -16.5t-13 -8.5h-188q-25 0 -39 25q-209 424 -209 876z" />
<glyph unicode=")" horiz-adv-x="569" d="M63 -262q189 422 189 876q0 443 -186 856q-2 8 3.5 16.5t12.5 8.5h188q26 0 39 -22q207 -397 207 -859q0 -452 -209 -876q-14 -25 -39 -25h-188q-7 0 -13 8.5t-4 16.5z" />
<glyph unicode="*" horiz-adv-x="720" d="M15 1272.5q-4 11.5 1 21.5l60 117q4 10 16 13t19 -3l157 -94l-8 182q-1 10 6.5 18.5t18.5 8.5h129q10 0 18 -8t8 -19l-6 -180l156 103q8 6 19 2.5t16 -11.5l63 -112q4 -8 1 -19t-11 -16l-152 -84l144 -72q10 -4 13.5 -15.5t-1.5 -21.5l-55 -118q-5 -8 -16 -12t-19 1 l-154 93l8 -175q1 -10 -6 -18t-18 -8h-133q-11 0 -18.5 8t-6.5 18l6 177l-149 -97q-8 -5 -19.5 -2t-17.5 11l-64 108q-6 8 -2.5 19t11.5 16l147 78l-147 75q-10 4 -14 15.5z" />
<glyph unicode="+" horiz-adv-x="1146" d="M92 618v175q0 10 8 18t19 8h338v383q0 11 8 19t18 8h183q10 0 18 -8t8 -19v-383h336q11 0 19 -8t8 -18v-175q0 -10 -8 -18t-19 -8h-336v-381q0 -11 -8 -19t-18 -8h-183q-10 0 -18 8t-8 19v381h-338q-11 0 -19 8t-8 18z" />
<glyph unicode="," horiz-adv-x="473" d="M61 -213l62 221v258q0 10 8.5 18.5t18.5 8.5h237q11 0 19 -8.5t8 -18.5v-229q0 -30 -17 -47l-153 -209q-21 -21 -43 -21h-119q-8 0 -15 8.5t-6 18.5z" />
<glyph unicode="-" horiz-adv-x="559" d="M33 530v160q0 11 8 19t18 8h439q10 0 18 -8t8 -19v-160q0 -10 -8 -18t-18 -8h-439q-11 0 -18.5 8t-7.5 18z" />
<glyph unicode="&#xad;" horiz-adv-x="559" d="M33 530v160q0 11 8 19t18 8h439q10 0 18 -8t8 -19v-160q0 -10 -8 -18t-18 -8h-439q-11 0 -18.5 8t-7.5 18z" />
<glyph unicode="." horiz-adv-x="473" d="M78 27v239q0 11 8 19t18 8h267q10 0 18 -8t8 -19v-239q0 -11 -8 -19t-18 -8h-267q-10 0 -18 8t-8 19z" />
<glyph unicode="/" horiz-adv-x="763" d="M59 -260l422 1728q1 11 11.5 19t21.5 8h172q10 0 16.5 -8t4.5 -19l-422 -1728q-1 -11 -11.5 -19t-21.5 -8h-172q-8 0 -15 8.5t-6 18.5z" />
<glyph unicode="0" horiz-adv-x="1257" d="M57 713q0 363 153 557t417 194q265 0 418 -191.5t153 -559.5q0 -357 -156 -551q-156 -193 -415 -193q-256 0 -412 193q-158 196 -158 551zM379 713q0 -504 250 -504q248 0 248 504q0 512 -250 512q-125 0 -186.5 -123t-61.5 -389z" />
<glyph unicode="1" horiz-adv-x="845" d="M68 952v185q0 12 7 22.5t17 11.5q198 74 289 238q13 25 41 25h254q10 0 18 -8t8 -19l-20 -768l20 -612q0 -11 -8 -19t-18 -8h-279q-10 0 -18 8t-8 19l16 708l-8 355q-110 -101 -287 -156q-8 -2 -16 3t-8 15z" />
<glyph unicode="2" horiz-adv-x="1134" d="M66 27v174q0 214 110 327q111 114 244 185q187 100 244 133q110 61 110 174q5 103 -48.5 160.5t-152.5 56.5q-95 -2 -152 -69t-63 -193q0 -11 -8 -19t-18 -8h-232q-10 0 -18 8t-8 19q2 231 129.5 357.5t369.5 127.5q234 0 359 -113t131 -317q0 -197 -111 -305 q-112 -109 -241 -178q-57 -31 -244 -129q-111 -58 -111 -162v-25h680q11 0 19 -8t8 -18v-178q0 -11 -8.5 -19t-18.5 -8h-944q-10 0 -18 8t-8 19z" />
<glyph unicode="3" horiz-adv-x="1150" d="M57 424q-1 10 6.5 18.5t18.5 8.5h248q10 0 18 -8t8 -19q8 -113 62.5 -175t152.5 -61q95 0 154.5 65.5t60.5 176.5q2 123 -67.5 177.5t-229.5 54.5h-34q-11 0 -19 8t-8 18v146q0 10 8 18t19 8h34q136 0 204.5 52.5t68.5 142.5q0 81 -52 135.5t-128 54.5q-188 0 -203 -205 q-1 -12 -9.5 -19t-19.5 -7h-244q-11 0 -18 8t-6 18q17 201 150.5 307.5t365.5 106.5q209 0 338 -100q128 -101 131 -269q0 -122 -64 -198t-172 -111q130 -32 201.5 -120t71.5 -216q0 -142 -75.5 -248.5t-197 -159t-268.5 -52.5q-231 0 -358.5 113t-147.5 331z" />
<glyph unicode="4" horiz-adv-x="1212" d="M57 352v211q0 23 15 49l512 799q13 23 41 23h358q11 0 19 -8t8 -19v-850h131q10 0 18 -8t8 -19v-178q0 -10 -7.5 -18t-18.5 -8h-131v-299q0 -11 -8 -19t-19 -8h-258q-11 0 -19 8t-8 19v299h-614q-11 0 -19 8t-8 18zM303 557h395v361l11 288z" />
<glyph unicode="5" horiz-adv-x="1193" d="M74 356q-1 10 6 18.5t18 8.5h254q12 0 21 -7.5t10 -19.5q6 -85 59.5 -130.5t137.5 -45.5q111 0 172 81t61 235q0 151 -55 228t-174 77q-79 0 -133 -36.5t-74 -105.5q-1 -12 -11.5 -19t-23.5 -7h-215q-11 0 -18.5 8t-6.5 18l54 748q2 11 10 19t18 8h844q10 0 18.5 -8 t8.5 -19v-178q0 -11 -8.5 -19t-18.5 -8h-596l-29 -272q113 88 279 88q195 0 328 -141t133 -359q0 -253 -154 -402t-407 -149q-222 0 -354.5 106t-153.5 283z" />
<glyph unicode="6" horiz-adv-x="1224" d="M72 713q0 361 159 557q156 194 424 194q191 0 308.5 -93t142.5 -263q0 -11 -7.5 -19t-17.5 -8h-247q-12 0 -22 7.5t-11 19.5q-14 64 -57 102.5t-113 38.5q-114 0 -175 -106t-63 -299q104 119 301 119q206 0 336 -127q129 -126 129 -340q0 -142 -68.5 -263t-191 -192.5 t-270.5 -71.5q-262 0 -409.5 194.5t-147.5 549.5zM403 473q0 -130 55 -205t154 -75q101 0 162.5 71t61.5 197q0 133 -52.5 208.5t-154.5 75.5q-105 0 -165.5 -72t-60.5 -200z" />
<glyph unicode="7" horiz-adv-x="1015" d="M35 1229v178q0 11 8 19t18 8h893q10 0 18.5 -8t8.5 -19v-184q0 -31 -12 -52q-309 -607 -383 -1144q-1 -10 -10.5 -18.5t-20.5 -8.5h-270q-10 0 -17.5 8t-5.5 19q51 328 148.5 633.5t232.5 541.5h-582q-10 0 -18 8t-8 19z" />
<glyph unicode="8" horiz-adv-x="1220" d="M61 410q0 123 68.5 213.5t200.5 134.5q-233 117 -230 303q4 195 134.5 297t375.5 102t376.5 -102t135.5 -297q3 -182 -231 -303q132 -44 201 -134.5t69 -213.5q0 -136 -74.5 -235t-197.5 -147t-279 -48q-155 0 -277.5 48t-197 147t-74.5 235zM365 420q0 -104 69.5 -172 t175.5 -68t176 68t70 172t-67.5 166.5t-178.5 62.5t-178 -62.5t-67 -166.5zM401 1044q0 -92 57.5 -148t151.5 -56t151.5 56t57.5 148q0 97 -56.5 155t-152.5 58t-152.5 -58t-56.5 -155z" />
<glyph unicode="9" horiz-adv-x="1224" d="M72 938q0 142 68.5 262.5t191 192t270.5 71.5q262 0 409.5 -194t147.5 -549q0 -359 -158 -555q-159 -197 -426 -197q-190 0 -307.5 93.5t-142.5 263.5q0 11 7.5 18.5t17.5 7.5h247q12 0 22 -7t11 -19q14 -64 57 -103t113 -39q114 0 175 106.5t63 299.5 q-104 -119 -301 -119q-206 0 -336 127q-129 126 -129 340zM395 973q0 -133 52.5 -209t154.5 -76q105 0 165 72.5t60 200.5q0 130 -55 205t-154 75q-101 0 -162 -71t-61 -197z" />
<glyph unicode=":" horiz-adv-x="473" d="M74 27v239q0 11 8 19t18 8h267q10 0 18 -8t8 -19v-239q0 -11 -8 -19t-18 -8h-267q-10 0 -18 8t-8 19zM74 788v240q0 11 8 19t18 8h267q10 0 18 -8t8 -19v-240q0 -10 -7.5 -18t-18.5 -8h-267q-10 0 -18 8t-8 18z" />
<glyph unicode=";" horiz-adv-x="473" d="M63 -213l62 221v258q0 10 8.5 18.5t18.5 8.5h237q11 0 19 -8.5t8 -18.5v-229q0 -30 -17 -47l-153 -209q-21 -21 -43 -21h-119q-8 0 -15 8.5t-6 18.5zM78 788v240q0 11 8 19t18 8h267q10 0 18 -8t8 -19v-240q0 -10 -7.5 -18t-18.5 -8h-267q-10 0 -18 8t-8 18z" />
<glyph unicode="&#x3c;" horiz-adv-x="1146" d="M92 618v175q0 25 25 36l913 410q8 2 16.5 -3.5t8.5 -12.5v-185q0 -26 -25 -37l-702 -294l702 -297q25 -11 25 -37v-185q0 -7 -8.5 -12.5t-16.5 -3.5l-913 410q-25 11 -25 36z" />
<glyph unicode="=" horiz-adv-x="1146" d="M92 352v174q0 10 8 18.5t19 8.5h909q10 0 18.5 -8.5t8.5 -18.5v-174q0 -10 -8 -18t-19 -8h-909q-11 0 -19 8t-8 18zM92 885v174q0 10 8 18t19 8h909q11 0 19 -8t8 -18v-174q0 -11 -8.5 -19t-18.5 -8h-909q-11 0 -19 8t-8 19z" />
<glyph unicode="&#x3e;" horiz-adv-x="1146" d="M92 188v185q0 26 25 37l702 297l-702 294q-25 11 -25 37v185q0 7 8.5 12.5t16.5 3.5l913 -410q25 -11 25 -36v-175q0 -25 -25 -36l-913 -410q-8 -2 -16.5 3.5t-8.5 12.5z" />
<glyph unicode="?" horiz-adv-x="1069" d="M23 1032q13 204 146.5 312t371.5 108q216 0 352.5 -107.5t136.5 -297.5q0 -63 -18 -115t-47 -89t-65 -70t-72.5 -66t-67.5 -68.5t-52 -86t-24 -110.5q0 -10 -8 -18t-19 -8h-256q-11 0 -18.5 8t-7.5 18q3 79 24 145.5t52 112.5t67.5 85.5t72.5 71t65.5 61t48 64t18.5 71.5 q0 90 -54.5 140t-144.5 52q-195 3 -211 -213q0 -10 -7.5 -18t-18.5 -8h-240q-11 0 -18 8t-6 18zM373 27v241q0 11 8 19t18 8h258q11 0 19 -8.5t8 -18.5v-241q0 -11 -8 -19t-19 -8h-258q-10 0 -18 8t-8 19z" />
<glyph unicode="@" horiz-adv-x="1716" d="M57 514q0 208 57 377t160.5 283.5t250 176.5t323.5 62q181 0 331 -62t255.5 -176.5t164 -284t58.5 -378.5q0 -229 -88 -348q-89 -123 -207 -123q-56 0 -114.5 16.5t-113.5 59.5t-73 104q-51 -90 -133.5 -140t-190.5 -50q-133 0 -229 66.5t-142.5 177.5t-46.5 253 q0 141 50 255.5t147 182.5t225 68q180 0 281 -123l-4 76q-1 10 6 18.5t18 8.5h226q10 0 18 -8t8 -19v-688q0 -111 68 -111q59 0 96 83t37 241q0 355 -176 555q-175 199 -473 199q-286 0 -457 -201q-172 -199 -172 -553q0 -343 169.5 -538t459.5 -195q295 0 440 196 q16 23 43 23h121q8 0 12 -8t0 -15q-216 -344 -616 -344q-176 0 -322.5 61.5t-249.5 174.5t-160 279t-57 368zM606 545q0 -163 54 -246.5t155 -81.5q103 0 157.5 78t55.5 231t-53 236.5t-154 85.5q-105 1 -160 -77t-55 -226z" />
<glyph unicode="A" horiz-adv-x="1396" d="M6 25l481 1384q1 10 12 17.5t23 7.5h367q12 0 23 -7.5t12 -17.5l471 -1384q2 -8 -3.5 -16.5t-15.5 -8.5h-268q-12 0 -23 7.5t-12 17.5l-108 340h-537l-104 -340q-1 -10 -12 -17.5t-23 -7.5h-264q-7 0 -14 8.5t-5 16.5zM504 612h383l-197 613z" />
<glyph unicode="B" horiz-adv-x="1329" d="M102 27l19 690l-19 690q0 11 8 19t19 8h612q150 0 262 -36t180 -117.5t68 -201.5q0 -243 -247 -317q139 -31 212.5 -119t73.5 -209q0 -90 -30 -164t-81 -123.5t-120.5 -83t-146 -48.5t-160.5 -15h-623q-11 0 -19 8t-8 19zM412 639l16 -422h317q230 0 230 217 q0 106 -64 155.5t-166 49.5h-333zM412 856h333q92 0 143.5 45.5t51.5 132.5q0 89 -55 136t-140 47h-317z" />
<glyph unicode="C" horiz-adv-x="1462" d="M57 711q0 343 193 548t518 205q229 0 403 -110q171 -110 236 -391q2 -11 -4.5 -19t-16.5 -8h-251q-11 0 -21.5 8t-11.5 19q-31 126 -117 194t-221 68q-184 0 -284.5 -136t-100.5 -376q0 -238 100.5 -371t282.5 -133q282 0 346 295q1 12 10.5 19t20.5 7h258q10 0 16 -7.5 t4 -18.5q-58 -278 -222.5 -406.5t-424.5 -128.5q-216 0 -379 94.5t-248.5 262.5t-85.5 385z" />
<glyph unicode="D" horiz-adv-x="1447" d="M102 27l19 690l-19 690q0 11 8 19t19 8h502q158 0 292.5 -43.5t240.5 -129.5t166.5 -228t60.5 -326q0 -148 -40 -268t-109.5 -201t-166.5 -135t-206.5 -78.5t-233.5 -24.5h-506q-11 0 -19 8t-8 19zM412 723q1 -111 4.5 -232t7.5 -191l4 -69h223q89 0 163 27.5t132 83.5 t90.5 149.5t32.5 217.5q0 243 -118 368t-308 125h-215q-1 0 -4.5 -68t-7 -186t-4.5 -225z" />
<glyph unicode="E" horiz-adv-x="1193" d="M102 27l19 690l-19 690q0 11 8 19t19 8h954q11 0 19 -8t8 -19v-178q0 -11 -8 -19t-19 -8h-655l-16 -330h612q11 0 19 -8t8 -18v-178q0 -10 -8.5 -18.5t-18.5 -8.5h-612l16 -410h672q10 0 18 -7.5t8 -18.5v-178q0 -11 -8 -19t-18 -8h-971q-11 0 -19 8t-8 19z" />
<glyph unicode="F" horiz-adv-x="1124" d="M102 27l19 690l-19 690q0 11 8 19t19 8h924q10 0 18 -8t8 -19v-178q0 -11 -8 -19t-18 -8h-625l-16 -393h612q10 0 18.5 -8.5t8.5 -18.5v-178q0 -10 -8 -18t-19 -8h-612l16 -551q0 -11 -8 -19t-19 -8h-272q-11 0 -19 8t-8 19z" />
<glyph unicode="G" horiz-adv-x="1511" d="M57 717q0 340 191.5 543.5t511.5 203.5q260 0 429.5 -123t227.5 -346q2 -11 -4 -18.5t-16 -7.5h-269q-24 0 -34 26q-36 114 -120 174t-212 60q-184 0 -283.5 -137.5t-99.5 -378.5q0 -235 104.5 -371.5t292.5 -136.5q155 0 244.5 90.5t95.5 255.5h-348q-10 0 -18.5 8.5 t-8.5 18.5v172q0 10 8 18t19 8h655q11 0 19 -8t8 -22q0 -383 -178 -580q-179 -197 -510 -197q-206 0 -366.5 94t-249.5 264.5t-89 389.5z" />
<glyph unicode="H" horiz-adv-x="1462" d="M102 27l19 690l-19 690q0 11 8 19t19 8h274q11 0 19 -8t8 -19l-12 -526h626l-12 526q0 11 8 19t19 8h274q11 0 19 -8t8 -19l-19 -690l19 -690q0 -11 -8 -19t-19 -8h-274q-11 0 -19 8t-8 19l15 622h-631l14 -622q0 -11 -8 -19t-19 -8h-274q-11 0 -19 8t-8 19z" />
<glyph unicode="I" horiz-adv-x="548" d="M113 27l18 690l-18 690q0 11 8 19t18 8h271q10 0 18 -8t8 -19l-18 -690l18 -690q0 -11 -8 -19t-18 -8h-271q-10 0 -18 8t-8 19z" />
<glyph unicode="J" horiz-adv-x="1114" d="M33 487q0 11 8 19t18 8h250q11 0 19 -8t8 -19q2 -137 47 -205.5t141 -68.5q100 0 141.5 71.5t43.5 229.5l6 283l-17 610q0 11 8 19t19 8h281q10 0 18 -8t8 -19l-16 -610l6 -285v-24q0 -251 -124 -382q-129 -137 -376 -137q-233 0 -358 137.5t-131 380.5z" />
<glyph unicode="K" horiz-adv-x="1316" d="M102 27l17 690l-17 690q0 11 8 19t19 8h270q11 0 19 -8t8 -19l-12 -573l415 577q16 23 43 23h316q7 0 11 -7.5t-1 -13.5l-461 -563l574 -827q4 -7 -0.5 -15t-12.5 -8h-331q-28 0 -41 23l-160 237l-229 346l-119 -149l8 -430q0 -11 -8 -19t-19 -8h-270q-11 0 -19 8t-8 19z " />
<glyph unicode="L" horiz-adv-x="1034" d="M102 27l19 690l-19 690q0 11 8 19t19 8h272q11 0 19 -8t8 -19l-16 -672l16 -504h569q11 0 19 -8t8 -18v-178q0 -11 -8 -19t-19 -8h-868q-11 0 -19 8t-8 19z" />
<glyph unicode="M" horiz-adv-x="1775" d="M102 27l17 690l-17 690q0 11 8 19t19 8h367q25 0 36 -25l379 -1024l359 1024q1 10 12 17.5t23 7.5h342q10 0 18 -8t8 -19l-16 -690l16 -690q0 -11 -8 -19t-18 -8h-265q-10 0 -18 8t-8 19v426l10 491l2 66l-348 -985q-1 -10 -12 -17.5t-23 -7.5h-192q-26 0 -37 25 l-381 1030l4 -115l10 -487v-426q0 -11 -8.5 -19t-18.5 -8h-233q-11 0 -19 8t-8 19z" />
<glyph unicode="N" horiz-adv-x="1456" d="M102 27l17 690l-17 690q0 11 8 19t19 8h330q25 0 39 -23l571 -1010l-2 33l-10 451v522q0 11 8 19t18 8h244q11 0 19 -8t8 -19l-17 -690l17 -690q0 -11 -8 -19t-19 -8h-342q-25 0 -39 23l-561 1001l4 -98l10 -447v-452q0 -11 -8 -19t-18 -8h-244q-11 0 -19 8t-8 19z" />
<glyph unicode="O" horiz-adv-x="1562" d="M57 713q0 341 197 546t526 205t527 -203t198 -548q0 -217 -89.5 -386t-255 -263.5t-380.5 -94.5q-216 0 -381 94.5t-253.5 263t-88.5 386.5zM379 713q0 -234 106.5 -369t296.5 -135q191 0 296.5 134.5t105.5 369.5q0 237 -105 374.5t-299 137.5t-297.5 -135.5 t-103.5 -376.5z" />
<glyph unicode="P" horiz-adv-x="1261" d="M102 27l17 690l-17 690q0 11 8 19t19 8h537q261 0 402.5 -118t141.5 -343t-144.5 -350t-401.5 -125h-248l12 -471q0 -11 -8 -19t-19 -8h-272q-11 0 -19 8t-8 19zM412 725h274q98 0 160.5 60t62.5 182q0 239 -231 239h-254z" />
<glyph unicode="Q" horiz-adv-x="1562" d="M47 713q0 341 197 546t526 205t527 -203t198 -548q0 -277 -147 -477l71 4h84q11 0 19 -8t8 -19v-186q0 -11 -8 -19t-19 -8h-504q-124 -31 -229 -31q-216 0 -381 94.5t-253.5 263t-88.5 386.5zM369 713q0 -234 106.5 -369t296.5 -135q191 0 296.5 134.5t105.5 369.5 q0 237 -105 374.5t-299 137.5t-297.5 -135.5t-103.5 -376.5z" />
<glyph unicode="R" horiz-adv-x="1341" d="M102 27l17 690l-17 690q0 11 8 19t19 8h578q271 0 418 -115t147 -336q0 -157 -83.5 -265t-236.5 -153l353 -542q4 -7 -0.5 -15t-12.5 -8h-309q-28 0 -41 23l-178 296l-141 213h-207l12 -505q0 -11 -8 -19t-19 -8h-272q-11 0 -19 8t-8 19zM414 760h313q107 0 175.5 53.5 t68.5 163.5q0 115 -65.5 172t-186.5 57h-295z" />
<glyph unicode="S" horiz-adv-x="1335" d="M39 457q0 10 8 18t19 8h272q11 0 19.5 -7t9.5 -19q9 -62 29 -106.5t57 -79.5t97 -52.5t144 -17.5q289 0 289 190q0 122 -143 156q-83 20 -314 71q-170 34 -315 117q-143 79 -143 293q0 203 151 319.5t424 116.5q258 0 417.5 -105t190.5 -323q2 -11 -5 -18.5t-17 -7.5 h-273q-27 0 -30 26q-13 93 -90 143t-205 50q-116 0 -185 -43t-69 -127q0 -116 145 -146q96 -23 316 -67q175 -39 315 -119q143 -82 143 -293q0 -223 -162 -345t-446 -122q-189 0 -330 52t-226 163.5t-93 274.5z" />
<glyph unicode="T" horiz-adv-x="1191" d="M23 1229v178q0 11 8 19t18 8h1094q10 0 18 -8t8 -19v-178q0 -11 -8 -19t-18 -8h-383l-19 -485l23 -690q0 -11 -8 -19t-19 -8h-282q-11 0 -19 8t-8 19l23 690l-19 485h-383q-10 0 -18 8t-8 19z" />
<glyph unicode="U" horiz-adv-x="1337" d="M82 1407q0 11 8 19t19 8h280q11 0 19 -8t8 -19l-15 -477l5 -395q0 -318 268 -318q289 0 289 318v389l-11 483q0 11 8 19t19 8h250q10 0 18 -8t8 -19l-10 -485v-390q0 -274 -144.5 -418.5t-426.5 -144.5q-284 -1 -434 145q-148 144 -148 411v7l4 390z" />
<glyph unicode="V" horiz-adv-x="1331" d="M6 1409q-2 8 5 16.5t14 8.5h292q11 0 22.5 -7.5t12.5 -17.5l340 -1188l332 1186q1 11 11.5 19t21.5 8h254q10 0 15 -8.5t3 -16.5l-444 -1384q-1 -10 -12 -17.5t-23 -7.5h-354q-12 0 -23 7.5t-12 17.5z" />
<glyph unicode="W" horiz-adv-x="1896" d="M14 1407q-1 10 6 18.5t15 8.5h264q11 0 20.5 -8.5t10.5 -18.5l225 -1151l215 1151q1 10 10.5 18.5t20.5 8.5h309q11 0 20.5 -8.5t10.5 -18.5l225 -1165l225 1165q1 10 10.5 18.5t20.5 8.5h244q10 0 16 -8t4 -19l-332 -1380q-1 -12 -11 -19.5t-21 -7.5h-324q-11 0 -21.5 8 t-11.5 19l-225 974l-203 -974q-1 -12 -11 -19.5t-21 -7.5h-334q-11 0 -21.5 8t-11.5 19z" />
<glyph unicode="X" horiz-adv-x="1302" d="M8 8q-4 8 0 15l465 733l-430 655q-4 7 0 15t12 8h326q25 0 39 -23l237 -426l246 426q14 23 39 23h301q8 0 12 -8t0 -15l-426 -670l469 -718q4 -7 0 -15t-12 -8h-328q-20 0 -38 23l-271 499l-289 -499q-14 -23 -38 -23h-302q-8 0 -12 8z" />
<glyph unicode="Y" horiz-adv-x="1277" d="M10 1409q-4 7 1.5 16t13.5 9h301q25 0 36 -25l291 -653l293 653q11 25 37 25h274q8 0 13.5 -9t1.5 -16l-484 -917l15 -465q0 -11 -8.5 -19t-18.5 -8h-272q-10 0 -18.5 8t-8.5 19l17 465z" />
<glyph unicode="Z" horiz-adv-x="1220" d="M43 27v200q0 31 16 47l742 928h-676q-11 0 -19 8t-8 19v178q0 11 8 19t19 8h1024q11 0 19 -8t8 -19v-209q0 -30 -17 -47l-731 -920h723q11 0 19 -8t8 -18v-178q0 -11 -8 -19t-19 -8h-1081q-10 0 -18.5 8t-8.5 19z" />
<glyph unicode="[" horiz-adv-x="593" d="M61 -260v1728q0 10 8.5 18.5t18.5 8.5h418q10 0 18 -8t8 -19v-178q0 -10 -8 -18t-18 -8h-178v-1319h178q10 0 18 -8t8 -19v-178q0 -11 -8 -19t-18 -8h-418q-10 0 -18.5 8.5t-8.5 18.5z" />
<glyph unicode="\" horiz-adv-x="763" d="M59 1468q-1 10 6 18.5t15 8.5h172q11 0 21.5 -8t11.5 -19l422 -1728q2 -11 -4.5 -19t-16.5 -8h-172q-11 0 -21.5 8t-11.5 19z" />
<glyph unicode="]" horiz-adv-x="593" d="M61 -82q0 10 8.5 18.5t18.5 8.5h178v1319h-178q-11 0 -19 8t-8 18v178q0 10 8.5 18.5t18.5 8.5h418q10 0 18 -8t8 -19v-1728q0 -11 -8 -19t-18 -8h-418q-10 0 -18.5 8.5t-8.5 18.5v178z" />
<glyph unicode="^" horiz-adv-x="1146" d="M39 496l410 913q11 25 36 25h174q26 0 37 -25l410 -913q2 -8 -3.5 -16.5t-12.5 -8.5h-185q-26 0 -37 25l-297 702l-295 -702q-11 -25 -36 -25h-185q-7 0 -12.5 8.5t-3.5 16.5z" />
<glyph unicode="_" horiz-adv-x="866" d="M33 -162q0 11 8 19t18 8h746q10 0 18 -8t8 -19v-160q0 -10 -7.5 -18t-18.5 -8h-746q-11 0 -18.5 8t-7.5 18v160z" />
<glyph unicode="`" horiz-adv-x="1024" d="M156 1329l59 178q2 8 14 13.5t19 1.5l473 -207q10 -5 14.5 -14.5t-0.5 -20.5l-39 -94q-10 -23 -37 -19l-485 131q-10 1 -15 11.5t-3 19.5z" />
<glyph unicode="a" horiz-adv-x="1134" d="M51 272q0 57 14 104.5t35.5 81t57.5 60.5t68.5 43.5t81.5 30.5t83 21t86 16q81 11 182 39q76 21 76 86q0 45 -45.5 71.5t-124.5 26.5q-73 0 -120.5 -23.5t-61.5 -62.5q-9 -27 -35 -27h-237q-11 0 -19 8.5t-8 18.5q12 146 140.5 230.5t328.5 84.5q236 0 358.5 -99 t122.5 -284v-262l6 -409q0 -11 -8 -19t-18 -8h-238q-11 0 -18 8.5t-6 18.5l4 104q-123 -156 -342 -156q-149 0 -256 78q-107 76 -107 219zM358 301q0 -53 38 -85q36 -30 93 -30h7q113 2 178 71.5t65 191.5v57q-20 -13 -61 -24t-64.5 -15.5t-85.5 -15.5q-81 -15 -125.5 -50 t-44.5 -100z" />
<glyph unicode="b" d="M84 27l12 690l-12 690q0 11 8 19t19 8h262q10 0 18 -8t8 -19l-6 -473q113 141 309 141q144 0 249 -73t156.5 -194.5t51.5 -277.5q0 -153 -55 -277.5t-161.5 -198.5t-246.5 -74q-191 0 -305 133l4 -86q1 -10 -6 -18.5t-18 -8.5h-260q-11 0 -19 8t-8 19zM385 539v-11 q1 -160 57 -248q58 -92 168 -92h3q114 0 173 84q60 85 60 246q0 170 -60 260q-58 88 -165 88h-5q-111 0 -170.5 -83.5t-60.5 -243.5z" />
<glyph unicode="c" horiz-adv-x="1136" d="M57 524q0 249 146 404q144 153 399 153q198 0 324 -102t147 -272q1 -10 -6 -18.5t-18 -8.5h-230q-12 0 -22 7.5t-11 19.5q-18 82 -68 124.5t-116 42.5q-116 -1 -172.5 -87.5t-56.5 -260.5q0 -178 56 -262t173 -86h6q73 0 124 51q53 53 65 150q2 12 10 19.5t20 7.5h236 q11 0 18 -8.5t6 -18.5q-21 -177 -153 -291q-136 -115 -338 -115q-249 0 -395 152q-144 150 -144 399z" />
<glyph unicode="d" d="M57 524q0 153 55 277.5t161.5 199t246.5 74.5q194 0 303 -133l-6 465q0 11 8.5 19t18.5 8h262q10 0 18.5 -8t8.5 -19l-11 -690l11 -690q0 -11 -8.5 -19t-18.5 -8h-260q-11 0 -18.5 8.5t-6.5 18.5l4 96q-118 -143 -311 -143q-144 0 -249 72.5t-156.5 194t-51.5 277.5z M371 539q0 -177 59 -268q58 -89 165 -89h5q111 0 170.5 85.5t60.5 250.5v6q0 166 -57 255q-58 91 -168 93h-3q-115 0 -173 -84q-60 -84 -59 -249z" />
<glyph unicode="e" horiz-adv-x="1185" d="M57 524q0 251 144 404t393 153q253 0 396 -158t149 -431q0 -10 -8.5 -18.5t-18.5 -8.5h-745q7 -146 66.5 -216.5t170.5 -70.5q164 0 203 152q1 12 11.5 19t23.5 7h239q11 0 17.5 -8t5.5 -18q-21 -150 -157.5 -253.5t-346.5 -103.5q-257 0 -400 152.5t-143 398.5zM375 659 h432q-8 92 -62.5 156t-148.5 64q-183 0 -221 -220z" />
<glyph unicode="f" horiz-adv-x="837" d="M57 864v164q0 10 8.5 18.5t18.5 8.5h133v69q0 86 28.5 151.5t78 103.5t109 56.5t128.5 18.5q80 0 182 -16q10 -1 18.5 -10.5t8.5 -20.5v-162q0 -8 -8.5 -14.5t-18.5 -5.5q-45 10 -110 10q-115 0 -115 -139v-41h225q11 0 19 -8.5t8 -18.5v-164q0 -10 -8 -18t-19 -8h-225 v-373l12 -438q0 -11 -8 -19t-18 -8h-273q-10 0 -18 8t-8 19l12 438v373h-133q-11 0 -19 8t-8 18z" />
<glyph unicode="g" horiz-adv-x="1214" d="M57 535q0 148 55 269t161.5 193t246.5 72q194 0 305 -129l-4 88q-1 10 6.5 18.5t18.5 8.5h254q10 0 18 -8t8 -19l-8 -516l8 -483v-6q0 -198 -134 -315q-136 -118 -390 -118h-23q-195 0 -325 82q-137 87 -154 250q-1 10 6.5 18.5t18.5 8.5h248q12 0 22 -7.5t11 -19.5 q25 -129 206 -129q104 0 165 60.5t61 179.5v121q-109 -148 -303 -148q-115 0 -206.5 40.5t-150.5 112.5t-90 168t-31 208zM371 547q0 -169 59 -255q58 -85 165 -85h5q111 0 170.5 80.5t60.5 238.5v6q0 159 -57 246q-58 88 -168 90h-3q-114 0 -173 -80q-59 -82 -59 -241z" />
<glyph unicode="h" horiz-adv-x="1175" d="M88 27l14 692l-14 688q0 11 8 19t19 8h258q10 0 18 -8t8 -19l-10 -471q115 143 322 143q183 0 281 -112q95 -108 95 -321v-17l-4 -226l13 -376q0 -11 -8 -19t-19 -8h-266q-11 0 -19 8t-8 19l12 372l-4 267q-1 90 -45 139t-110 49q-80 0 -150 -64t-92 -176l12 -587 q0 -11 -8 -19t-18 -8h-258q-11 0 -19 8t-8 19z" />
<glyph unicode="i" horiz-adv-x="507" d="M94 27l12 499l-12 502q0 10 8 18.5t19 8.5h266q11 0 19 -8.5t8 -18.5l-13 -502l13 -499q0 -11 -8 -19t-19 -8h-266q-11 0 -19 8t-8 19zM98 1184v223q0 11 8 19t19 8h258q11 0 19 -8t8 -19v-223q0 -10 -8 -18.5t-19 -8.5h-258q-11 0 -19 8.5t-8 18.5z" />
<glyph unicode="j" horiz-adv-x="507" d="M-104 -322l2 162q0 7 8 14t16 5l28 -5q28 -4 44 -4q53 0 79 31.5t27 108.5l6 372l-12 666q0 10 8 18.5t19 8.5h266q11 0 19 -8.5t8 -18.5l-13 -666l7 -401v-11q0 -79 -26 -140q-29 -66 -79.5 -104t-111 -56.5t-128.5 -18.5q-25 0 -141 17q-10 1 -18 10t-8 20zM98 1184 v223q0 11 8 19t19 8h258q11 0 19 -8t8 -19v-223q0 -10 -8 -18.5t-19 -8.5h-258q-11 0 -19 8.5t-8 18.5z" />
<glyph unicode="k" horiz-adv-x="1075" d="M84 27l14 690l-14 690q0 11 8 19t19 8h258q10 0 18 -8t8 -19l-12 -684l2 -64l301 375q21 21 43 21h285q8 0 11 -7.5t-3 -13.5l-320 -358l377 -653q2 -8 -2.5 -15.5t-11.5 -7.5h-303q-25 0 -39 25l-102 196l-132 234l-100 -125l6 -303q0 -11 -8 -19t-18 -8h-258 q-11 0 -19 8t-8 19z" />
<glyph unicode="l" horiz-adv-x="499" d="M94 27l15 690l-15 690q0 11 8 19t19 8h258q11 0 19 -8t8 -19l-15 -690l15 -690q0 -11 -8 -19t-19 -8h-258q-11 0 -19 8t-8 19z" />
<glyph unicode="m" horiz-adv-x="1728" d="M84 27l12 352l-8 649q0 10 8 18.5t19 8.5h247q11 0 18.5 -8.5t6.5 -18.5l-4 -106q116 157 303 157q230 0 299 -196q65 110 143.5 153t180.5 43q163 0 249.5 -101.5t86.5 -307.5v-291l8 -352q0 -11 -8.5 -19t-18.5 -8h-266q-10 0 -18.5 8t-8.5 19l13 352v287 q0 92 -37.5 140t-102.5 48q-62 0 -125 -84q-63 -81 -63 -244v-147l12 -352q0 -11 -8 -19t-18 -8h-267q-10 0 -18 8t-8 19l12 352v287q0 92 -37 140t-102 48q-62 0 -125 -84q-64 -82 -64 -244v-147l13 -352q0 -11 -8 -19t-19 -8h-270q-11 0 -19 8t-8 19z" />
<glyph unicode="n" horiz-adv-x="1175" d="M88 27l12 479l-8 522q0 10 8 18.5t19 8.5h243q11 0 18.5 -8.5t6.5 -18.5l-4 -106q56 72 144.5 114.5t195.5 42.5q167 0 265.5 -109t98.5 -300v-221l9 -422q0 -11 -8 -19t-19 -8h-258q-11 0 -19 8t-8 19l9 422v217q0 85 -47 136.5t-117 51.5q-91 0 -160.5 -85.5 t-69.5 -242.5v-77l4 -422q0 -11 -8 -19t-18 -8h-262q-11 0 -19 8t-8 19z" />
<glyph unicode="o" horiz-adv-x="1196" d="M57 524q0 251 144 404t399 153q257 0 397 -149q142 -151 142 -402q0 -249 -142 -403t-397 -154q-253 0 -399 152q-144 150 -144 399zM371 522q0 -177 56.5 -260.5t172.5 -83.5q113 0 168 83.5t55 262.5q0 353 -225 353q-117 -1 -172 -88.5t-55 -266.5z" />
<glyph unicode="p" d="M84 -322l12 750l-12 600q0 10 8 18.5t19 8.5h260q11 0 18 -8.5t6 -18.5l-4 -96q118 143 311 143q144 0 249 -73t156.5 -194.5t51.5 -277.5q0 -153 -55 -277.5t-161.5 -198.5t-246.5 -74q-188 0 -299 126l6 -428q0 -10 -7.5 -18t-18.5 -8h-266q-11 0 -19 8t-8 18zM385 535 v-11q0 -158 57 -246q58 -92 168 -92q116 0 176 84t60 244q0 172 -59.5 262t-170.5 90t-170.5 -84t-60.5 -247z" />
<glyph unicode="q" d="M57 524q0 153 55 277.5t161.5 199t246.5 74.5q191 0 305 -133l-4 86q-1 10 6.5 18.5t18.5 8.5h260q10 0 18.5 -8.5t8.5 -18.5l-13 -670l13 -680q0 -10 -8 -18t-19 -8h-262q-11 0 -19 8t-8 18l4 439q-121 -137 -307 -137q-144 0 -249 72.5t-156.5 194t-51.5 277.5z M371 537q0 -175 59 -264t170 -89t170.5 84t60.5 248v11q0 160 -57 250q-58 93 -168 93q-113 0 -174 -82.5t-61 -250.5z" />
<glyph unicode="r" horiz-adv-x="851" d="M84 27l10 501l-10 500q0 10 8 18.5t19 8.5h256q11 0 18 -8.5t6 -18.5l-6 -151q60 91 159 138.5t218 47.5q19 0 39 -4q10 -1 18 -10.5t8 -20.5v-174q0 -11 -7 -18t-19 -7q-10 2 -31 2q-160 0 -270 -90q-107 -91 -107 -263v-9l4 -442q0 -11 -8 -19t-18 -8h-260q-11 0 -19 8 t-8 19z" />
<glyph unicode="s" horiz-adv-x="1120" d="M55 328q0 10 8 18t19 8h244q27 0 30 -26q14 -162 228 -162q90 0 138 33.5t48 95.5q0 76 -108 94q-77 11 -236 41q-129 21 -238 86q-108 61 -108 227q0 162 122 249t339 87q208 0 336 -83t145 -240q1 -10 -6.5 -18.5t-18.5 -8.5h-231q-12 0 -22 7.5t-11 19.5 q-29 137 -196 137q-164 0 -164 -127q0 -75 108 -90q32 -4 70.5 -10.5t87.5 -15t80 -13.5q124 -21 235 -84q109 -65 109 -231q0 -161 -135 -254t-344 -93q-226 0 -371.5 92.5t-157.5 260.5z" />
<glyph unicode="t" horiz-adv-x="770" d="M33 864v164q0 11 8 19t18 8h109l-4 237q0 11 8 19t18 8h263q10 0 18 -8t8 -19l-4 -237h225q10 0 18.5 -8.5t8.5 -18.5v-164q0 -10 -8 -18t-19 -8h-227l2 -521q0 -64 29 -91t84 -27q47 0 110 14q10 1 18.5 -4.5t8.5 -13.5v-148q0 -12 -7.5 -23t-17.5 -12 q-101 -32 -184 -32q-69 0 -129 18.5t-110.5 56t-79.5 103t-29 151.5l2 529h-111q-11 0 -18.5 8t-7.5 18z" />
<glyph unicode="u" horiz-adv-x="1175" d="M80 1028q0 11 8 19t18 8h259q10 0 18 -8t8 -19l-8 -422v-217q0 -85 47 -136.5t117 -51.5q91 0 160 85t69 242v78l-4 422q0 10 8 18.5t19 8.5h262q10 0 18 -8t8 -19l-12 -479l8 -522q0 -11 -8 -19t-18 -8h-244q-11 0 -18.5 8.5t-6.5 18.5l5 106q-56 -72 -144.5 -115 t-195.5 -43q-167 0 -266 109.5t-99 300.5v221z" />
<glyph unicode="v" horiz-adv-x="1077" d="M-8 1030q-2 8 3 16.5t15 8.5h279q25 0 35 -27l221 -792l248 794q1 10 11.5 17.5t22.5 7.5h236q10 0 15 -8.5t3 -16.5l-350 -1012q-1 -10 -12 -17t-23 -7h-325q-12 0 -23 7t-12 17z" />
<glyph unicode="w" horiz-adv-x="1497" d="M4 1028q-2 11 4.5 19t16.5 8h256q10 0 19 -8t11 -19l117 -788l145 788q1 10 10.5 18.5t20.5 8.5h318q10 0 19 -8t11 -19l142 -770l120 770q1 10 10.5 18.5t20.5 8.5h232q10 0 16 -8t4 -19l-219 -1001q-1 -11 -11.5 -19t-21.5 -8h-309q-11 0 -21.5 8t-11.5 19l-164 780 l-143 -780q-1 -10 -10.5 -18.5t-20.5 -8.5h-307q-11 0 -21.5 8t-11.5 19z" />
<glyph unicode="x" horiz-adv-x="1009" d="M-4 8q-4 8 0 15l307 526l-293 483q-4 7 0.5 15t12.5 8h290q25 0 39 -25l172 -330l164 330q14 25 39 25h256q8 0 12 -8t0 -15l-282 -485l303 -524q2 -8 -3 -15.5t-12 -7.5h-292q-25 0 -39 25l-174 346l-185 -348q-18 -23 -39 -23h-264q-8 0 -12 8z" />
<glyph unicode="y" horiz-adv-x="1058" d="M-6 1030q-4 7 2 16t14 9h293q12 0 23 -7.5t12 -17.5l227 -651l187 651q1 10 12 17.5t22 7.5h258q10 0 15.5 -8.5t3.5 -16.5l-465 -1354q-1 -10 -12 -17t-23 -7h-239q-7 0 -14 8t-5 16l109 314z" />
<glyph unicode="z" horiz-adv-x="1060" d="M86 27v163q0 32 16 48l469 600h-415q-11 0 -19 8t-8 18v164q0 10 8.5 18.5t18.5 8.5h764q10 0 18 -8t8 -19v-168q0 -31 -16 -47l-475 -596h495q10 0 18.5 -8.5t8.5 -18.5v-163q0 -11 -8.5 -19t-18.5 -8h-837q-11 0 -19 8t-8 19z" />
<glyph unicode="{" horiz-adv-x="593" d="M61 518v172q0 10 8.5 18.5t18.5 8.5h35q39 0 55 23t13.5 55t-17.5 71l-59 164q-38 98 -27.5 183t55.5 147.5t125.5 98.5t182.5 36h75q10 0 18.5 -8.5t8.5 -18.5v-178q0 -10 -8 -18t-19 -8h-73q-72 0 -93 -55.5t19 -178.5l59 -164q14 -38 14.5 -76t-12.5 -73.5t-45 -66 t-80 -48.5q101 -40 125 -117q21 -80 -2 -143l-51 -139q-33 -90 -32.5 -149.5t26.5 -84t72 -24.5h73q10 0 18.5 -8.5t8.5 -18.5v-178q0 -10 -8.5 -18.5t-18.5 -8.5h-75q-97 0 -170.5 26.5t-116 73.5t-62 109t-13.5 134t34 149l51 137q15 37 18 69.5t-13.5 56.5t-55.5 24h-35 q-11 0 -19 8t-8 18z" />
<glyph unicode="|" horiz-adv-x="430" d="M102 -260v1728q0 10 8 18.5t19 8.5h172q11 0 19 -8.5t8 -18.5v-1728q0 -10 -8 -18.5t-19 -8.5h-172q-11 0 -19 8.5t-8 18.5z" />
<glyph unicode="}" horiz-adv-x="593" d="M61 -82q0 10 8.5 18.5t18.5 8.5h74q46 0 71.5 24.5t26 84t-32.5 149.5l-51 139q-24 64 0 143q21 77 123 117q-48 18 -80 48.5t-45 66t-12.5 73.5t14.5 76l60 164q40 123 19 178.5t-93 55.5h-74q-11 0 -19 8t-8 18v178q0 10 8.5 18.5t18.5 8.5h76q102 0 182.5 -36 t125.5 -98.5t55.5 -147.5t-27.5 -183l-60 -164q-15 -39 -17.5 -71t14 -55t55.5 -23h34q10 0 18.5 -8.5t8.5 -18.5v-172q0 -10 -8 -18t-19 -8h-34q-39 0 -55.5 -24t-14 -56.5t17.5 -69.5l52 -137q28 -77 34 -149t-13.5 -134t-62 -109t-116 -73.5t-170.5 -26.5h-76 q-10 0 -18.5 8.5t-8.5 18.5v178z" />
<glyph unicode="~" horiz-adv-x="1146" d="M61 592q5 209 83.5 335t228.5 126q56 0 105 -20t82 -50t63.5 -64.5t52 -64.5t45 -50t45.5 -20q98 0 102 226q0 10 8 18t19 8h164q11 0 18.5 -8t7.5 -18q-5 -209 -81 -325t-224 -116q-64 0 -118.5 27.5t-91 67.5t-67.5 79.5t-63 67t-63 27.5q-95 0 -98 -246 q0 -10 -8.5 -18.5t-18.5 -8.5h-164q-10 0 -18.5 8.5t-8.5 18.5z" />
<glyph unicode="&#xa1;" horiz-adv-x="497" d="M96 -352v964q0 10 8 18.5t19 8.5h252q10 0 18 -8t8 -19v-964q0 -11 -8 -19t-18 -8h-252q-11 0 -19 8.5t-8 18.5zM96 786v242q0 10 8 18.5t19 8.5h252q10 0 18 -8t8 -19v-242q0 -10 -7.5 -18t-18.5 -8h-252q-11 0 -19 8t-8 18z" />
<glyph unicode="&#xa2;" horiz-adv-x="1175" d="M98 729q0 202 92.5 341t262.5 190v147q0 11 8 19t18 8h258q11 0 19 -8t8 -19v-131q147 -29 240 -126t110 -239q1 -10 -6 -18t-18 -8h-230q-12 0 -22 7t-11 19q-18 82 -68 125t-116 43q-116 -1 -172.5 -87.5t-56.5 -260.5q0 -178 56 -262t173 -86q77 -2 130 51t65 150 q3 26 30 26h236q11 0 18 -8t6 -18q-17 -149 -114.5 -255.5t-249.5 -138.5v-163q0 -11 -8 -19t-19 -8h-258q-10 0 -18 8t-8 19v176q-168 50 -261.5 188t-93.5 338z" />
<glyph unicode="&#xa3;" horiz-adv-x="1277" d="M12 676v158q0 10 8 18t19 8h125q-25 105 -25 176q0 188 137 307q136 121 377 121q220 0 361 -108t172 -332q0 -11 -7.5 -19t-17.5 -8h-252q-11 0 -20 7.5t-10 19.5q-14 95 -73.5 148t-156.5 53q-93 0 -140.5 -56t-47.5 -133q0 -62 20 -176h271q10 0 18 -8t8 -18v-158 q0 -11 -8 -19t-18 -8h-222q19 -105 19 -168q0 -75 -42.5 -146t-129.5 -104l352 -10q60 -1 99.5 15.5t61 52t29.5 78.5t9 106q0 11 8 19t18 8h258q10 0 18.5 -8t8.5 -19q-6 -257 -131 -377t-352 -114l-680 18q-10 0 -18.5 8t-8.5 19v168q0 11 7.5 21t19.5 11l33 11 q135 34 139 200q2 70 -31 211h-178q-11 0 -19 8.5t-8 18.5z" />
<glyph unicode="&#xa4;" horiz-adv-x="1208" d="M62 1129q0 11 8 18l104 102q8 7 19 7t18 -7l192 -192q101 53 213 53q120 0 209 -53l172 172q7 7 18 7t19 -7l105 -103q7 -8 7 -18t-7 -18l-164 -164q69 -106 69 -224q0 -121 -67 -219l160 -159q7 -8 7 -19t-7 -18l-103 -105q-8 -8 -19 -8t-18 8l-168 168 q-93 -55 -213 -55q-113 0 -217 55l-168 -168q-7 -8 -18 -8t-18 8l-103 105q-8 7 -8 18t8 19l162 161q-66 101 -66 217q0 118 68 222l-186 186q-8 8 -8 19zM399 702q0 -102 63.5 -169.5t153.5 -67.5q85 0 152 67q66 66 66 170q0 105 -65 171.5t-153 66.5q-90 0 -153.5 -66 t-63.5 -172z" />
<glyph unicode="&#xa5;" horiz-adv-x="1277" d="M12 1411q-4 7 0.5 15t12.5 8h301q25 0 39 -25l288 -586l291 586q14 25 39 25h274q8 0 12.5 -8t0.5 -15l-389 -653h215q10 0 18 -8t8 -19v-153q0 -11 -8 -19t-18 -8h-305l2 -131h303q10 0 18 -8t8 -19v-153q0 -11 -8 -19t-18 -8h-297l4 -186q0 -11 -8.5 -19t-18.5 -8h-272 q-10 0 -18.5 8t-8.5 19l6 186h-297q-10 0 -18 8t-8 19v153q0 11 8 19t18 8h303l3 131h-306q-10 0 -18 8t-8 19v153q0 11 8 19t18 8h215z" />
<glyph unicode="&#xa6;" horiz-adv-x="430" d="M102 -260v704q0 10 8 18.5t19 8.5h172q11 0 19 -8.5t8 -18.5v-704q0 -10 -8 -18.5t-19 -8.5h-172q-11 0 -19 8.5t-8 18.5zM102 764v704q0 10 8 18.5t19 8.5h172q11 0 19 -8.5t8 -18.5v-704q0 -10 -8 -18.5t-19 -8.5h-172q-11 0 -19 8.5t-8 18.5z" />
<glyph unicode="&#xa7;" horiz-adv-x="1318" d="M78 -74q-1 10 6.5 18.5t15.5 8.5h246q12 0 21 -7.5t10 -19.5q20 -162 309 -162q128 0 198 34t70 96q0 96 -133 131q-64 16 -293 67q-161 35 -292 111q-136 74 -136 254q0 107 59 185t167 120q-226 89 -226 285q0 190 145 293.5t398 103.5q244 0 393.5 -88.5t169.5 -255.5 q1 -10 -6 -18.5t-18 -8.5h-232q-12 0 -21.5 7.5t-10.5 19.5q-38 157 -279 157q-115 0 -180.5 -36t-65.5 -111q0 -96 135 -123q51 -11 155 -33.5t138 -29.5q159 -35 293 -105q133 -71 133 -248q0 -102 -60 -181t-165 -124q225 -89 225 -305q0 -121 -74.5 -209.5t-200.5 -133 t-286 -44.5q-260 0 -428 92t-180 260zM393 520q0 -27 11.5 -49.5t38 -39.5t52 -29t72.5 -23.5t78 -17.5t90 -17q219 43 219 160q0 19 -6.5 36t-22 31.5t-30.5 25.5t-43 22t-49 18.5t-59 17t-61 15t-67 14.5q-112 -25 -167.5 -62t-55.5 -102z" />
<glyph unicode="&#xa8;" horiz-adv-x="1024" d="M172 1225v223q0 10 8 18.5t19 8.5h196q11 0 19 -8.5t8 -18.5v-223q0 -11 -8 -19t-19 -8h-196q-11 0 -19 8t-8 19zM602 1225v223q0 10 8 18.5t19 8.5h196q11 0 19 -8.5t8 -18.5v-223q0 -11 -8 -19t-19 -8h-196q-11 0 -19 8t-8 19z" />
<glyph unicode="&#xa9;" horiz-adv-x="1562" d="M57 713q0 341 197 546t526 205t527 -203t198 -548q0 -217 -89.5 -386t-255 -263.5t-380.5 -94.5q-216 0 -381 94.5t-253.5 263t-88.5 386.5zM195 713q0 -292 154 -459.5t433 -167.5t432.5 167t153.5 460q0 294 -153.5 464.5t-434.5 170.5q-283 0 -434 -168t-151 -467z M346 715q0 214 123 346q122 131 326 131q327 0 401 -307q2 -11 -4 -19t-16 -8h-138q-12 0 -22.5 7.5t-11.5 19.5q-20 75 -74.5 115t-136.5 40q-117 0 -180.5 -85t-63.5 -238q0 -152 63.5 -236t178.5 -84q175 0 217 178q1 12 11 19.5t21 7.5h144q10 0 16 -8t4 -19 q-71 -327 -407 -327q-209 0 -328 131q-123 132 -123 336z" />
<glyph unicode="&#xaa;" horiz-adv-x="954" d="M57 1057q0 169 93.5 283t246.5 114q134 0 221 -72l-2 27q-1 10 5.5 17.5t17.5 7.5h217q10 0 18.5 -8t8.5 -19l-4 -348l4 -367q0 -10 -8 -18t-19 -8h-213q-11 0 -19 8t-8 18l2 37q-94 -84 -227 -84q-106 0 -183 55.5t-114 147.5t-37 209zM330 1053q0 -120 38.5 -183 t108.5 -61q150 0 150 244q1 112 -37 173.5t-107 63.5q-75 1 -114 -59.5t-39 -177.5z" />
<glyph unicode="&#xab;" horiz-adv-x="1155" d="M51 531q0 13 6 20l295 364q21 21 43 21h201q7 0 11 -7.5t-1 -13.5l-311 -385l311 -372q5 -6 1 -13.5t-11 -7.5h-201q-22 0 -43 21l-295 352q-6 8 -6 21zM543 531q0 13 6 20l295 364q21 21 43 21h200q8 0 11.5 -7.5t-0.5 -13.5l-312 -385l312 -372q4 -6 0.5 -13.5 t-11.5 -7.5h-200q-22 0 -43 21l-295 352q-6 8 -6 21z" />
<glyph unicode="&#xac;" horiz-adv-x="1187" d="M113 618v175q0 11 7.5 18.5t18.5 7.5h910q11 0 18.5 -7.5t7.5 -18.5v-582q0 -11 -8 -19t-18 -8h-183q-10 0 -18 8t-8 19v381h-701q-11 0 -18.5 8t-7.5 18z" />
<glyph unicode="&#xae;" horiz-adv-x="825" d="M57 1090q0 167 98 267.5t259 100.5t257.5 -99.5t96.5 -268.5q0 -159 -96 -263q-99 -102 -258 -102t-258 102t-99 263zM139 1090q0 -136 72.5 -213.5t202.5 -77.5q128 0 200 77.5t72 213.5t-71.5 215t-200.5 79q-133 0 -204 -78t-71 -216zM240 920v348q0 10 8 18t18 8h142 q83 0 128.5 -32t45.5 -93q0 -86 -90 -114l90 -140q4 -7 -0.5 -14.5t-12.5 -7.5h-67q-28 0 -41 22l-39 68l-41 59h-37v-122q0 -10 -8 -18.5t-19 -8.5h-51q-10 0 -18 8t-8 19zM344 1114h68q28 0 47.5 14t19.5 39q0 54 -69 54h-66v-107z" />
<glyph unicode="&#xaf;" horiz-adv-x="1024" d="M176 1225v151q0 10 8 18.5t19 8.5h616q11 0 19 -8.5t8 -18.5v-151q0 -11 -8 -19t-19 -8h-616q-11 0 -19 8t-8 19z" />
<glyph unicode="&#xb0;" horiz-adv-x="774" d="M41 1128q0 141 100 234q100 92 246 92q145 0 248 -92q98 -94 98 -234t-98 -231q-101 -94 -248 -94q-148 0 -246 94q-100 90 -100 231zM252 1128q0 -74 37 -114.5t98 -40.5q59 0 97 41t38 114t-38 114.5t-97 41.5q-61 0 -98 -41t-37 -115z" />
<glyph unicode="&#xb1;" horiz-adv-x="1146" d="M92 27v174q0 10 8 18t19 8h909q11 0 19 -8t8 -18v-174q0 -11 -8.5 -19t-18.5 -8h-909q-11 0 -19 8t-8 19zM92 700v174q0 10 8 18.5t19 8.5h338v383q0 11 8 19t18 8h183q10 0 18 -8t8 -19v-383h336q10 0 18.5 -8.5t8.5 -18.5v-174q0 -10 -8 -18t-19 -8h-336v-381 q0 -11 -8 -19t-18 -8h-183q-10 0 -18 8t-8 19v381h-338q-11 0 -19 8t-8 18z" />
<glyph unicode="&#xb2;" horiz-adv-x="702" d="M61 672v88q0 117 62 182q56 62 131 105q59 34 131 69q59 30 59 86q1 50 -22.5 76.5t-67.5 26.5q-40 -2 -66 -30.5t-30 -80.5q-1 -12 -10 -19.5t-21 -7.5h-131q-10 0 -18 8t-8 19q2 120 75.5 187.5t208.5 68.5q134 0 204 -63.5t75 -178.5q0 -60 -21 -109.5t-54.5 -81 t-74.5 -57t-81.5 -44.5t-74 -35.5t-54.5 -37t-21 -44.5l356 -2q10 0 18.5 -8.5t8.5 -18.5v-98q0 -10 -8.5 -18.5t-18.5 -8.5h-520q-10 0 -18.5 8.5t-8.5 18.5z" />
<glyph unicode="&#xb3;" horiz-adv-x="698" d="M59 866q-1 10 6.5 18.5t18.5 8.5h141q12 0 21 -7.5t10 -19.5q5 -45 29.5 -71t64.5 -25q37 0 64 30t28 83q2 63 -22.5 89.5t-85.5 26.5h-43q-11 0 -19 8.5t-8 18.5v74q0 10 8 18t19 8h43q48 0 73 27t25 68q0 37 -23 63.5t-55 26.5q-74 0 -86 -78q-2 -12 -10 -19.5 t-20 -7.5h-142q-11 0 -18 8.5t-6 18.5q14 103 89 158t204 55q120 0 192 -57t74 -146q0 -126 -127 -170q70 -21 108.5 -67.5t38.5 -114.5q0 -121 -90 -188.5t-217 -67.5q-257 0 -285 231z" />
<glyph unicode="&#xb4;" horiz-adv-x="1024" d="M268 1280q-10 24 15 35l473 207q7 4 18.5 -1.5t13.5 -13.5l58 -178q2 -9 -3.5 -19.5t-15.5 -11.5l-483 -131q-27 -4 -37 19z" />
<glyph unicode="&#xb5;" horiz-adv-x="1159" d="M76 -322l4 750l-4 600q0 11 8 19t18 8h314q10 0 18 -8t8 -19l-8 -422v-217q0 -85 47 -136.5t117 -51.5q91 0 160 85t69 242v78l-4 422q0 10 8.5 18.5t18.5 8.5h262q10 0 18.5 -8.5t8.5 -18.5l-13 -479l9 -522q0 -11 -8.5 -19t-18.5 -8h-244q-11 0 -18 8.5t-6 18.5l4 106 q-56 -72 -144.5 -115t-195.5 -43q-60 0 -119 17l2 -314q0 -10 -8 -18t-19 -8h-258q-10 0 -18 8t-8 18z" />
<glyph unicode="&#xb6;" horiz-adv-x="1466" d="M61 973q0 225 142 343t403 118h742q10 0 18 -8t8 -19l-16 -834l16 -895q0 -10 -8 -18t-18 -8h-273q-11 0 -18.5 8t-7.5 18l8 590l4 230h-152l4 -232l11 -588q0 -10 -8 -18t-19 -8h-272q-11 0 -19 8t-8 18l8 584l4 236q-258 0 -403.5 125t-145.5 350z" />
<glyph unicode="&#xb7;" horiz-adv-x="475" d="M78 498v239q0 11 8 19t18 8h267q10 0 18 -8t8 -19v-239q0 -11 -8 -19t-18 -8h-267q-10 0 -18 8t-8 19z" />
<glyph unicode="&#xb8;" horiz-adv-x="1024" d="M279 -291l131 307q10 23 36 23l158 -19q10 0 17.5 -8.5t5.5 -19.5l-68 -334q-1 -10 -10.5 -17.5t-20.5 -5.5l-233 46q-10 1 -14 10t-2 18z" />
<glyph unicode="&#xb9;" horiz-adv-x="552" d="M70 1145v100q0 27 24 37q104 43 144 127q12 25 41 25h149q10 0 18.5 -8t8.5 -19l-15 -422l13 -313q1 -10 -6.5 -18.5t-18.5 -8.5h-166q-10 0 -18 8t-8 19l10 385l-6 151q-52 -52 -146 -82q-8 -2 -16 3.5t-8 15.5z" />
<glyph unicode="&#xba;" horiz-adv-x="950" d="M57 1047q0 189 111 301t309 112q196 0 306 -110t110 -297q0 -189 -110.5 -301.5t-305.5 -112.5q-199 0 -309.5 110t-110.5 298zM330 1044q0 -241 147 -241q72 0 106.5 58.5t34.5 185.5q0 249 -143 249q-75 -1 -110 -62.5t-35 -189.5z" />
<glyph unicode="&#xbb;" horiz-adv-x="1155" d="M58.5 144.5q-3.5 7.5 0.5 13.5l312 372l-312 385q-4 6 -0.5 13.5t11.5 7.5h200q22 0 43 -21l295 -364q6 -8 6 -20.5t-6 -20.5l-295 -352q-21 -21 -43 -21h-200q-8 0 -11.5 7.5zM550 144.5q-4 7.5 1 13.5l311 372l-311 385q-5 6 -1 13.5t11 7.5h201q22 0 43 -21l295 -364 q6 -8 6 -20.5t-6 -20.5l-295 -352q-21 -21 -43 -21h-201q-7 0 -11 7.5z" />
<glyph unicode="&#xbc;" horiz-adv-x="1705" d="M70 1145v100q0 27 24 37q104 43 144 127q12 25 41 25h149q10 0 18.5 -8t8.5 -19l-15 -422l13 -313q1 -10 -6.5 -18.5t-18.5 -8.5h-166q-10 0 -18 8t-8 19l10 385l-6 151q-52 -52 -146 -82q-8 -2 -16 3.5t-8 15.5zM215 8q-4 8 2 15l995 1388q16 23 43 23h162q8 0 12 -8 t-2 -15l-995 -1388q-16 -23 -43 -23h-162q-8 0 -12 8zM1038 188v121q0 23 15 49l254 408q13 22 41 22h215q11 0 18.5 -8t7.5 -18v-451h60q11 0 18.5 -7.5t7.5 -18.5v-97q0 -10 -7.5 -18t-18.5 -8h-60v-137q0 -11 -8 -19t-18 -8h-152q-11 0 -19 8t-8 19v137h-319q-11 0 -19 8 t-8 18zM1192 311h192v156l7 170z" />
<glyph unicode="&#xbd;" horiz-adv-x="1761" d="M70 1145v100q0 27 24 37q104 43 144 127q12 25 41 25h149q10 0 18.5 -8t8.5 -19l-15 -422l13 -313q1 -10 -6.5 -18.5t-18.5 -8.5h-166q-10 0 -18 8t-8 19l10 385l-6 151q-52 -52 -146 -82q-8 -2 -16 3.5t-8 15.5zM215 8q-4 8 2 15l995 1388q16 23 43 23h162q8 0 12 -8 t-2 -15l-995 -1388q-16 -23 -43 -23h-162q-8 0 -12 8zM1141 27v88q0 118 61 182q54 60 131 104q70 40 131 70q60 31 60 86q1 50 -22.5 76t-67.5 26q-40 -2 -66.5 -30t-30.5 -80q-2 -12 -10 -19.5t-20 -7.5h-131q-10 0 -18.5 8t-8.5 19q2 119 76 187t209 69 q134 0 203.5 -63.5t74.5 -178.5q0 -60 -21 -109.5t-54.5 -81t-74 -57t-81.5 -44.5t-74.5 -35.5t-54.5 -37t-21 -44.5l357 -2q10 0 18 -8t8 -19v-98q0 -11 -8 -19t-18 -8h-521q-10 0 -18 8t-8 19z" />
<glyph unicode="&#xbe;" horiz-adv-x="1810" d="M61 866q-1 10 6.5 18.5t18.5 8.5h141q12 0 21 -7.5t10 -19.5q5 -45 29.5 -71t64.5 -25q37 0 64 30t28 83q2 63 -22.5 89.5t-85.5 26.5h-43q-11 0 -19 8.5t-8 18.5v74q0 10 8 18t19 8h43q48 0 73 27t25 68q0 37 -23 63.5t-55 26.5q-74 0 -86 -78q-2 -12 -10 -19.5 t-20 -7.5h-142q-11 0 -18 8.5t-6 18.5q14 103 89 158t204 55q120 0 192 -57t74 -146q0 -126 -127 -170q70 -21 108.5 -67.5t38.5 -114.5q0 -121 -90 -188.5t-217 -67.5q-257 0 -285 231zM320 8q-4 8 2 15l995 1388q16 23 43 23h162q8 0 12 -8t-2 -15l-995 -1388 q-16 -23 -43 -23h-162q-8 0 -12 8zM1143 188v121q0 25 14 49l254 408q13 22 41 22h215q11 0 19 -8t8 -18v-451h59q11 0 19 -8t8 -18v-97q0 -10 -8 -18t-19 -8h-59v-137q0 -11 -8 -19t-19 -8h-151q-10 0 -18.5 8t-8.5 19v137h-320q-11 0 -18.5 8t-7.5 18zM1296 311h193v156 l6 170z" />
<glyph unicode="&#xbf;" horiz-adv-x="1069" d="M41 8q0 63 18 115t47 89t65 70t72.5 65.5t67.5 68t52 86t24 110.5q0 10 8.5 18.5t18.5 8.5h256q10 0 18 -8t8 -19q-3 -79 -24 -145.5t-52 -112.5t-67.5 -85.5t-72.5 -71t-65.5 -60.5t-48 -63.5t-18.5 -71.5q0 -90 54.5 -140t144.5 -52q195 -3 211 213q0 11 8 18.5t18 7.5 h240q11 0 18.5 -8t6.5 -18q-13 -204 -147 -312t-372 -108q-216 0 -352.5 107.5t-136.5 297.5zM387 786v242q0 10 8.5 18.5t18.5 8.5h258q10 0 18 -8t8 -19v-242q0 -10 -8 -18t-18 -8h-258q-11 0 -19 8t-8 18z" />
<glyph unicode="&#xc0;" horiz-adv-x="1396" d="M8 25l481 1384q1 10 12 17.5t23 7.5h367q12 0 23 -7.5t12 -17.5l471 -1384q2 -8 -3.5 -16.5t-15.5 -8.5h-268q-12 0 -23 7.5t-12 17.5l-108 340h-537l-104 -340q-1 -10 -12 -17.5t-23 -7.5h-264q-7 0 -14 8.5t-5 16.5zM367 1708l59 178q2 8 14 13.5t19 1.5l473 -207 q10 -5 14.5 -14.5t-0.5 -20.5l-39 -94q-10 -23 -37 -19l-485 131q-10 1 -15 11.5t-3 19.5zM506 612h383l-197 613z" />
<glyph unicode="&#xc1;" horiz-adv-x="1396" d="M8 25l481 1384q1 10 12 17.5t23 7.5h367q12 0 23 -7.5t12 -17.5l471 -1384q2 -8 -3.5 -16.5t-15.5 -8.5h-268q-12 0 -23 7.5t-12 17.5l-108 340h-537l-104 -340q-1 -10 -12 -17.5t-23 -7.5h-264q-7 0 -14 8.5t-5 16.5zM455 1659q-10 25 14 35l473 207q7 4 19 -1.5 t14 -13.5l57 -178q2 -9 -3 -19.5t-15 -11.5l-484 -131q-26 -4 -36 19zM506 612h383l-197 613z" />
<glyph unicode="&#xc2;" horiz-adv-x="1396" d="M8 25l481 1384q1 10 12 17.5t23 7.5h367q12 0 23 -7.5t12 -17.5l471 -1384q2 -8 -3.5 -16.5t-15.5 -8.5h-268q-12 0 -23 7.5t-12 17.5l-108 340h-537l-104 -340q-1 -10 -12 -17.5t-23 -7.5h-264q-7 0 -14 8.5t-5 16.5zM328 1663q-9 22 12 39l274 194q26 15 50 15h69 q23 0 49 -15l275 -194q21 -17 12 -39l-41 -98q-13 -22 -35 -13l-295 146l-295 -146q-21 -9 -34 13zM506 612h383l-197 613z" />
<glyph unicode="&#xc3;" horiz-adv-x="1396" d="M8 25l481 1384q1 10 12 17.5t23 7.5h367q12 0 23 -7.5t12 -17.5l471 -1384q2 -8 -3.5 -16.5t-15.5 -8.5h-268q-12 0 -23 7.5t-12 17.5l-108 340h-537l-104 -340q-1 -10 -12 -17.5t-23 -7.5h-264q-7 0 -14 8.5t-5 16.5zM371 1606q6 115 58.5 184.5t150.5 69.5 q39 0 76.5 -17t61 -37.5t48.5 -37.5t43 -17q58 0 61 80q0 12 8 19.5t19 7.5h102q11 0 19 -8t8 -19q-5 -120 -56 -187t-147 -67q-54 0 -99 27.5t-79 54.5t-61 27q-55 0 -58 -80q0 -12 -8 -19.5t-20 -7.5h-101q-10 0 -18 8t-8 19zM506 612h383l-197 613z" />
<glyph unicode="&#xc4;" horiz-adv-x="1396" d="M8 25l481 1384q1 10 12 17.5t23 7.5h367q12 0 23 -7.5t12 -17.5l471 -1384q2 -8 -3.5 -16.5t-15.5 -8.5h-268q-12 0 -23 7.5t-12 17.5l-108 340h-537l-104 -340q-1 -10 -12 -17.5t-23 -7.5h-264q-7 0 -14 8.5t-5 16.5zM358 1604v223q0 10 8 18t19 8h197q10 0 18 -7.5 t8 -18.5v-223q0 -11 -8 -19t-18 -8h-197q-11 0 -19 8.5t-8 18.5zM506 612h383l-197 613zM788 1604v223q0 10 8 18t19 8h197q10 0 18 -7.5t8 -18.5v-223q0 -11 -8 -19t-18 -8h-197q-11 0 -19 8.5t-8 18.5z" />
<glyph unicode="&#xc5;" horiz-adv-x="1396" d="M8 25l481 1384q1 10 12 17.5t23 7.5h367q12 0 23 -7.5t12 -17.5l471 -1384q2 -8 -3.5 -16.5t-15.5 -8.5h-268q-12 0 -23 7.5t-12 17.5l-108 340h-537l-104 -340q-1 -10 -12 -17.5t-23 -7.5h-264q-7 0 -14 8.5t-5 16.5zM440 1804q0 104 76 174t189 70t188.5 -70t75.5 -174 t-75.5 -173.5t-188.5 -69.5t-189 69.5t-76 173.5zM506 612h383l-197 613zM600 1804q0 -64 29.5 -99.5t75.5 -35.5t75 35.5t29 99.5q0 65 -29 100t-75 35t-75.5 -35t-29.5 -100z" />
<glyph unicode="&#xc6;" horiz-adv-x="1910" d="M10 25l678 1384q14 25 39 25h1075q10 0 18.5 -8t8.5 -19v-178q0 -11 -8.5 -19t-18.5 -8h-553l-16 -330h510q11 0 18.5 -8t7.5 -18v-178q0 -11 -8 -19t-18 -8h-510l16 -410h570q11 0 18.5 -7.5t7.5 -18.5v-178q0 -11 -8 -19t-18 -8h-869q-10 0 -18 8t-8 19l10 338h-449 l-159 -340q-11 -25 -37 -25h-264q-8 0 -13.5 9t-1.5 16zM600 612h340l2 105l-12 506h-47z" />
<glyph unicode="&#xc7;" horiz-adv-x="1462" d="M57 711q0 343 193 548t518 205q229 0 403 -110q171 -110 236 -391q2 -11 -4.5 -19t-16.5 -8h-251q-11 0 -21.5 8t-11.5 19q-31 126 -117 194t-221 68q-184 0 -284.5 -136t-100.5 -376q0 -238 100.5 -371t282.5 -133q282 0 346 295q1 12 10.5 19t20.5 7h258q10 0 16 -7.5 t4 -18.5q-58 -278 -222.5 -406.5t-424.5 -128.5q-216 0 -379 94.5t-248.5 262.5t-85.5 385zM508 -291l131 307q10 23 37 23l158 -19q10 0 17 -8.5t5 -19.5l-68 -334q-2 -11 -11 -17.5t-19 -5.5l-234 46q-10 1 -14 10t-2 18z" />
<glyph unicode="&#xc8;" horiz-adv-x="1193" d="M102 27l19 690l-19 690q0 11 8 19t19 8h954q11 0 19 -8t8 -19v-178q0 -11 -8 -19t-19 -8h-655l-16 -330h612q11 0 19 -8t8 -18v-178q0 -10 -8.5 -18.5t-18.5 -8.5h-612l16 -410h672q10 0 18 -7.5t8 -18.5v-178q0 -11 -8 -19t-18 -8h-971q-11 0 -19 8t-8 19zM319 1708 l60 178q2 8 14 13.5t19 1.5l473 -207q11 -5 15 -14.5t-1 -20.5l-39 -94q-10 -23 -37 -19l-485 131q-10 1 -15.5 12t-3.5 19z" />
<glyph unicode="&#xc9;" horiz-adv-x="1193" d="M102 27l19 690l-19 690q0 11 8 19t19 8h954q11 0 19 -8t8 -19v-178q0 -11 -8 -19t-19 -8h-655l-16 -330h612q11 0 19 -8t8 -18v-178q0 -10 -8.5 -18.5t-18.5 -8.5h-612l16 -410h672q10 0 18 -7.5t8 -18.5v-178q0 -11 -8 -19t-18 -8h-971q-11 0 -19 8t-8 19zM432 1659 q-10 25 14 35l474 207q7 4 18.5 -1.5t13.5 -13.5l58 -178q2 -9 -3.5 -19.5t-15.5 -11.5l-483 -131q-27 -4 -37 19z" />
<glyph unicode="&#xca;" horiz-adv-x="1193" d="M102 27l19 690l-19 690q0 11 8 19t19 8h954q11 0 19 -8t8 -19v-178q0 -11 -8 -19t-19 -8h-655l-16 -330h612q11 0 19 -8t8 -18v-178q0 -10 -8.5 -18.5t-18.5 -8.5h-612l16 -410h672q10 0 18 -7.5t8 -18.5v-178q0 -11 -8 -19t-18 -8h-971q-11 0 -19 8t-8 19zM305 1663 q-9 22 12 39l275 194q26 15 49 15h70q23 0 49 -15l274 -194q22 -18 13 -39l-41 -98q-13 -22 -35 -13l-295 146l-295 -146q-22 -9 -35 13z" />
<glyph unicode="&#xcb;" horiz-adv-x="1193" d="M102 27l19 690l-19 690q0 11 8 19t19 8h954q11 0 19 -8t8 -19v-178q0 -11 -8 -19t-19 -8h-655l-16 -330h612q11 0 19 -8t8 -18v-178q0 -10 -8.5 -18.5t-18.5 -8.5h-612l16 -410h672q10 0 18 -7.5t8 -18.5v-178q0 -11 -8 -19t-18 -8h-971q-11 0 -19 8t-8 19zM336 1604v223 q0 11 8 18.5t18 7.5h197q11 0 19 -8t8 -18v-223q0 -10 -8 -18.5t-19 -8.5h-197q-10 0 -18 8t-8 19zM766 1604v223q0 10 8 18t19 8h196q11 0 19 -8t8 -18v-223q0 -10 -8 -18.5t-19 -8.5h-196q-11 0 -19 8.5t-8 18.5z" />
<glyph unicode="&#xcc;" horiz-adv-x="548" d="M-82 1708l59 178q2 8 14 13.5t19 1.5l473 -207q25 -11 15 -35l-39 -94q-10 -23 -37 -19l-485 131q-10 1 -15.5 12t-3.5 19zM113 27l18 690l-18 690q0 11 8 19t18 8h271q10 0 18 -8t8 -19l-18 -690l18 -690q0 -11 -8 -19t-18 -8h-271q-10 0 -18 8t-8 19z" />
<glyph unicode="&#xcd;" horiz-adv-x="548" d="M30.5 1679.5q4.5 9.5 14.5 14.5l473 207q7 4 19 -1.5t14 -13.5l57 -178q2 -9 -3 -19.5t-15 -11.5l-484 -131q-26 -4 -36 19l-39 94q-5 11 -0.5 20.5zM113 27l18 690l-18 690q0 11 8 19t18 8h271q10 0 18 -8t8 -19l-18 -690l18 -690q0 -11 -8 -19t-18 -8h-271q-10 0 -18 8 t-8 19z" />
<glyph unicode="&#xce;" horiz-adv-x="548" d="M-96 1663q-9 22 12 39l274 194q26 15 50 15h69q23 0 49 -15l275 -194q21 -17 12 -39l-41 -98q-13 -22 -35 -13l-295 146l-294 -146q-22 -9 -35 13zM113 27l18 690l-18 690q0 11 8 19t18 8h271q10 0 18 -8t8 -19l-18 -690l18 -690q0 -11 -8 -19t-18 -8h-271q-10 0 -18 8 t-8 19z" />
<glyph unicode="&#xcf;" horiz-adv-x="548" d="M-66 1604v223q0 10 8 18t19 8h197q10 0 18 -7.5t8 -18.5v-223q0 -11 -8 -19t-18 -8h-197q-11 0 -19 8.5t-8 18.5zM113 27l18 690l-18 690q0 11 8 19t18 8h271q10 0 18 -8t8 -19l-18 -690l18 -690q0 -11 -8 -19t-18 -8h-271q-10 0 -18 8t-8 19zM365 1604v223 q0 11 7.5 18.5t18.5 7.5h197q10 0 18 -7.5t8 -18.5v-223q0 -11 -8 -19t-18 -8h-197q-10 0 -18 8t-8 19z" />
<glyph unicode="&#xd0;" horiz-adv-x="1468" d="M-27 668v178q0 10 8 18t19 8h137l-14 535q0 11 8.5 19t18.5 8h501q158 0 292.5 -43.5t240.5 -129.5t166.5 -228t60.5 -326q0 -148 -40 -268t-109.5 -201t-166.5 -135t-206.5 -78.5t-233.5 -24.5h-505q-10 0 -18.5 8t-8.5 19l16 614h-139q-10 0 -18.5 8.5t-8.5 18.5z M432 641q1 -44 2.5 -90t3 -85t3 -75.5t3 -65t3 -49.5t1.5 -33l1 -12h223q89 0 163 27.5t132 83.5t90.5 149.5t32.5 217.5q0 243 -118 368t-308 125h-215l-1 -9q0 -9 -1.5 -26t-3 -39t-3 -51.5t-2.5 -60.5t-2.5 -69t-1.5 -75h336q11 0 19 -8t8 -18v-178q0 -10 -8.5 -18.5 t-18.5 -8.5h-338z" />
<glyph unicode="&#xd1;" horiz-adv-x="1456" d="M102 27l17 690l-17 690q0 11 8 19t19 8h330q25 0 39 -23l571 -1010l-2 33l-10 451v522q0 11 8 19t18 8h244q11 0 19 -8t8 -19l-17 -690l17 -690q0 -11 -8 -19t-19 -8h-342q-25 0 -39 23l-561 1001l4 -98l10 -447v-452q0 -11 -8 -19t-18 -8h-244q-11 0 -19 8t-8 19z M401 1606q6 115 58.5 184.5t150.5 69.5q39 0 76.5 -17t61 -37.5t49 -37.5t43.5 -17q58 0 61 80q0 12 8 19.5t19 7.5h102q10 0 18.5 -8t8.5 -19q-5 -120 -56 -187t-147 -67q-42 0 -80.5 17t-61 37.5t-49.5 37.5t-49 17q-54 0 -57 -80q0 -12 -8.5 -19.5t-20.5 -7.5h-100 q-10 0 -18.5 8.5t-8.5 18.5z" />
<glyph unicode="&#xd2;" horiz-adv-x="1562" d="M57 713q0 341 197 546t526 205t527 -203t198 -548q0 -217 -89.5 -386t-255 -263.5t-380.5 -94.5q-216 0 -381 94.5t-253.5 263t-88.5 386.5zM379 713q0 -234 106.5 -369t296.5 -135q191 0 296.5 134.5t105.5 369.5q0 237 -105 374.5t-299 137.5t-297.5 -135.5 t-103.5 -376.5zM426 1708l59 178q2 8 14 13.5t19 1.5l473 -207q25 -11 15 -35l-39 -94q-10 -23 -37 -19l-486 131q-10 1 -15 11.5t-3 19.5z" />
<glyph unicode="&#xd3;" horiz-adv-x="1562" d="M57 713q0 341 197 546t526 205t527 -203t198 -548q0 -217 -89.5 -386t-255 -263.5t-380.5 -94.5q-216 0 -381 94.5t-253.5 263t-88.5 386.5zM379 713q0 -234 106.5 -369t296.5 -135q191 0 296.5 134.5t105.5 369.5q0 237 -105 374.5t-299 137.5t-297.5 -135.5 t-103.5 -376.5zM539 1659q-10 25 14 35l473 207q7 4 19 -1.5t14 -13.5l57 -178q2 -9 -3 -19.5t-15 -11.5l-484 -131q-26 -4 -36 19z" />
<glyph unicode="&#xd4;" horiz-adv-x="1562" d="M57 713q0 341 197 546t526 205t527 -203t198 -548q0 -217 -89.5 -386t-255 -263.5t-380.5 -94.5q-216 0 -381 94.5t-253.5 263t-88.5 386.5zM379 713q0 -234 106.5 -369t296.5 -135q191 0 296.5 134.5t105.5 369.5q0 237 -105 374.5t-299 137.5t-297.5 -135.5 t-103.5 -376.5zM412 1663q-9 22 12 39l274 194q26 15 50 15h69q23 0 49 -15l275 -194q21 -17 12 -39l-41 -98q-13 -22 -35 -13l-295 146l-295 -146q-21 -9 -34 13z" />
<glyph unicode="&#xd5;" horiz-adv-x="1562" d="M57 713q0 341 197 546t526 205t527 -203t198 -548q0 -217 -89.5 -386t-255 -263.5t-380.5 -94.5q-216 0 -381 94.5t-253.5 263t-88.5 386.5zM379 713q0 -234 106.5 -369t296.5 -135q191 0 296.5 134.5t105.5 369.5q0 237 -105 374.5t-299 137.5t-297.5 -135.5 t-103.5 -376.5zM455 1606q6 115 58.5 184.5t150.5 69.5q39 0 76.5 -17t61 -37.5t48.5 -37.5t43 -17q58 0 61 80q0 12 8 19.5t19 7.5h102q11 0 19 -8t8 -19q-5 -120 -56 -187t-147 -67q-54 0 -99 27.5t-79 54.5t-61 27q-55 0 -58 -80q0 -12 -8 -19.5t-20 -7.5h-101 q-10 0 -18 8t-8 19z" />
<glyph unicode="&#xd6;" horiz-adv-x="1562" d="M57 713q0 341 197 546t526 205t527 -203t198 -548q0 -217 -89.5 -386t-255 -263.5t-380.5 -94.5q-216 0 -381 94.5t-253.5 263t-88.5 386.5zM379 713q0 -234 106.5 -369t296.5 -135q191 0 296.5 134.5t105.5 369.5q0 237 -105 374.5t-299 137.5t-297.5 -135.5 t-103.5 -376.5zM442 1604v223q0 10 8 18t19 8h197q10 0 18 -7.5t8 -18.5v-223q0 -11 -8 -19t-18 -8h-197q-11 0 -19 8.5t-8 18.5zM872 1604v223q0 10 8 18t19 8h197q10 0 18 -7.5t8 -18.5v-223q0 -11 -8 -19t-18 -8h-197q-11 0 -19 8.5t-8 18.5z" />
<glyph unicode="&#xd7;" horiz-adv-x="1146" d="M134 995q0 11 7 19l125 123q8 7 19 7t18 -7l270 -271l271 271q8 7 19 7t18 -7l125 -123q8 -8 8 -19t-8 -18l-271 -270l269 -271q8 -8 8 -19t-8 -18l-123 -125q-7 -8 -18 -8t-19 8l-271 271l-270 -271q-7 -8 -18 -8t-19 8l-123 125q-7 7 -7 18t7 19l271 271l-273 270 q-7 7 -7 18z" />
<glyph unicode="&#xd8;" horiz-adv-x="1562" d="M57 713q0 341 197 546t526 205q213 0 377 -88l133 156q6 8 17.5 8.5t19.5 -6.5l156 -143q8 -8 9 -19.5t-5 -19.5l-129 -152q147 -200 147 -487q0 -217 -89.5 -386t-255 -263.5t-380.5 -94.5q-212 0 -377 92l-131 -153q-6 -8 -17 -8.5t-19 6.5l-156 143q-8 8 -9 19.5 t5 19.5l127 150q-146 198 -146 475zM379 713q0 -140 43 -258l588 700q-96 70 -230 70q-194 0 -297.5 -135.5t-103.5 -376.5zM549 281q97 -72 233 -72q191 0 296.5 134.5t105.5 369.5q0 160 -45 270z" />
<glyph unicode="&#xd9;" horiz-adv-x="1337" d="M82 1407q0 11 8 19t19 8h280q11 0 19 -8t8 -19l-15 -477l5 -395q0 -318 268 -318q289 0 289 318v389l-11 483q0 11 8 19t19 8h250q10 0 18 -8t8 -19l-10 -485v-390q0 -274 -144.5 -418.5t-426.5 -144.5q-284 0 -434 145.5t-148 417.5l4 390zM313 1708l60 178q2 8 14 13.5 t19 1.5l473 -207q10 -5 14.5 -14.5t-0.5 -20.5l-39 -94q-10 -23 -37 -19l-485 131q-10 1 -15.5 12t-3.5 19z" />
<glyph unicode="&#xda;" horiz-adv-x="1337" d="M82 1407q0 11 8 19t19 8h280q11 0 19 -8t8 -19l-15 -477l5 -395q0 -318 268 -318q289 0 289 318v389l-11 483q0 11 8 19t19 8h250q10 0 18 -8t8 -19l-10 -485v-390q0 -274 -144.5 -418.5t-426.5 -144.5q-284 0 -434 145.5t-148 417.5l4 390zM426 1659q-4 11 0 20.5 t14 14.5l473 207q7 4 19 -1.5t14 -13.5l58 -178q2 -9 -3.5 -19.5t-15.5 -11.5l-483 -131q-27 -4 -37 19z" />
<glyph unicode="&#xdb;" horiz-adv-x="1337" d="M82 1407q0 11 8 19t19 8h280q11 0 19 -8t8 -19l-15 -477l5 -395q0 -318 268 -318q289 0 289 318v389l-11 483q0 11 8 19t19 8h250q10 0 18 -8t8 -19l-10 -485v-390q0 -274 -144.5 -418.5t-426.5 -144.5q-284 0 -434 145.5t-148 417.5l4 390zM299 1663q-9 22 12 39 l275 194q26 15 49 15h70q23 0 49 -15l274 -194q21 -17 12 -39l-41 -98q-13 -22 -34 -13l-295 146l-295 -146q-22 -9 -35 13z" />
<glyph unicode="&#xdc;" horiz-adv-x="1337" d="M82 1407q0 11 8 19t19 8h280q11 0 19 -8t8 -19l-15 -477l5 -395q0 -318 268 -318q289 0 289 318v389l-11 483q0 11 8 19t19 8h250q10 0 18 -8t8 -19l-10 -485v-390q0 -274 -144.5 -418.5t-426.5 -144.5q-284 0 -434 145.5t-148 417.5l4 390zM330 1604v223q0 11 8 18.5 t18 7.5h197q11 0 19 -8t8 -18v-223q0 -10 -8 -18.5t-19 -8.5h-197q-10 0 -18 8t-8 19zM760 1604v223q0 11 8 18.5t18 7.5h197q11 0 19 -8t8 -18v-223q0 -10 -8 -18.5t-19 -8.5h-197q-10 0 -18 8t-8 19z" />
<glyph unicode="&#xdd;" horiz-adv-x="1277" d="M12 1409q-4 7 1.5 16t13.5 9h301q26 0 37 -25l290 -653l293 653q11 25 37 25h275q8 0 13 -9t1 -16l-483 -917l14 -465q0 -11 -8.5 -19t-18.5 -8h-272q-10 0 -18.5 8t-8.5 19l17 465zM395 1659q-10 24 15 35l473 207q7 4 18.5 -1.5t13.5 -13.5l58 -178q2 -9 -3.5 -19.5 t-15.5 -11.5l-483 -131q-27 -4 -37 19z" />
<glyph unicode="&#xde;" horiz-adv-x="1261" d="M102 27l17 690l-17 690q0 11 8 19t19 8h272q11 0 19 -8t8 -19l-6 -219h244q261 0 402.5 -118t141.5 -343t-144.5 -350t-401.5 -125h-242l6 -225q0 -11 -8 -19t-19 -8h-272q-11 0 -19 8t-8 19zM412 690l4 -211h270q98 0 160.5 60t62.5 182q0 240 -231 240h-260z" />
<glyph unicode="&#xdf;" horiz-adv-x="1245" d="M98 27l13 438v536q0 122 39.5 212t111.5 141.5t163 75.5t204 24q227 0 351 -100t126 -269q0 -115 -71 -191t-185 -97q166 -25 250 -120t84 -237q0 -107 -43.5 -192.5t-118 -138.5t-169.5 -81t-202 -28h-51q-10 0 -18.5 8t-8.5 19v166q0 10 8 18t19 8h51q212 0 215 211 q1 114 -62.5 173t-176.5 59h-29q-8 0 -16.5 8.5t-8.5 15.5v150q0 7 8.5 15.5t16.5 8.5h29q94 0 134 51t40 144q0 88 -48.5 134t-140.5 46q-98 0 -149 -55.5t-51 -186.5v-528l12 -438q0 -11 -8 -19t-19 -8h-272q-11 0 -19 8t-8 19z" />
<glyph unicode="&#xe0;" d="M57 524q0 153 55 277.5t161.5 199t246.5 74.5q191 0 305 -133l-4 86q-1 10 6.5 18.5t18.5 8.5h260q10 0 18.5 -8.5t8.5 -18.5l-13 -502l13 -499q0 -11 -8.5 -19t-18.5 -8h-258q-10 0 -18.5 8t-8.5 19l4 96q-118 -143 -311 -143q-144 0 -249 72.5t-156.5 194t-51.5 277.5z M240 1329l59 178q2 8 14 13.5t19 1.5l473 -207q10 -5 14.5 -14.5t-0.5 -20.5l-39 -94q-10 -23 -37 -19l-485 131q-10 1 -15 11.5t-3 19.5zM371 541q0 -177 59 -268t170 -89q111 0 170.5 85.5t60.5 250.5q2 167 -56.5 258t-168.5 92q-116 1 -175.5 -83t-59.5 -246z" />
<glyph unicode="&#xe1;" d="M57 524q0 153 55 277.5t161.5 199t246.5 74.5q191 0 305 -133l-4 86q-1 10 6.5 18.5t18.5 8.5h260q10 0 18.5 -8.5t8.5 -18.5l-13 -502l13 -499q0 -11 -8.5 -19t-18.5 -8h-258q-10 0 -18.5 8t-8.5 19l4 96q-118 -143 -311 -143q-144 0 -249 72.5t-156.5 194t-51.5 277.5z M352 1280q-10 24 15 35l473 207q7 4 18.5 -1.5t13.5 -13.5l58 -178q2 -9 -3.5 -19.5t-15.5 -11.5l-483 -131q-27 -4 -37 19zM371 541q0 -177 59 -268t170 -89q111 0 170.5 85.5t60.5 250.5q2 167 -56.5 258t-168.5 92q-116 1 -175.5 -83t-59.5 -246z" />
<glyph unicode="&#xe2;" d="M57 524q0 153 55 277.5t161.5 199t246.5 74.5q191 0 305 -133l-4 86q-1 10 6.5 18.5t18.5 8.5h260q10 0 18.5 -8.5t8.5 -18.5l-13 -502l13 -499q0 -11 -8.5 -19t-18.5 -8h-258q-10 0 -18.5 8t-8.5 19l4 96q-118 -143 -311 -143q-144 0 -249 72.5t-156.5 194t-51.5 277.5z M225 1284q-9 21 13 39l274 195q24 14 49 14h70q25 0 49 -14l274 -195q22 -18 13 -39l-41 -98q-13 -21 -35 -12l-295 145l-295 -145q-22 -9 -35 12zM371 541q0 -177 59 -268t170 -89q111 0 170.5 85.5t60.5 250.5q2 167 -56.5 258t-168.5 92q-116 1 -175.5 -83t-59.5 -246z " />
<glyph unicode="&#xe3;" d="M57 524q0 153 55 277.5t161.5 199t246.5 74.5q191 0 305 -133l-4 86q-1 10 6.5 18.5t18.5 8.5h260q10 0 18.5 -8.5t8.5 -18.5l-13 -502l13 -499q0 -11 -8.5 -19t-18.5 -8h-258q-10 0 -18.5 8t-8.5 19l4 96q-118 -143 -311 -143q-144 0 -249 72.5t-156.5 194t-51.5 277.5z M268 1227q6 115 58.5 184.5t150.5 69.5q39 0 76.5 -17t61 -37.5t49 -37.5t43.5 -17q58 0 61 80q0 12 8 19.5t19 7.5h102q11 0 19 -8.5t8 -18.5q-5 -120 -56 -187t-147 -67q-42 0 -80.5 17t-61 37.5t-49.5 37.5t-49 17q-54 0 -57 -80q0 -12 -8.5 -19.5t-20.5 -7.5h-100 q-11 0 -19 8t-8 19zM371 541q0 -177 59 -268t170 -89q111 0 170.5 85.5t60.5 250.5q2 167 -56.5 258t-168.5 92q-116 1 -175.5 -83t-59.5 -246z" />
<glyph unicode="&#xe4;" d="M57 524q0 153 55 277.5t161.5 199t246.5 74.5q191 0 305 -133l-4 86q-1 10 6.5 18.5t18.5 8.5h260q10 0 18.5 -8.5t8.5 -18.5l-13 -502l13 -499q0 -11 -8.5 -19t-18.5 -8h-258q-10 0 -18.5 8t-8.5 19l4 96q-118 -143 -311 -143q-144 0 -249 72.5t-156.5 194t-51.5 277.5z M256 1225v223q0 10 8 18.5t19 8.5h196q11 0 19 -8.5t8 -18.5v-223q0 -11 -8 -19t-19 -8h-196q-11 0 -19 8t-8 19zM371 541q0 -177 59 -268t170 -89q111 0 170.5 85.5t60.5 250.5q2 167 -56.5 258t-168.5 92q-116 1 -175.5 -83t-59.5 -246zM686 1225v223q0 10 8 18.5t19 8.5 h196q11 0 19 -8.5t8 -18.5v-223q0 -11 -8 -19t-19 -8h-196q-11 0 -19 8t-8 19z" />
<glyph unicode="&#xe5;" d="M57 524q0 153 55 277.5t161.5 199t246.5 74.5q191 0 305 -133l-4 86q-1 10 6.5 18.5t18.5 8.5h260q10 0 18.5 -8.5t8.5 -18.5l-13 -502l13 -499q0 -11 -8.5 -19t-18.5 -8h-258q-10 0 -18.5 8t-8.5 19l4 96q-118 -143 -311 -143q-144 0 -249 72.5t-156.5 194t-51.5 277.5z M332 1425q0 104 75.5 174t188.5 70t188.5 -70t75.5 -174t-75.5 -173.5t-188.5 -69.5t-188.5 69.5t-75.5 173.5zM371 541q0 -177 59 -268t170 -89q111 0 170.5 85.5t60.5 250.5q2 167 -56.5 258t-168.5 92q-116 1 -175.5 -83t-59.5 -246zM492 1425q0 -64 29 -99.5t75 -35.5 t75 35.5t29 99.5q0 65 -29 100.5t-75 35.5t-75 -35.5t-29 -100.5z" />
<glyph unicode="&#xe6;" horiz-adv-x="1990" d="M57 524q0 153 55 277.5t161.5 199t246.5 74.5q191 0 305 -133l-4 86q-1 10 6.5 18.5t18.5 8.5h256q10 0 18 -8t8 -19v-43q124 96 291 96q244 0 381.5 -157.5t143.5 -431.5q0 -10 -8 -18.5t-19 -8.5h-746q15 -287 238 -287q164 0 203 152q1 12 11.5 19t23.5 7h239 q11 0 17.5 -8t5.5 -18q-21 -150 -152 -253.5t-332 -103.5q-172 0 -297 97v-43q0 -11 -8 -19t-18 -8h-254q-10 0 -18.5 8t-8.5 19l4 96q-118 -143 -311 -143q-144 0 -249 72.5t-156.5 194t-51.5 277.5zM371 541q0 -177 59 -268t170 -89q111 0 170.5 85.5t60.5 250.5 q2 167 -56.5 258t-168.5 92q-116 1 -175.5 -83t-59.5 -246zM1180 659h432q-8 92 -62.5 156t-148.5 64q-183 0 -221 -220z" />
<glyph unicode="&#xe7;" horiz-adv-x="1136" d="M57 524q0 249 146 404q144 153 399 153q198 0 324 -102t147 -272q1 -10 -6 -18.5t-18 -8.5h-230q-12 0 -22 7.5t-11 19.5q-18 82 -68 124.5t-116 42.5q-116 -1 -172.5 -87.5t-56.5 -260.5q0 -178 56 -262t173 -86q77 -2 130 51t65 150q2 12 10 19.5t20 7.5h236 q11 0 18 -8.5t6 -18.5q-21 -177 -153 -291q-136 -115 -338 -115q-249 0 -395 152q-144 150 -144 399zM340 -291l131 307q10 23 37 23l158 -19q10 0 17 -8.5t5 -19.5l-67 -334q-1 -10 -10.5 -17.5t-20.5 -5.5l-234 46q-10 1 -14 10t-2 18z" />
<glyph unicode="&#xe8;" horiz-adv-x="1185" d="M57 524q0 251 144 404t393 153q253 0 396 -158t149 -431q0 -10 -8.5 -18.5t-18.5 -8.5h-745q7 -146 66.5 -216.5t170.5 -70.5q164 0 203 152q1 12 11.5 19t23.5 7h239q11 0 17.5 -8t5.5 -18q-21 -150 -157.5 -253.5t-346.5 -103.5q-257 0 -400 152.5t-143 398.5z M242 1329l59 178q2 8 14 13.5t19 1.5l473 -207q10 -5 14.5 -14.5t-0.5 -20.5l-39 -94q-10 -23 -37 -19l-485 131q-10 1 -15 11.5t-3 19.5zM375 659h432q-8 92 -62.5 156t-148.5 64q-183 0 -221 -220z" />
<glyph unicode="&#xe9;" horiz-adv-x="1185" d="M57 524q0 251 144 404t393 153q253 0 396 -158t149 -431q0 -10 -8.5 -18.5t-18.5 -8.5h-745q7 -146 66.5 -216.5t170.5 -70.5q164 0 203 152q1 12 11.5 19t23.5 7h239q11 0 17.5 -8t5.5 -18q-21 -150 -157.5 -253.5t-346.5 -103.5q-257 0 -400 152.5t-143 398.5z M354 1280q-10 24 15 35l473 207q7 4 18.5 -1.5t13.5 -13.5l58 -178q2 -9 -3.5 -19.5t-15.5 -11.5l-483 -131q-27 -4 -37 19zM375 659h432q-8 92 -62.5 156t-148.5 64q-183 0 -221 -220z" />
<glyph unicode="&#xea;" horiz-adv-x="1185" d="M57 524q0 251 144 404t393 153q253 0 396 -158t149 -431q0 -10 -8.5 -18.5t-18.5 -8.5h-745q7 -146 66.5 -216.5t170.5 -70.5q164 0 203 152q1 12 11.5 19t23.5 7h239q11 0 17.5 -8t5.5 -18q-21 -150 -157.5 -253.5t-346.5 -103.5q-257 0 -400 152.5t-143 398.5z M227 1284q-9 21 13 39l274 195q25 14 49 14h70q25 0 49 -14l274 -195q22 -18 13 -39l-41 -98q-13 -21 -35 -12l-295 145l-295 -145q-22 -9 -35 12zM375 659h432q-8 92 -62.5 156t-148.5 64q-183 0 -221 -220z" />
<glyph unicode="&#xeb;" horiz-adv-x="1185" d="M57 524q0 251 144 404t393 153q253 0 396 -158t149 -431q0 -10 -8.5 -18.5t-18.5 -8.5h-745q7 -146 66.5 -216.5t170.5 -70.5q164 0 203 152q1 12 11.5 19t23.5 7h239q11 0 17.5 -8t5.5 -18q-21 -150 -157.5 -253.5t-346.5 -103.5q-257 0 -400 152.5t-143 398.5z M258 1225v223q0 10 8 18.5t19 8.5h196q11 0 19 -8.5t8 -18.5v-223q0 -11 -8 -19t-19 -8h-196q-11 0 -19 8t-8 19zM375 659h432q-8 92 -62.5 156t-148.5 64q-183 0 -221 -220zM688 1225v223q0 10 8 18.5t19 8.5h196q11 0 19 -8.5t8 -18.5v-223q0 -11 -8 -19t-19 -8h-196 q-11 0 -19 8t-8 19z" />
<glyph unicode="&#xec;" horiz-adv-x="507" d="M-104 1329l59 178q2 8 14 13.5t19 1.5l473 -207q11 -5 15 -14.5t-1 -20.5l-39 -94q-10 -23 -37 -19l-485 131q-10 1 -15 11.5t-3 19.5zM94 27l12 499l-12 502q0 10 8 18.5t19 8.5h266q11 0 19 -8.5t8 -18.5l-13 -502l13 -499q0 -11 -8 -19t-19 -8h-266q-11 0 -19 8t-8 19 z" />
<glyph unicode="&#xed;" horiz-adv-x="507" d="M35 1280q-10 24 14 35l473 207q7 4 19 -1.5t14 -13.5l57 -178q2 -9 -3 -19.5t-15 -11.5l-483 -131q-27 -4 -37 19zM94 27l12 499l-12 502q0 10 8 18.5t19 8.5h266q11 0 19 -8.5t8 -18.5l-13 -502l13 -499q0 -11 -8 -19t-19 -8h-266q-11 0 -19 8t-8 19z" />
<glyph unicode="&#xee;" horiz-adv-x="507" d="M-117 1284q-9 21 13 39l274 195q24 14 49 14h70q25 0 49 -14l274 -195q22 -18 13 -39l-41 -98q-13 -21 -35 -12l-295 145l-295 -145q-22 -9 -35 12zM94 27l12 499l-12 502q0 10 8 18.5t19 8.5h266q11 0 19 -8.5t8 -18.5l-13 -502l13 -499q0 -11 -8 -19t-19 -8h-266 q-11 0 -19 8t-8 19z" />
<glyph unicode="&#xef;" horiz-adv-x="507" d="M-86 1225v223q0 10 8 18.5t19 8.5h196q11 0 19 -8.5t8 -18.5v-223q0 -11 -8 -19t-19 -8h-196q-11 0 -19 8t-8 19zM94 27l12 499l-12 502q0 10 8 18.5t19 8.5h266q11 0 19 -8.5t8 -18.5l-13 -502l13 -499q0 -11 -8 -19t-19 -8h-266q-11 0 -19 8t-8 19zM344 1225v223 q0 10 8 18.5t19 8.5h196q11 0 19 -8.5t8 -18.5v-223q0 -11 -8 -19t-19 -8h-196q-11 0 -19 8t-8 19z" />
<glyph unicode="&#xf0;" horiz-adv-x="1224" d="M72 455q0 204 129 336q128 131 336 131q197 0 301 -119q-12 155 -127 280l-234 -110q-10 -5 -21.5 -1.5t-15.5 13.5l-59 121q-5 10 -1.5 21.5t13.5 15.5l154 74q-86 49 -182 81q-8 2 -12.5 12.5t1.5 18.5l82 139q15 18 39 15q186 -62 320 -150l258 123q10 5 21.5 1.5 t15.5 -13.5l59 -121q5 -10 1.5 -21.5t-13.5 -15.5l-185 -86q205 -227 205 -616q0 -180 -65 -318t-192 -217.5t-298 -79.5q-227 0 -378.5 140t-151.5 346zM395 440q0 -115 61 -181t162 -66q99 0 154 69t55 191q0 120 -60 186t-165 66q-102 0 -154.5 -70t-52.5 -195z" />
<glyph unicode="&#xf1;" horiz-adv-x="1175" d="M88 27l12 479l-8 522q0 10 8 18.5t19 8.5h243q11 0 18.5 -8.5t6.5 -18.5l-4 -106q56 72 144.5 114.5t195.5 42.5q167 0 265.5 -109t98.5 -300v-221l9 -422q0 -11 -8 -19t-19 -8h-258q-11 0 -19 8t-8 19l9 422v217q0 85 -47 136.5t-117 51.5q-91 0 -160.5 -85.5 t-69.5 -242.5v-77l4 -422q0 -11 -8 -19t-18 -8h-262q-11 0 -19 8t-8 19zM264 1227q6 115 58.5 184.5t150.5 69.5q50 0 95 -27.5t79 -54.5t55 -27q59 0 62 80q0 12 8 19.5t19 7.5h102q11 0 19 -8.5t8 -18.5q-5 -120 -56 -187t-147 -67q-42 0 -80.5 17t-61 37.5t-49.5 37.5 t-49 17q-54 0 -57 -80q0 -12 -8.5 -19.5t-20.5 -7.5h-100q-11 0 -19 8t-8 19z" />
<glyph unicode="&#xf2;" horiz-adv-x="1196" d="M57 524q0 251 144 404t399 153q257 0 397 -149q142 -151 142 -402q0 -249 -142 -403t-397 -154q-253 0 -399 152q-144 150 -144 399zM242 1329l59 178q2 8 14 13.5t19 1.5l473 -207q10 -5 14.5 -14.5t-0.5 -20.5l-39 -94q-10 -23 -37 -19l-485 131q-10 1 -15 11.5 t-3 19.5zM371 522q0 -177 56.5 -260.5t172.5 -83.5q113 0 168 83.5t55 262.5q0 353 -225 353q-117 -1 -172 -88.5t-55 -266.5z" />
<glyph unicode="&#xf3;" horiz-adv-x="1196" d="M57 524q0 251 144 404t399 153q257 0 397 -149q142 -151 142 -402q0 -249 -142 -403t-397 -154q-253 0 -399 152q-144 150 -144 399zM354 1280q-10 24 15 35l473 207q7 4 18.5 -1.5t13.5 -13.5l58 -178q2 -9 -3.5 -19.5t-15.5 -11.5l-483 -131q-27 -4 -37 19zM371 522 q0 -177 56.5 -260.5t172.5 -83.5q113 0 168 83.5t55 262.5q0 353 -225 353q-117 -1 -172 -88.5t-55 -266.5z" />
<glyph unicode="&#xf4;" horiz-adv-x="1196" d="M57 524q0 251 144 404t399 153q257 0 397 -149q142 -151 142 -402q0 -249 -142 -403t-397 -154q-253 0 -399 152q-144 150 -144 399zM227 1284q-9 21 13 39l274 195q25 14 49 14h70q25 0 49 -14l274 -195q22 -18 13 -39l-41 -98q-13 -21 -35 -12l-295 145l-295 -145 q-22 -9 -35 12zM371 522q0 -177 56.5 -260.5t172.5 -83.5q113 0 168 83.5t55 262.5q0 353 -225 353q-117 -1 -172 -88.5t-55 -266.5z" />
<glyph unicode="&#xf5;" horiz-adv-x="1196" d="M57 524q0 251 144 404t399 153q257 0 397 -149q142 -151 142 -402q0 -249 -142 -403t-397 -154q-253 0 -399 152q-144 150 -144 399zM270 1227q6 115 58.5 184.5t150.5 69.5q39 0 76.5 -17t61 -37.5t49 -37.5t43.5 -17q58 0 61 80q0 12 8 19.5t19 7.5h102q11 0 19 -8.5 t8 -18.5q-5 -120 -56 -187t-147 -67q-42 0 -80.5 17t-61 37.5t-49.5 37.5t-49 17q-54 0 -57 -80q0 -12 -8.5 -19.5t-20.5 -7.5h-100q-11 0 -19 8t-8 19zM371 522q0 -177 56.5 -260.5t172.5 -83.5q113 0 168 83.5t55 262.5q0 353 -225 353q-117 -1 -172 -88.5t-55 -266.5z " />
<glyph unicode="&#xf6;" horiz-adv-x="1196" d="M57 524q0 251 144 404t399 153q257 0 397 -149q142 -151 142 -402q0 -249 -142 -403t-397 -154q-253 0 -399 152q-144 150 -144 399zM258 1225v223q0 10 8 18.5t19 8.5h196q11 0 19 -8.5t8 -18.5v-223q0 -11 -8 -19t-19 -8h-196q-11 0 -19 8t-8 19zM371 522 q0 -177 56.5 -260.5t172.5 -83.5q113 0 168 83.5t55 262.5q0 353 -225 353q-117 -1 -172 -88.5t-55 -266.5zM688 1225v223q0 10 8 18.5t19 8.5h196q11 0 19 -8.5t8 -18.5v-223q0 -11 -8 -19t-19 -8h-196q-11 0 -19 8t-8 19z" />
<glyph unicode="&#xf7;" horiz-adv-x="1146" d="M92 618v175q0 10 8 18t19 8h909q11 0 19 -8t8 -18v-175q0 -10 -8 -18t-19 -8h-909q-11 0 -19 8t-8 18zM412 156v239q0 11 8 19t18 8h267q10 0 18 -8t8 -19v-239q0 -11 -8 -19t-18 -8h-267q-10 0 -18 8t-8 19zM412 1020v240q0 10 8 18t18 8h267q11 0 18.5 -8t7.5 -18v-240 q0 -11 -8 -19t-18 -8h-267q-10 0 -18 8t-8 19z" />
<glyph unicode="&#xf8;" horiz-adv-x="1196" d="M57 524q0 251 144 404t399 153q148 0 272 -57l101 121q6 8 17.5 8.5t19.5 -6.5l106 -100q8 -8 9 -19.5t-5 -19.5l-92 -111q111 -142 111 -367q0 -249 -142 -403t-397 -154q-160 0 -281 62l-98 -117q-6 -8 -16.5 -8.5t-18.5 6.5l-108 100q-7 7 -7.5 19.5t5.5 19.5l88 109 q-107 145 -107 360zM371 522q0 -71 10 -129l356 432q-52 52 -139 52q-117 -1 -172 -88.5t-55 -266.5zM453 231q53 -53 147 -53q113 0 168 83.5t55 262.5q0 82 -12 144z" />
<glyph unicode="&#xf9;" horiz-adv-x="1175" d="M80 1028q0 11 8 19t18 8h259q10 0 18 -8t8 -19l-8 -422v-217q0 -85 47 -136.5t117 -51.5q91 0 160 85t69 242v78l-4 422q0 10 8 18.5t19 8.5h262q10 0 18 -8t8 -19l-12 -479l8 -522q0 -11 -8 -19t-18 -8h-244q-11 0 -18.5 8.5t-6.5 18.5l5 106q-56 -72 -144.5 -115 t-195.5 -43q-167 0 -266 109.5t-99 300.5v221zM227 1329l60 178q2 8 13.5 13.5t18.5 1.5l474 -207q10 -5 14.5 -14.5t-0.5 -20.5l-39 -94q-10 -23 -37 -19l-485 131q-10 1 -15.5 11.5t-3.5 19.5z" />
<glyph unicode="&#xfa;" horiz-adv-x="1175" d="M80 1028q0 11 8 19t18 8h259q10 0 18 -8t8 -19l-8 -422v-217q0 -85 47 -136.5t117 -51.5q91 0 160 85t69 242v78l-4 422q0 10 8 18.5t19 8.5h262q10 0 18 -8t8 -19l-12 -479l8 -522q0 -11 -8 -19t-18 -8h-244q-11 0 -18.5 8.5t-6.5 18.5l5 106q-56 -72 -144.5 -115 t-195.5 -43q-167 0 -266 109.5t-99 300.5v221zM340 1280q-10 24 14 35l473 207q7 4 19 -1.5t14 -13.5l58 -178q2 -9 -3.5 -19.5t-15.5 -11.5l-483 -131q-27 -4 -37 19z" />
<glyph unicode="&#xfb;" horiz-adv-x="1175" d="M80 1028q0 11 8 19t18 8h259q10 0 18 -8t8 -19l-8 -422v-217q0 -85 47 -136.5t117 -51.5q91 0 160 85t69 242v78l-4 422q0 10 8 18.5t19 8.5h262q10 0 18 -8t8 -19l-12 -479l8 -522q0 -11 -8 -19t-18 -8h-244q-11 0 -18.5 8.5t-6.5 18.5l5 106q-56 -72 -144.5 -115 t-195.5 -43q-167 0 -266 109.5t-99 300.5v221zM213 1284q-9 22 12 39l275 195q25 14 49 14h69q26 0 50 -14l274 -195q21 -17 12 -39l-41 -98q-13 -21 -34 -12l-295 145l-295 -145q-22 -9 -35 12z" />
<glyph unicode="&#xfc;" horiz-adv-x="1175" d="M80 1028q0 11 8 19t18 8h259q10 0 18 -8t8 -19l-8 -422v-217q0 -85 47 -136.5t117 -51.5q91 0 160 85t69 242v78l-4 422q0 10 8 18.5t19 8.5h262q10 0 18 -8t8 -19l-12 -479l8 -522q0 -11 -8 -19t-18 -8h-244q-11 0 -18.5 8.5t-6.5 18.5l5 106q-56 -72 -144.5 -115 t-195.5 -43q-167 0 -266 109.5t-99 300.5v221zM244 1225v223q0 11 8 19t18 8h197q11 0 19 -8.5t8 -18.5v-223q0 -11 -8 -19t-19 -8h-197q-10 0 -18 8t-8 19zM674 1225v223q0 11 8 19t18 8h197q11 0 19 -8.5t8 -18.5v-223q0 -11 -8 -19t-19 -8h-197q-10 0 -18 8t-8 19z" />
<glyph unicode="&#xfd;" horiz-adv-x="1058" d="M-8 1030q-4 7 2 16t14 9h293q12 0 23 -7.5t12 -17.5l227 -651l187 651q1 10 12 17.5t22 7.5h258q10 0 15.5 -8.5t3.5 -16.5l-465 -1354q-1 -10 -12 -17t-23 -7h-239q-7 0 -14 8t-5 16l109 314zM287 1280q-10 24 14 35l473 207q7 4 19 -1.5t14 -13.5l57 -178 q2 -9 -3 -19.5t-15 -11.5l-484 -131q-26 -4 -36 19z" />
<glyph unicode="&#xfe;" d="M84 -322l12 873l-12 856q0 11 8 19t19 8h260q10 0 18 -8t8 -19l-8 -479q118 147 313 147q144 0 249 -73t156.5 -194.5t51.5 -277.5q0 -153 -55 -277.5t-161.5 -198.5t-246.5 -74q-188 0 -299 126l6 -428q0 -10 -7.5 -18t-18.5 -8h-266q-11 0 -19 8t-8 18zM385 535 q-2 -166 56.5 -257.5t168.5 -91.5q116 0 176 84t60 244q0 172 -59.5 262t-170.5 90t-170.5 -84t-60.5 -247z" />
<glyph unicode="&#xff;" horiz-adv-x="1058" d="M-8 1030q-4 7 2 16t14 9h293q12 0 23 -7.5t12 -17.5l227 -651l187 651q1 10 12 17.5t22 7.5h258q10 0 15.5 -8.5t3.5 -16.5l-465 -1354q-1 -10 -12 -17t-23 -7h-239q-7 0 -14 8t-5 16l109 314zM190 1225v223q0 10 8 18.5t19 8.5h197q10 0 18 -8t8 -19v-223q0 -11 -8 -19 t-18 -8h-197q-11 0 -19 8t-8 19zM621 1225v223q0 11 8 19t18 8h197q10 0 18 -8t8 -19v-223q0 -11 -8 -19t-18 -8h-197q-10 0 -18 8t-8 19z" />
<glyph unicode="&#x152;" horiz-adv-x="2097" d="M57 707q0 184 60.5 326t166.5 228t240.5 129.5t292.5 43.5h1186q11 0 19 -8t8 -19v-178q0 -11 -8 -19t-19 -8h-662l-4 -330h607q10 0 18 -8t8 -18v-178q0 -11 -8 -19t-18 -8h-607l4 -410h678q11 0 19 -8t8 -18v-178q0 -11 -8 -19t-19 -8h-1206q-124 0 -233.5 24.5 t-206.5 78.5t-166.5 135t-109.5 201t-40 268zM379 709q0 -124 32.5 -217.5t90.5 -149.5t132 -83.5t163 -27.5h223v7q1 8 2 21t2 30.5t2.5 41t2.5 49t2 56t1 60.5l2 221l-2 229q0 29 -1 58.5t-2 54t-2.5 47t-2.5 39.5t-2 30t-2 20v7h-215q-190 0 -308 -125t-118 -368z" />
<glyph unicode="&#x153;" horiz-adv-x="1957" d="M55 524q0 251 138 404t385 153q275 0 407 -202q64 98 166.5 150t234.5 52q244 0 381.5 -157.5t143.5 -431.5q0 -10 -8.5 -18.5t-18.5 -8.5h-745q7 -146 66.5 -216.5t170.5 -70.5q164 0 203 152q1 12 11.5 19t23.5 7h239q11 0 17.5 -8t5.5 -18q-21 -150 -151.5 -253.5 t-331.5 -103.5q-137 0 -241 53t-169 150q-64 -98 -167 -150.5t-238 -52.5q-245 0 -385 152q-138 150 -138 399zM369 522q0 -177 56.5 -260.5t172.5 -83.5q113 0 168 83.5t55 262.5q0 353 -225 353q-117 -1 -172 -88.5t-55 -266.5zM1147 659h432q-8 92 -62.5 156t-148.5 64 q-183 0 -221 -220z" />
<glyph unicode="&#x178;" horiz-adv-x="1277" d="M12 1409q-4 7 1.5 16t13.5 9h301q26 0 37 -25l290 -653l293 653q11 25 37 25h275q8 0 13 -9t1 -16l-483 -917l14 -465q0 -11 -8.5 -19t-18.5 -8h-272q-10 0 -18.5 8t-8.5 19l17 465zM299 1604v223q0 10 8 18t19 8h196q11 0 19 -8t8 -18v-223q0 -10 -8.5 -18.5t-18.5 -8.5 h-196q-10 0 -18.5 8.5t-8.5 18.5zM729 1604v223q0 10 8 18t19 8h196q11 0 19 -8t8 -18v-223q0 -10 -8.5 -18.5t-18.5 -8.5h-196q-10 0 -18.5 8.5t-8.5 18.5z" />
<glyph unicode="&#x2c6;" horiz-adv-x="1024" d="M141 1284q-9 21 13 39l274 195q24 14 49 14h70q25 0 49 -14l274 -195q22 -18 13 -39l-41 -98q-13 -21 -35 -12l-295 145l-295 -145q-22 -9 -35 12z" />
<glyph unicode="&#x2dc;" horiz-adv-x="1024" d="M184 1227q6 115 58.5 184.5t150.5 69.5q39 0 76.5 -17t61 -37.5t49 -37.5t43.5 -17q58 0 61 80q0 12 8 19.5t19 7.5h102q11 0 19 -8.5t8 -18.5q-5 -120 -56 -187t-147 -67q-42 0 -80.5 17t-61 37.5t-49.5 37.5t-49 17q-54 0 -57 -80q0 -12 -8.5 -19.5t-20.5 -7.5h-100 q-11 0 -19 8t-8 19z" />
<glyph unicode="&#x2000;" horiz-adv-x="1024" />
<glyph unicode="&#x2001;" horiz-adv-x="2048" />
<glyph unicode="&#x2002;" horiz-adv-x="1024" />
<glyph unicode="&#x2003;" horiz-adv-x="2048" />
<glyph unicode="&#x2004;" horiz-adv-x="682" />
<glyph unicode="&#x2005;" horiz-adv-x="512" />
<glyph unicode="&#x2006;" horiz-adv-x="341" />
<glyph unicode="&#x2007;" horiz-adv-x="341" />
<glyph unicode="&#x2008;" horiz-adv-x="256" />
<glyph unicode="&#x2009;" horiz-adv-x="409" />
<glyph unicode="&#x200a;" horiz-adv-x="113" />
<glyph unicode="&#x2010;" horiz-adv-x="559" d="M33 530v160q0 11 8 19t18 8h439q10 0 18 -8t8 -19v-160q0 -10 -8 -18t-18 -8h-439q-11 0 -18.5 8t-7.5 18z" />
<glyph unicode="&#x2011;" horiz-adv-x="559" d="M33 530v160q0 11 8 19t18 8h439q10 0 18 -8t8 -19v-160q0 -10 -8 -18t-18 -8h-439q-11 0 -18.5 8t-7.5 18z" />
<glyph unicode="&#x2012;" horiz-adv-x="559" d="M33 530v160q0 11 8 19t18 8h439q10 0 18 -8t8 -19v-160q0 -10 -8 -18t-18 -8h-439q-11 0 -18.5 8t-7.5 18z" />
<glyph unicode="&#x2013;" horiz-adv-x="866" d="M33 530v160q0 11 8 19t18 8h746q10 0 18 -8t8 -19v-160q0 -10 -7.5 -18t-18.5 -8h-746q-11 0 -18.5 8t-7.5 18z" />
<glyph unicode="&#x2014;" horiz-adv-x="1275" d="M33 530v160q0 11 8 19t18 8h1155q10 0 18.5 -8.5t8.5 -18.5v-160q0 -10 -8 -18t-19 -8h-1155q-11 0 -18.5 8t-7.5 18z" />
<glyph unicode="&#x2018;" horiz-adv-x="462" d="M59 928v229q0 30 17 47l153 209q21 21 43 21h119q10 0 16.5 -8t4.5 -19l-62 -221v-258q0 -11 -8 -19t-18 -8h-238q-10 0 -18.5 8.5t-8.5 18.5z" />
<glyph unicode="&#x2019;" horiz-adv-x="462" d="M53 928l62 221v258q0 11 8 19t18 8h238q11 0 19 -8t8 -19v-229q0 -31 -17 -48l-153 -208q-21 -21 -43 -21h-119q-8 0 -15 8.5t-6 18.5z" />
<glyph unicode="&#x201a;" horiz-adv-x="473" d="M63 -213l62 221v258q0 10 8.5 18.5t18.5 8.5h237q11 0 19 -8.5t8 -18.5v-229q0 -30 -17 -47l-153 -209q-21 -21 -43 -21h-119q-8 0 -15 8.5t-6 18.5z" />
<glyph unicode="&#x201c;" horiz-adv-x="851" d="M59 928v229q0 30 17 47l153 209q21 21 43 21h119q10 0 16.5 -8t4.5 -19l-62 -221v-258q0 -11 -8 -19t-18 -8h-238q-10 0 -18.5 8.5t-8.5 18.5zM449 928v229q0 31 16 47l153 209q21 21 44 21h118q10 0 16.5 -8t4.5 -19l-62 -221v-258q0 -11 -8 -19t-18 -8h-238 q-10 0 -18 8t-8 19z" />
<glyph unicode="&#x201d;" horiz-adv-x="851" d="M53 928l62 221v258q0 11 8 19t18 8h238q11 0 19 -8t8 -19v-229q0 -31 -17 -48l-153 -208q-21 -21 -43 -21h-119q-8 0 -15 8.5t-6 18.5zM442 928l62 221v258q0 11 8 19t18 8h238q10 0 18.5 -8t8.5 -19v-229q0 -31 -17 -48l-153 -208q-21 -21 -43 -21h-119q-8 0 -15 8.5 t-6 18.5z" />
<glyph unicode="&#x201e;" horiz-adv-x="831" d="M33 -213l61 221v258q0 10 8 18.5t19 8.5h237q10 0 18.5 -8.5t8.5 -18.5v-229q0 -31 -16 -47l-154 -209q-21 -21 -43 -21h-119q-8 0 -14.5 8.5t-5.5 18.5zM422 -213l61 221v258q0 10 8.5 18.5t18.5 8.5h238q10 0 18 -8t8 -19v-229q0 -31 -16 -47l-154 -209 q-21 -21 -43 -21h-119q-8 0 -14.5 8.5t-5.5 18.5z" />
<glyph unicode="&#x2022;" horiz-adv-x="626" d="M61 375v475q0 10 8.5 18.5t18.5 8.5h451q10 0 18 -8t8 -19v-475q0 -11 -8 -19t-18 -8h-451q-10 0 -18.5 8t-8.5 19z" />
<glyph unicode="&#x2026;" horiz-adv-x="1419" d="M78 27v239q0 11 8 19t18 8h267q10 0 18 -8t8 -19v-239q0 -11 -8 -19t-18 -8h-267q-10 0 -18 8t-8 19zM551 27v239q0 10 8.5 18.5t18.5 8.5h266q10 0 18 -8t8 -19v-239q0 -11 -8 -19t-18 -8h-266q-10 0 -18.5 8t-8.5 19zM1024 27v239q0 10 8 18.5t19 8.5h266q10 0 18 -8 t8 -19v-239q0 -11 -8 -19t-18 -8h-266q-11 0 -19 8t-8 19z" />
<glyph unicode="&#x202f;" horiz-adv-x="409" />
<glyph unicode="&#x2039;" horiz-adv-x="663" d="M51 531q0 13 6 20l295 364q21 21 43 21h201q7 0 11 -7.5t-1 -13.5l-311 -385l311 -372q5 -6 1 -13.5t-11 -7.5h-201q-22 0 -43 21l-295 352q-6 8 -6 21z" />
<glyph unicode="&#x203a;" horiz-adv-x="663" d="M58.5 144.5q-3.5 7.5 0.5 13.5l312 372l-312 385q-4 6 -0.5 13.5t11.5 7.5h200q22 0 43 -21l295 -364q6 -8 6 -20.5t-6 -20.5l-295 -352q-21 -21 -43 -21h-200q-8 0 -11.5 7.5z" />
<glyph unicode="&#x205f;" horiz-adv-x="512" />
<glyph unicode="&#x20ac;" horiz-adv-x="1419" d="M55 465v153q0 10 8.5 18.5t18.5 8.5h104q-2 18 -2 66q0 47 2 65h-104q-10 0 -18.5 8t-8.5 19v153q0 10 8.5 18.5t18.5 8.5h133q58 226 212.5 353.5t385.5 127.5q225 0 364.5 -97.5t192.5 -322.5q2 -11 -4 -18.5t-16 -7.5h-252q-11 0 -21.5 7.5t-11.5 18.5q-28 91 -86 136 t-170 45q-210 0 -274 -242h313q10 0 18 -8t8 -19v-153q0 -11 -8 -19t-18 -8h-340q-2 -18 -2 -63q0 -50 2 -68h340q10 0 18 -8t8 -19v-153q0 -11 -8 -19t-18 -8h-311q67 -229 270 -229q119 0 177.5 52t84.5 161q1 11 11.5 19t21.5 8h258q10 0 16 -8t4 -19 q-53 -240 -190.5 -346.5t-374.5 -106.5q-232 0 -386 125t-212 344h-135q-10 0 -18.5 8t-8.5 19z" />
<glyph unicode="&#x2122;" horiz-adv-x="1349" d="M45 1341v66q0 11 8.5 19t18.5 8h432q10 0 18 -8t8 -19v-66q0 -11 -8 -18.5t-18 -7.5h-139l-3 -185l5 -276q0 -10 -8.5 -18.5t-18.5 -8.5h-104q-10 0 -18.5 8.5t-8.5 18.5l4 276l-2 185h-139q-11 0 -19 8t-8 18zM588 854l2 276l-2 277q0 11 8 19t18 8h142q12 0 23 -7.5 t12 -17.5l145 -393l137 393q1 10 12 17.5t23 7.5h131q11 0 19 -8t8 -19l-2 -277l2 -276q0 -10 -8 -18.5t-19 -8.5h-98q-11 0 -19 8.5t-8 18.5v252l2 86l-119 -340q-1 -10 -11.5 -17.5t-22.5 -7.5h-72q-26 0 -37 25l-133 362l6 -108v-252q0 -10 -8.5 -18.5t-18.5 -8.5h-86 q-10 0 -18 8t-8 19z" />
<glyph unicode="&#x25fc;" horiz-adv-x="1054" d="M0 0v1055h1055v-1055h-1055z" />
</font>
</defs>
</svg>
