<?xml version="1.0" standalone="no"?>
<!DOCTYPE svg PUBLIC "-//W3C//DTD SVG 1.1//EN" "http://www.w3.org/Graphics/SVG/1.1/DTD/svg11.dtd" >
<svg xmlns="http://www.w3.org/2000/svg" xmlns:xlink="http://www.w3.org/1999/xlink" version="1.1">
<metadata></metadata>
<defs>
<font id="formadjrmicroitalic" horiz-adv-x="1146" >
<font-face units-per-em="2048" ascent="1536" descent="-512" />
<missing-glyph horiz-adv-x="401" />
<glyph horiz-adv-x="0" />
<glyph horiz-adv-x="682" />
<glyph unicode=" "  horiz-adv-x="401" />
<glyph unicode="&#x09;" horiz-adv-x="401" />
<glyph unicode="&#xa0;" horiz-adv-x="401" />
<glyph unicode="!" horiz-adv-x="450" d="M-37 23l39 170q1 7 10 14.5t17 7.5h155q8 0 14 -7.5t5 -14.5l-39 -170q-2 -8 -11 -15.5t-16 -7.5h-155q-8 0 -14 8t-5 15zM61 420l232 991q2 8 10.5 15.5t15.5 7.5h142q7 0 13.5 -7.5t4.5 -15.5l-231 -991q-2 -8 -11 -15.5t-16 -7.5h-141q-8 0 -14 8t-5 15z" />
<glyph unicode="&#x22;" horiz-adv-x="706" d="M207 1040l59 371q2 8 11 15.5t16 7.5h139q7 0 13 -7.5t4 -15.5l-107 -371q-1 -7 -11 -14.5t-18 -7.5h-88q-8 0 -13.5 7.5t-4.5 14.5zM506 1040l59 371q2 8 11 15.5t16 7.5h139q7 0 13 -7.5t4 -15.5l-107 -371q-1 -7 -11 -14.5t-18 -7.5h-88q-8 0 -13.5 7.5t-4.5 14.5z " />
<glyph unicode="#" horiz-adv-x="1388" d="M-41 350l29 103q1 7 10.5 14.5t17.5 7.5h285l150 492h-275q-7 0 -12.5 7t-3.5 15l24 103q1 7 11 14.5t18 7.5h283l92 297q1 10 10.5 16.5t17.5 6.5h129q7 0 13 -7.5t4 -15.5l-92 -297h286l93 297q1 10 10.5 16.5t17.5 6.5h129q7 0 13 -7.5t4 -15.5l-93 -297h279 q7 0 12.5 -7t3.5 -15l-24 -103q-1 -7 -11 -14.5t-18 -7.5h-287l-149 -492h276q7 0 13 -7t4 -15l-29 -103q-1 -7 -11 -14.5t-18 -7.5h-280l-94 -305q-1 -10 -10.5 -16.5t-18.5 -6.5h-129q-7 0 -12.5 7.5t-3.5 15.5l94 305h-287l-94 -305q-1 -10 -10.5 -16.5t-18.5 -6.5h-129 q-7 0 -12.5 7.5t-3.5 15.5l94 305h-281q-7 0 -12.5 7t-3.5 15zM475 475h287l149 492h-286z" />
<glyph unicode="$" horiz-adv-x="1191" d="M29 471q0 7 8 15t16 8h152q7 0 13.5 -7.5t6.5 -15.5q-11 -157 76.5 -249.5t255.5 -92.5q145 0 222 76.5t77 183.5q0 120 -104 172q-127 62 -232 103q-119 47 -229 127q-107 76 -107 245q0 182 125 298.5t346 123.5l27 117q1 7 11 14.5t18 7.5h141q8 0 13.5 -7.5 t4.5 -14.5l-30 -131q153 -32 238 -136.5t79 -277.5q-2 -8 -9.5 -15t-14.5 -7h-154q-7 0 -14 7t-7 15q10 128 -65 200.5t-215 72.5q-134 0 -216.5 -66t-82.5 -172q0 -120 106 -172q101 -51 232 -102q116 -46 231 -127q105 -76 105 -246q0 -92 -33.5 -171.5t-96.5 -140.5 t-161 -96t-219 -35h-17l-37 -157q-1 -7 -10.5 -15t-17.5 -8h-142q-7 0 -13.5 7.5t-4.5 15.5l43 184q-161 46 -247 168t-68 301z" />
<glyph unicode="%" horiz-adv-x="1695" d="M165 6q-3 6 1 10l1188 1401q14 17 37 17h129q6 0 9 -6t-1 -11l-1188 -1401q-13 -16 -37 -16h-129q-6 0 -9 6zM176 1112q38 167 136 254.5t245 87.5q149 0 221.5 -99.5t34.5 -264.5q-38 -166 -135 -251t-244 -85t-221 96t-37 262zM334 1100q-26 -108 4 -165.5t106 -57.5 t129.5 56.5t79.5 166.5q26 113 -3.5 172t-104.5 59q-76 0 -130.5 -58.5t-80.5 -172.5zM887 346q38 165 135 249.5t244 84.5q150 0 222.5 -95.5t35.5 -262.5q-38 -166 -136.5 -254t-244.5 -88t-219.5 99.5t-36.5 266.5zM1044 334q-26 -114 4.5 -173t104.5 -59q75 0 130 58.5 t81 173.5q26 107 -4 165t-105 58q-76 0 -130.5 -57t-80.5 -166z" />
<glyph unicode="&#x26;" horiz-adv-x="1390" d="M6 408q18 79 60.5 145.5t106.5 117t124.5 86t142.5 72.5q-110 195 -75 353q27 128 130 206t269 78q106 0 187 -40.5t119.5 -114.5t19.5 -166q-12 -52 -42 -98.5t-66 -80t-91 -67.5t-101 -56.5t-112 -51.5q13 -19 121 -189l129 -199q100 142 151 320q1 10 10.5 16t18.5 6 h127q7 0 12.5 -7t3.5 -15q-75 -253 -235 -453l164 -252q4 -6 0.5 -12t-11.5 -6h-172q-20 0 -34 18l-80 125q-208 -168 -459 -168q-99 0 -185 30.5t-147 85t-85.5 137.5t-0.5 180zM190 401q-30 -129 40 -206.5t212 -77.5q194 0 363 147l-217 338q-12 17 -37 55.5t-39 57.5 q-64 -31 -111.5 -59.5t-93 -66.5t-75 -85t-42.5 -103zM541 1178q-13 -63 2.5 -124.5t66.5 -152.5q56 24 92.5 41.5t80 43t71 49t49 55.5t29.5 67q19 82 -31 134t-149 52q-173 0 -211 -165z" />
<glyph unicode="'" horiz-adv-x="417" d="M217 1040l59 371q2 8 11 15.5t16 7.5h139q7 0 13 -7.5t4 -15.5l-107 -371q-1 -7 -10.5 -14.5t-17.5 -7.5h-88q-8 0 -14 7.5t-5 14.5z" />
<glyph unicode="(" horiz-adv-x="546" d="M57 614q110 463 410 863q14 18 37 18h104q14 0 10 -18q-284 -418 -387 -863q-104 -450 -14 -878q2 -8 -4.5 -15.5t-13.5 -7.5h-105q-8 0 -17.5 8t-10.5 15q-111 427 -9 878z" />
<glyph unicode=")" horiz-adv-x="546" d="M-129 -268q289 423 395 882q102 440 10 859q-1 7 5 14.5t14 7.5h104q8 0 18 -7.5t11 -14.5q114 -400 10 -859q-103 -456 -418 -882q-11 -19 -34 -19h-105q-15 0 -10 19z" />
<glyph unicode="*" horiz-adv-x="706" d="M133 1075q-4 21 12 31l205 98l-160 92q-7 1 -10 11.5t2 17.5l51 74q4 7 14 9t17 -3l160 -109l29 217q0 7 8 15t16 8h74q7 0 13.5 -7.5t4.5 -15.5l-41 -210l211 118q26 5 29 -10l25 -70q4 -20 -13 -30l-213 -103l156 -90q7 -1 10 -11t-2 -17l-47 -76q-4 -7 -14 -9t-17 3 l-157 104l-25 -207q0 -7 -8.5 -14.5t-16.5 -7.5h-75q-8 0 -14 7.5t-5 14.5l37 207l-203 -113q-9 -2 -18 1t-10 10z" />
<glyph unicode="+" horiz-adv-x="1044" d="M47 651l27 109q2 8 10.5 15t15.5 7h365l94 406q1 7 10 14.5t17 7.5h104q8 0 14 -7.5t5 -14.5l-95 -406h363q8 0 13.5 -7.5t4.5 -14.5l-26 -109q-1 -7 -10 -14.5t-17 -7.5h-362l-95 -404q-2 -8 -10.5 -15t-15.5 -7h-105q-8 0 -13.5 7.5t-4.5 14.5l94 404h-364 q-8 0 -14 7.5t-5 14.5z" />
<glyph unicode="," horiz-adv-x="366" d="M-152 -180l91 184l43 189q2 8 10.5 15t15.5 7h139q8 0 14 -7.5t5 -14.5l-37 -164q-3 -20 -18 -39l-154 -174q-14 -17 -37 -17h-59q-7 0 -11 6.5t-2 14.5z" />
<glyph unicode="-" horiz-adv-x="565" d="M14 539l23 100q2 8 10.5 15.5t15.5 7.5h416q8 0 14 -8t5 -15l-25 -100q-2 -8 -11 -15.5t-16 -7.5h-413q-8 0 -14 8t-5 15z" />
<glyph unicode="&#xad;" horiz-adv-x="565" d="M14 539l23 100q2 8 10.5 15.5t15.5 7.5h416q8 0 14 -8t5 -15l-25 -100q-2 -8 -11 -15.5t-16 -7.5h-413q-8 0 -14 8t-5 15z" />
<glyph unicode="." horiz-adv-x="366" d="M-82 23l39 170q1 7 10 14.5t17 7.5h161q8 0 14 -7.5t5 -14.5l-39 -170q-2 -8 -11 -15.5t-16 -7.5h-161q-8 0 -14 8t-5 15z" />
<glyph unicode="/" horiz-adv-x="681" d="M-221 -266l948 1741q12 20 33 20h98q16 0 12 -20l-948 -1741q-13 -21 -33 -21h-98q-16 0 -12 21z" />
<glyph unicode="0" horiz-adv-x="1200" d="M88 737q81 353 252 538t403 185q247 0 349 -203t20 -565q-81 -348 -252 -533.5t-401 -185.5q-248 0 -351 207.5t-20 556.5zM264.5 291.5q48.5 -158.5 212.5 -158.5q307 0 438 559q70 293 22 450.5t-212 157.5q-309 0 -440 -563q-69 -287 -20.5 -445.5z" />
<glyph unicode="1" horiz-adv-x="753" d="M147 1063l27 115q2 16 25 30q95 32 182 87t151 122q17 17 39 17h144q7 0 12.5 -7.5t3.5 -15.5l-180 -737l-141 -651q-2 -8 -11 -15.5t-16 -7.5h-154q-7 0 -12.5 7.5t-3.5 15.5l164 686l115 499q-132 -102 -326 -161q-8 -2 -14 3.5t-5 12.5z" />
<glyph unicode="2" horiz-adv-x="1073" d="M-78 23l39 165q53 222 207 338q158 118 317 195q144 67 291 158q129 77 129 227q0 93 -61.5 147.5t-175.5 53.5q-145 0 -232.5 -84.5t-124.5 -253.5q-2 -8 -10.5 -15.5t-15.5 -7.5h-129q-8 0 -14 8t-5 15q104 489 545 489q180 0 290.5 -91.5t110.5 -244.5 q0 -191 -133 -303t-299 -194q-159 -79 -317 -172q-153 -90 -187 -236l-16 -61h705q7 0 13.5 -7.5t4.5 -15.5l-27 -110q-2 -8 -10.5 -15.5t-15.5 -7.5h-860q-8 0 -14 8t-5 15z" />
<glyph unicode="3" horiz-adv-x="1136" d="M6 428q2 8 11 15.5t16 7.5h145q8 0 14 -8t5 -15q-20 -148 46 -226.5t212 -78.5q169 0 259.5 96t90.5 238q0 118 -66 178.5t-194 60.5h-92q-8 0 -14 8t-5 15l21 92q2 8 10.5 15.5t15.5 7.5h94q158 0 246 69.5t88 186.5q0 105 -70 163t-180 58q-128 0 -208 -70.5 t-103 -214.5q-2 -8 -10.5 -15t-15.5 -7h-138q-8 0 -13.5 7.5t-4.5 14.5q36 212 168 320t342 108q182 0 305 -96t123 -250q0 -139 -89 -231t-239 -119q110 -32 167.5 -110t57.5 -185q0 -210 -157 -346.5t-402 -136.5q-232 0 -347 117.5t-89 330.5z" />
<glyph unicode="4" horiz-adv-x="1132" d="M-10 406l28 124q3 19 19 39l768 848q14 17 37 17h219q7 0 13.5 -7.5t4.5 -15.5l-202 -872h129q7 0 13.5 -7.5t4.5 -15.5l-25 -110q-2 -8 -10.5 -15.5t-15.5 -7.5h-133l-84 -363q-1 -7 -10 -14.5t-17 -7.5h-145q-7 0 -13 7t-4 15l84 363h-643q-7 0 -13.5 7.5t-4.5 15.5z M203 539h485l119 503l55 232z" />
<glyph unicode="5" horiz-adv-x="1132" d="M8 373q0 7 8.5 14.5t16.5 7.5h145q7 0 14 -7t7 -15q-14 -118 41 -187t170 -69q118 0 213.5 68.5t147.5 182t52 246.5q0 123 -58 193t-167 70q-103 0 -184 -52.5t-131 -150.5q-5 -8 -15.5 -14.5t-17.5 -6.5h-125q-7 0 -12.5 7.5t-3.5 15.5l221 735q1 10 10.5 16.5 t17.5 6.5h748q7 0 13.5 -7.5t4.5 -15.5l-26 -111q-1 -7 -10 -14.5t-17 -7.5h-606l-121 -379q125 125 309 125q174 0 271.5 -112t97.5 -296q0 -175 -79 -322t-223.5 -234t-324.5 -87q-199 0 -300 109t-87 291z" />
<glyph unicode="6" horiz-adv-x="1165" d="M51 438q0 165 47 348q38 152 94 272t135 211.5t186.5 141t236.5 49.5q189 0 288.5 -92.5t91.5 -253.5q0 -7 -8 -14.5t-16 -7.5h-143q-7 0 -14 7t-7 15q2 91 -49.5 146t-157.5 55q-159 0 -270.5 -135.5t-159.5 -374.5q125 153 348 153q169 0 281 -112q113 -113 113 -301 q0 -160 -70 -290.5t-197 -206t-286 -75.5q-192 0 -318 129q-125 125 -125 336zM238 403q0 -120 68 -199t186 -79q155 0 251.5 115.5t96.5 285.5q0 129 -68 207t-188 78q-126 0 -215 -79t-119 -206q-12 -47 -12 -123z" />
<glyph unicode="7" horiz-adv-x="966" d="M133 18q298 746 707 1260h-635q-8 0 -14 7.5t-5 14.5l27 111q2 8 11 15.5t16 7.5h817q7 0 13.5 -7.5t4.5 -15.5l-26 -111q-3 -20 -19 -40q-465 -639 -694 -1242q-1 -7 -12 -13.5t-19 -6.5h-158q-7 0 -11.5 6t-2.5 14z" />
<glyph unicode="8" horiz-adv-x="1171" d="M0 369q0 150 106.5 271.5t274.5 145.5q-83 43 -126.5 112.5t-43.5 150.5q0 182 139 294.5t346 112.5q191 0 316 -96q121 -95 121 -256q0 -116 -86.5 -223t-237.5 -146q104 -42 160.5 -122t56.5 -181q0 -128 -74 -232.5t-198 -162t-271 -57.5q-134 0 -243.5 47.5 t-174.5 137t-65 204.5zM193 375q0 -111 85.5 -184.5t215.5 -73.5q147 0 245 94q97 97 97 227q0 112 -83 183t-212 71q-150 0 -249 -95t-99 -222zM395 1040q0 -97 72 -160t184 -63q127 0 209 84.5t82 194.5q0 102 -73 162.5t-181 60.5q-115 0 -205 -78q-88 -76 -88 -201z" />
<glyph unicode="9" horiz-adv-x="1163" d="M33 322q0 7 8 14.5t16 7.5h144q7 0 13.5 -7t6.5 -15q-2 -91 49.5 -146t157.5 -55q157 0 269.5 135t162.5 373q-129 -154 -350 -154q-168 0 -281 113q-112 112 -112 301q0 241 160 406t393 165q200 0 321 -127q119 -128 119 -338q0 -155 -43 -348q-38 -152 -94.5 -272 t-136 -211.5t-186.5 -141t-236 -49.5q-188 0 -288.5 93.5t-92.5 255.5zM326 907q0 -130 67 -206t187 -76q121 0 207.5 70.5t119.5 189.5q21 99 21 145q0 120 -69 199.5t-187 79.5q-102 0 -181.5 -54.5t-122 -145.5t-42.5 -202z" />
<glyph unicode=":" horiz-adv-x="366" d="M-84 23l39 170q1 7 10 14.5t17 7.5h161q8 0 14 -7.5t5 -14.5l-39 -170q-2 -8 -11 -15.5t-16 -7.5h-162q-7 0 -13.5 7.5t-4.5 15.5zM115 862l39 170q2 8 10.5 15.5t15.5 7.5h162q7 0 13.5 -7.5t4.5 -15.5l-38 -170q-1 -7 -10 -14.5t-17 -7.5h-162q-8 0 -13.5 7.5 t-4.5 14.5z" />
<glyph unicode=";" horiz-adv-x="366" d="M-154 -180l91 184l43 189q2 8 10.5 15t15.5 7h139q8 0 14 -7.5t5 -14.5l-37 -164q-3 -20 -18 -39l-154 -174q-14 -17 -37 -17h-59q-7 0 -11 6.5t-2 14.5zM115 862l39 170q2 8 10.5 15.5t15.5 7.5h162q7 0 13.5 -7.5t4.5 -15.5l-38 -170q-1 -7 -10 -14.5t-17 -7.5h-162 q-8 0 -13.5 7.5t-4.5 14.5z" />
<glyph unicode="&#x3c;" horiz-adv-x="1044" d="M47 651l27 109q1 10 8.5 19.5t15.5 11.5l977 405q6 2 12 -2.5t5 -11.5l-29 -125q-1 -10 -9 -19.5t-16 -11.5l-825 -328l668 -329q7 -4 12.5 -14.5t3.5 -18.5l-25 -105q-2 -8 -9.5 -12t-14.5 0l-785 399q-7 4 -12.5 14.5t-3.5 18.5z" />
<glyph unicode="=" horiz-adv-x="1044" d="M-8 414l24 108q2 8 11 15.5t16 7.5h877q7 0 13.5 -7.5t4.5 -15.5l-25 -108q-2 -8 -10.5 -15.5t-15.5 -7.5h-877q-7 0 -13.5 7.5t-4.5 15.5zM100 891l25 108q2 8 11 15.5t16 7.5h876q8 0 14 -8t5 -15l-25 -108q-2 -8 -11 -15.5t-16 -7.5h-876q-8 0 -14 8t-5 15z" />
<glyph unicode="&#x3e;" horiz-adv-x="1044" d="M-51 231l26 121q1 10 9 19.5t16 11.5l827 330l-669 327q-8 5 -13 15.5t-4 17.5l27 109q3 16 25 12l784 -401q7 -4 12.5 -14.5t3.5 -18.5l-26 -109q-1 -10 -9 -19t-16 -11l-977 -404q-6 -2 -11.5 2.5t-4.5 11.5z" />
<glyph unicode="?" horiz-adv-x="1013" d="M113 1028q58 211 189 317.5t347 106.5q120 0 213 -48t139.5 -140.5t24.5 -210.5q-10 -56 -32 -102.5t-59.5 -86t-66.5 -63t-80 -60.5q-55 -40 -82.5 -61.5t-70 -63t-69.5 -89.5t-44 -107q-1 -10 -10.5 -16.5t-17.5 -6.5h-142q-7 0 -12.5 7.5t-3.5 15.5q18 70 48.5 129 t71.5 106.5t76 79.5t84 70q9 7 51 38.5t53.5 41.5t41.5 37.5t41.5 45.5t25 45.5t17.5 55.5q17 96 -32 160t-142 78q-12 4 -74 4q-121 -4 -194 -74.5t-111 -208.5q-1 -10 -10.5 -16t-18.5 -6h-135q-7 0 -12.5 7t-3.5 15zM233 23l39 170q1 7 10 14.5t17 7.5h158q8 0 13.5 -7.5 t4.5 -14.5l-39 -170q-2 -8 -10.5 -15.5t-15.5 -7.5h-158q-8 0 -14 8t-5 15z" />
<glyph unicode="@" horiz-adv-x="1761" d="M21.5 326.5q-7.5 124.5 19.5 261.5q38 208 119 365.5t197.5 258t263.5 151t323 50.5q152 0 279.5 -46t217 -130.5t145.5 -203.5t65 -265.5t-25 -316.5q-50 -229 -158 -318q-109 -92 -225 -92q-89 0 -155 47.5t-72 134.5q-130 -192 -336 -192q-97 0 -170.5 43t-110.5 116 t-48 170.5t16 206.5q46 209 171.5 337t307.5 128q104 0 177 -49t105 -141l31 149q2 8 11 15.5t16 7.5h125q7 0 13.5 -7.5t4.5 -15.5l-153 -663q-25 -94 0 -139.5t86 -45.5q73 0 145 66q70 64 111 254q52 250 -2 443t-204 300t-376 107q-313 0 -517 -185.5t-272 -554.5 q-43 -244 14.5 -436t203 -298.5t354.5 -106.5q155 0 272 49t201 162q18 18 37 18h74q8 0 11 -6t-1 -12q-112 -166 -259 -239t-343 -73q-119 0 -224 33t-186.5 93.5t-144 146.5t-95 192t-40 230.5zM525.5 361q6.5 -92 57 -147.5t138.5 -55.5q251 0 336 352q44 178 -8 284.5 t-175 108.5q-253 3 -333 -332q-22 -118 -15.5 -210z" />
<glyph unicode="A" horiz-adv-x="1310" d="M-136 6q-3 6 1 12l821 1397q15 19 35 19h205q8 0 16 -8t8 -15l174 -1388q0 -8 -6.5 -15.5t-13.5 -7.5h-141q-8 0 -16.5 8t-8.5 15l-45 405h-590l-233 -408q-12 -20 -33 -20h-162q-8 0 -11 6zM395 590h479l-77 704z" />
<glyph unicode="B" horiz-adv-x="1300" d="M-35 23l176 714l146 674q2 8 10.5 15.5t15.5 7.5h500q231 0 358 -95q97 -73 97 -205q0 -39 -8 -83q-25 -121 -115.5 -199t-226.5 -98q239 -73 239 -286q0 -39 -8 -83q-20 -99 -76.5 -175t-137.5 -121t-176 -67t-202 -22h-575q-7 0 -13 7.5t-4 15.5zM190 147h385 q152 0 253.5 59.5t129.5 188.5q7 39 7 72t-7 61q-14 55 -57 89.5t-100 50.5t-129 16h-365zM340 829h385q138 0 228 50.5t114 158.5q6 32 6 60q1 81 -53 127q-72 63 -219 63h-342z" />
<glyph unicode="C" horiz-adv-x="1425" d="M63 575q0 181 54 342t151 281.5t242 191t317 70.5q160 0 286 -60.5t201.5 -179.5t78.5 -280q0 -7 -7.5 -14.5t-15.5 -7.5h-143q-8 0 -15.5 7.5t-7.5 14.5q-6 163 -110 263t-281 100q-108 0 -199 -40t-155.5 -109t-110 -161t-67 -197t-21.5 -216q0 -212 112.5 -330.5 t305.5 -118.5q342 0 450 348q1 10 10.5 16.5t18.5 6.5h146q7 0 12.5 -7.5t3.5 -15.5q-74 -245 -238 -375.5t-403 -130.5q-276 0 -445.5 165.5t-169.5 436.5z" />
<glyph unicode="D" horiz-adv-x="1406" d="M-35 23l176 712l146 676q2 8 10.5 15.5t15.5 7.5h412q142 0 262 -48t202.5 -133t120.5 -209q26 -84 26 -179q0 -44 -5 -91q-20 -191 -97 -341t-193.5 -243.5t-259 -141.5t-302.5 -48h-497q-7 0 -13 7.5t-4 15.5zM195 154h313q86 0 167.5 21.5t158 69t137 116.5 t103.5 170.5t59 224.5q8 56 8 106q0 165 -90 275q-118 143 -326 143h-266l-28 -107q-28 -107 -62 -242t-47 -192z" />
<glyph unicode="E" horiz-adv-x="1134" d="M-35 23l178 716l144 672q2 8 10.5 15.5t15.5 7.5h861q7 0 13.5 -7.5t4.5 -15.5l-27 -108q-2 -8 -10.5 -15.5t-15.5 -7.5h-682l-115 -438h643q8 0 14 -8t5 -15l-25 -108q-2 -8 -11 -15.5t-16 -7.5h-643l-116 -534h698q7 0 13.5 -7.5t4.5 -15.5l-24 -108q-2 -8 -11 -15.5 t-16 -7.5h-876q-7 0 -13 7.5t-4 15.5z" />
<glyph unicode="F" horiz-adv-x="1075" d="M-35 23l172 694l150 694q2 8 10.5 15.5t15.5 7.5h834q7 0 13.5 -7.5t4.5 -15.5l-24 -108q-2 -8 -11 -15.5t-16 -7.5h-657l-129 -502h633q8 0 13.5 -7.5t4.5 -14.5l-25 -109q-2 -8 -10.5 -15t-15.5 -7h-635l-129 -602q-2 -8 -11 -15.5t-16 -7.5h-155q-7 0 -13 7.5t-4 15.5 z" />
<glyph unicode="G" horiz-adv-x="1452" d="M63 561q0 144 39 279.5t111 247t169 195.5t220.5 130.5t257.5 46.5q228 0 375 -124t164 -337q1 -7 -6 -14.5t-15 -7.5h-151q-7 0 -15 7t-10 15q-13 141 -109.5 223.5t-244.5 82.5q-168 0 -304 -103t-210 -272.5t-74 -368.5q0 -198 102.5 -315t284.5 -117q195 0 318 113 t178 354h-426q-8 0 -14 7.5t-5 14.5l25 105q1 7 10 14.5t17 7.5h604q8 0 13.5 -7.5t4.5 -14.5q-143 -750 -737 -750q-264 0 -416 162q-156 159 -156 426z" />
<glyph unicode="H" horiz-adv-x="1404" d="M-35 23l170 686l152 702q2 8 10.5 15.5t15.5 7.5h156q7 0 12.5 -7.5t3.5 -15.5l-139 -565h766l123 565q2 8 11 15.5t16 7.5h155q7 0 13 -7.5t4 -15.5l-174 -702l-148 -686q-2 -8 -11 -15.5t-16 -7.5h-153q-7 0 -13 7.5t-4 15.5l162 669h-768l-145 -669q-2 -8 -11 -15.5 t-16 -7.5h-155q-7 0 -13 7.5t-4 15.5z" />
<glyph unicode="I" horiz-adv-x="475" d="M-25 23l175 706l147 682q2 8 11 15.5t16 7.5h153q7 0 13 -7.5t4 -15.5l-168 -682l-154 -706q-2 -8 -11 -15.5t-16 -7.5h-153q-7 0 -13 7.5t-4 15.5z" />
<glyph unicode="J" horiz-adv-x="1034" d="M-2 487q2 8 11 15.5t16 7.5h139q7 0 13.5 -7.5t4.5 -15.5q-13 -70 -13 -128q0 -71 19 -126q35 -102 179 -102q133 0 201 88t114 281l94 385l113 526q2 8 10.5 15.5t15.5 7.5h158q7 0 13 -7.5t4 -15.5l-129 -526l-89 -385q-58 -268 -181.5 -398.5t-334.5 -130.5 q-146 0 -237 67t-120 182q-15 58 -15 126q0 66 14 141z" />
<glyph unicode="K" horiz-adv-x="1196" d="M-35 23l176 712l146 676q2 8 10.5 15.5t15.5 7.5h154q7 0 12.5 -7.5t3.5 -15.5l-161 -663l673 669q17 17 39 17h199q6 0 8 -6t-2 -11l-602 -561l367 -836q2 -8 -3 -14t-12 -6h-170q-8 0 -19 6.5t-12 13.5l-88 207l-208 490l-224 -211l-106 -483q-2 -8 -11 -15.5t-16 -7.5 h-153q-7 0 -13 7.5t-4 15.5z" />
<glyph unicode="L" horiz-adv-x="1003" d="M-35 23l180 727l142 661q2 8 10.5 15.5t15.5 7.5h154q7 0 12.5 -7.5t3.5 -15.5l-159 -651l-131 -606h626q8 0 14 -8t5 -15l-25 -108q-2 -8 -11 -15.5t-16 -7.5h-804q-7 0 -13 7.5t-4 15.5z" />
<glyph unicode="M" horiz-adv-x="1677" d="M-35 23l168 682l156 706q2 8 10.5 15.5t15.5 7.5h197q7 0 16 -7.5t11 -15.5l182 -1169l715 1173q15 19 34 19h218q7 0 12.5 -7.5t3.5 -15.5l-172 -706l-148 -682q-2 -8 -10.5 -15.5t-15.5 -7.5h-150q-7 0 -12.5 7.5t-3.5 15.5l127 536l104 436l47 187l-710 -1164 q-14 -18 -35 -18h-109q-7 0 -15.5 7.5t-10.5 15.5l-184 1171l-44 -203l-94 -432l-125 -536q-2 -8 -10.5 -15.5t-15.5 -7.5h-135q-7 0 -13 7.5t-4 15.5z" />
<glyph unicode="N" horiz-adv-x="1417" d="M-35 23l174 704l150 684q2 8 10.5 15.5t15.5 7.5h164q8 0 19 -7t12 -14l491 -1169l27 127l98 450l138 590q2 8 10.5 15.5t15.5 7.5h140q7 0 12.5 -7.5t3.5 -15.5l-166 -684l-156 -704q-2 -8 -10.5 -15.5t-15.5 -7.5h-174q-8 0 -19 6.5t-12 13.5l-485 1151l-33 -153 l-92 -420l-133 -575q-2 -8 -11 -15.5t-16 -7.5h-141q-7 0 -13 7.5t-4 15.5z" />
<glyph unicode="O" horiz-adv-x="1529" d="M63 557q0 147 37.5 284t109.5 248.5t169 195t223 129.5t266 46q271 0 435.5 -158t164.5 -423q0 -183 -60.5 -349t-166 -289t-256.5 -195.5t-323 -72.5q-275 0 -437 160t-162 424zM260 561q0 -197 110 -313.5t300 -116.5q176 0 314.5 100t212 266.5t73.5 368.5 q0 201 -111.5 319t-298.5 118q-136 0 -250.5 -60.5t-190 -162.5t-117.5 -236.5t-42 -282.5z" />
<glyph unicode="P" horiz-adv-x="1183" d="M-35 23l174 712l148 676q2 8 10.5 15.5t15.5 7.5h437q207 0 327.5 -99.5t120.5 -281.5q0 -230 -161 -368t-427 -138h-331l-115 -524q-2 -8 -11 -15.5t-16 -7.5h-155q-7 0 -13 7.5t-4 15.5zM311 698h334q151 0 260 86q105 86 105 250q0 122 -71.5 185t-205.5 63h-280 l-138 -563z" />
<glyph unicode="Q" horiz-adv-x="1529" d="M51 557q0 184 59.5 350t164.5 288t256.5 193.5t326.5 71.5q269 0 433.5 -158.5t164.5 -422.5q0 -214 -82 -404.5t-225 -316.5l10 2h12h140q7 0 13.5 -7.5t4.5 -15.5l-26 -114q-2 -8 -11 -15.5t-16 -7.5h-424q-106 -27 -203 -27q-275 0 -436.5 160t-161.5 424zM248 561 q0 -197 109.5 -313.5t299.5 -116.5q178 0 317 100t212.5 266.5t73.5 368.5q0 201 -112.5 319t-299.5 118q-136 0 -250.5 -60.5t-190 -162.5t-117.5 -236.5t-42 -282.5z" />
<glyph unicode="R" horiz-adv-x="1269" d="M-35 23l176 714l146 674q2 8 10.5 15.5t15.5 7.5h473q210 0 333.5 -92.5t123.5 -260.5q0 -195 -118.5 -322.5t-319.5 -160.5l231 -578q2 -8 -2.5 -14t-11.5 -6h-172q-8 0 -19 6.5t-12 13.5l-82 228l-139 338h-311l-123 -563q-2 -8 -11 -15.5t-16 -7.5h-155q-7 0 -13 7.5 t-4 15.5zM319 735h373q159 0 261 86.5t102 241.5q0 105 -72.5 162t-202.5 57h-327z" />
<glyph unicode="S" horiz-adv-x="1292" d="M18 471q0 7 8.5 15t16.5 8h154q7 0 13.5 -7.5t6.5 -15.5q-1 -16 -1 -31q0 -138 92 -220q102 -91 296 -91q172 0 263 79.5t91 188.5q0 124 -122 170q-115 43 -269 90q-144 40 -270 115q-123 74 -123 248q0 90 38.5 169t109 139t178 95t237.5 35q248 0 389 -107 q134 -102 134 -301v-20q-2 -8 -10 -15t-15 -7h-154q-7 0 -13.5 7t-6.5 15q1 13 1 25q0 109 -80 175q-90 72 -257 73q-159 0 -257.5 -69.5t-98.5 -178.5q0 -122 125 -168q123 -47 270 -90q140 -42 270 -115q123 -74 123 -246q0 -90 -37.5 -172t-107 -147t-179 -103.5 t-243.5 -38.5q-177 0 -311 57q-133 57 -205 171q-58 93 -59 213q0 27 3 55z" />
<glyph unicode="T" horiz-adv-x="1091" d="M170 1300l25 111q2 8 10.5 15.5t15.5 7.5h983q8 0 14 -8t5 -15l-27 -111q-1 -7 -10 -14.5t-17 -7.5h-391l-145 -567l-146 -688q-2 -8 -10.5 -15.5t-15.5 -7.5h-158q-7 0 -12.5 7.5t-3.5 15.5l170 688l123 567h-392q-8 0 -13.5 7.5t-4.5 14.5z" />
<glyph unicode="U" horiz-adv-x="1275" d="M68 543l106 446l90 422q2 8 11 15.5t16 7.5h158q7 0 12.5 -7.5t3.5 -15.5l-103 -418l-104 -450q-18 -78 -18 -142q0 -93 38 -157q65 -108 250 -109q327 0 422 408l105 446l92 422q2 8 11 15.5t16 7.5h141q7 0 12.5 -7.5t3.5 -15.5l-100 -422l-105 -446 q-66 -280 -215.5 -425t-408.5 -145q-260 1 -378 157q-77 102 -77 247q0 77 21 166z" />
<glyph unicode="V" horiz-adv-x="1277" d="M186 1411q0 8 7 15.5t14 7.5h153q7 0 15 -7.5t10 -15.5l121 -1272l708 1274q13 21 33 21h154q16 0 12 -21l-805 -1393q-12 -20 -33 -20h-198q-8 0 -16.5 8t-8.5 15z" />
<glyph unicode="W" horiz-adv-x="1820" d="M195 1411q0 8 7.5 15.5t14.5 7.5h139q8 0 15.5 -8t7.5 -15l6 -1231l565 1233q13 21 33 21h172q7 0 15 -8t8 -15l-4 -1237l581 1239q13 21 33 21h147q7 0 11 -6.5t2 -14.5l-682 -1393q-12 -20 -33 -20h-178q-7 0 -15 8t-8 15l-22 1151l-541 -1154q-12 -20 -33 -20h-182 q-8 0 -15.5 8t-7.5 15z" />
<glyph unicode="X" horiz-adv-x="1241" d="M-126 6q-3 6 1 10l645 750l-276 647q-2 8 2.5 14.5t11.5 6.5h168q8 0 19 -7t12 -14l207 -502l421 506q14 17 37 17h181q6 0 9 -6t-1 -11l-578 -676l305 -721q2 -8 -2.5 -14t-11.5 -6h-166q-8 0 -19 6.5t-12 13.5l-235 582l-488 -586q-13 -16 -36 -16h-185q-6 0 -9 6z" />
<glyph unicode="Y" horiz-adv-x="1185" d="M193 1411q-2 8 3.5 15.5t12.5 7.5h158q8 0 17.5 -8t10.5 -15l191 -727l524 731q11 19 35 19h168q7 0 10 -6.5t-2 -12.5l-686 -915l-105 -477q-2 -8 -10.5 -15.5t-15.5 -7.5h-154q-7 0 -12.5 7.5t-3.5 15.5l119 481z" />
<glyph unicode="Z" horiz-adv-x="1191" d="M-94 23l28 122q3 21 21 39l1059 1096h-738q-7 0 -13.5 7.5t-4.5 15.5l25 108q2 8 10.5 15.5t15.5 7.5h946q8 0 14 -8t5 -15l-31 -127q-3 -22 -20 -39l-1053 -1091h799q7 0 13.5 -7.5t4.5 -15.5l-24 -108q-2 -8 -11 -15.5t-16 -7.5h-1012q-7 0 -13.5 7.5t-4.5 15.5z" />
<glyph unicode="[" horiz-adv-x="552" d="M-113 -264l404 1737q2 8 10.5 15t15.5 7h312q8 0 13.5 -7.5t4.5 -14.5l-26 -109q-2 -8 -11 -15.5t-16 -7.5h-166l-344 -1474h166q7 0 13.5 -7.5t4.5 -15.5l-24 -108q-2 -8 -11 -15.5t-16 -7.5h-311q-8 0 -14 8t-5 15z" />
<glyph unicode="\" horiz-adv-x="681" d="M59 1473q-2 8 4 15t13 7h100q8 0 18 -7.5t11 -14.5l422 -1737q2 -8 -4 -15.5t-13 -7.5h-100q-8 0 -18 8t-11 15z" />
<glyph unicode="]" horiz-adv-x="552" d="M-145 -264l24 108q2 8 11 15.5t16 7.5h168l344 1474h-168q-8 0 -14 8t-5 15l27 109q1 7 10 14.5t17 7.5h311q8 0 13.5 -7.5t4.5 -14.5l-403 -1737q-2 -8 -11 -15.5t-16 -7.5h-311q-7 0 -13.5 7.5t-4.5 15.5z" />
<glyph unicode="^" horiz-adv-x="1044" d="M31 586l577 829q15 19 35 19h88q8 0 18 -8t11 -15l194 -821q2 -8 -3.5 -15.5t-12.5 -7.5h-96q-7 0 -16 7.5t-11 15.5l-156 682l-466 -686q-15 -19 -35 -19h-117q-15 0 -10 19z" />
<glyph unicode="_" horiz-adv-x="841" d="M-190 -326l24 101q1 7 10 14.5t17 7.5h690q8 0 13.5 -7.5t4.5 -14.5l-22 -101q-1 -7 -10 -14.5t-17 -7.5h-692q-8 0 -13.5 7.5t-4.5 14.5z" />
<glyph unicode="`" horiz-adv-x="1024" d="M332 1368l43 109q2 8 11 11t17 -1l424 -207q17 -10 13 -31l-25 -55q-1 -7 -11 -10.5t-18 -1.5l-442 157q-7 1 -10.5 11t-1.5 18z" />
<glyph unicode="a" horiz-adv-x="1118" d="M18 252q0 74 24.5 131t64.5 94t103 63.5t127 40.5t150 25q205 28 285 60q84 35 84 120q0 63 -62.5 102.5t-166.5 39.5q-217 0 -273 -174q-1 -10 -10.5 -16.5t-17.5 -6.5h-144q-7 0 -12.5 7.5t-3.5 15.5q50 155 171.5 240t299.5 85q180 0 284.5 -78.5t104.5 -218.5 q0 -44 -12 -94l-66 -278l-86 -387q-2 -8 -10.5 -15.5t-15.5 -7.5h-134q-7 0 -12.5 7.5t-3.5 15.5l35 139q-141 -187 -383 -187q-142 0 -231 76.5t-89 200.5zM209 270q0 -77 49.5 -117t142.5 -40q131 1 224 71t137 191l43 182q-32 -16 -85 -30t-91.5 -21.5t-132.5 -22.5 q-55 -9 -96 -19t-78.5 -27t-61 -39t-37.5 -54.5t-14 -73.5z" />
<glyph unicode="b" d="M-47 23l184 763l135 625q2 8 11 15.5t16 7.5h147q7 0 13 -7.5t4 -15.5l-119 -493q133 155 332 155q139 0 232 -79q94 -80 120 -215q11 -55 11 -118q0 -90 -23 -196q-23 -98 -67 -183.5t-107 -152.5t-149.5 -106t-186.5 -39q-123 0 -208 56.5t-120 160.5l-39 -178 q-2 -8 -10.5 -15.5t-15.5 -7.5h-144q-7 0 -12.5 7.5t-3.5 15.5zM256 571q-23 -99 -23 -177q-1 -92 31 -155q58 -118 209 -118q133 0 225 97t131 263q21 94 21 171q0 93 -30 160q-56 124 -210 124q-125 0 -218.5 -94t-135.5 -271z" />
<glyph unicode="c" horiz-adv-x="1091" d="M18 420q0 182 74 332t210 237.5t306 87.5q185 -1 294 -99q108 -98 108 -270q0 -10 -8 -18t-15 -8h-131q-7 0 -14.5 7.5t-7.5 15.5q0 111 -64 172t-176 61q-121 0 -211.5 -74.5t-134 -193t-43.5 -260.5q0 -141 66 -218t194 -77q112 0 194.5 67t114.5 183q1 10 10.5 16 t18.5 6h133q7 0 12.5 -7t3.5 -15q-53 -175 -182.5 -281.5t-318.5 -106.5q-197 0 -315 120.5t-118 322.5z" />
<glyph unicode="d" d="M34 276q-11 55 -11 119q0 90 22 195q23 99 66.5 184.5t106.5 153t150 106.5t187 39q121 0 205 -54.5t121 -154.5l120 547q2 8 11 15.5t16 7.5h146q7 0 12.5 -7.5t3.5 -15.5l-184 -768l-136 -620q-2 -8 -10.5 -15.5t-15.5 -7.5h-144q-7 0 -12.5 7.5t-3.5 15.5l29 112 q-132 -151 -328 -151q-140 0 -232.5 79t-118.5 213zM231 575q-22 -95 -22 -173q1 -91 31 -158q56 -123 209 -123h2h5q122 0 212 91q92 93 137 273q23 98 23 176q0 85 -28 147q-54 120 -188 128h-47q-125 -7 -211.5 -104.5t-122.5 -256.5z" />
<glyph unicode="e" horiz-adv-x="1130" d="M18 428q0 94 22.5 185.5t70.5 175.5t116 148t165 102t210 38q227 0 346 -149q82 -105 82 -259q0 -68 -16 -145q-1 -7 -10 -14.5t-17 -7.5h-782q-4 -50 -4 -72q0 -150 66.5 -232.5t199.5 -82.5q245 0 317 229q1 10 10.5 16.5t18.5 6.5h133q7 0 13 -7.5t4 -15.5 q-47 -167 -174 -267t-328 -100q-215 0 -329 124.5t-114 326.5zM229 633h609q6 33 6 64q0 86 -49 153q-68 92 -209 92q-129 0 -223 -86.5t-134 -222.5z" />
<glyph unicode="f" horiz-adv-x="712" d="M55 23l111 452l102 436h-143q-8 0 -14 8t-5 15l23 98q2 8 11 15.5t16 7.5h145l21 92q20 83 58 145.5t86.5 98t100 52.5t105.5 17q57 0 127 -12q7 -1 13 -10.5t5 -16.5l-22 -98q-1 -7 -10 -12.5t-17 -3.5q-42 10 -88 10q-135 0 -178 -184l-19 -78h226q7 0 13.5 -7.5 t4.5 -15.5l-22 -98q-2 -8 -11 -15.5t-16 -7.5h-225l-105 -436l-98 -452q-2 -8 -11 -15.5t-16 -7.5h-151q-7 0 -13 7.5t-4 15.5z" />
<glyph unicode="g" horiz-adv-x="1140" d="M-78 -80q0 7 8.5 15t16.5 8h137q10 0 17.5 -7.5t7.5 -15.5q6 -86 74 -135t173 -49q139 0 222.5 82t126.5 256l20 86q-136 -162 -340 -162q-106 0 -186 45t-123.5 124t-53.5 189q-3 27 -3 55q0 86 24 183q21 97 65 182.5t107.5 152t151.5 105.5t188 39q121 0 205 -55 t121 -158l34 172q2 8 11 15.5t16 7.5h141q7 0 13 -7.5t4 -15.5l-94 -399l-125 -561q-107 -473 -545 -473h-19q-164 0 -278 81q-117 84 -117 230v10zM229 580q-21 -91 -21 -166q0 -92 32 -158q56 -121 208 -121h3h5q122 0 212 88q93 90 135 264q22 97 22 175q0 85 -27 146 q-51 117 -184 128h-49q-126 -7 -213 -102.5t-123 -253.5z" />
<glyph unicode="h" horiz-adv-x="1110" d="M-47 23l115 458l206 930q2 8 11 15.5t16 7.5h145q7 0 13 -7.5t4 -15.5l-131 -530q60 86 156 142t204 56q170 -1 252 -111q54 -73 54 -182q0 -57 -15 -124l-47 -211l-96 -428q-2 -8 -11 -15.5t-16 -7.5h-143q-7 0 -13 7.5t-4 15.5l103 428l47 202q12 50 12 91 q-1 68 -33 114q-52 72 -159 72q-102 0 -194 -84t-148 -236l-39 -159l-99 -428q-2 -8 -10.5 -15.5t-15.5 -7.5h-148q-7 0 -12.5 7.5t-3.5 15.5z" />
<glyph unicode="i" horiz-adv-x="442" d="M-41 23l127 520l107 489q2 8 10.5 15.5t15.5 7.5h150q7 0 12.5 -7.5t3.5 -15.5l-119 -487l-114 -522q-2 -8 -11 -15.5t-16 -7.5h-150q-7 0 -12.5 7.5t-3.5 15.5zM240 1208l36 158q2 8 11 15.5t16 7.5h143q8 0 14 -8t5 -15l-39 -158q-1 -7 -10 -14.5t-17 -7.5h-141 q-8 0 -13.5 7.5t-4.5 14.5z" />
<glyph unicode="j" horiz-adv-x="442" d="M-330 -330l23 97q1 7 9.5 12.5t16.5 3.5q6 -1 19 -3t25.5 -3.5t23.5 -1.5q119 0 162 174l94 391l156 692q2 8 10.5 15.5t15.5 7.5h148q7 0 12.5 -7.5t3.5 -15.5l-166 -692l-90 -408q-38 -167 -135 -233q-98 -67 -203 -70q-55 0 -106 15q-8 2 -14 10.5t-5 15.5zM240 1208 l36 158q2 8 11 15.5t16 7.5h143q8 0 14 -8t5 -15l-39 -158q-1 -7 -10 -14.5t-17 -7.5h-141q-8 0 -13.5 7.5t-4.5 14.5z" />
<glyph unicode="k" horiz-adv-x="985" d="M-49 23l168 688l153 700q2 8 11 15.5t16 7.5h145q7 0 13 -7.5t4 -15.5l-170 -696l-19 -88l469 413q19 15 39 15h195q4 0 6.5 -3.5t2.5 -7t-3 -4.5l-432 -370l237 -650q2 -8 -2.5 -14t-11.5 -6h-147q-8 0 -18 6.5t-11 13.5l-47 150l-143 383l-187 -166l-80 -364 q-2 -8 -10.5 -15.5t-15.5 -7.5h-146q-7 0 -12.5 7.5t-3.5 15.5z" />
<glyph unicode="l" horiz-adv-x="438" d="M-39 23l172 702l150 686q2 8 10.5 15.5t15.5 7.5h146q7 0 12.5 -7.5t3.5 -15.5l-166 -684l-155 -704q-2 -8 -11 -15.5t-16 -7.5h-146q-7 0 -12.5 7.5t-3.5 15.5z" />
<glyph unicode="m" horiz-adv-x="1695" d="M-49 23l98 389l137 620q2 8 11 15.5t16 7.5h139q7 0 13 -7.5t4 -15.5l-41 -155q147 202 344 202q107 0 179 -58t91 -161q151 219 358 219q161 0 238 -114q49 -73 49 -175q0 -59 -16 -128l-58 -250l-86 -389q-2 -8 -10.5 -15.5t-15.5 -7.5h-148q-7 0 -12.5 7.5t-3.5 15.5 l96 389l56 241q13 55 13 100q0 62 -24 104q-42 73 -133 73t-174.5 -74.5t-140.5 -208.5l-53 -235l-84 -389q-2 -8 -11 -15.5t-16 -7.5h-150q-7 0 -12.5 7.5t-3.5 15.5l96 389l56 241q13 56 13 101q-1 62 -25 104q-42 72 -134 72q-95 0 -183 -85t-144 -235l-50 -198l-84 -389 q-2 -8 -10.5 -15.5t-15.5 -7.5h-152q-7 0 -12.5 7.5t-3.5 15.5z" />
<glyph unicode="n" horiz-adv-x="1110" d="M-47 23l115 458l120 551q2 8 11 15.5t16 7.5h137q7 0 13 -7.5t4 -15.5l-41 -155q65 89 160 145.5t204 56.5q170 -1 252 -111q54 -73 54 -182q0 -57 -15 -124l-49 -211l-94 -428q-2 -8 -11 -15.5t-16 -7.5h-143q-7 0 -13 7.5t-4 15.5l103 428l47 202q12 49 12 90 q-1 68 -33 114q-52 73 -159 73q-102 0 -193.5 -83.5t-150.5 -236.5l-39 -159l-97 -428q-2 -8 -10.5 -15.5t-15.5 -7.5h-148q-7 0 -12.5 7.5t-3.5 15.5z" />
<glyph unicode="o" horiz-adv-x="1148" d="M18 422q0 182 73.5 331.5t207.5 236.5t303 87q199 0 320 -121q120 -120 120 -323q0 -177 -73.5 -327t-207.5 -239.5t-300 -89.5q-199 0 -320 121q-123 120 -123 324zM205 410q0 -141 67.5 -218t194.5 -77q175 0 281 148t106 378q0 141 -68.5 221t-191.5 80 q-117 0 -206 -70t-136 -190.5t-47 -271.5z" />
<glyph unicode="p" d="M-129 -326l190 785l123 573q2 8 11 15.5t16 7.5h145q7 0 13 -7.5t4 -15.5l-29 -104q134 147 318 147q195 0 294 -150q76 -113 76 -280q0 -54 -8 -113q-8 -83 -32.5 -161.5t-68 -149.5t-101 -124.5t-136.5 -85t-170 -31.5q-123 0 -209 59.5t-123 169.5l-121 -535 q-2 -8 -10.5 -15t-15.5 -7h-150q-7 0 -12.5 7t-3.5 15zM246 500q-5 -44 -5 -83q0 -123 49 -199q63 -101 193 -101q152 0 244.5 123t110.5 313q6 48 6 90q0 117 -46 193q-63 104 -198 104q-97 0 -175 -61.5t-122.5 -160t-56.5 -218.5z" />
<glyph unicode="q" d="M34 276q-11 57 -11 121q0 89 22 193q23 99 66.5 184.5t106.5 153t150 106.5t187 39q123 0 207 -54t121 -157l35 170q2 8 10.5 15.5t15.5 7.5h146q7 0 12.5 -7.5t3.5 -15.5l-150 -618l-163 -740q-1 -7 -10 -14.5t-17 -7.5h-148q-7 0 -12.5 7t-3.5 15l109 457 q-134 -147 -324 -147q-139 0 -232 79t-121 213zM233 575q-22 -95 -22 -172q0 -91 31 -159q56 -123 207 -123h2h5q124 0 214 91q93 93 137 273q23 96 23 173q0 87 -29 150q-55 120 -193 128h-43q-125 -7 -210 -104t-122 -257z" />
<glyph unicode="r" horiz-adv-x="755" d="M-49 23l127 516l106 493q2 8 11 15.5t16 7.5h143q7 0 13 -7.5t4 -15.5l-47 -178q79 102 181 156.5t212 54.5q21 0 53 -4q8 -1 14 -10.5t4 -16.5l-22 -106q-1 -10 -9.5 -15.5t-19.5 -3.5q-14 2 -47 2q-129 0 -245.5 -88t-176.5 -243l-127 -557q-2 -8 -10.5 -15.5 t-15.5 -7.5h-148q-7 0 -12.5 7.5t-3.5 15.5z" />
<glyph unicode="s" horiz-adv-x="1052" d="M-14 344q0 7 8 15t16 8h137q8 0 15 -8t6 -15v-5q0 -106 78 -169q80 -64 219 -64q110 0 177 51t67 128q0 86 -95 121q-65 24 -208 67q-118 36 -209 92q-97 60 -97 193t121 226t318 93q112 0 207 -34q94 -34 156 -108q59 -71 59 -166v-9q-2 -8 -10 -15.5t-15 -7.5h-127 q-10 0 -17.5 7.5t-7.5 15.5q-1 86 -73 138t-183 52q-105 0 -172 -49.5t-67 -124.5q0 -82 96 -117q103 -38 207 -65q124 -38 209 -90q94 -58 94 -189q0 -147 -123 -241q-126 -97 -319 -97q-140 0 -248.5 44.5t-167.5 128.5q-52 74 -52 168q0 13 1 26z" />
<glyph unicode="t" horiz-adv-x="690" d="M94 291l146 618h-115q-8 0 -14 8t-5 15l25 100q2 8 11 15.5t16 7.5h114l52 241q2 8 10.5 15.5t15.5 7.5h148q7 0 12.5 -7.5t3.5 -15.5l-57 -241h235q8 0 14 -8t5 -15l-23 -100q-2 -8 -10.5 -15.5t-15.5 -7.5h-240l-141 -614q-11 -45 -11 -77q0 -33 12 -52q24 -37 101 -37 q44 0 98 12q8 2 14 -3.5t5 -12.5l-23 -92q-2 -8 -9.5 -18t-14.5 -11q-95 -22 -142 -22q-117 0 -186 69q-45 43 -45 130q0 48 14 110z" />
<glyph unicode="u" horiz-adv-x="1110" d="M39 395l47 209l94 428q2 8 11 15.5t16 7.5h145q7 0 13 -7.5t4 -15.5l-105 -428l-45 -203q-12 -50 -11 -92q0 -68 30 -112q50 -72 159 -72q102 0 193.5 83t150.5 236l39 160l97 428q2 8 10.5 15.5t15.5 7.5h148q7 0 12.5 -7.5t3.5 -15.5l-113 -459l-123 -550 q-2 -8 -10.5 -15.5t-15.5 -7.5h-137q-7 0 -13 7.5t-4 15.5l41 157q-65 -89 -160.5 -147t-201.5 -58q-164 0 -250 109q-57 70 -57 181q0 59 16 130z" />
<glyph unicode="v" horiz-adv-x="1024" d="M92 1032q0 8 7 15.5t14 7.5h141q7 0 15 -7.5t10 -15.5l90 -885l512 887q13 21 32 21h152q8 0 11 -6.5t-1 -12.5l-600 -1022q-14 -18 -35 -18h-186q-8 0 -16.5 7.5t-8.5 14.5z" />
<glyph unicode="w" horiz-adv-x="1462" d="M100 1032q0 8 8 15.5t15 7.5h127q7 0 14.5 -7.5t7.5 -15.5v-878l406 880q13 21 33 21h178q7 0 14.5 -7.5t7.5 -15.5l9 -864l397 866q13 21 33 21h143q16 0 12 -21l-489 -1014q-12 -20 -33 -20h-172q-7 0 -15 8t-8 15l-18 884l-403 -887q-4 -7 -14.5 -13.5t-18.5 -6.5 h-172q-8 0 -15.5 8t-7.5 15z" />
<glyph unicode="x" horiz-adv-x="970" d="M-142 6q-3 6 1 10l481 559l-213 459q-4 7 0 14t12 7h150q7 0 17.5 -6.5t15.5 -14.5l159 -358l299 362q14 17 37 17h162q6 0 9 -6.5t-1 -10.5l-430 -508l227 -510q2 -8 -2.5 -14t-11.5 -6h-149q-8 0 -19 6.5t-12 13.5l-174 404l-344 -408q-13 -16 -37 -16h-168q-6 0 -9 6z " />
<glyph unicode="y" horiz-adv-x="993" d="M66 -328l198 346l-170 1014q-1 7 5 15t14 8h145q7 0 16 -7.5t11 -15.5l112 -799l447 801q13 21 33 21h157q8 0 11 -6.5t-1 -14.5l-786 -1362q-16 -20 -35 -20h-145q-16 0 -12 20z" />
<glyph unicode="z" horiz-adv-x="987" d="M-84 23l25 100q3 22 20 39l735 747h-506q-7 0 -13.5 7.5t-4.5 15.5l25 100q2 8 10.5 15.5t15.5 7.5h715q7 0 13.5 -7.5t4.5 -15.5l-22 -102q-3 -21 -21 -39l-741 -746h580q8 0 13.5 -7.5t4.5 -14.5l-22 -100q-2 -8 -11 -15.5t-16 -7.5h-787q-7 0 -13.5 7.5t-4.5 15.5z " />
<glyph unicode="{" horiz-adv-x="552" d="M-52 -90q9 92 75 217l133 252q34 58 37 104q1 23 -16.5 34t-55.5 11h-31q-7 0 -13.5 7.5t-4.5 15.5l8 37l16 69q2 8 11 15.5t16 7.5h31q68 0 88.5 39t15.5 110l-12 279q-15 176 82 283q94 104 254 104h55q8 0 13.5 -7.5t4.5 -14.5l-26 -109q-2 -8 -11 -15.5t-16 -7.5h-53 q-77 0 -110.5 -54t-26.5 -179l12 -279q6 -80 -31 -140t-121 -85q48 -19 68 -55.5t14 -79t-32 -90.5l-134 -254q-72 -148 -66.5 -203t83.5 -55h53q7 0 13.5 -7.5t4.5 -15.5l-24 -108q-2 -8 -11 -15.5t-16 -7.5h-55q-119 0 -175 52.5t-47 144.5z" />
<glyph unicode="|" horiz-adv-x="299" d="M-152 -264l404 1737q1 7 10 14.5t17 7.5h100q8 0 13.5 -7.5t4.5 -14.5l-403 -1737q-2 -8 -11 -15.5t-16 -7.5h-100q-8 0 -14 8t-5 15z" />
<glyph unicode="}" horiz-adv-x="552" d="M-145 -264l24 108q2 8 11 15.5t16 7.5h53q78 0 111.5 58t23.5 200l-10 254q-5 75 32 136t120 89q-37 13 -57.5 35.5t-24.5 52.5t4 64t28 73l148 279q65 128 55.5 180.5t-86.5 52.5h-53q-8 0 -14 8t-5 15l27 109q1 7 10 14.5t17 7.5h55q161 0 207.5 -104.5t-47.5 -282.5 l-148 -279q-34 -58 -37 -104q-1 -23 16.5 -34t55.5 -11h31q7 0 13.5 -7.5t4.5 -15.5l-8 -34l-16 -72q-2 -8 -11 -15.5t-16 -7.5h-31q-68 0 -88.5 -39t-15.5 -110l10 -252q14 -190 -71 -302t-261 -112h-55q-7 0 -13.5 7.5t-4.5 15.5z" />
<glyph unicode="~" horiz-adv-x="1044" d="M39 616q26 122 68 210.5t111 144t157 55.5q63 0 111 -30.5t76.5 -74t52.5 -86.5t52 -73.5t62 -30.5q133 0 180 256q2 8 11 15.5t16 7.5h92q8 0 14 -8t5 -15q-37 -187 -119 -293t-211 -106q-46 0 -83.5 16t-63 42t-46.5 57t-39 62.5t-36 57.5t-42 42t-53 16 q-66 0 -110.5 -71.5t-65.5 -193.5q-2 -8 -10.5 -15t-15.5 -7h-95q-8 0 -13.5 7.5t-4.5 14.5z" />
<glyph unicode="&#xa1;" horiz-adv-x="450" d="M-74 -342l232 991q2 8 10.5 15.5t15.5 7.5h142q7 0 13.5 -7.5t4.5 -15.5l-231 -991q-2 -8 -11 -15.5t-16 -7.5h-141q-8 0 -14 8t-5 15zM203 877l39 170q2 8 10.5 15t15.5 7h156q8 0 13.5 -7.5t4.5 -14.5l-39 -170q-2 -8 -10.5 -15.5t-15.5 -7.5h-156q-7 0 -13.5 7.5 t-4.5 15.5z" />
<glyph unicode="&#xa2;" horiz-adv-x="1110" d="M70 625q0 175 68.5 320t195 234.5t287.5 100.5l32 141q2 8 11 15.5t16 7.5h141q8 0 14 -8t5 -15l-37 -157q123 -33 191 -125t67 -230q0 -7 -7.5 -14.5t-15.5 -7.5h-131q-7 0 -14.5 7.5t-7.5 14.5q0 111 -64 172.5t-176 61.5q-121 0 -211.5 -75t-134 -193t-43.5 -261 q0 -141 66 -218t194 -77q112 0 194.5 67t114.5 183q1 10 10.5 16.5t18.5 6.5h133q7 0 13 -7.5t4 -15.5q-49 -164 -166 -268t-285 -117l-37 -161q-2 -8 -11 -15.5t-16 -7.5h-143q-7 0 -13.5 7.5t-4.5 15.5l43 176q-142 37 -221.5 149t-79.5 277z" />
<glyph unicode="&#xa3;" horiz-adv-x="1175" d="M-123 23l23 98q1 10 8.5 18.5t15.5 10.5l43 14q182 56 226 225q12 50 13.5 126t-1.5 138h-185q-7 0 -13.5 7.5t-4.5 15.5l23 98q2 8 10.5 15.5t15.5 7.5h146q-4 159 16 243q43 181 178 301q135 117 342 117q208 0 319 -113.5t91 -320.5q0 -7 -8.5 -15t-16.5 -8h-141 q-7 0 -14 7.5t-7 15.5q12 127 -46.5 201.5t-188.5 74.5q-118 0 -202.5 -75t-110.5 -185q-21 -88 -17 -243h320q7 0 13.5 -7.5t4.5 -15.5l-22 -98q-2 -8 -11 -15.5t-16 -7.5h-283q4 -155 -16 -239q-20 -83 -85.5 -154.5t-164.5 -105.5l401 -15q143 -6 220 66.5t116 226.5 q1 10 10.5 16.5t18.5 6.5h145q7 0 13 -7.5t4 -15.5q-59 -239 -189.5 -348.5t-339.5 -101.5l-634 18q-8 0 -14 8t-5 15z" />
<glyph unicode="&#xa4;" horiz-adv-x="1116" d="M8 281q-14 14 2 30l223 191q-37 81 -34 190q9 158 100 262l-104 148q-10 17 4 35l67 61q6 6 15.5 5.5t13.5 -7.5l111 -154q85 48 186 48q132 0 221 -80l213 180q14 14 31 -2l55 -64q14 -14 -2 -30l-219 -187q38 -78 35 -192q-3 -151 -101 -264l101 -138q10 -17 -4 -34 l-68 -64q-6 -6 -15.5 -5.5t-13.5 7.5l-106 145q-77 -47 -184 -47q-132 0 -224 82l-217 -184q-6 -6 -15.5 -5t-15.5 7zM336 692q-8 -111 48.5 -183.5t152.5 -72.5q104 0 175 78.5t79 200.5q7 110 -50 182t-151 72q-104 0 -175 -77.5t-79 -199.5z" />
<glyph unicode="&#xa5;" horiz-adv-x="1185" d="M20 231l23 97q1 7 10 14.5t17 7.5h344l32 137h-346q-7 0 -13.5 7.5t-4.5 15.5l24 96q2 8 11 15.5t16 7.5h328l-266 784q-2 8 2.5 14.5t11.5 6.5h151q9 0 18.5 -6.5t10.5 -16.5l205 -670l512 674q15 19 37 19h166q7 0 10 -6.5t-2 -12.5l-633 -786h326q7 0 13.5 -7.5 t4.5 -15.5l-24 -96q-2 -8 -11 -15.5t-16 -7.5h-344l-31 -137h344q8 0 14 -7.5t5 -14.5l-23 -97q-1 -7 -10 -14.5t-17 -7.5h-344l-41 -186q-2 -8 -10.5 -15.5t-15.5 -7.5h-154q-7 0 -12.5 7.5t-3.5 15.5l45 186h-340q-8 0 -14 7.5t-5 14.5z" />
<glyph unicode="&#xa6;" horiz-adv-x="299" d="M-152 -264l168 713q1 7 10 14.5t17 7.5h98q8 0 14 -7.5t5 -14.5l-166 -713q-2 -8 -11 -15.5t-16 -7.5h-100q-8 0 -14 8t-5 15zM86 760l166 713q1 7 10 14.5t17 7.5h100q8 0 13.5 -7.5t4.5 -14.5l-168 -713q-2 -8 -10.5 -15.5t-15.5 -7.5h-99q-7 0 -13.5 7.5t-4.5 15.5z " />
<glyph unicode="&#xa7;" horiz-adv-x="1261" d="M-80 -14q0 7 8.5 14.5t16.5 7.5h135q8 0 14.5 -7.5t5.5 -14.5q-2 -128 90.5 -203t253.5 -76q133 1 212 66t79 166q0 95 -104 141q-93 40 -232 88q-126 40 -231 108q-107 64 -107 205q0 118 86.5 207t225.5 129q-129 87 -129 230q0 159 132 266.5t357 107.5 q141 0 250.5 -40.5t174 -125.5t59.5 -202q0 -7 -8.5 -15t-16.5 -8h-129q-7 0 -15 8t-8 15q0 112 -80.5 176.5t-236.5 64.5q-133 0 -212 -64t-79 -165q0 -96 107 -139q112 -46 229 -84q112 -36 231 -107q105 -68 105 -207q0 -124 -82 -217.5t-215 -132.5q115 -83 115 -211 q0 -164 -129 -272t-334 -117h-49q-149 5 -262 55t-174.5 142t-53.5 211zM250 508q0 -29 11 -54t35 -45.5t48.5 -36t65 -32t70.5 -27t79 -27t78 -26.5q122 7 201.5 72.5t79.5 154.5q0 35 -17.5 65t-40 49.5t-68 41.5t-76.5 33t-91.5 32t-89.5 31q-116 -15 -199 -75 q-86 -62 -86 -156z" />
<glyph unicode="&#xa8;" horiz-adv-x="1024" d="M377 1235l39 160q2 8 10.5 15t15.5 7h123q8 0 14 -7.5t5 -14.5l-39 -160q-2 -8 -11 -15.5t-16 -7.5h-123q-7 0 -13.5 7.5t-4.5 15.5zM702 1235l39 160q1 7 10 14.5t17 7.5h123q8 0 13.5 -7.5t4.5 -14.5l-39 -160q-2 -8 -10.5 -15.5t-15.5 -7.5h-123q-8 0 -14 8t-5 15z " />
<glyph unicode="&#xa9;" horiz-adv-x="1529" d="M80 715q0 343 186.5 544t499.5 201q311 0 497.5 -201.5t186.5 -543.5q0 -337 -187.5 -539.5t-498.5 -202.5q-204 0 -359.5 92t-240 260.5t-84.5 389.5zM180 715q0 -299 156 -475q157 -177 430 -177q274 0 430 175q156 176 156 477t-156 479q-156 176 -432 176t-428 -174 q-156 -176 -156 -481zM352 719q0 217 115 345t311 128q70 0 129 -16.5t110 -51.5t87 -95.5t53 -143.5q2 -8 -4.5 -15.5t-13.5 -7.5h-84q-8 0 -17 6.5t-10 16.5q-23 97 -89.5 147.5t-162.5 50.5q-138 0 -214.5 -98t-76.5 -266q0 -178 76 -272.5t213 -94.5q106 0 174.5 57.5 t87.5 163.5q2 8 10 15.5t15 7.5h84q7 0 13.5 -7.5t4.5 -15.5q-26 -162 -126.5 -244.5t-258.5 -82.5q-200 0 -313 126t-113 347z" />
<glyph unicode="&#xaa;" horiz-adv-x="907" d="M143 1020q9 84 41.5 161t84 138.5t127 98t163.5 36.5q173 0 240 -131l18 90q2 8 11 15.5t16 7.5h121q7 0 12.5 -7.5t3.5 -15.5l-84 -350l-84 -377q-1 -7 -10 -14.5t-17 -7.5h-120q-7 0 -13 7t-4 15l17 59q-115 -100 -256 -100q-146 0 -217 109t-50 266zM313 1022 q-14 -121 27.5 -192t132.5 -70q109 0 185 91t90 228q12 109 -23.5 176.5t-110.5 81.5l-26 1q-25 1 -31 1q-113 -9 -170 -102q-62 -95 -74 -215z" />
<glyph unicode="&#xab;" horiz-adv-x="935" d="M25 553q-11 18 4 37l311 336q13 16 37 16h127q6 0 8 -5.5t0 -10.5l-338 -367l172 -340q4 -20 -12 -20h-115q-21 0 -33 20zM424 553q-11 18 4 37l311 336q13 16 37 16h127q6 0 8 -5.5t0 -10.5l-338 -367l172 -340q4 -20 -12 -20h-115q-20 0 -32 20z" />
<glyph unicode="&#xac;" horiz-adv-x="1064" d="M57 651l27 109q1 7 10 14.5t17 7.5h876q8 0 14 -7.5t5 -14.5l-123 -535q-1 -7 -10 -14.5t-17 -7.5h-104q-8 0 -14 7.5t-5 14.5l92 404h-749q-8 0 -14 7.5t-5 14.5z" />
<glyph unicode="&#xae;" horiz-adv-x="772" d="M160 1116q0 158 87 250t234 92t234.5 -92t87.5 -250q0 -154 -88 -248t-234 -94q-143 0 -232 94.5t-89 247.5zM219 1116q0 -134 69.5 -209.5t192.5 -75.5t191.5 75.5t68.5 209.5q0 132 -69 209.5t-191 77.5q-123 0 -192.5 -76.5t-69.5 -210.5zM330 940v356q0 8 7.5 15.5 t14.5 7.5h127q76 0 119 -31t43 -90q0 -44 -25 -74t-69 -41l92 -147q4 -6 1 -12t-11 -6h-39q-21 0 -35 18l-29 49l-61 90h-64l2 -135q0 -8 -7.5 -15t-14.5 -7h-29q-8 0 -15 7t-7 15zM401 1133h82q40 0 63 16t23 47q0 32 -22.5 50t-65.5 18h-78z" />
<glyph unicode="&#xaf;" horiz-adv-x="1024" d="M334 1268l22 94q1 7 10 14.5t17 7.5h555q8 0 13.5 -7.5t4.5 -14.5l-22 -94q-2 -8 -11 -15.5t-16 -7.5h-555q-7 0 -13.5 7.5t-4.5 15.5z" />
<glyph unicode="&#xb0;" horiz-adv-x="727" d="M156 1157q0 128 88 213q89 86 219 86t219 -86q88 -85 88 -213q0 -130 -88 -215q-89 -86 -219 -86q-128 0 -217 86q-90 87 -90 215zM287 1157q0 -84 48.5 -134t127.5 -50q76 0 126 50.5t50 133.5q0 84 -49.5 133t-126.5 49q-79 0 -127.5 -48.5t-48.5 -133.5z" />
<glyph unicode="&#xb1;" horiz-adv-x="1044" d="M-98 23l26 108q2 8 11 15.5t16 7.5h876q8 0 14 -8t5 -15l-27 -108q-2 -8 -10.5 -15.5t-15.5 -7.5h-877q-7 0 -13.5 7.5t-4.5 15.5zM59 696l27 109q1 7 10 14.5t17 7.5h364l94 406q1 7 10 14.5t17 7.5h104q8 0 14 -7.5t5 -14.5l-94 -406h362q8 0 14 -7.5t5 -14.5l-27 -109 q-1 -7 -10 -14.5t-17 -7.5h-362l-94 -404q-1 -7 -10 -14.5t-17 -7.5h-104q-8 0 -14 7.5t-5 14.5l94 404h-364q-8 0 -14 7.5t-5 14.5z" />
<glyph unicode="&#xb2;" horiz-adv-x="638" d="M68 700l18 80q14 62 46 111.5t72.5 80.5t87 56t92 45t83.5 40t66 48.5t36 63.5q12 55 -18 88.5t-92 32.5q-60 0 -101.5 -38.5t-54.5 -107.5q-1 -10 -10 -16t-17 -6h-73q-8 0 -14 7.5t-5 14.5q24 119 97 183.5t192 64.5q114 0 177 -61.5t40 -163.5q-14 -64 -53 -113 t-87 -77t-103.5 -54.5t-102.5 -46.5t-83 -52.5t-46 -72.5l-6 -25h354q8 0 14 -7.5t5 -14.5l-15 -60q-2 -8 -10.5 -15t-15.5 -7h-455q-8 0 -13.5 7.5t-4.5 14.5z" />
<glyph unicode="&#xb3;" horiz-adv-x="659" d="M104 893q1 7 10 14.5t17 7.5h84q8 0 13.5 -7.5t4.5 -14.5q-8 -63 22 -97t93 -34q127 0 156 131q18 70 -13 105.5t-102 35.5h-37q-7 0 -13.5 7.5t-4.5 15.5l12 45q1 7 10 14.5t17 7.5h37q133 0 159 109q10 52 -20.5 84.5t-83.5 32.5q-118 0 -146 -117q-3 -23 -28 -23h-80 q-7 0 -13.5 7.5t-4.5 15.5q26 103 97.5 158t180.5 55q111 0 178 -60.5t47 -152.5q-13 -60 -56 -99t-105 -53q60 -18 89.5 -70t12.5 -124q-25 -102 -102.5 -160.5t-188.5 -58.5q-121 0 -186.5 58.5t-55.5 166.5z" />
<glyph unicode="&#xb4;" horiz-adv-x="1024" d="M383 1249q-2 8 2.5 18t11.5 11l480 209q8 2 16.5 -2.5t9.5 -11.5l29 -109q2 -8 -2.5 -18t-11.5 -11l-490 -155q-8 -2 -17 2.5t-10 11.5z" />
<glyph unicode="&#xb5;" horiz-adv-x="1101" d="M-139 -326l184 785l129 573q2 8 11 15.5t16 7.5h147q7 0 13 -7.5t4 -15.5l-105 -426v-4l-45 -201q-31 -132 19.5 -204t158.5 -72q102 0 193.5 83t150.5 236l39 160l96 428q2 8 11 15.5t16 7.5h148q7 0 12.5 -7.5t3.5 -15.5l-113 -459l-123 -550q-2 -8 -10.5 -15.5 t-15.5 -7.5h-137q-7 0 -13 7.5t-4 15.5l41 157q-65 -89 -160.5 -147t-201.5 -58q-115 0 -197 56l-82 -357q-1 -7 -10 -14.5t-17 -7.5h-143q-7 0 -12.5 7t-3.5 15z" />
<glyph unicode="&#xb6;" horiz-adv-x="1337" d="M138 826q-20 89 7 200q93 408 590 408h639q7 0 13 -7.5t4 -15.5l-230 -940l-180 -825q-2 -8 -11 -15.5t-16 -7.5h-153q-7 0 -13 7.5t-4 15.5l160 657l57 244h-235l-57 -244l-148 -657q-2 -8 -10.5 -15.5t-15.5 -7.5h-154q-7 0 -12.5 7.5t-3.5 15.5l157 653l60 248h-23 q-110 0 -198.5 33t-145.5 95t-77 151z" />
<glyph unicode="&#xb7;" horiz-adv-x="366" d="M37 530l39 170q2 8 10.5 15.5t15.5 7.5h162q8 0 14 -8t5 -15l-39 -170q-1 -7 -10 -14.5t-17 -7.5h-162q-8 0 -13.5 7.5t-4.5 14.5z" />
<glyph unicode="&#xb8;" horiz-adv-x="1024" d="M116 -311.5q-4 8.5 1 14.5l188 320q14 18 35 14l98 -14q7 -1 11 -9t2 -16l-170 -332q-4 -7 -14.5 -11.5t-18.5 -2.5l-121 26q-7 2 -11 10.5z" />
<glyph unicode="&#xb9;" horiz-adv-x="481" d="M182 1214l15 64q2 17 26 31q102 37 164 108q17 17 39 17h84q7 0 12.5 -7.5t3.5 -15.5l-90 -377l-74 -334q-2 -8 -10.5 -15t-15.5 -7h-92q-7 0 -13 7t-4 15l78 336l55 244q-65 -53 -161 -82q-6 -2 -12 3.5t-5 12.5z" />
<glyph unicode="&#xba;" horiz-adv-x="892" d="M141 1008q21 197 142.5 323.5t312.5 126.5q164 0 249 -102t64 -264q-21 -197 -142 -324t-310 -127q-164 0 -250 102t-66 265zM309 1012q-14 -119 29 -187.5t135 -68.5q112 0 182 90t84 237q14 123 -27 191.5t-134 68.5q-112 -1 -183.5 -93t-85.5 -238z" />
<glyph unicode="&#xbb;" horiz-adv-x="935" d="M-45 204.5q-2 5.5 0 10.5l342 373l-176 334q-4 20 12 20h115q21 0 33 -20l163 -328q11 -18 -4 -37l-313 -342q-13 -16 -37 -16h-127q-6 0 -8 5.5zM354 204.5q-2 5.5 0 10.5l342 373l-176 334q-4 20 12 20h115q21 0 33 -20l164 -328q11 -18 -4 -37l-314 -342 q-13 -16 -37 -16h-127q-6 0 -8 5.5z" />
<glyph unicode="&#xbc;" horiz-adv-x="1449" d="M80 6q-3 6 2 12l1026 1397q15 19 37 19h94q7 0 10 -6.5t-2 -12.5l-1028 -1397q-14 -18 -37 -18h-92q-7 0 -10 6zM184 1214l15 64q2 17 26 31q102 37 164 108q17 17 39 17h84q7 0 12.5 -7.5t3.5 -15.5l-90 -377l-73 -334q-1 -7 -10 -14.5t-17 -7.5h-92q-7 0 -13 7t-4 15 l78 336l55 244q-65 -53 -161 -82q-6 -2 -12 3.5t-5 12.5zM684 207l18 74q2 17 19 38l373 420q14 17 36 17h134q7 0 13.5 -7.5t4.5 -15.5l-102 -444h55q7 0 13.5 -7.5t4.5 -15.5l-14 -59q-2 -8 -11 -15.5t-16 -7.5h-57l-39 -164q-2 -8 -10.5 -15t-15.5 -7h-89q-8 0 -13.5 7.5 t-4.5 14.5l39 164h-320q-7 0 -13.5 7.5t-4.5 15.5zM815 289h232l53 223l37 143z" />
<glyph unicode="&#xbd;" horiz-adv-x="1466" d="M80 6q-3 6 2 12l1026 1397q15 19 37 19h94q7 0 10 -6.5t-2 -12.5l-1028 -1397q-14 -18 -37 -18h-92q-7 0 -10 6zM184 1214l15 64q2 17 26 31q102 37 164 108q17 17 39 17h84q7 0 12.5 -7.5t3.5 -15.5l-90 -377l-73 -334q-1 -7 -10 -14.5t-17 -7.5h-92q-7 0 -13 7t-4 15 l78 336l55 244q-65 -53 -161 -82q-6 -2 -12 3.5t-5 12.5zM711 23l18 79q14 62 46 111.5t72.5 80.5t87 56t92 45t83.5 40t66 48.5t36 63.5q12 55 -18 88.5t-92 32.5q-60 0 -101.5 -38.5t-54.5 -107.5q-1 -10 -9.5 -16t-16.5 -6h-74q-8 0 -14 7.5t-5 14.5q24 119 97 183.5 t192 64.5q114 0 177 -61.5t40 -163.5q-14 -64 -53 -113t-87 -77t-103.5 -54.5t-102.5 -46.5t-83 -52.5t-46 -72.5l-6 -25h354q8 0 14 -7.5t5 -14.5l-15 -59q-2 -8 -10.5 -15.5t-15.5 -7.5h-455q-7 0 -13.5 7.5t-4.5 15.5z" />
<glyph unicode="&#xbe;" horiz-adv-x="1609" d="M104 893q1 7 10 14.5t17 7.5h84q8 0 13.5 -7.5t4.5 -14.5q-8 -63 22 -97t93 -34q127 0 156 131q18 70 -13 105.5t-102 35.5h-37q-7 0 -13.5 7.5t-4.5 15.5l12 45q1 7 10 14.5t17 7.5h37q133 0 159 109q10 52 -20.5 84.5t-83.5 32.5q-118 0 -146 -117q-3 -23 -28 -23h-80 q-7 0 -13.5 7.5t-4.5 15.5q26 103 97.5 158t180.5 55q111 0 178 -60.5t47 -152.5q-13 -60 -56 -99t-105 -53q60 -18 89.5 -70t12.5 -124q-25 -102 -102.5 -160.5t-188.5 -58.5q-121 0 -186.5 58.5t-55.5 166.5zM238 6q-3 6 2 12l1026 1397q15 19 37 19h94q7 0 10 -6.5 t-2 -12.5l-1028 -1397q-14 -18 -37 -18h-92q-7 0 -10 6zM831 207l19 74q3 19 18 38l373 420q14 17 37 17h133q8 0 14 -8t5 -15l-103 -444h55q8 0 14 -8t5 -15l-15 -59q-2 -8 -10.5 -15.5t-15.5 -7.5h-57l-39 -164q-1 -7 -10 -14.5t-17 -7.5h-88q-8 0 -14 7.5t-5 14.5l39 164 h-319q-8 0 -14 8t-5 15zM963 289h231l53 223l37 143z" />
<glyph unicode="&#xbf;" horiz-adv-x="1013" d="M-100 2q10 56 31.5 102.5t59 85.5t66.5 62.5t80 60.5q44 31 65.5 47.5t59 50t59.5 62t45 71.5t37 91q1 10 10.5 16t18.5 6h141q7 0 13 -7t4 -15q-18 -70 -48.5 -129t-72 -106.5t-76 -79t-82.5 -68.5q-11 -8 -45.5 -34t-46 -36t-38.5 -32.5t-38 -37t-27 -36.5t-24 -44 t-12 -46q-17 -96 32 -160t142 -78q12 -4 74 -4q121 4 194 74.5t111 208.5q1 10 10.5 16t18.5 6h135q7 0 12.5 -7t3.5 -15q-58 -211 -189.5 -317.5t-347.5 -106.5q-120 0 -213 48t-139 140.5t-24 210.5zM451 862l38 170q2 8 11 15.5t16 7.5h158q7 0 13.5 -7.5t4.5 -15.5 l-39 -170q-2 -8 -10.5 -15t-15.5 -7h-158q-8 0 -13.5 7.5t-4.5 14.5z" />
<glyph unicode="&#xc0;" horiz-adv-x="1310" d="M-136 6q-3 6 1 12l821 1397q15 19 35 19h205q8 0 16 -8t8 -15l174 -1388q0 -8 -6.5 -15.5t-13.5 -7.5h-141q-8 0 -16.5 8t-8.5 15l-45 405h-590l-233 -408q-12 -20 -33 -20h-162q-8 0 -11 6zM395 590h479l-77 704zM569 1747l43 108q2 8 11.5 11.5t17.5 -0.5l424 -207 q16 -10 12 -31l-24 -55q-1 -7 -11 -10.5t-18 -1.5l-442 157q-7 1 -11 11t-2 18z" />
<glyph unicode="&#xc1;" horiz-adv-x="1310" d="M-136 6q-3 6 1 12l821 1397q15 19 35 19h205q8 0 16 -8t8 -15l174 -1388q0 -8 -6.5 -15.5t-13.5 -7.5h-141q-8 0 -16.5 8t-8.5 15l-45 405h-590l-233 -408q-12 -20 -33 -20h-162q-8 0 -11 6zM395 590h479l-77 704zM602 1628q-2 8 2.5 18t11.5 11l480 209q8 2 16.5 -3 t9.5 -12l29 -108q2 -8 -2.5 -18t-11.5 -11l-490 -155q-8 -2 -16.5 2.5t-9.5 11.5z" />
<glyph unicode="&#xc2;" horiz-adv-x="1310" d="M-136 6q-3 6 1 12l821 1397q15 19 35 19h205q8 0 16 -8t8 -15l174 -1388q0 -8 -6.5 -15.5t-13.5 -7.5h-141q-8 0 -16.5 8t-8.5 15l-45 405h-590l-233 -408q-12 -20 -33 -20h-162q-8 0 -11 6zM395 590h479l-77 704zM508 1634q-4 21 12 31l311 162q17 10 43 10h35 q21 0 41 -12l224 -164q8 -5 9 -14t-5 -17l-43 -59q-6 -8 -16.5 -10t-18.5 2l-232 129l-307 -127q-8 -2 -18 1.5t-11 10.5z" />
<glyph unicode="&#xc3;" horiz-adv-x="1310" d="M-136 6q-3 6 1 12l821 1397q15 19 35 19h205q8 0 16 -8t8 -15l174 -1388q0 -8 -6.5 -15.5t-13.5 -7.5h-141q-8 0 -16.5 8t-8.5 15l-45 405h-590l-233 -408q-12 -20 -33 -20h-162q-8 0 -11 6zM395 590h479l-77 704zM561 1612q58 221 209 221q34 0 62 -14t47 -33.5 t35 -39.5t33.5 -34t35.5 -14q63 0 88 104q1 10 10.5 16.5t18.5 6.5h59q7 0 13 -7.5t4 -15.5q-55 -223 -207 -223q-43 0 -76.5 21t-51.5 46.5t-42 46.5t-49 21q-60 0 -84 -102q-1 -10 -10.5 -16.5t-18.5 -6.5h-59q-7 0 -13 7.5t-4 15.5z" />
<glyph unicode="&#xc4;" horiz-adv-x="1310" d="M-136 6q-3 6 1 12l821 1397q15 19 35 19h205q8 0 16 -8t8 -15l174 -1388q0 -8 -6.5 -15.5t-13.5 -7.5h-141q-8 0 -16.5 8t-8.5 15l-45 405h-590l-233 -408q-12 -20 -33 -20h-162q-8 0 -11 6zM395 590h479l-77 704zM596 1614l39 160q1 7 10 14.5t17 7.5h122q8 0 14 -7.5 t5 -14.5l-39 -160q-2 -8 -11 -15.5t-16 -7.5h-123q-7 0 -13.5 7.5t-4.5 15.5zM922 1614l39 160q2 8 10.5 15t15.5 7h123q8 0 13.5 -7.5t4.5 -14.5l-38 -160q-2 -8 -11 -15.5t-16 -7.5h-123q-7 0 -13.5 7.5t-4.5 15.5z" />
<glyph unicode="&#xc5;" horiz-adv-x="1310" d="M-136 6q-3 6 1 12l821 1397q15 19 35 19h205q8 0 16 -8t8 -15l174 -1388q0 -8 -6.5 -15.5t-13.5 -7.5h-141q-8 0 -16.5 8t-8.5 15l-45 405h-590l-233 -408q-12 -20 -33 -20h-162q-8 0 -11 6zM395 590h479l-77 704zM666 1743q0 108 74 178t180 70q86 0 142 -51.5 t56 -129.5q0 -108 -73.5 -177.5t-176.5 -69.5q-88 0 -145 51t-57 129zM772 1747q0 -48 26.5 -76.5t73.5 -28.5q56 0 99 46.5t43 117.5q0 48 -28.5 75.5t-74.5 27.5q-56 0 -97.5 -45.5t-41.5 -116.5z" />
<glyph unicode="&#xc6;" horiz-adv-x="1804" d="M-141 6q-3 6 2 12l1022 1397q15 19 37 19h925q8 0 14 -8t5 -15l-25 -108q-2 -8 -11 -15.5t-16 -7.5h-581l-115 -438h543q7 0 13.5 -7.5t4.5 -15.5l-24 -108q-2 -8 -11 -15.5t-16 -7.5h-543l-116 -534h598q7 0 13.5 -7.5t4.5 -15.5l-24 -108q-2 -8 -11 -15.5t-16 -7.5 h-774q-7 0 -13 7.5t-4 15.5l101 405h-475l-297 -410q-11 -18 -35 -18h-166q-7 0 -10 6zM483 590h398l37 149l118 553h-47z" />
<glyph unicode="&#xc7;" horiz-adv-x="1425" d="M63 575q0 181 54 342t151 281.5t242 191t317 70.5q160 0 286 -60.5t201.5 -179.5t78.5 -280q0 -7 -7.5 -14.5t-15.5 -7.5h-143q-8 0 -15.5 7.5t-7.5 14.5q-6 163 -110 263t-281 100q-108 0 -199 -40t-155.5 -109t-110 -161t-67 -197t-21.5 -216q0 -212 112.5 -330.5 t305.5 -118.5q342 0 450 348q1 10 10.5 16.5t18.5 6.5h146q7 0 12.5 -7.5t3.5 -15.5q-74 -245 -238 -375.5t-403 -130.5q-276 0 -445.5 165.5t-169.5 436.5zM372 -311.5q-4 8.5 1 14.5l188 320q14 18 35 14l98 -14q7 -1 11 -9t2 -16l-170 -332q-4 -7 -14.5 -11.5t-18.5 -2.5 l-121 26q-7 2 -11 10.5z" />
<glyph unicode="&#xc8;" horiz-adv-x="1134" d="M-37 23l178 716l144 672q2 8 10.5 15.5t15.5 7.5h860q8 0 14 -8t5 -15l-27 -108q-2 -8 -10.5 -15.5t-15.5 -7.5h-682l-115 -438h643q7 0 13.5 -7.5t4.5 -15.5l-24 -108q-2 -8 -11 -15.5t-16 -7.5h-643l-117 -534h699q7 0 13.5 -7.5t4.5 -15.5l-24 -108q-2 -8 -11 -15.5 t-16 -7.5h-876q-7 0 -13 7.5t-4 15.5zM539 1747l43 108q2 8 11 11.5t17 -0.5l424 -207q17 -10 13 -31l-25 -55q-1 -7 -11 -10.5t-18 -1.5l-442 157q-7 1 -10.5 11t-1.5 18z" />
<glyph unicode="&#xc9;" horiz-adv-x="1134" d="M-37 23l178 716l144 672q2 8 10.5 15.5t15.5 7.5h860q8 0 14 -8t5 -15l-27 -108q-2 -8 -10.5 -15.5t-15.5 -7.5h-682l-115 -438h643q7 0 13.5 -7.5t4.5 -15.5l-24 -108q-2 -8 -11 -15.5t-16 -7.5h-643l-117 -534h699q7 0 13.5 -7.5t4.5 -15.5l-24 -108q-2 -8 -11 -15.5 t-16 -7.5h-876q-7 0 -13 7.5t-4 15.5zM578 1628q-2 8 2.5 18t11.5 11l479 209q8 2 17 -3t10 -12l28 -108q2 -8 -2.5 -18t-11.5 -11l-489 -155q-8 -2 -17 2.5t-10 11.5z" />
<glyph unicode="&#xca;" horiz-adv-x="1134" d="M-37 23l178 716l144 672q2 8 10.5 15.5t15.5 7.5h860q8 0 14 -8t5 -15l-27 -108q-2 -8 -10.5 -15.5t-15.5 -7.5h-682l-115 -438h643q7 0 13.5 -7.5t4.5 -15.5l-24 -108q-2 -8 -11 -15.5t-16 -7.5h-643l-117 -534h699q7 0 13.5 -7.5t4.5 -15.5l-24 -108q-2 -8 -11 -15.5 t-16 -7.5h-876q-7 0 -13 7.5t-4 15.5zM479 1634q-4 21 13 31l311 162q17 10 43 10h35q21 0 41 -12l223 -164q8 -5 9 -14t-5 -17l-43 -59q-6 -8 -16.5 -10t-18.5 2l-231 129l-308 -127q-8 -2 -17.5 1.5t-10.5 10.5z" />
<glyph unicode="&#xcb;" horiz-adv-x="1134" d="M-37 23l178 716l144 672q2 8 10.5 15.5t15.5 7.5h860q8 0 14 -8t5 -15l-27 -108q-2 -8 -10.5 -15.5t-15.5 -7.5h-682l-115 -438h643q7 0 13.5 -7.5t4.5 -15.5l-24 -108q-2 -8 -11 -15.5t-16 -7.5h-643l-117 -534h699q7 0 13.5 -7.5t4.5 -15.5l-24 -108q-2 -8 -11 -15.5 t-16 -7.5h-876q-7 0 -13 7.5t-4 15.5zM580 1614l38 160q1 7 10 14.5t17 7.5h123q8 0 13.5 -7.5t4.5 -14.5l-38 -160q-2 -8 -11 -15.5t-16 -7.5h-123q-7 0 -13.5 7.5t-4.5 15.5zM905 1614l39 160q1 7 10 14.5t17 7.5h123q8 0 13.5 -7.5t4.5 -14.5l-39 -160q-2 -8 -10.5 -15.5 t-15.5 -7.5h-123q-8 0 -14 8t-5 15z" />
<glyph unicode="&#xcc;" horiz-adv-x="475" d="M-27 23l174 706l148 682q2 8 11 15.5t16 7.5h153q7 0 13 -7.5t4 -15.5l-168 -682l-154 -706q-2 -8 -11 -15.5t-16 -7.5h-153q-7 0 -13 7.5t-4 15.5zM143 1747l43 108q2 8 11.5 11.5t17.5 -0.5l424 -207q16 -10 12 -31l-24 -55q-1 -7 -11 -10.5t-18 -1.5l-442 157 q-7 1 -11 11t-2 18z" />
<glyph unicode="&#xcd;" horiz-adv-x="475" d="M-27 23l174 706l148 682q2 8 11 15.5t16 7.5h153q7 0 13 -7.5t4 -15.5l-168 -682l-154 -706q-2 -8 -11 -15.5t-16 -7.5h-153q-7 0 -13 7.5t-4 15.5zM205 1628q-2 8 2.5 18t11.5 11l479 209q8 2 17 -3t10 -12l29 -108q2 -8 -3 -18t-12 -11l-489 -155q-8 -2 -17 2.5 t-10 11.5z" />
<glyph unicode="&#xce;" horiz-adv-x="475" d="M-27 23l174 706l148 682q2 8 11 15.5t16 7.5h153q7 0 13 -7.5t4 -15.5l-168 -682l-154 -706q-2 -8 -11 -15.5t-16 -7.5h-153q-7 0 -13 7.5t-4 15.5zM102 1634q-4 21 13 31l311 162q17 10 43 10h35q21 0 41 -12l223 -164q8 -5 9 -14t-5 -17l-43 -59q-6 -8 -16.5 -10 t-18.5 2l-231 129l-307 -127q-8 -2 -18 1.5t-11 10.5z" />
<glyph unicode="&#xcf;" horiz-adv-x="475" d="M-27 23l174 706l148 682q2 8 11 15.5t16 7.5h153q7 0 13 -7.5t4 -15.5l-168 -682l-154 -706q-2 -8 -11 -15.5t-16 -7.5h-153q-7 0 -13 7.5t-4 15.5zM190 1614l39 160q1 7 10 14.5t17 7.5h123q8 0 13.5 -7.5t4.5 -14.5l-39 -160q-2 -8 -10.5 -15.5t-15.5 -7.5h-123 q-8 0 -14 8t-5 15zM516 1614l39 160q1 7 10 14.5t17 7.5h123q8 0 13.5 -7.5t4.5 -14.5l-39 -160q-2 -8 -11 -15.5t-16 -7.5h-122q-8 0 -14 8t-5 15z" />
<glyph unicode="&#xd0;" horiz-adv-x="1417" d="M-25 23l162 655h-143q-8 0 -14 7.5t-5 14.5l25 111q2 8 11 15.5t16 7.5h145l125 577q2 8 11 15.5t16 7.5h411q142 0 262 -48t202.5 -133t121 -209t20.5 -270q-20 -191 -97 -341t-193.5 -243.5t-259 -141.5t-302.5 -48h-497q-7 0 -13 7.5t-4 15.5zM205 154h313 q86 0 167.5 21.5t158 69t137 116.5t103.5 170.5t59 224.5q36 238 -82 381t-326 143h-266q-74 -276 -115 -446h367q7 0 13.5 -7.5t4.5 -15.5l-26 -111q-1 -7 -10 -14.5t-17 -7.5h-367q-16 -77 -45 -208.5t-49 -223t-20 -92.5z" />
<glyph unicode="&#xd1;" horiz-adv-x="1417" d="M-37 23l174 704l150 684q2 8 10.5 15.5t15.5 7.5h164q8 0 19 -7t12 -14l491 -1169l27 127l98 450l138 590q2 8 10.5 15.5t15.5 7.5h139q7 0 13 -7.5t4 -15.5l-166 -684l-156 -704q-2 -8 -10.5 -15.5t-15.5 -7.5h-174q-8 0 -19 6.5t-12 13.5l-485 1151l-33 -153l-92 -420 l-134 -575q-2 -8 -10.5 -15.5t-15.5 -7.5h-141q-7 0 -13 7.5t-4 15.5zM629 1612q58 221 209 221q34 0 62 -14t47 -33.5t35 -39.5t33.5 -34t35.5 -14q63 0 88 104q1 10 10.5 16.5t17.5 6.5h60q7 0 12.5 -7.5t3.5 -15.5q-55 -223 -207 -223q-43 0 -76.5 21t-51.5 46.5 t-42 46.5t-49 21q-60 0 -84 -102q-1 -10 -10.5 -16.5t-17.5 -6.5h-60q-7 0 -12.5 7.5t-3.5 15.5z" />
<glyph unicode="&#xd2;" horiz-adv-x="1529" d="M63 557q0 147 37.5 284t109.5 248.5t169 195t223 129.5t266 46q271 0 435.5 -158t164.5 -423q0 -183 -60.5 -349t-166 -289t-256.5 -195.5t-323 -72.5q-275 0 -437 160t-162 424zM260 561q0 -197 110 -313.5t300 -116.5q176 0 314.5 100t212 266.5t73.5 368.5 q0 201 -111.5 319t-298.5 118q-136 0 -250.5 -60.5t-190 -162.5t-117.5 -236.5t-42 -282.5zM674 1747l43 108q2 8 11 11.5t17 -0.5l424 -207q17 -10 13 -31l-25 -55q-1 -7 -11 -10.5t-18 -1.5l-442 157q-7 1 -10.5 11t-1.5 18z" />
<glyph unicode="&#xd3;" horiz-adv-x="1529" d="M63 557q0 147 37.5 284t109.5 248.5t169 195t223 129.5t266 46q271 0 435.5 -158t164.5 -423q0 -183 -60.5 -349t-166 -289t-256.5 -195.5t-323 -72.5q-275 0 -437 160t-162 424zM260 561q0 -197 110 -313.5t300 -116.5q176 0 314.5 100t212 266.5t73.5 368.5 q0 201 -111.5 319t-298.5 118q-136 0 -250.5 -60.5t-190 -162.5t-117.5 -236.5t-42 -282.5zM705 1628q-2 8 2.5 18t11.5 11l479 209q8 2 17 -3t10 -12l28 -108q2 -8 -2.5 -18t-11.5 -11l-489 -155q-8 -2 -17 2.5t-10 11.5z" />
<glyph unicode="&#xd4;" horiz-adv-x="1529" d="M63 557q0 147 37.5 284t109.5 248.5t169 195t223 129.5t266 46q271 0 435.5 -158t164.5 -423q0 -183 -60.5 -349t-166 -289t-256.5 -195.5t-323 -72.5q-275 0 -437 160t-162 424zM260 561q0 -197 110 -313.5t300 -116.5q176 0 314.5 100t212 266.5t73.5 368.5 q0 201 -111.5 319t-298.5 118q-136 0 -250.5 -60.5t-190 -162.5t-117.5 -236.5t-42 -282.5zM596 1634q-4 21 12 31l312 162q17 10 43 10h34q21 0 41 -12l224 -164q8 -5 9 -14t-5 -17l-43 -59q-6 -8 -16.5 -10t-18.5 2l-232 129l-307 -127q-8 -2 -17.5 1.5t-10.5 10.5z" />
<glyph unicode="&#xd5;" horiz-adv-x="1529" d="M63 557q0 147 37.5 284t109.5 248.5t169 195t223 129.5t266 46q271 0 435.5 -158t164.5 -423q0 -183 -60.5 -349t-166 -289t-256.5 -195.5t-323 -72.5q-275 0 -437 160t-162 424zM260 561q0 -197 110 -313.5t300 -116.5q176 0 314.5 100t212 266.5t73.5 368.5 q0 201 -111.5 319t-298.5 118q-136 0 -250.5 -60.5t-190 -162.5t-117.5 -236.5t-42 -282.5zM662 1612q58 221 208 221q34 0 62 -14t47 -33.5t35 -39.5t33.5 -34t35.5 -14q63 0 88 104q1 10 10.5 16.5t18.5 6.5h60q7 0 12.5 -7.5t3.5 -15.5q-55 -223 -207 -223 q-43 0 -76.5 21t-51.5 46.5t-42 46.5t-49 21q-60 0 -84 -102q-1 -10 -10.5 -16.5t-18.5 -6.5h-59q-7 0 -12.5 7.5t-3.5 15.5z" />
<glyph unicode="&#xd6;" horiz-adv-x="1529" d="M63 557q0 147 37.5 284t109.5 248.5t169 195t223 129.5t266 46q271 0 435.5 -158t164.5 -423q0 -183 -60.5 -349t-166 -289t-256.5 -195.5t-323 -72.5q-275 0 -437 160t-162 424zM260 561q0 -197 110 -313.5t300 -116.5q176 0 314.5 100t212 266.5t73.5 368.5 q0 201 -111.5 319t-298.5 118q-136 0 -250.5 -60.5t-190 -162.5t-117.5 -236.5t-42 -282.5zM692 1614l39 160q1 7 10 14.5t17 7.5h123q8 0 13.5 -7.5t4.5 -14.5l-39 -160q-2 -8 -10.5 -15.5t-15.5 -7.5h-123q-8 0 -14 8t-5 15zM1018 1614l39 160q2 8 10.5 15t15.5 7h123 q8 0 14 -7.5t5 -14.5l-39 -160q-2 -8 -11 -15.5t-16 -7.5h-123q-7 0 -13.5 7.5t-4.5 15.5z" />
<glyph unicode="&#xd7;" horiz-adv-x="1044" d="M42 406.5q1 9.5 9 15.5l367 297l-209 270q-14 17 2 33l82 78q6 5 15.5 4t15.5 -8l215 -279l352 285q17 14 33 -2l63 -78q6 -6 5 -15.5t-9 -15.5l-356 -289l215 -280q13 -16 -2 -35l-78 -72q-6 -6 -15.5 -5.5t-15.5 7.5l-223 287l-365 -295q-18 -14 -32 4l-64 76 q-6 8 -5 17.5z" />
<glyph unicode="&#xd8;" horiz-adv-x="1529" d="M6.5 39q0.5 10 7.5 16l148 152q-99 145 -99 350q0 147 37.5 284t109.5 248.5t169 195t223 129.5t266 46q232 0 389 -119l158 160q6 6 15.5 6t15.5 -6l70 -84q6 -6 5 -16.5t-8 -16.5l-149 -153q104 -141 104 -352q0 -183 -60.5 -349t-166 -289t-256.5 -195.5t-323 -72.5 q-234 0 -396 123l-153 -159q-6 -6 -15.5 -6t-15.5 6l-70 86q-6 6 -5.5 16zM260 561q0 -127 47 -223l836 864q-104 101 -283 101q-136 0 -250.5 -60.5t-190 -162.5t-117.5 -236.5t-42 -282.5zM381 233q105 -102 289 -102q176 0 314.5 100t212 266.5t73.5 368.5q0 132 -51 234 z" />
<glyph unicode="&#xd9;" horiz-adv-x="1275" d="M68 543l106 446l90 422q2 8 11 15.5t16 7.5h158q7 0 12.5 -7.5t3.5 -15.5l-103 -418l-104 -450q-45 -191 20 -299.5t250 -108.5q327 0 422 408l105 446l92 422q2 8 11 15.5t16 7.5h141q7 0 12.5 -7.5t3.5 -15.5l-100 -422l-105 -446q-66 -280 -215.5 -425t-408.5 -145 q-261 0 -378.5 156.5t-55.5 413.5zM547 1747l43 108q2 8 11 11.5t17 -0.5l424 -207q17 -10 13 -31l-25 -55q-1 -7 -11 -10.5t-18 -1.5l-442 157q-7 1 -10.5 11t-1.5 18z" />
<glyph unicode="&#xda;" horiz-adv-x="1275" d="M68 543l106 446l90 422q2 8 11 15.5t16 7.5h158q7 0 12.5 -7.5t3.5 -15.5l-103 -418l-104 -450q-45 -191 20 -299.5t250 -108.5q327 0 422 408l105 446l92 422q2 8 11 15.5t16 7.5h141q7 0 12.5 -7.5t3.5 -15.5l-100 -422l-105 -446q-66 -280 -215.5 -425t-408.5 -145 q-261 0 -378.5 156.5t-55.5 413.5zM598 1628q-2 8 2.5 18t11.5 11l480 209q8 2 16.5 -3t9.5 -12l29 -108q2 -8 -2.5 -18t-11.5 -11l-490 -155q-8 -2 -17 2.5t-10 11.5z" />
<glyph unicode="&#xdb;" horiz-adv-x="1275" d="M68 543l106 446l90 422q2 8 11 15.5t16 7.5h158q7 0 12.5 -7.5t3.5 -15.5l-103 -418l-104 -450q-45 -191 20 -299.5t250 -108.5q327 0 422 408l105 446l92 422q2 8 11 15.5t16 7.5h141q7 0 12.5 -7.5t3.5 -15.5l-100 -422l-105 -446q-66 -280 -215.5 -425t-408.5 -145 q-261 0 -378.5 156.5t-55.5 413.5zM498 1634q-4 21 12 31l311 162q17 10 43 10h35q21 0 41 -12l223 -164q8 -5 9 -14t-5 -17l-43 -59q-6 -8 -16 -10t-18 2l-232 129l-307 -127q-8 -2 -18 1.5t-11 10.5z" />
<glyph unicode="&#xdc;" horiz-adv-x="1275" d="M68 543l106 446l90 422q2 8 11 15.5t16 7.5h158q7 0 12.5 -7.5t3.5 -15.5l-103 -418l-104 -450q-45 -191 20 -299.5t250 -108.5q327 0 422 408l105 446l92 422q2 8 11 15.5t16 7.5h141q7 0 12.5 -7.5t3.5 -15.5l-100 -422l-105 -446q-66 -280 -215.5 -425t-408.5 -145 q-261 0 -378.5 156.5t-55.5 413.5zM590 1614l39 160q2 8 10.5 15t15.5 7h123q8 0 14 -7.5t5 -14.5l-39 -160q-2 -8 -11 -15.5t-16 -7.5h-123q-7 0 -13.5 7.5t-4.5 15.5zM915 1614l39 160q1 7 10 14.5t17 7.5h123q8 0 13.5 -7.5t4.5 -14.5l-39 -160q-2 -8 -10.5 -15.5 t-15.5 -7.5h-123q-8 0 -14 8t-5 15z" />
<glyph unicode="&#xdd;" horiz-adv-x="1185" d="M195 1411q-2 8 3.5 15.5t12.5 7.5h158q8 0 17.5 -8t10.5 -15l191 -727l524 731q11 19 35 19h168q7 0 10 -6.5t-2 -12.5l-686 -915l-105 -477q-2 -8 -10.5 -15.5t-15.5 -7.5h-154q-7 0 -12.5 7.5t-3.5 15.5l119 481zM553 1628q-2 8 2.5 18t11.5 11l480 209q8 2 16.5 -3 t9.5 -12l29 -108q2 -8 -3 -18t-12 -11l-489 -155q-8 -2 -17 2.5t-10 11.5z" />
<glyph unicode="&#xde;" horiz-adv-x="1183" d="M-35 23l176 712l146 676q2 8 10.5 15.5t15.5 7.5h154q7 0 12.5 -7.5t3.5 -15.5l-59 -246h262q207 0 328 -99.5t121 -281.5q0 -230 -161 -367.5t-427 -137.5h-328l-55 -256q-2 -8 -11 -15.5t-16 -7.5h-155q-7 0 -13 7.5t-4 15.5zM252 430h330q151 0 260 86q104 85 104 248 q0 122 -71 186t-205 64h-283l-72 -295z" />
<glyph unicode="&#xdf;" d="M-37 20l111 453l127 549q53 227 185 331.5t321 104.5q187 3 301 -96q111 -102 90 -260q-15 -135 -113 -217q-102 -85 -221 -111q144 -29 210 -123t52 -233q-16 -134 -98.5 -230t-210.5 -143t-291 -47h-57q-8 0 -14 7.5t-5 14.5l23 103q2 8 10.5 15t15.5 7h58 q164 0 262.5 75.5t111.5 211.5q13 124 -57.5 193t-206.5 69h-39q-7 0 -13.5 7.5t-4.5 15.5l22 92q1 7 10 14.5t17 7.5h39q117 0 209 74q89 74 98 191q10 104 -46.5 161.5t-166.5 57.5q-241 0 -309 -297l-127 -545l-96 -453q-1 -7 -10 -14.5t-17 -7.5h-153q-7 0 -13 7t-4 15z " />
<glyph unicode="&#xe0;" d="M34.5 276.5q-27.5 134.5 10.5 313.5q23 99 66.5 184.5t106.5 153t150 106.5t187 39q123 0 208 -55.5t120 -159.5l37 174q2 8 10.5 15.5t15.5 7.5h146q7 0 12.5 -7.5t3.5 -15.5l-121 -495l-113 -514q-2 -8 -10.5 -15.5t-15.5 -7.5h-143q-7 0 -13 7.5t-4 15.5l31 118 q-132 -157 -332 -157q-139 0 -232 79t-120.5 213.5zM233 575q-48 -206 8.5 -330.5t209.5 -123.5q127 -2 219.5 91t136.5 273q49 204 -6 323.5t-193 127.5h-43q-125 -7 -210 -104t-122 -257zM373 1368l43 109q2 8 11 11t17 -1l424 -207q17 -10 13 -31l-25 -55 q-1 -7 -11 -10.5t-18 -1.5l-442 157q-7 1 -10.5 11t-1.5 18z" />
<glyph unicode="&#xe1;" d="M34.5 276.5q-27.5 134.5 10.5 313.5q23 99 66.5 184.5t106.5 153t150 106.5t187 39q123 0 208 -55.5t120 -159.5l37 174q2 8 10.5 15.5t15.5 7.5h146q7 0 12.5 -7.5t3.5 -15.5l-121 -495l-113 -514q-2 -8 -10.5 -15.5t-15.5 -7.5h-143q-7 0 -13 7.5t-4 15.5l31 118 q-132 -157 -332 -157q-139 0 -232 79t-120.5 213.5zM233 575q-48 -206 8.5 -330.5t209.5 -123.5q127 -2 219.5 91t136.5 273q49 204 -6 323.5t-193 127.5h-43q-125 -7 -210 -104t-122 -257zM416 1249q-2 8 2.5 18t11.5 11l479 209q8 2 17 -2.5t10 -11.5l29 -109q2 -8 -3 -18 t-12 -11l-489 -155q-8 -2 -17 2.5t-10 11.5z" />
<glyph unicode="&#xe2;" d="M34.5 276.5q-27.5 134.5 10.5 313.5q23 99 66.5 184.5t106.5 153t150 106.5t187 39q123 0 208 -55.5t120 -159.5l37 174q2 8 10.5 15.5t15.5 7.5h146q7 0 12.5 -7.5t3.5 -15.5l-121 -495l-113 -514q-2 -8 -10.5 -15.5t-15.5 -7.5h-143q-7 0 -13 7.5t-4 15.5l31 118 q-132 -157 -332 -157q-139 0 -232 79t-120.5 213.5zM233 575q-48 -206 8.5 -330.5t209.5 -123.5q127 -2 219.5 91t136.5 273q49 204 -6 323.5t-193 127.5h-43q-125 -7 -210 -104t-122 -257zM324 1255q-4 21 12 31l311 162q17 10 43 10h35q21 0 41 -12l223 -164q8 -5 9 -14 t-5 -17l-43 -59q-6 -8 -16.5 -10t-18.5 2l-231 129l-307 -127q-8 -2 -18 1.5t-11 10.5z" />
<glyph unicode="&#xe3;" d="M34.5 276.5q-27.5 134.5 10.5 313.5q23 99 66.5 184.5t106.5 153t150 106.5t187 39q123 0 208 -55.5t120 -159.5l37 174q2 8 10.5 15.5t15.5 7.5h146q7 0 12.5 -7.5t3.5 -15.5l-121 -495l-113 -514q-2 -8 -10.5 -15.5t-15.5 -7.5h-143q-7 0 -13 7.5t-4 15.5l31 118 q-132 -157 -332 -157q-139 0 -232 79t-120.5 213.5zM233 575q-48 -206 8.5 -330.5t209.5 -123.5q127 -2 219.5 91t136.5 273q49 204 -6 323.5t-193 127.5h-43q-125 -7 -210 -104t-122 -257zM385 1233q58 221 209 221q34 0 62 -14t47 -34t35 -39.5t33.5 -33.5t35.5 -14 q63 0 88 104q1 10 10.5 16.5t18.5 6.5h59q7 0 12.5 -7.5t3.5 -15.5q-55 -223 -206 -223q-35 0 -63.5 14t-47 34t-34.5 39.5t-35 33.5t-40 14q-60 0 -84 -102q-1 -10 -10.5 -16.5t-17.5 -6.5h-60q-7 0 -12.5 7.5t-3.5 15.5z" />
<glyph unicode="&#xe4;" d="M34.5 276.5q-27.5 134.5 10.5 313.5q23 99 66.5 184.5t106.5 153t150 106.5t187 39q123 0 208 -55.5t120 -159.5l37 174q2 8 10.5 15.5t15.5 7.5h146q7 0 12.5 -7.5t3.5 -15.5l-121 -495l-113 -514q-2 -8 -10.5 -15.5t-15.5 -7.5h-143q-7 0 -13 7.5t-4 15.5l31 118 q-132 -157 -332 -157q-139 0 -232 79t-120.5 213.5zM233 575q-48 -206 8.5 -330.5t209.5 -123.5q127 -2 219.5 91t136.5 273q49 204 -6 323.5t-193 127.5h-43q-125 -7 -210 -104t-122 -257zM418 1235l39 160q2 8 10.5 15t15.5 7h123q8 0 14 -7.5t5 -14.5l-39 -160 q-2 -8 -11 -15.5t-16 -7.5h-123q-7 0 -13.5 7.5t-4.5 15.5zM743 1235l39 160q1 7 10 14.5t17 7.5h123q8 0 13.5 -7.5t4.5 -14.5l-39 -160q-2 -8 -10.5 -15.5t-15.5 -7.5h-123q-8 0 -14 8t-5 15z" />
<glyph unicode="&#xe5;" d="M34.5 276.5q-27.5 134.5 10.5 313.5q23 99 66.5 184.5t106.5 153t150 106.5t187 39q123 0 208 -55.5t120 -159.5l37 174q2 8 10.5 15.5t15.5 7.5h146q7 0 12.5 -7.5t3.5 -15.5l-121 -495l-113 -514q-2 -8 -10.5 -15.5t-15.5 -7.5h-143q-7 0 -13 7.5t-4 15.5l31 118 q-132 -157 -332 -157q-139 0 -232 79t-120.5 213.5zM233 575q-48 -206 8.5 -330.5t209.5 -123.5q127 -2 219.5 91t136.5 273q49 204 -6 323.5t-193 127.5h-43q-125 -7 -210 -104t-122 -257zM479 1364q0 108 74 178t180 70q86 0 142.5 -51t56.5 -129q0 -108 -74 -178 t-176 -70q-88 0 -145.5 51t-57.5 129zM586 1368q0 -48 26.5 -76t73.5 -28q56 0 98.5 46t42.5 117q0 48 -28.5 75.5t-73.5 27.5q-56 0 -97.5 -45.5t-41.5 -116.5z" />
<glyph unicode="&#xe6;" horiz-adv-x="1910" d="M32.5 276.5q-27.5 134.5 10.5 313.5q23 99 66.5 184.5t106.5 153t150 106.5t187 39q127 0 211.5 -58t116.5 -167l39 184q2 8 10.5 15.5t15.5 7.5h113q7 0 12.5 -7.5t3.5 -15.5l-28 -110q148 155 364 155q144 0 244.5 -67t141 -194t5.5 -292q-2 -8 -10.5 -15t-15.5 -7 h-781q0 -3 -3 -30t-3 -42q0 -150 66.5 -232.5t199.5 -82.5q121 0 203.5 59.5t114.5 169.5q1 10 10.5 16.5t18.5 6.5h133q7 0 12.5 -7.5t3.5 -15.5q-47 -167 -171.5 -267t-319.5 -100q-144 0 -238.5 67.5t-130.5 186.5l-49 -208q-2 -8 -11 -15.5t-16 -7.5h-113 q-7 0 -12.5 7.5t-3.5 15.5l33 120q-134 -159 -334 -159q-139 0 -232 79t-120.5 213.5zM231 575q-48 -206 8.5 -330t209.5 -124q127 0 220 92t136 272q50 213 -9.5 332t-209.5 119q-133 0 -225 -98t-130 -263zM1018 633h608q27 125 -41 217q-71 92 -211 92q-133 0 -225 -86 t-131 -223z" />
<glyph unicode="&#xe7;" horiz-adv-x="1091" d="M18 420q0 182 74 332t210 237.5t306 87.5q185 0 294 -98.5t108 -273.5q0 -7 -8 -15t-15 -8h-131q-7 0 -14.5 7.5t-7.5 15.5q0 111 -64 172t-176 61q-121 0 -211.5 -74.5t-134 -193t-43.5 -260.5q0 -141 66 -218t194 -77q112 0 194.5 67t114.5 183q1 10 10.5 16t18.5 6 h133q7 0 12.5 -7t3.5 -15q-53 -175 -182.5 -281.5t-318.5 -106.5q-197 0 -315 120.5t-118 322.5zM163 -311.5q-3 8.5 1 14.5l188 320q14 18 35 14l98 -14q7 -1 11 -9t2 -16l-170 -332q-4 -7 -14.5 -11.5t-18.5 -2.5l-121 26q-8 2 -11 10.5z" />
<glyph unicode="&#xe8;" horiz-adv-x="1130" d="M18 428q0 94 22.5 185.5t70.5 175.5t116 148t165 102t210 38q227 0 346 -149q118 -151 66 -404q-1 -7 -10 -14.5t-17 -7.5h-782q-4 -50 -4 -72q0 -150 66.5 -232.5t199.5 -82.5q245 0 317 229q1 10 10.5 16.5t18.5 6.5h133q7 0 13 -7.5t4 -15.5q-47 -167 -174 -267 t-328 -100q-215 0 -329 124.5t-114 326.5zM229 633h609q24 126 -43 217q-68 92 -209 92q-129 0 -223 -86.5t-134 -222.5zM381 1368l43 109q2 8 11.5 11t17.5 -1l424 -207q16 -10 12 -31l-25 -55q-1 -7 -10.5 -10.5t-17.5 -1.5l-443 157q-7 1 -10.5 11t-1.5 18z" />
<glyph unicode="&#xe9;" horiz-adv-x="1130" d="M18 428q0 94 22.5 185.5t70.5 175.5t116 148t165 102t210 38q227 0 346 -149q118 -151 66 -404q-1 -7 -10 -14.5t-17 -7.5h-782q-4 -50 -4 -72q0 -150 66.5 -232.5t199.5 -82.5q245 0 317 229q1 10 10.5 16.5t18.5 6.5h133q7 0 13 -7.5t4 -15.5q-47 -167 -174 -267 t-328 -100q-215 0 -329 124.5t-114 326.5zM229 633h609q24 126 -43 217q-68 92 -209 92q-129 0 -223 -86.5t-134 -222.5zM418 1249q-2 8 2.5 18t11.5 11l479 209q8 2 17 -2.5t10 -11.5l29 -109q2 -8 -3 -18t-12 -11l-489 -155q-8 -2 -17 2.5t-10 11.5z" />
<glyph unicode="&#xea;" horiz-adv-x="1130" d="M18 428q0 94 22.5 185.5t70.5 175.5t116 148t165 102t210 38q227 0 346 -149q118 -151 66 -404q-1 -7 -10 -14.5t-17 -7.5h-782q-4 -50 -4 -72q0 -150 66.5 -232.5t199.5 -82.5q245 0 317 229q1 10 10.5 16.5t18.5 6.5h133q7 0 13 -7.5t4 -15.5q-47 -167 -174 -267 t-328 -100q-215 0 -329 124.5t-114 326.5zM229 633h609q24 126 -43 217q-68 92 -209 92q-129 0 -223 -86.5t-134 -222.5zM324 1255q-4 21 12 31l311 162q17 10 43 10h35q21 0 41 -12l223 -164q8 -5 9 -14t-5 -17l-43 -59q-6 -8 -16.5 -10t-18.5 2l-231 129l-307 -127 q-8 -2 -18 1.5t-11 10.5z" />
<glyph unicode="&#xeb;" horiz-adv-x="1130" d="M18 428q0 94 22.5 185.5t70.5 175.5t116 148t165 102t210 38q227 0 346 -149q118 -151 66 -404q-1 -7 -10 -14.5t-17 -7.5h-782q-4 -50 -4 -72q0 -150 66.5 -232.5t199.5 -82.5q245 0 317 229q1 10 10.5 16.5t18.5 6.5h133q7 0 13 -7.5t4 -15.5q-47 -167 -174 -267 t-328 -100q-215 0 -329 124.5t-114 326.5zM229 633h609q24 126 -43 217q-68 92 -209 92q-129 0 -223 -86.5t-134 -222.5zM412 1235l39 160q2 8 10.5 15t15.5 7h123q8 0 13.5 -7.5t4.5 -14.5l-38 -160q-2 -8 -11 -15.5t-16 -7.5h-123q-7 0 -13.5 7.5t-4.5 15.5zM737 1235 l39 160q1 7 10 14.5t17 7.5h123q8 0 13.5 -7.5t4.5 -14.5l-39 -160q-2 -8 -10.5 -15.5t-15.5 -7.5h-123q-8 0 -14 8t-5 15z" />
<glyph unicode="&#xec;" horiz-adv-x="442" d="M-41 23l127 520l107 489q2 8 10.5 15.5t15.5 7.5h150q7 0 12.5 -7.5t3.5 -15.5l-119 -487l-114 -522q-2 -8 -11 -15.5t-16 -7.5h-150q-7 0 -12.5 7.5t-3.5 15.5zM41 1368l43 109q2 8 11.5 11t17.5 -1l424 -207q16 -10 12 -31l-25 -55q-1 -7 -10.5 -10.5t-17.5 -1.5 l-443 157q-7 1 -10.5 11t-1.5 18z" />
<glyph unicode="&#xed;" horiz-adv-x="442" d="M-41 23l127 520l107 489q2 8 10.5 15.5t15.5 7.5h150q7 0 12.5 -7.5t3.5 -15.5l-119 -487l-114 -522q-2 -8 -11 -15.5t-16 -7.5h-150q-7 0 -12.5 7.5t-3.5 15.5zM90 1249q-2 8 2.5 18t11.5 11l480 209q8 2 16.5 -2.5t9.5 -11.5l29 -109q2 -8 -2.5 -18t-11.5 -11 l-490 -155q-8 -2 -16.5 2.5t-9.5 11.5z" />
<glyph unicode="&#xee;" horiz-adv-x="442" d="M-41 23l127 520l107 489q2 8 10.5 15.5t15.5 7.5h150q7 0 12.5 -7.5t3.5 -15.5l-119 -487l-114 -522q-2 -8 -11 -15.5t-16 -7.5h-150q-7 0 -12.5 7.5t-3.5 15.5zM-2 1255q-4 21 12 31l312 162q17 10 43 10h34q21 0 41 -12l224 -164q8 -5 9 -14t-5 -17l-43 -59 q-6 -8 -16.5 -10t-18.5 2l-232 129l-307 -127q-8 -2 -17.5 1.5t-10.5 10.5z" />
<glyph unicode="&#xef;" horiz-adv-x="442" d="M-41 23l127 520l107 489q2 8 10.5 15.5t15.5 7.5h150q7 0 12.5 -7.5t3.5 -15.5l-119 -487l-114 -522q-2 -8 -11 -15.5t-16 -7.5h-150q-7 0 -12.5 7.5t-3.5 15.5zM86 1235l39 160q1 7 10 14.5t17 7.5h122q8 0 14 -7.5t5 -14.5l-39 -160q-2 -8 -11 -15.5t-16 -7.5h-123 q-7 0 -13.5 7.5t-4.5 15.5zM412 1235l39 160q2 8 10.5 15t15.5 7h123q8 0 13.5 -7.5t4.5 -14.5l-38 -160q-2 -8 -11 -15.5t-16 -7.5h-123q-7 0 -13.5 7.5t-4.5 15.5z" />
<glyph unicode="&#xf0;" horiz-adv-x="1167" d="M12 401q0 102 39.5 198.5t107.5 170t166 118t207 44.5q134 0 232 -64.5t135 -175.5q44 211 -82 412l-299 -100q-8 -2 -16.5 3.5t-9.5 12.5l-17 76q-2 8 2.5 17.5t11.5 10.5l246 82q-87 93 -217 158q-17 10 -6 29l66 77q17 17 34 7q173 -83 293 -215l271 90q7 1 14.5 -4 t9.5 -13l19 -75q2 -8 -4 -18t-13 -11l-219 -74q102 -164 102 -377q0 -122 -26.5 -239.5t-79.5 -219.5t-126 -179.5t-173 -122t-213 -44.5q-199 0 -327 117t-128 309zM205 393q0 -135 74.5 -207.5t189.5 -72.5q79 0 147.5 35t114 92.5t71 128.5t25.5 145q0 127 -72.5 202 t-187.5 75q-98 0 -182 -55t-132 -146.5t-48 -196.5z" />
<glyph unicode="&#xf1;" horiz-adv-x="1110" d="M-49 23l115 458l120 551q2 8 11 15.5t16 7.5h137q7 0 13 -7.5t4 -15.5l-41 -155q65 89 160 145.5t204 56.5q169 0 251.5 -110.5t39.5 -306.5l-49 -211l-94 -428q-2 -8 -11 -15.5t-16 -7.5h-143q-7 0 -13 7.5t-4 15.5l103 428l47 202q31 131 -20.5 204t-159.5 73 q-102 0 -194 -83.5t-151 -236.5l-38 -159l-97 -428q-2 -8 -10.5 -15.5t-15.5 -7.5h-148q-7 0 -12.5 7.5t-3.5 15.5zM391 1233q58 221 209 221q34 0 62 -14t47 -34t35 -39.5t33.5 -33.5t35.5 -14q63 0 88 104q1 10 10.5 16.5t18.5 6.5h59q7 0 13 -7.5t4 -15.5 q-55 -223 -207 -223q-43 0 -76.5 21t-51.5 46.5t-42 46.5t-49 21q-60 0 -84 -102q-1 -10 -10.5 -16.5t-18.5 -6.5h-59q-7 0 -13 7.5t-4 15.5z" />
<glyph unicode="&#xf2;" horiz-adv-x="1148" d="M18 422q0 182 73.5 331.5t207.5 236.5t303 87q199 0 320 -121q120 -120 120 -323q0 -177 -73.5 -327t-207.5 -239.5t-300 -89.5q-199 0 -320 121q-123 120 -123 324zM205 410q0 -141 67.5 -218t194.5 -77q175 0 281 148t106 378q0 141 -68.5 221t-191.5 80 q-117 0 -206 -70t-136 -190.5t-47 -271.5zM389 1368l43 109q2 8 11.5 11t17.5 -1l424 -207q16 -10 12 -31l-25 -55q-1 -7 -10.5 -10.5t-17.5 -1.5l-443 157q-7 1 -10.5 11t-1.5 18z" />
<glyph unicode="&#xf3;" horiz-adv-x="1148" d="M18 422q0 182 73.5 331.5t207.5 236.5t303 87q199 0 320 -121q120 -120 120 -323q0 -177 -73.5 -327t-207.5 -239.5t-300 -89.5q-199 0 -320 121q-123 120 -123 324zM205 410q0 -141 67.5 -218t194.5 -77q175 0 281 148t106 378q0 141 -68.5 221t-191.5 80 q-117 0 -206 -70t-136 -190.5t-47 -271.5zM434 1249q-2 8 3 18t12 11l479 209q8 2 16.5 -2.5t9.5 -11.5l29 -109q2 -8 -2.5 -18t-11.5 -11l-490 -155q-8 -2 -16.5 2.5t-9.5 11.5z" />
<glyph unicode="&#xf4;" horiz-adv-x="1148" d="M18 422q0 182 73.5 331.5t207.5 236.5t303 87q199 0 320 -121q120 -120 120 -323q0 -177 -73.5 -327t-207.5 -239.5t-300 -89.5q-199 0 -320 121q-123 120 -123 324zM205 410q0 -141 67.5 -218t194.5 -77q175 0 281 148t106 378q0 141 -68.5 221t-191.5 80 q-117 0 -206 -70t-136 -190.5t-47 -271.5zM317 1255q-4 21 13 31l311 162q17 10 43 10h35q21 0 41 -12l223 -164q8 -5 9 -14t-5 -17l-43 -59q-6 -8 -16.5 -10t-18.5 2l-231 129l-307 -127q-8 -2 -18 1.5t-11 10.5z" />
<glyph unicode="&#xf5;" horiz-adv-x="1148" d="M18 422q0 182 73.5 331.5t207.5 236.5t303 87q199 0 320 -121q120 -120 120 -323q0 -177 -73.5 -327t-207.5 -239.5t-300 -89.5q-199 0 -320 121q-123 120 -123 324zM205 410q0 -141 67.5 -218t194.5 -77q175 0 281 148t106 378q0 141 -68.5 221t-191.5 80 q-117 0 -206 -70t-136 -190.5t-47 -271.5zM399 1233q58 221 209 221q34 0 62 -14t47 -34t35 -39.5t33.5 -33.5t35.5 -14q63 0 88 104q1 10 10.5 16.5t18.5 6.5h59q7 0 13 -7.5t4 -15.5q-55 -223 -207 -223q-43 0 -76.5 21t-51.5 46.5t-42 46.5t-49 21q-60 0 -84 -102 q-1 -10 -10.5 -16.5t-18.5 -6.5h-59q-7 0 -13 7.5t-4 15.5z" />
<glyph unicode="&#xf6;" horiz-adv-x="1148" d="M18 422q0 182 73.5 331.5t207.5 236.5t303 87q199 0 320 -121q120 -120 120 -323q0 -177 -73.5 -327t-207.5 -239.5t-300 -89.5q-199 0 -320 121q-123 120 -123 324zM205 410q0 -141 67.5 -218t194.5 -77q175 0 281 148t106 378q0 141 -68.5 221t-191.5 80 q-117 0 -206 -70t-136 -190.5t-47 -271.5zM428 1235l39 160q1 7 10 14.5t17 7.5h122q8 0 14 -7.5t5 -14.5l-39 -160q-2 -8 -11 -15.5t-16 -7.5h-123q-7 0 -13.5 7.5t-4.5 15.5zM754 1235l39 160q2 8 10.5 15t15.5 7h123q8 0 14 -7.5t5 -14.5l-39 -160q-2 -8 -11 -15.5 t-16 -7.5h-123q-7 0 -13.5 7.5t-4.5 15.5z" />
<glyph unicode="&#xf7;" horiz-adv-x="1044" d="M49 651l27 109q2 8 10.5 15t15.5 7h877q8 0 13.5 -7.5t4.5 -14.5l-26 -109q-1 -7 -10 -14.5t-17 -7.5h-876q-8 0 -14 7.5t-5 14.5zM299 195l39 170q1 7 10 14.5t17 7.5h161q8 0 14 -7.5t5 -14.5l-39 -170q-2 -8 -11 -15.5t-16 -7.5h-162q-7 0 -13.5 7.5t-4.5 15.5z M496 1051l39 170q2 8 10.5 15t15.5 7h162q8 0 13.5 -7.5t4.5 -14.5l-39 -170q-2 -8 -10.5 -15.5t-15.5 -7.5h-162q-7 0 -13.5 7.5t-4.5 15.5z" />
<glyph unicode="&#xf8;" horiz-adv-x="1148" d="M-9.5 14.5q0.5 10.5 7.5 16.5l102 110q-84 119 -84 281q0 182 73.5 331.5t207.5 236.5t303 87q172 0 293 -94l2 2l125 133q6 6 15.5 6t15.5 -6l49 -59q6 -6 5.5 -16.5t-7.5 -16.5l-125 -135q67 -106 67 -258q0 -177 -73.5 -327t-207.5 -239.5t-300 -89.5q-155 0 -273 78 l-108 -114q-6 -6 -15.5 -6t-15.5 6l-51 57q-6 6 -5.5 16.5zM203 410q0 -86 24 -148l561 596q-66 84 -196 84q-117 0 -206 -70t-136 -190.5t-47 -271.5zM287 176q64 -61 178 -61q175 0 281 148t106 378q0 65 -16 121z" />
<glyph unicode="&#xf9;" horiz-adv-x="1110" d="M39 395l47 209l94 428q2 8 11 15.5t16 7.5h145q7 0 13 -7.5t4 -15.5l-105 -428l-45 -203q-31 -132 19.5 -204t158.5 -72q102 0 193.5 83t150.5 236l39 160l97 428q2 8 10.5 15.5t15.5 7.5h148q7 0 12.5 -7.5t3.5 -15.5l-113 -459l-123 -550q-2 -8 -10.5 -15.5t-15.5 -7.5 h-137q-7 0 -13 7.5t-4 15.5l41 157q-65 -89 -160.5 -147t-201.5 -58q-164 0 -250 109q-88 107 -41 311zM369 1368l43 109q2 8 11 11t17 -1l424 -207q17 -10 13 -31l-25 -55q-1 -7 -11 -10.5t-18 -1.5l-442 157q-7 1 -10.5 11t-1.5 18z" />
<glyph unicode="&#xfa;" horiz-adv-x="1110" d="M39 395l47 209l94 428q2 8 11 15.5t16 7.5h145q7 0 13 -7.5t4 -15.5l-105 -428l-45 -203q-31 -132 19.5 -204t158.5 -72q102 0 193.5 83t150.5 236l39 160l97 428q2 8 10.5 15.5t15.5 7.5h148q7 0 12.5 -7.5t3.5 -15.5l-113 -459l-123 -550q-2 -8 -10.5 -15.5t-15.5 -7.5 h-137q-7 0 -13 7.5t-4 15.5l41 157q-65 -89 -160.5 -147t-201.5 -58q-164 0 -250 109q-88 107 -41 311zM422 1249q-2 8 2.5 18t11.5 11l479 209q8 2 17 -2.5t10 -11.5l29 -109q2 -8 -3 -18t-12 -11l-489 -155q-8 -2 -17 2.5t-10 11.5z" />
<glyph unicode="&#xfb;" horiz-adv-x="1110" d="M39 395l47 209l94 428q2 8 11 15.5t16 7.5h145q7 0 13 -7.5t4 -15.5l-105 -428l-45 -203q-31 -132 19.5 -204t158.5 -72q102 0 193.5 83t150.5 236l39 160l97 428q2 8 10.5 15.5t15.5 7.5h148q7 0 12.5 -7.5t3.5 -15.5l-113 -459l-123 -550q-2 -8 -10.5 -15.5t-15.5 -7.5 h-137q-7 0 -13 7.5t-4 15.5l41 157q-65 -89 -160.5 -147t-201.5 -58q-164 0 -250 109q-88 107 -41 311zM328 1255q-4 21 12 31l311 162q17 10 43 10h35q21 0 41 -12l223 -164q8 -5 9 -14t-5 -17l-43 -59q-6 -8 -16 -10t-18 2l-232 129l-307 -127q-8 -2 -18 1.5t-11 10.5z " />
<glyph unicode="&#xfc;" horiz-adv-x="1110" d="M39 395l47 209l94 428q2 8 11 15.5t16 7.5h145q7 0 13 -7.5t4 -15.5l-105 -428l-45 -203q-31 -132 19.5 -204t158.5 -72q102 0 193.5 83t150.5 236l39 160l97 428q2 8 10.5 15.5t15.5 7.5h148q7 0 12.5 -7.5t3.5 -15.5l-113 -459l-123 -550q-2 -8 -10.5 -15.5t-15.5 -7.5 h-137q-7 0 -13 7.5t-4 15.5l41 157q-65 -89 -160.5 -147t-201.5 -58q-164 0 -250 109q-88 107 -41 311zM416 1235l39 160q2 8 10.5 15t15.5 7h123q8 0 14 -7.5t5 -14.5l-39 -160q-2 -8 -11 -15.5t-16 -7.5h-123q-7 0 -13.5 7.5t-4.5 15.5zM741 1235l39 160q1 7 10 14.5 t17 7.5h123q8 0 13.5 -7.5t4.5 -14.5l-39 -160q-2 -8 -10.5 -15.5t-15.5 -7.5h-123q-8 0 -14 8t-5 15z" />
<glyph unicode="&#xfd;" horiz-adv-x="993" d="M66 -328l198 346l-170 1014q-1 7 5 15t14 8h145q7 0 16 -7.5t11 -15.5l112 -799l447 801q13 21 33 21h157q8 0 11 -6.5t-1 -14.5l-786 -1362q-16 -20 -35 -20h-145q-16 0 -12 20zM373 1249q-2 8 2.5 18t11.5 11l479 209q8 2 17 -2.5t10 -11.5l29 -109q2 -8 -3 -18 t-12 -11l-489 -155q-8 -2 -17 2.5t-10 11.5z" />
<glyph unicode="&#xfe;" d="M-129 -326l205 852l196 885q2 8 11 15.5t16 7.5h145q7 0 13 -7.5t4 -15.5l-121 -489q136 153 322 153q195 0 294.5 -150t67.5 -393q-8 -83 -32.5 -161.5t-68 -149.5t-101 -124.5t-136.5 -85t-170 -31.5q-123 0 -209 59.5t-123 169.5l-121 -535q-2 -8 -10.5 -15t-15.5 -7 h-150q-7 0 -12.5 7t-3.5 15zM246 500q-20 -182 43.5 -282.5t193.5 -100.5q152 0 244.5 123t110.5 313q23 179 -40 283t-198 104q-97 0 -175 -61.5t-122.5 -160t-56.5 -218.5z" />
<glyph unicode="&#xff;" horiz-adv-x="993" d="M66 -328l198 346l-170 1014q-1 7 5 15t14 8h145q7 0 16 -7.5t11 -15.5l112 -799l447 801q13 21 33 21h157q8 0 11 -6.5t-1 -14.5l-786 -1362q-16 -20 -35 -20h-145q-16 0 -12 20zM352 1235l39 160q1 7 10 14.5t17 7.5h123q8 0 13.5 -7.5t4.5 -14.5l-39 -160 q-2 -8 -10.5 -15.5t-15.5 -7.5h-123q-8 0 -14 8t-5 15zM678 1235l39 160q2 8 10.5 15t15.5 7h123q8 0 14 -7.5t5 -14.5l-39 -160q-2 -8 -11 -15.5t-16 -7.5h-123q-7 0 -13.5 7.5t-4.5 15.5z" />
<glyph unicode="&#x152;" horiz-adv-x="2105" d="M98 659q16 151 70 278t134.5 218t184.5 154.5t221.5 94t243.5 30.5h1202q8 0 14 -8t5 -15l-25 -108q-2 -8 -10.5 -15.5t-15.5 -7.5h-686l-109 -438h641q8 0 14 -8t5 -15l-27 -108q-2 -8 -11 -15.5t-16 -7.5h-641l-92 -397l-29 -137h701q7 0 13.5 -7.5t4.5 -15.5l-24 -108 q-2 -8 -11 -15.5t-16 -7.5h-1132q-142 0 -261.5 45.5t-203.5 128.5t-123 208t-21 277zM299 678q-18 -124 6.5 -225t81.5 -165.5t138.5 -99t179.5 -34.5h268l28 107q28 107 62 241.5t47 191.5q10 46 43.5 202t58 269.5t25.5 114.5h-313q-86 0 -167.5 -21.5t-158 -69 t-137 -116.5t-103.5 -170.5t-59 -224.5z" />
<glyph unicode="&#x153;" horiz-adv-x="1941" d="M18 422q0 182 73.5 331.5t207.5 236.5t303 87q129 0 228.5 -56t154.5 -157q73 99 183 156t251 57q231 0 347 -151.5t63 -401.5q-1 -7 -10 -14.5t-17 -7.5h-770q-4 -50 -4 -72q0 -315 256 -315q121 0 201.5 59t116.5 170q1 10 10.5 16.5t17.5 6.5h133q7 0 13 -7.5t4 -15.5 q-47 -167 -174.5 -267t-329.5 -100q-138 0 -236 57.5t-147 158.5q-77 -101 -189 -158.5t-243 -57.5q-199 0 -320 121q-123 120 -123 324zM205 410q0 -141 67.5 -218t194.5 -77q171 0 276 148t105 378q0 142 -66 221.5t-188 79.5q-117 0 -206 -70t-136 -190.5t-47 -271.5z M1057 633h598q24 126 -43 217q-71 92 -211 92q-127 0 -216 -86t-128 -223z" />
<glyph unicode="&#x178;" horiz-adv-x="1185" d="M195 1411q-2 8 3.5 15.5t12.5 7.5h158q8 0 17.5 -8t10.5 -15l191 -727l524 731q11 19 35 19h168q7 0 10 -6.5t-2 -12.5l-686 -915l-105 -477q-2 -8 -10.5 -15.5t-15.5 -7.5h-154q-7 0 -12.5 7.5t-3.5 15.5l119 481zM547 1614l39 160q2 8 10.5 15t15.5 7h123q8 0 14 -7.5 t5 -14.5l-39 -160q-2 -8 -11 -15.5t-16 -7.5h-123q-7 0 -13.5 7.5t-4.5 15.5zM872 1614l39 160q1 7 10 14.5t17 7.5h123q8 0 13.5 -7.5t4.5 -14.5l-39 -160q-2 -8 -10.5 -15.5t-15.5 -7.5h-123q-8 0 -14 8t-5 15z" />
<glyph unicode="&#x2c6;" horiz-adv-x="1024" d="M289 1255q-4 21 12 31l311 162q17 10 43 10h35q21 0 41 -12l223 -164q8 -5 9 -14t-5 -17l-43 -59q-6 -8 -16 -10t-18 2l-232 129l-307 -127q-8 -2 -18 1.5t-11 10.5z" />
<glyph unicode="&#x2dc;" horiz-adv-x="1024" d="M342 1233q58 221 209 221q34 0 62 -14t47 -34t35 -39.5t33.5 -33.5t35.5 -14q63 0 88 104q1 10 10.5 16.5t18.5 6.5h59q7 0 12.5 -7.5t3.5 -15.5q-55 -223 -206 -223q-35 0 -63.5 14t-47 34t-34.5 39.5t-35 33.5t-40 14q-60 0 -84 -102q-1 -10 -10.5 -16.5t-17.5 -6.5 h-60q-7 0 -12.5 7.5t-3.5 15.5z" />
<glyph unicode="&#x2000;" horiz-adv-x="995" />
<glyph unicode="&#x2001;" horiz-adv-x="1991" />
<glyph unicode="&#x2002;" horiz-adv-x="995" />
<glyph unicode="&#x2003;" horiz-adv-x="1991" />
<glyph unicode="&#x2004;" horiz-adv-x="663" />
<glyph unicode="&#x2005;" horiz-adv-x="497" />
<glyph unicode="&#x2006;" horiz-adv-x="331" />
<glyph unicode="&#x2007;" horiz-adv-x="331" />
<glyph unicode="&#x2008;" horiz-adv-x="248" />
<glyph unicode="&#x2009;" horiz-adv-x="398" />
<glyph unicode="&#x200a;" horiz-adv-x="110" />
<glyph unicode="&#x2010;" horiz-adv-x="565" d="M14 539l23 100q2 8 10.5 15.5t15.5 7.5h416q8 0 14 -8t5 -15l-25 -100q-2 -8 -11 -15.5t-16 -7.5h-413q-8 0 -14 8t-5 15z" />
<glyph unicode="&#x2011;" horiz-adv-x="565" d="M14 539l23 100q2 8 10.5 15.5t15.5 7.5h416q8 0 14 -8t5 -15l-25 -100q-2 -8 -11 -15.5t-16 -7.5h-413q-8 0 -14 8t-5 15z" />
<glyph unicode="&#x2012;" horiz-adv-x="565" d="M14 539l23 100q2 8 10.5 15.5t15.5 7.5h416q8 0 14 -8t5 -15l-25 -100q-2 -8 -11 -15.5t-16 -7.5h-413q-8 0 -14 8t-5 15z" />
<glyph unicode="&#x2013;" horiz-adv-x="841" d="M16 557l25 100q2 8 11 15.5t16 7.5h690q7 0 13.5 -7.5t4.5 -15.5l-22 -100q-1 -7 -10 -14.5t-17 -7.5h-692q-8 0 -14 7.5t-5 14.5z" />
<glyph unicode="&#x2014;" horiz-adv-x="1251" d="M16 557l25 100q2 8 11 15.5t16 7.5h1099q8 0 14 -8t5 -15l-23 -100q-2 -8 -10.5 -15t-15.5 -7h-1102q-8 0 -14 7.5t-5 14.5z" />
<glyph unicode="&#x2018;" horiz-adv-x="360" d="M152 1040l38 164q3 19 19 39l153 174q14 17 37 17h60q16 0 12 -21l-92 -184l-43 -189q-1 -7 -10 -14.5t-17 -7.5h-139q-8 0 -13.5 7.5t-4.5 14.5z" />
<glyph unicode="&#x2019;" horiz-adv-x="360" d="M133 1038l90 185l43 188q2 8 11 15.5t16 7.5h139q8 0 14 -8t5 -15l-37 -164q-3 -19 -19 -39l-153 -174q-13 -16 -37 -16h-60q-16 0 -12 20z" />
<glyph unicode="&#x201a;" horiz-adv-x="366" d="M-164 -180l90 184l43 189q1 7 10 14.5t17 7.5h139q8 0 14 -7.5t5 -14.5l-37 -164q-3 -19 -19 -39l-153 -174q-14 -17 -37 -17h-60q-16 0 -12 21z" />
<glyph unicode="&#x201c;" horiz-adv-x="657" d="M145 1040l37 164q3 19 19 39l153 174q14 17 37 17h60q16 0 12 -21l-90 -184l-43 -189q-1 -7 -10 -14.5t-17 -7.5h-139q-8 0 -14 7.5t-5 14.5zM442 1040l37 164q3 19 19 39l153 174q14 17 37 17h60q16 0 12 -21l-90 -184l-43 -189q-1 -7 -10 -14.5t-17 -7.5h-139 q-8 0 -14 7.5t-5 14.5z" />
<glyph unicode="&#x201d;" horiz-adv-x="657" d="M133 1038l90 185l43 188q2 8 11 15.5t16 7.5h139q8 0 14 -8t5 -15l-37 -164q-3 -19 -19 -39l-153 -174q-13 -16 -37 -16h-60q-16 0 -12 20zM430 1038l90 185l43 188q2 8 11 15.5t16 7.5h139q8 0 14 -8t5 -15l-37 -164q-3 -19 -19 -39l-153 -174q-13 -16 -37 -16h-60 q-16 0 -12 20z" />
<glyph unicode="&#x201e;" horiz-adv-x="647" d="M-16 -180l90 184l43 189q2 8 10.5 15t15.5 7h140q8 0 13.5 -7.5t4.5 -14.5l-37 -164q-3 -20 -18 -39l-154 -174q-14 -17 -37 -17h-59q-16 0 -12 21zM281 -180l90 184l43 189q2 8 10.5 15t15.5 7h140q8 0 13.5 -7.5t4.5 -14.5l-37 -164q-3 -20 -18 -39l-154 -174 q-14 -17 -37 -17h-59q-16 0 -12 21z" />
<glyph unicode="&#x2022;" horiz-adv-x="544" d="M4 418l90 391q1 7 10 14.5t17 7.5h356q8 0 14 -7.5t5 -14.5l-90 -391q-2 -8 -11 -15.5t-16 -7.5h-356q-8 0 -14 8t-5 15z" />
<glyph unicode="&#x2026;" horiz-adv-x="1097" d="M-82 23l39 170q1 7 10 14.5t17 7.5h161q8 0 14 -7.5t5 -14.5l-39 -170q-2 -8 -11 -15.5t-16 -7.5h-161q-8 0 -14 8t-5 15zM285 23l39 170q2 8 10.5 15t15.5 7h162q8 0 13.5 -7.5t4.5 -14.5l-38 -170q-2 -8 -11 -15.5t-16 -7.5h-162q-7 0 -13.5 7.5t-4.5 15.5zM649 23 l39 170q1 7 10 14.5t17 7.5h162q8 0 13.5 -7.5t4.5 -14.5l-39 -170q-2 -8 -11 -15.5t-16 -7.5h-161q-8 0 -14 8t-5 15z" />
<glyph unicode="&#x202f;" horiz-adv-x="398" />
<glyph unicode="&#x2039;" horiz-adv-x="536" d="M25 553q-11 18 4 37l311 336q13 16 37 16h127q6 0 8 -5.5t0 -10.5l-338 -363l172 -344q4 -20 -12 -20h-115q-21 0 -33 20z" />
<glyph unicode="&#x203a;" horiz-adv-x="536" d="M-45 204.5q-2 5.5 0 10.5l342 371l-176 336q-4 20 12 20h115q21 0 33 -20l163 -328q11 -18 -4 -37l-311 -342q-13 -16 -37 -16h-129q-6 0 -8 5.5z" />
<glyph unicode="&#x205f;" horiz-adv-x="497" />
<glyph unicode="&#x20ac;" horiz-adv-x="1343" d="M-10 502l24 98q2 8 11 15.5t16 7.5h135q9 105 33 208h-119q-7 0 -13.5 7.5t-4.5 15.5l24 98q2 8 11 15.5t16 7.5h131q86 219 247 352t373 133q207 0 333 -109.5t130 -314.5q0 -8 -7.5 -15t-14.5 -7h-144q-7 0 -14.5 7t-7.5 15q-6 127 -77.5 197t-207.5 70 q-131 0 -235.5 -89.5t-171.5 -238.5h409q8 0 14 -8t5 -15l-25 -98q-2 -8 -10.5 -15.5t-15.5 -7.5h-428q-27 -116 -35 -208h413q8 0 14 -8t5 -15l-25 -98q-2 -8 -10.5 -15.5t-15.5 -7.5h-383q7 -166 82.5 -257t203.5 -91q141 0 229.5 71.5t145.5 229.5q13 21 31 21h147 q7 0 12 -6.5t3 -14.5q-90 -244 -225.5 -351.5t-344.5 -107.5t-336 135.5t-141 370.5h-168q-7 0 -13.5 7.5t-4.5 15.5z" />
<glyph unicode="&#x2122;" horiz-adv-x="1189" d="M164 1372v39q0 8 7.5 15.5t14.5 7.5h365q7 0 14.5 -7.5t7.5 -15.5v-39q0 -8 -7.5 -15t-14.5 -7h-133v-197l2 -252q0 -7 -7.5 -14.5t-15.5 -7.5h-57q-8 0 -15.5 7.5t-7.5 14.5l5 252l-3 197h-133q-8 0 -15 7t-7 15zM641 901l2 250v260q0 7 7.5 15t15.5 8h79q8 0 19 -7 t12 -14l156 -409l149 409q1 7 12 14t19 7h76q7 0 14.5 -7.5t7.5 -15.5l-2 -260l2 -250q0 -7 -7 -14.5t-15 -7.5h-53q-8 0 -15.5 7.5t-7.5 14.5v238l2 127l-139 -367q-1 -7 -12 -13.5t-19 -6.5h-37q-8 0 -18.5 6.5t-11.5 13.5l-146 377v-16l2 -121v-238q0 -7 -7.5 -14.5 t-14.5 -7.5h-47q-8 0 -15.5 7.5t-7.5 14.5z" />
<glyph unicode="&#x25fc;" horiz-adv-x="1054" d="M0 0v1055h1055v-1055h-1055z" />
</font>
</defs>
</svg>
