<?xml version="1.0" standalone="no"?>
<!DOCTYPE svg PUBLIC "-//W3C//DTD SVG 1.1//EN" "http://www.w3.org/Graphics/SVG/1.1/DTD/svg11.dtd" >
<svg xmlns="http://www.w3.org/2000/svg" xmlns:xlink="http://www.w3.org/1999/xlink" version="1.1">
<metadata></metadata>
<defs>
<font id="formadjrtextbold" horiz-adv-x="1191" >
<font-face units-per-em="2048" ascent="1536" descent="-512" />
<missing-glyph horiz-adv-x="403" />
<glyph horiz-adv-x="0" />
<glyph horiz-adv-x="682" />
<glyph unicode=" "  horiz-adv-x="403" />
<glyph unicode="&#x09;" horiz-adv-x="403" />
<glyph unicode="&#xa0;" horiz-adv-x="403" />
<glyph unicode="!" horiz-adv-x="468" d="M82 25v245q0 8 8.5 16.5t15.5 8.5h256q8 0 16.5 -8.5t8.5 -16.5v-245q0 -7 -8.5 -16t-16.5 -9h-256q-7 0 -15.5 8.5t-8.5 16.5zM82 440v969q0 8 8.5 16.5t15.5 8.5h256q8 0 16.5 -9t8.5 -16v-969q0 -7 -8.5 -15.5t-16.5 -8.5h-256q-8 0 -16 8t-8 16z" />
<glyph unicode="&#x22;" horiz-adv-x="819" d="M84 1409q-1 7 6.5 16t15.5 9h242q8 0 16 -9t7 -16l-35 -483q-4 -25 -27 -25h-164q-22 0 -26 25zM453 1409q-1 7 6.5 16t15.5 9h242q8 0 15.5 -9t6.5 -16l-34 -483q-4 -25 -27 -25h-164q-23 0 -27 25z" />
<glyph unicode="#" horiz-adv-x="1384" d="M10 315l31 172q1 10 9.5 17.5t19.5 7.5h206l60 418h-207q-8 0 -14.5 8.5t-5.5 15.5l22 172q1 10 9.5 17.5t19.5 7.5h207l36 258q1 10 9.5 17.5t19.5 7.5h238q8 0 15 -9t5 -16l-37 -258h205l37 258q1 10 9.5 17.5t19.5 7.5h237q8 0 15 -9t6 -16l-37 -258h209q8 0 15 -8.5 t5 -16.5l-22 -172q-1 -10 -9.5 -17t-19.5 -7h-209l-59 -418h209q8 0 15 -8.5t5 -16.5l-31 -172q-1 -10 -9 -17t-19 -7h-203l-37 -266q-1 -10 -9.5 -17.5t-19.5 -7.5h-237q-8 0 -15 9t-6 16l37 266h-205l-36 -266q-1 -10 -9.5 -17.5t-19.5 -7.5h-238q-7 0 -14 9t-6 16l37 266 h-213q-8 0 -15 8.5t-6 15.5zM563 512h205l59 418h-204z" />
<glyph unicode="$" horiz-adv-x="1267" d="M68 459q0 7 8 15.5t16 8.5h277q23 0 26 -24q15 -127 74.5 -192.5t192.5 -65.5q227 0 227 190q0 119 -123 154q-22 5 -118.5 28.5t-153.5 36.5q-150 34 -273 117q-125 82 -125 301q0 169 96 280.5t273 143.5v121q0 7 8.5 15.5t15.5 8.5h263q8 0 16 -8.5t8 -15.5v-125 q159 -32 257 -135t124 -279q1 -7 -5.5 -15.5t-14.5 -8.5h-277q-26 0 -29 24q-12 94 -71.5 144.5t-161.5 50.5q-88 0 -140 -42.5t-52 -127.5q0 -117 124 -144q49 -12 149 -34.5t126 -28.5q150 -35 272 -115q125 -82 125 -303q0 -194 -109.5 -311.5t-308.5 -147.5v-155 q0 -8 -8.5 -16.5t-15.5 -8.5h-262q-8 0 -16.5 8.5t-8.5 16.5v166q-184 36 -291 156t-114 317z" />
<glyph unicode="%" horiz-adv-x="1802" d="M51 1079q0 178 104 276.5t283 98.5q176 0 280.5 -99t104.5 -276q0 -176 -103.5 -269t-281.5 -93q-179 0 -283 92t-104 270zM253 7q-3 7 1 13l1040 1393q17 21 39 21h207q7 0 11 -7.5t-1 -13.5l-1040 -1393q-16 -20 -39 -20h-207q-8 0 -11 7zM311 1079q0 -184 127 -184 q64 0 94.5 43.5t30.5 140.5q0 197 -127 197q-125 0 -125 -197zM979 354q0 176 103.5 269.5t281.5 93.5q179 0 283 -92.5t104 -270.5t-104 -276t-283 -98q-176 0 -280.5 98.5t-104.5 275.5zM1239 354q0 -196 127 -196q125 0 125 196q0 185 -127 185q-64 0 -94.5 -44 t-30.5 -141z" />
<glyph unicode="&#x26;" horiz-adv-x="1437" d="M47 389q0 65 19 124t49.5 103.5t76.5 86t91.5 71.5t103.5 60q-147 186 -147 325q0 131 114 223q117 91 312 91q112 0 200.5 -35.5t143 -107.5t57.5 -171q0 -50 -17 -95.5t-42.5 -78.5t-68.5 -68t-80 -58t-93 -54q34 -38 170 -203l70 -84q33 108 43 193q3 24 26 24h236 q8 0 14.5 -8.5t5.5 -15.5q-27 -223 -149 -410l229 -283q6 -6 3 -12t-11 -6h-316q-22 0 -40 18l-64 80q-186 -125 -412 -125q-140 0 -257 46t-192 142.5t-75 227.5zM350 406q0 -112 67 -168t179 -56q142 0 248 92l-262 328q-9 11 -29 33.5t-29 34.5q-83 -57 -128.5 -119.5 t-45.5 -144.5zM528 1153q0 -37 24 -78.5t83 -113.5q87 46 132.5 91.5t45.5 104.5q0 66 -39 101.5t-108 35.5q-63 0 -100.5 -36.5t-37.5 -104.5z" />
<glyph unicode="'" horiz-adv-x="450" d="M84 1409q-1 7 6.5 16t15.5 9h242q8 0 16 -9t7 -16l-35 -483q-4 -25 -27 -25h-164q-22 0 -26 25z" />
<glyph unicode="(" horiz-adv-x="552" d="M45 614q0 458 207 859q13 22 37 22h192q7 0 12 -7t3 -15q-187 -416 -187 -859q0 -456 189 -878q2 -8 -3 -15.5t-12 -7.5h-192q-25 0 -35 23q-211 422 -211 878z" />
<glyph unicode=")" horiz-adv-x="552" d="M55 -264q189 422 189 878q0 443 -187 859q-2 8 3 15t12 7h192q24 0 37 -22q207 -401 207 -859q0 -456 -211 -878q-10 -23 -35 -23h-192q-7 0 -12 7.5t-3 15.5z" />
<glyph unicode="*" horiz-adv-x="724" d="M16 1292l64 121q1 7 12.5 11t18.5 -1l159 -96l-8 184q-1 7 7 16t16 9h133q7 0 15.5 -8.5t8.5 -16.5l-6 -182l158 103q8 6 18 3.5t15 -10.5l63 -116q4 -8 1 -18t-11 -15l-152 -84l146 -74q8 -5 12 -15.5t0 -17.5l-59 -122q-5 -8 -14 -11.5t-17 0.5l-156 95l9 -177 q1 -7 -7 -15.5t-16 -8.5h-137q-8 0 -16.5 8.5t-8.5 15.5l8 179l-151 -99q-7 -5 -18 -2t-15 10l-68 113q-4 8 -0.5 18t11.5 15l147 78l-149 78q-7 1 -11 12.5t-2 19.5z" />
<glyph unicode="+" horiz-adv-x="1136" d="M88 616v179q0 7 8.5 15.5t16.5 8.5h340v385q0 8 8.5 16.5t15.5 8.5h187q7 0 15.5 -8.5t8.5 -16.5v-385h338q8 0 16.5 -8.5t8.5 -15.5v-179q0 -7 -8.5 -15.5t-16.5 -8.5h-338v-383q0 -8 -8.5 -16.5t-15.5 -8.5h-187q-7 0 -15.5 8.5t-8.5 16.5v383h-340q-8 0 -16.5 8.5 t-8.5 15.5z" />
<glyph unicode="," horiz-adv-x="444" d="M39 -215l61 223v260q0 8 9 16.5t16 8.5h244q7 0 15.5 -8.5t8.5 -16.5v-233q0 -27 -14 -45l-158 -209q-17 -21 -39 -21h-125q-7 0 -13.5 8.5t-4.5 16.5z" />
<glyph unicode="-" horiz-adv-x="571" d="M27 518v164q0 8 8.5 16.5t15.5 8.5h469q8 0 16.5 -8.5t8.5 -16.5v-164q0 -7 -8.5 -15.5t-16.5 -8.5h-469q-7 0 -15.5 8t-8.5 16z" />
<glyph unicode="&#xad;" horiz-adv-x="571" d="M27 518v164q0 8 8.5 16.5t15.5 8.5h469q8 0 16.5 -8.5t8.5 -16.5v-164q0 -7 -8.5 -15.5t-16.5 -8.5h-469q-7 0 -15.5 8t-8.5 16z" />
<glyph unicode="." horiz-adv-x="444" d="M63 25v243q0 8 8.5 16.5t16.5 8.5h270q8 0 16.5 -8.5t8.5 -16.5v-243q0 -7 -8.5 -16t-16.5 -9h-270q-8 0 -16.5 9t-8.5 16z" />
<glyph unicode="/" horiz-adv-x="753" d="M55 -262l422 1732q1 10 10.5 17.5t20.5 7.5h176q7 0 13.5 -8.5t4.5 -16.5l-421 -1732q-1 -10 -10.5 -17.5t-20.5 -7.5h-176q-7 0 -14 8.5t-5 16.5z" />
<glyph unicode="0" horiz-adv-x="1241" d="M49 713q0 363 152.5 557t416.5 194q265 0 418.5 -192t153.5 -559q0 -357 -156 -551q-156 -193 -416 -193q-255 0 -411 193q-158 196 -158 551zM371 713q0 -504 250 -504q247 0 247 504q0 512 -250 512q-125 0 -186 -123t-61 -389z" />
<glyph unicode="1" horiz-adv-x="806" d="M53 950v189q0 18 23 32q201 74 291 240q13 23 39 23h253q7 0 16 -9t9 -16l-16 -750l16 -634q0 -7 -9 -16t-16 -9h-278q-7 0 -16 9t-9 16l13 663l-7 402q-102 -100 -284 -158q-8 -2 -16.5 4.5t-8.5 13.5z" />
<glyph unicode="2" horiz-adv-x="1116" d="M57 25v176q0 213 111 327t244 185q175 93 243 133q111 62 111 174q5 103 -48.5 160.5t-152.5 56.5q-95 -2 -152 -70t-63 -194q0 -10 -8 -17.5t-16 -7.5h-236q-10 0 -17 8.5t-7 16.5q2 234 128.5 360t370.5 127q234 0 359 -113t131 -317q0 -197 -111 -305t-242 -178 q-132 -71 -243 -129t-111 -162v-25h682q8 0 16.5 -8.5t8.5 -15.5v-182q0 -7 -8.5 -16t-16.5 -9h-948q-8 0 -16.5 9t-8.5 16z" />
<glyph unicode="3" horiz-adv-x="1134" d="M47 426q-1 7 7 16t16 9h252q10 0 17 -7t7 -18q8 -115 62.5 -177t152.5 -61q95 0 154.5 65.5t60.5 176.5q2 123 -67.5 177.5t-229.5 54.5h-37q-8 0 -16 8t-8 16v150q0 8 8 16t16 8h37q136 0 204.5 52.5t68.5 142.5q0 81 -52.5 135.5t-128.5 54.5q-187 0 -202 -207 q-2 -11 -9.5 -17.5t-17.5 -6.5h-248q-8 0 -15.5 8.5t-6.5 15.5q13 200 148 308t368 108q209 0 338 -100q128 -101 131 -269q0 -122 -64 -198t-172 -111q130 -32 201.5 -120t71.5 -216q0 -142 -75.5 -248.5t-197 -159t-268.5 -52.5q-232 0 -359.5 114t-146.5 332z" />
<glyph unicode="4" horiz-adv-x="1193" d="M49 350v215q0 25 12 45l517 803q13 21 36 21h363q7 0 15.5 -8.5t8.5 -16.5v-852h134q7 0 15.5 -8.5t8.5 -16.5v-182q0 -8 -8.5 -16t-15.5 -8h-134v-301q0 -8 -8.5 -16.5t-15.5 -8.5h-262q-7 0 -16 9t-9 16v301h-616q-8 0 -16.5 8.5t-8.5 15.5zM295 557h395v361l10 288z " />
<glyph unicode="5" horiz-adv-x="1175" d="M66 358q-1 7 6.5 16t15.5 9h258q12 0 19.5 -7t7.5 -18q7 -86 60.5 -132t137.5 -46q111 0 172.5 81t61.5 235q0 151 -55.5 228t-174.5 77q-79 0 -132.5 -37.5t-73.5 -106.5q-3 -24 -33 -24h-219q-8 0 -16 8.5t-7 15.5l53 752q4 25 27 25h848q8 0 16.5 -9t8.5 -16v-182 q0 -7 -8.5 -16t-16.5 -9h-598l-31 -278q108 94 281 94q195 0 328 -141t133 -359q0 -253 -154.5 -402t-407.5 -149q-223 0 -354.5 107t-152.5 284z" />
<glyph unicode="6" horiz-adv-x="1202" d="M59 713q0 359 160 557q156 194 424 194q192 0 310 -93t141 -265q0 -8 -8 -16.5t-15 -8.5h-252q-27 0 -31 25q-14 64 -57 103.5t-113 39.5q-114 0 -174.5 -106t-62.5 -299q104 119 301 119q206 0 336 -127q129 -126 129 -340q0 -142 -69 -263t-191.5 -192.5t-270.5 -71.5 q-262 0 -409.5 193.5t-147.5 550.5zM391 473q0 -130 55 -205t154 -75q101 0 162 71t61 197q0 133 -52.5 208.5t-154.5 75.5q-105 0 -165 -72t-60 -200z" />
<glyph unicode="7" horiz-adv-x="1001" d="M27 1227v182q0 8 8.5 16.5t15.5 8.5h897q8 0 16.5 -9t8.5 -16v-188q0 -24 -10 -47q-310 -606 -385 -1149q-1 -10 -9.5 -17.5t-19.5 -7.5h-275q-8 0 -15 9t-5 16q51 326 149 632.5t234 544.5h-586q-7 0 -15.5 8.5t-8.5 16.5z" />
<glyph unicode="8" horiz-adv-x="1202" d="M53 410q0 123 68.5 213.5t200.5 134.5q-233 108 -230 309q2 191 134 293t376 102t375.5 -102t136.5 -293q3 -194 -231 -309q132 -44 201 -134.5t69 -213.5q0 -136 -74.5 -235.5t-197.5 -148.5t-279 -49q-115 0 -214.5 29t-174 82.5t-117.5 136.5t-43 185zM356 420 q0 -104 70 -172t176 -68t176 68t70 172t-67.5 166.5t-178.5 62.5t-178.5 -62.5t-67.5 -166.5zM393 1044q0 -92 57.5 -148t151.5 -56t151.5 56t57.5 148q0 97 -56.5 155t-152.5 58t-152.5 -58t-56.5 -155z" />
<glyph unicode="9" horiz-adv-x="1202" d="M59 938q0 109 39.5 205.5t108.5 167.5t168.5 112t214.5 41q262 0 409.5 -192t147.5 -551t-158 -555q-159 -197 -426 -197q-192 0 -309.5 93.5t-140.5 265.5q0 8 7.5 16t14.5 8h252q12 0 21 -7t10 -17q14 -64 57 -104t113 -40q114 0 174.5 106.5t62.5 299.5 q-104 -119 -301 -119q-206 0 -336 127q-129 126 -129 340zM383 973q0 -133 52.5 -209t154.5 -76q105 0 165 72.5t60 200.5q0 130 -55 205t-154 75q-101 0 -162 -71t-61 -197z" />
<glyph unicode=":" horiz-adv-x="444" d="M59 25v243q0 8 8.5 16.5t16.5 8.5h270q8 0 16.5 -8.5t8.5 -16.5v-243q0 -7 -8.5 -16t-16.5 -9h-270q-8 0 -16.5 9t-8.5 16zM59 786v244q0 8 8.5 16.5t16.5 8.5h270q8 0 16.5 -8.5t8.5 -16.5v-244q0 -7 -8.5 -15.5t-16.5 -8.5h-270q-8 0 -16.5 8.5t-8.5 15.5z" />
<glyph unicode=";" horiz-adv-x="444" d="M41 -215l61 223v260q0 8 9 16.5t16 8.5h244q7 0 15.5 -8.5t8.5 -16.5v-233q0 -27 -14 -45l-158 -209q-17 -21 -39 -21h-125q-7 0 -13.5 8.5t-4.5 16.5zM63 786v244q0 8 8.5 16.5t16.5 8.5h270q8 0 16.5 -8.5t8.5 -16.5v-244q0 -7 -8.5 -15.5t-16.5 -8.5h-270 q-8 0 -16.5 8.5t-8.5 15.5z" />
<glyph unicode="&#x3c;" horiz-adv-x="1136" d="M88 616v179q0 24 23 34l917 410q8 2 15.5 -2.5t7.5 -11.5v-189q0 -21 -23 -35l-704 -294l704 -297q23 -14 23 -35v-189q0 -7 -7.5 -11.5t-15.5 -2.5l-917 410q-23 10 -23 34z" />
<glyph unicode="=" horiz-adv-x="1136" d="M88 350v178q0 8 9 16.5t16 8.5h913q8 0 16.5 -8.5t8.5 -16.5v-178q0 -7 -8.5 -15.5t-16.5 -8.5h-913q-8 0 -16.5 8.5t-8.5 15.5zM88 883v178q0 7 8.5 15.5t16.5 8.5h913q8 0 16.5 -8.5t8.5 -15.5v-178q0 -7 -8.5 -16t-16.5 -9h-913q-7 0 -16 9t-9 16z" />
<glyph unicode="&#x3e;" horiz-adv-x="1136" d="M88 186v189q0 21 23 35l704 297l-704 294q-23 14 -23 35v189q0 7 7.5 11.5t15.5 2.5l917 -410q23 -10 23 -34v-179q0 -24 -23 -34l-917 -410q-8 -2 -15.5 2.5t-7.5 11.5z" />
<glyph unicode="?" horiz-adv-x="1062" d="M20 1030q14 204 147.5 313t371.5 109q216 0 352.5 -107.5t136.5 -297.5q0 -63 -18 -115.5t-47 -89t-65 -69.5t-72.5 -66t-67.5 -68.5t-52 -86.5t-24 -112q0 -10 -8.5 -17t-16.5 -7h-260q-7 0 -15.5 8t-8.5 16q3 79 24 146t52 113.5t67.5 86t72.5 71t65.5 61t48 64 t18.5 71.5q0 90 -54.5 140t-144.5 52q-199 3 -211 -215q0 -10 -8 -17t-16 -7h-244q-8 0 -16 8.5t-7 15.5zM371 25v245q0 8 8.5 16.5t15.5 8.5h262q7 0 16 -8.5t9 -16.5v-245q0 -7 -9 -16t-16 -9h-262q-7 0 -15.5 8.5t-8.5 16.5z" />
<glyph unicode="@" horiz-adv-x="1695" d="M47 514q0 208 57 377t160.5 283.5t250 176.5t323.5 62q181 0 331 -62t255.5 -176.5t164 -284t58.5 -378.5q0 -229 -88 -348q-88 -123 -207 -123q-56 0 -114.5 16.5t-113.5 59.5t-73 104q-51 -90 -133.5 -140t-190.5 -50q-133 0 -229 66.5t-142.5 177.5t-46.5 253 q0 141 50 255.5t147 182.5t225 68q180 0 281 -123l-4 78q-1 7 6.5 16t15.5 9h230q7 0 15.5 -8.5t8.5 -16.5v-690q0 -111 68 -111q59 0 96 83t37 241q0 355 -176 555q-175 199 -473 199q-286 0 -457 -201q-172 -199 -172 -553q0 -343 169.5 -538t459.5 -195q144 0 253 45.5 t187 152.5q21 21 41 21h125q8 0 12 -7.5t0 -13.5q-216 -346 -618 -346q-176 0 -322.5 61.5t-249.5 174.5t-160 279t-57 368zM596 545q0 -163 54 -246.5t155 -81.5q103 0 157.5 78t55.5 231t-53 236.5t-154 85.5q-105 1 -160 -77t-55 -226z" />
<glyph unicode="A" horiz-adv-x="1384" d="M-4 23l481 1388q2 8 12.5 15.5t20.5 7.5h371q10 0 20 -7.5t12 -15.5l471 -1388q2 -8 -3.5 -15.5t-12.5 -7.5h-272q-10 0 -20.5 7.5t-12.5 15.5l-109 342h-536l-105 -342q-14 -23 -32 -23h-269q-7 0 -12.5 7.5t-3.5 15.5zM494 612h383l-197 613z" />
<glyph unicode="B" horiz-adv-x="1306" d="M88 25l14 692l-14 692q0 7 9 16t16 9h612q150 0 262 -36t180 -117.5t68 -201.5q0 -248 -252 -317q143 -31 217 -119t74 -209q0 -112 -45.5 -198t-123 -136t-171 -75t-199.5 -25h-622q-7 0 -16 9t-9 16zM397 639l13 -422h319q229 0 229 217q0 106 -63.5 155.5t-165.5 49.5 h-332zM397 856h332q92 0 143.5 45.5t51.5 132.5q0 89 -55 136t-140 47h-319z" />
<glyph unicode="C" horiz-adv-x="1445" d="M47 711q0 343 193 548t518 205q532 0 641 -503q1 -7 -6 -16t-15 -9h-256q-11 0 -20 7.5t-10 17.5q-31 126 -117 195t-221 69q-184 0 -284.5 -136t-100.5 -376q0 -238 100.5 -371t282.5 -133q284 0 346 297q1 10 9 17t19 7h263q8 0 14.5 -8.5t5.5 -15.5 q-60 -280 -224.5 -408.5t-424.5 -128.5q-216 0 -379 94.5t-248.5 262.5t-85.5 385z" />
<glyph unicode="D" horiz-adv-x="1421" d="M88 25l14 692l-14 692q0 7 9 16t16 9h501q158 0 292.5 -43.5t240.5 -129.5t166.5 -228t60.5 -326q0 -148 -40 -268t-109.5 -201t-166.5 -135t-206.5 -78.5t-233.5 -24.5h-505q-7 0 -16 9t-9 16zM397 723q0 -108 3.5 -231t6.5 -192l3 -69h225q89 0 163 27.5t132 83.5 t90.5 149.5t32.5 217.5q0 243 -118 368t-308 125h-217q-13 -243 -13 -479z" />
<glyph unicode="E" horiz-adv-x="1163" d="M88 25l14 692l-14 692q0 7 9 16t16 9h956q7 0 16 -9t9 -16v-182q0 -7 -9 -16t-16 -9h-659l-13 -330h613q8 0 16 -8t8 -16v-182q0 -8 -8.5 -16.5t-15.5 -8.5h-613l13 -410h675q8 0 16.5 -8.5t8.5 -15.5v-182q0 -7 -9 -16t-16 -9h-972q-7 0 -16 9t-9 16z" />
<glyph unicode="F" horiz-adv-x="1097" d="M88 25l14 692l-14 692q0 7 9 16t16 9h925q8 0 16.5 -9t8.5 -16v-182q0 -7 -8.5 -16t-16.5 -9h-628l-13 -393h613q7 0 15.5 -8.5t8.5 -16.5v-182q0 -8 -8 -16t-16 -8h-613l13 -553q0 -7 -9 -16t-16 -9h-272q-7 0 -16 9t-9 16z" />
<glyph unicode="G" horiz-adv-x="1490" d="M47 717q0 339 193 543t510 204q260 0 430 -123t227 -348q2 -8 -4.5 -16t-13.5 -8h-273q-11 0 -20.5 7t-10.5 17q-35 116 -119.5 176t-213.5 60q-184 0 -283.5 -137.5t-99.5 -378.5q0 -235 103.5 -371.5t291.5 -136.5q155 0 245.5 90.5t96.5 255.5h-350q-8 0 -16.5 8.5 t-8.5 15.5v177q0 7 8.5 15.5t16.5 8.5h659q8 0 16.5 -8.5t8.5 -19.5q0 -385 -176 -582q-178 -197 -510 -197q-207 0 -368 94t-250 264.5t-89 389.5z" />
<glyph unicode="H" horiz-adv-x="1429" d="M88 25l14 692l-14 692q0 7 9 16t16 9h274q7 0 16 -9t9 -16l-11 -528h627l-10 528q0 8 8.5 16.5t15.5 8.5h275q7 0 15.5 -8.5t8.5 -16.5l-14 -692l14 -692q0 -8 -8.5 -16.5t-15.5 -8.5h-275q-7 0 -15.5 8.5t-8.5 16.5l10 624h-627l11 -624q0 -7 -9 -16t-16 -9h-274 q-7 0 -16 9t-9 16z" />
<glyph unicode="I" horiz-adv-x="516" d="M98 25l15 692l-15 692q0 7 9 16t16 9h270q7 0 16 -9t9 -16l-15 -692l15 -692q0 -7 -9 -16t-16 -9h-270q-7 0 -16 9t-9 16z" />
<glyph unicode="J" horiz-adv-x="1093" d="M27 489q0 8 8.5 16.5t15.5 8.5h254q8 0 16.5 -7.5t8.5 -17.5q2 -137 47 -206.5t141 -69.5q100 0 141 71.5t43 229.5l5 330l-15 565q0 7 9 16t16 9h282q7 0 16 -9t9 -16l-14 -565l6 -332v-16q0 -257 -124 -390q-129 -137 -376 -137q-233 0 -358 138.5t-131 381.5z" />
<glyph unicode="K" horiz-adv-x="1296" d="M88 25l14 692l-14 692q0 7 9 16t16 9h272q7 0 16 -9t9 -16l-11 -573l416 577q17 21 39 21h320q8 0 11 -6.5t-3 -12.5l-461 -565l573 -830q4 -6 1 -13t-11 -7h-336q-23 0 -39 20l-159 240l-230 346l-119 -147l9 -434q0 -7 -9 -16t-16 -9h-272q-7 0 -16 9t-9 16z" />
<glyph unicode="L" horiz-adv-x="1015" d="M88 25l14 692l-14 692q0 7 9 16t16 9h272q7 0 16 -9t9 -16l-13 -674l13 -504h573q8 0 16.5 -8.5t8.5 -15.5v-182q0 -7 -9 -16t-16 -9h-870q-7 0 -16 9t-9 16z" />
<glyph unicode="M" horiz-adv-x="1742" d="M88 25l12 692l-12 692q0 7 9 16t16 9h368q10 0 20.5 -7.5t12.5 -15.5l381 -1028l358 1028q2 8 12.5 15.5t20.5 7.5h344q8 0 16.5 -9t8.5 -16l-13 -692l13 -692q0 -7 -8.5 -16t-16.5 -9h-266q-8 0 -16.5 9t-8.5 16v479l11 440l2 64l-348 -985q-2 -8 -12.5 -15.5 t-20.5 -7.5h-197q-10 0 -20.5 7.5t-12.5 15.5l-383 1030l4 -113l11 -436v-479q0 -7 -8.5 -16t-16.5 -9h-235q-7 0 -16 9t-9 16z" />
<glyph unicode="N" horiz-adv-x="1423" d="M88 25l12 692l-12 692q0 7 9 16t16 9h331q20 0 37 -21l570 -1010v25l-11 406v575q0 7 9 16t16 9h246q7 0 15.5 -8.5t8.5 -16.5l-12 -692l12 -692q0 -8 -8.5 -16.5t-15.5 -8.5h-344q-21 0 -37 20l-561 1002l4 -82l10 -410v-505q0 -7 -8.5 -16t-16.5 -9h-245q-7 0 -16 9 t-9 16z" />
<glyph unicode="O" horiz-adv-x="1542" d="M47 713q0 341 197 546t526 205t527 -203t198 -548q0 -217 -89.5 -386t-255 -263.5t-380.5 -94.5q-216 0 -381 94.5t-253.5 263t-88.5 386.5zM369 713q0 -234 106.5 -369t296.5 -135q191 0 296.5 134.5t105.5 369.5q0 237 -105 374.5t-299 137.5t-297.5 -135.5 t-103.5 -376.5z" />
<glyph unicode="P" horiz-adv-x="1232" d="M88 25l14 692l-14 692q0 7 9 16t16 9h536q261 0 403 -118t142 -343t-145 -350t-402 -125h-246l11 -473q0 -7 -9 -16t-16 -9h-274q-7 0 -16 9t-9 16zM397 725h273q98 0 160.5 60t62.5 182q0 239 -231 239h-254z" />
<glyph unicode="Q" horiz-adv-x="1546" d="M39 713q0 341 197 546t526 205t527 -203t198 -548q0 -276 -148 -477l68 4h86q7 0 16 -9t9 -16v-190q0 -7 -9 -16t-16 -9h-502q-124 -31 -229 -31q-216 0 -381 94.5t-253.5 263t-88.5 386.5zM360 713q0 -234 106.5 -369t297.5 -135q190 0 295.5 134.5t105.5 369.5 q0 237 -105 374.5t-298 137.5q-194 0 -298 -135.5t-104 -376.5z" />
<glyph unicode="R" horiz-adv-x="1314" d="M88 25l12 692l-12 692q0 7 9 16t16 9h577q271 0 418 -115t147 -336q0 -158 -83 -266t-236 -152l352 -545q4 -6 1 -13t-11 -7h-313q-21 0 -37 20l-180 299l-142 213h-207l11 -507q0 -7 -9 -16t-16 -9h-272q-7 0 -16 9t-9 16zM399 760h312q107 0 175 53.5t68 163.5 q0 115 -65.5 172t-186.5 57h-296z" />
<glyph unicode="S" horiz-adv-x="1320" d="M33 459q0 7 8.5 15.5t15.5 8.5h277q23 0 26 -24q9 -62 29 -107t57 -80t97.5 -53t144.5 -18q289 0 289 190q0 122 -143 156q-83 20 -314 71q-170 34 -315 117q-144 79 -144 293q0 203 151.5 319.5t424.5 116.5q260 0 418.5 -105.5t189.5 -324.5q1 -7 -5.5 -15.5 t-14.5 -8.5h-277q-25 0 -28 24q-14 94 -90 144.5t-205 50.5q-116 0 -185 -43t-69 -127q0 -116 145 -146q101 -24 315 -67q176 -39 316 -119q143 -82 143 -293q0 -223 -162 -345t-446 -122q-291 0 -464 123.5t-185 368.5z" />
<glyph unicode="T" horiz-adv-x="1183" d="M18 1227v182q0 7 9 16t16 9h1098q7 0 15.5 -8.5t8.5 -16.5v-182q0 -8 -8.5 -16.5t-15.5 -8.5h-387l-15 -485l19 -692q0 -7 -9 -16t-16 -9h-282q-7 0 -16 9t-9 16l18 692l-14 485h-387q-7 0 -16 9t-9 16z" />
<glyph unicode="U" horiz-adv-x="1312" d="M72 1409q0 8 8.5 16.5t15.5 8.5h281q7 0 15.5 -8.5t8.5 -16.5l-10 -479l2 -395q0 -318 269 -318q288 0 288 318v389l-8 485q0 7 9 16t16 9h250q7 0 15.5 -8.5t8.5 -16.5l-8 -487v-390q0 -274 -144.5 -418.5t-426.5 -144.5q-284 -1 -434 145q-148 144 -148 411v7l4 390z " />
<glyph unicode="V" horiz-adv-x="1318" d="M-4 1411q-2 8 3.5 15.5t12.5 7.5h297q11 0 20.5 -7.5t10.5 -17.5l342 -1169l332 1169q1 10 10 17.5t20 7.5h259q7 0 12.5 -7.5t3.5 -15.5l-445 -1388q-2 -8 -12 -15.5t-20 -7.5h-359q-10 0 -20 7.5t-12 15.5z" />
<glyph unicode="W" horiz-adv-x="1888" d="M10 1409q-2 8 5 16.5t14 8.5h268q11 0 19.5 -7.5t9.5 -17.5l225 -1128l215 1128q1 10 9.5 17.5t19.5 7.5h313q11 0 19.5 -7.5t9.5 -17.5l225 -1143l225 1143q1 10 9.5 17.5t19.5 7.5h248q7 0 13.5 -8.5t4.5 -16.5l-332 -1384q-1 -10 -10 -17.5t-20 -7.5h-328 q-11 0 -20.5 7.5t-10.5 17.5l-225 976l-205 -976q-1 -10 -9.5 -17.5t-19.5 -7.5h-337q-11 0 -20.5 7.5t-10.5 17.5z" />
<glyph unicode="X" horiz-adv-x="1296" d="M-2 20l467 734l-428 659q-5 6 -1 13.5t11 7.5h328q20 0 37 -21l239 -422l246 422q17 21 37 21h305q7 0 10.5 -7t1.5 -14l-428 -672l469 -721q4 -6 1 -13t-11 -7h-332q-24 0 -37 23l-270 493l-289 -496q-16 -20 -37 -20h-307q-7 0 -10.5 6.5t-1.5 13.5z" />
<glyph unicode="Y" horiz-adv-x="1259" d="M-2 1411q-4 7 0 15t12 8h307q25 0 35 -23l291 -655l293 655q10 23 35 23h278q8 0 12.5 -8t0.5 -15l-484 -928l13 -458q0 -7 -8.5 -16t-16.5 -9h-274q-8 0 -16.5 9t-8.5 16l12 460z" />
<glyph unicode="Z" horiz-adv-x="1210" d="M37 25v204q0 26 14 43l744 930h-678q-7 0 -16 9t-9 16v182q0 7 9 16t16 9h1028q7 0 15.5 -8.5t8.5 -16.5v-213q0 -26 -14 -43l-731 -922h723q7 0 15.5 -8.5t8.5 -15.5v-182q0 -8 -8.5 -16.5t-15.5 -8.5h-1086q-7 0 -15.5 8.5t-8.5 16.5z" />
<glyph unicode="[" horiz-adv-x="593" d="M61 -262v1732q0 8 8.5 16.5t16.5 8.5h422q7 0 15.5 -8.5t8.5 -16.5v-182q0 -8 -8 -16t-16 -8h-180v-1319h180q7 0 15.5 -8.5t8.5 -16.5v-182q0 -8 -8.5 -16.5t-15.5 -8.5h-422q-8 0 -16.5 8.5t-8.5 16.5z" />
<glyph unicode="\" horiz-adv-x="753" d="M55 1470q-2 8 5 16.5t14 8.5h176q11 0 20.5 -7.5t10.5 -17.5l421 -1732q2 -8 -4.5 -16.5t-13.5 -8.5h-176q-11 0 -20.5 7.5t-10.5 17.5z" />
<glyph unicode="]" horiz-adv-x="593" d="M61 -80q0 8 8.5 16.5t16.5 8.5h180v1319h-180q-8 0 -16.5 8.5t-8.5 15.5v182q0 8 8.5 16.5t16.5 8.5h422q7 0 15.5 -8.5t8.5 -16.5v-1732q0 -8 -8.5 -16.5t-15.5 -8.5h-422q-8 0 -16.5 8.5t-8.5 16.5v182z" />
<glyph unicode="^" horiz-adv-x="1136" d="M35 494l409 917q10 23 35 23h178q25 0 35 -23l410 -917q2 -8 -3 -15.5t-12 -7.5h-188q-21 0 -35 23l-297 704l-295 -704q-14 -23 -34 -23h-189q-7 0 -11.5 7.5t-2.5 15.5z" />
<glyph unicode="_" horiz-adv-x="856" d="M29 -160q0 8 8.5 16.5t15.5 8.5h750q7 0 15.5 -8.5t8.5 -16.5v-164q0 -8 -8.5 -16t-15.5 -8h-750q-7 0 -15.5 8t-8.5 16v164z" />
<glyph unicode="`" horiz-adv-x="1024" d="M160 1317l59 182q2 8 13 12t18 0l477 -206q8 -5 12 -15.5t0 -17.5l-39 -98q-12 -20 -34 -17l-490 131q-10 1 -14 10.5t-2 18.5z" />
<glyph unicode="a" horiz-adv-x="1097" d="M39 272q0 57 14 104.5t35.5 81t57.5 60.5t68.5 43.5t81.5 30.5t83 21t86 16q151 25 195 44q63 28 63 81q0 45 -44.5 71.5t-125.5 26.5q-159 0 -182 -92q-3 -25 -33 -25h-242q-7 0 -15.5 8.5t-8.5 16.5q10 151 138 236t337 85q233 0 355 -99.5t122 -283.5v-262l6 -411 q0 -8 -8.5 -16.5t-15.5 -8.5h-244q-8 0 -16 9t-7 16l4 106q-123 -156 -342 -156q-149 0 -256 78q-106 75 -106 219zM346 301q0 -55 38 -87q36 -30 94 -30h7q113 2 177.5 68.5t64.5 191.5v62q-12 -8 -29.5 -14.5t-41.5 -12t-42 -9.5t-50.5 -10t-47.5 -9q-81 -15 -125.5 -50 t-44.5 -100z" />
<glyph unicode="b" d="M72 25l10 692l-10 692q0 8 8.5 16.5t15.5 8.5h264q8 0 16.5 -9t8.5 -16l-6 -475q119 141 311 141q144 0 249 -73t156.5 -194.5t51.5 -277.5q0 -153 -55 -277.5t-161.5 -198.5t-246.5 -74q-191 0 -305 133l4 -88q1 -7 -7 -16t-16 -9h-264q-7 0 -15.5 8.5t-8.5 16.5z M373 539v-11q1 -160 57 -248q58 -92 168 -92h3q114 0 173 84q60 85 60 246q0 170 -60 260q-58 88 -165 88h-5q-111 0 -170.5 -83.5t-60.5 -243.5z" />
<glyph unicode="c" horiz-adv-x="1116" d="M47 524q0 249 146 404q144 153 399 153q198 0 324 -103t147 -273q1 -7 -7 -16t-16 -9h-235q-11 0 -19.5 7.5t-9.5 17.5q-18 83 -68 126t-116 43q-230 -3 -230 -348q0 -178 56.5 -262t173.5 -86h5q73 0 125 52q54 54 64 151q4 25 27 25h242q8 0 15.5 -9t6.5 -16 q-18 -179 -153 -293q-136 -115 -338 -115q-250 0 -396 152q-143 149 -143 399z" />
<glyph unicode="d" d="M47 524q0 153 55 277.5t161.5 199t246.5 74.5q195 0 301 -131l-4 465q0 8 8.5 16.5t15.5 8.5h265q7 0 15.5 -8.5t8.5 -16.5l-8 -692l8 -692q0 -8 -8.5 -16.5t-15.5 -8.5h-262q-8 0 -16 9t-7 16l4 98q-118 -143 -311 -143q-144 0 -249 72.5t-156.5 194t-51.5 277.5z M360 539q0 -177 60 -268q58 -89 165 -89h5q111 0 170.5 85.5t60.5 250.5v6q0 166 -57 255q-58 91 -168 93h-3q-115 0 -173 -84q-60 -84 -60 -249z" />
<glyph unicode="e" horiz-adv-x="1167" d="M47 524q0 252 143 404q144 153 394 153q253 0 395.5 -158.5t148.5 -433.5q0 -7 -8 -15.5t-16 -8.5h-748q15 -287 238 -287q165 0 203 154q1 10 10.5 17t21.5 7h244q8 0 16 -8.5t7 -15.5q-26 -150 -161.5 -254.5t-344.5 -104.5q-257 0 -400 152.5t-143 398.5zM365 659h432 q-8 92 -62.5 156t-148.5 64q-183 0 -221 -220z" />
<glyph unicode="f" horiz-adv-x="808" d="M45 862v168q0 8 8.5 16.5t16.5 8.5h135v69q0 86 28.5 151.5t78 103.5t109 56.5t128.5 18.5q82 0 184 -16q10 -1 17.5 -9.5t7.5 -19.5v-166q0 -7 -8.5 -13.5t-16.5 -4.5q-45 10 -112 10q-115 0 -115 -139v-41h227q7 0 16 -8.5t9 -16.5v-168q0 -7 -8.5 -15.5t-16.5 -8.5 h-227v-373l12 -440q0 -8 -8.5 -16.5t-15.5 -8.5h-275q-7 0 -15.5 8.5t-8.5 16.5l10 440v373h-135q-8 0 -16.5 8.5t-8.5 15.5z" />
<glyph unicode="g" horiz-adv-x="1189" d="M47 535q0 148 55 269t161.5 193t246.5 72q194 0 305 -129l-4 90q-1 7 7 16t16 9h258q7 0 15.5 -8.5t8.5 -16.5l-8 -518l6 -483v-6q0 -199 -133 -315q-135 -118 -389 -118h-23q-197 0 -328 82q-139 87 -151 252q-1 7 7 16t16 9h252q24 0 28 -25q12 -63 65.5 -97t143.5 -34 q104 0 164.5 60.5t60.5 179.5v121q-109 -148 -303 -148q-152 0 -261.5 71t-162.5 189t-53 269zM360 547q0 -169 60 -255q58 -85 165 -85h5q111 0 170.5 80.5t60.5 238.5v6q0 159 -57 246q-58 88 -168 90h-3q-115 0 -173 -80q-60 -82 -60 -241z" />
<glyph unicode="h" horiz-adv-x="1146" d="M76 25l12 694l-12 690q0 8 8.5 16.5t15.5 8.5h260q8 0 16.5 -9t8.5 -16l-8 -471q113 141 319 141q184 0 282 -112q95 -108 95 -321v-17l-2 -226l10 -378q0 -8 -8.5 -16.5t-15.5 -8.5h-269q-7 0 -15.5 8.5t-8.5 16.5l10 374l-4 267q-1 90 -45.5 139t-110.5 49 q-79 0 -147 -61.5t-92 -169.5l10 -598q0 -7 -8.5 -16t-16.5 -9h-260q-7 0 -15.5 8.5t-8.5 16.5z" />
<glyph unicode="i" horiz-adv-x="479" d="M82 25l10 501l-10 504q0 8 8.5 16.5t15.5 8.5h269q7 0 15.5 -8.5t8.5 -16.5l-10 -504l10 -501q0 -8 -8.5 -16.5t-15.5 -8.5h-269q-7 0 -15.5 8.5t-8.5 16.5zM84 1182v227q0 7 9 16t16 9h262q7 0 15.5 -8.5t8.5 -16.5v-227q0 -8 -8.5 -16.5t-15.5 -8.5h-262q-7 0 -16 8.5 t-9 16.5z" />
<glyph unicode="j" horiz-adv-x="479" d="M-119 -324l2 166q0 7 8.5 14t16.5 5q33 -11 72 -11q53 0 79 31.5t27 108.5l6 372l-10 668q0 8 8.5 16.5t15.5 8.5h269q7 0 15.5 -8.5t8.5 -16.5l-10 -668l4 -401v-11q0 -79 -27 -140q-28 -66 -78 -104t-110.5 -56.5t-128.5 -18.5q-27 0 -143 17q-11 2 -18 10t-7 18z M84 1182v227q0 7 9 16t16 9h262q7 0 15.5 -8.5t8.5 -16.5v-227q0 -8 -8.5 -16.5t-15.5 -8.5h-262q-7 0 -16 8.5t-9 16.5z" />
<glyph unicode="k" horiz-adv-x="1058" d="M72 25l12 692l-12 692q0 8 8.5 16.5t15.5 8.5h260q8 0 16.5 -9t8.5 -16l-10 -686v-66l303 379q19 19 41 19h289q7 0 10 -6.5t-2 -12.5l-322 -360l377 -656q4 -6 0 -13t-12 -7h-307q-24 0 -37 23l-103 198l-131 234l-100 -127l4 -303q0 -7 -8.5 -16t-16.5 -9h-260 q-7 0 -15.5 8.5t-8.5 16.5z" />
<glyph unicode="l" horiz-adv-x="473" d="M82 25l12 692l-12 692q0 8 8.5 16.5t15.5 8.5h261q7 0 15.5 -8.5t8.5 -16.5l-12 -692l12 -692q0 -8 -8.5 -16.5t-15.5 -8.5h-261q-7 0 -15.5 8.5t-8.5 16.5z" />
<glyph unicode="m" horiz-adv-x="1701" d="M72 25l10 354l-6 651q0 8 8.5 16.5t15.5 8.5h252q8 0 16 -9t7 -16l-4 -108q116 157 303 157q230 0 299 -196q65 110 143 153t180 43q163 0 249.5 -101.5t86.5 -307.5v-291l6 -354q0 -8 -8.5 -16.5t-15.5 -8.5h-268q-8 0 -16.5 9t-8.5 16l10 354v287q0 92 -36.5 140 t-100.5 48q-62 0 -125 -84q-63 -81 -63 -244v-147l10 -354q0 -7 -9 -16t-16 -9h-268q-7 0 -16 9t-9 16l11 354v287q0 92 -37 140t-101 48q-62 0 -125 -84q-63 -81 -63 -244v-147l10 -354q0 -8 -8.5 -16.5t-15.5 -8.5h-273q-7 0 -15.5 8.5t-8.5 16.5z" />
<glyph unicode="n" horiz-adv-x="1148" d="M76 25l10 481l-6 524q0 8 8.5 16.5t15.5 8.5h248q8 0 16 -9t7 -16l-4 -108q56 72 144.5 114.5t195.5 42.5q167 0 265.5 -109t98.5 -300v-221l8 -424q0 -8 -8.5 -16.5t-15.5 -8.5h-262q-7 0 -16 9t-9 16l6 424v217q0 85 -46 136.5t-116 51.5q-91 0 -160 -85.5t-69 -242.5 v-77l4 -424q0 -8 -8.5 -16.5t-15.5 -8.5h-267q-7 0 -15.5 8.5t-8.5 16.5z" />
<glyph unicode="o" horiz-adv-x="1175" d="M47 524q0 252 143 404q144 153 400 153q257 0 397 -149q141 -150 141 -402q0 -250 -141 -403q-142 -154 -397 -154q-254 0 -400 152q-143 149 -143 399zM360 522q0 -177 57 -260.5t173 -83.5q113 0 168 83.5t55 262.5q0 353 -225 353q-117 -1 -172.5 -88.5t-55.5 -266.5z " />
<glyph unicode="p" d="M72 -324l10 752l-10 602q0 8 8.5 16.5t15.5 8.5h264q8 0 16 -9t7 -16l-4 -98q118 143 311 143q144 0 249 -73t156.5 -194.5t51.5 -277.5q0 -153 -55 -277.5t-161.5 -198.5t-246.5 -74q-195 0 -299 129l4 -433q0 -8 -8.5 -16t-15.5 -8h-269q-8 0 -16 8t-8 16zM373 535v-11 q0 -158 57 -246q58 -92 168 -92q116 0 176 84t60 244q0 172 -59.5 262t-170.5 90t-170.5 -84t-60.5 -247z" />
<glyph unicode="q" d="M47 524q0 153 55 277.5t161.5 199t246.5 74.5q191 0 305 -133l-4 88q-1 7 7 16t16 9h262q7 0 15.5 -8.5t8.5 -16.5l-10 -672l10 -682q0 -8 -8 -16t-16 -8h-265q-7 0 -15.5 8t-8.5 16l4 441q-121 -137 -307 -137q-144 0 -249 72.5t-156.5 194t-51.5 277.5zM360 537 q0 -175 59 -264t171 -89q111 0 170.5 84t60.5 248v11q0 160 -57 250q-58 93 -168 93q-113 0 -174.5 -82.5t-61.5 -250.5z" />
<glyph unicode="r" horiz-adv-x="833" d="M72 25l10 503l-10 502q0 8 8.5 16.5t15.5 8.5h260q8 0 16 -9t7 -16l-6 -153q60 91 159 138.5t218 47.5q21 0 41 -4q8 -2 16 -10.5t8 -18.5v-178q0 -8 -7 -15.5t-17 -7.5q-10 2 -33 2q-161 0 -271 -90q-106 -90 -106 -262v-10l2 -444q0 -7 -8.5 -16t-16.5 -9h-262 q-7 0 -15.5 8.5t-8.5 16.5z" />
<glyph unicode="s" horiz-adv-x="1097" d="M45 330q0 7 8.5 15.5t16.5 8.5h247q11 0 19 -7t8 -17q14 -164 229 -164q90 0 138.5 33.5t48.5 95.5q0 76 -109 94q-73 10 -235 41q-129 21 -238 86q-108 61 -108 227q0 162 122 249t338 87q208 0 336.5 -83.5t145.5 -241.5q1 -7 -7 -16t-16 -9h-235q-27 0 -31 25 q-30 139 -197 139q-164 0 -164 -127q0 -75 109 -90q32 -4 70.5 -10.5t87.5 -15t80 -13.5q124 -21 235 -84q109 -65 109 -231q0 -108 -64.5 -187.5t-173.5 -119.5t-248 -40q-225 0 -367.5 93t-154.5 262z" />
<glyph unicode="t" horiz-adv-x="755" d="M27 862v168q0 8 8.5 16.5t15.5 8.5h111l-2 239q0 8 8.5 16.5t15.5 8.5h265q7 0 15.5 -8.5t8.5 -16.5l-4 -239h227q8 0 16.5 -8.5t8.5 -16.5v-168q0 -7 -8.5 -15.5t-16.5 -8.5h-229l2 -521q0 -64 29 -91t84 -27q58 0 112 16q8 2 16.5 -4.5t8.5 -13.5v-152 q0 -10 -7.5 -20.5t-15.5 -12.5q-105 -32 -186 -32q-69 0 -129 18.5t-110.5 56t-79.5 103t-29 151.5l2 529h-113q-7 0 -15.5 8t-8.5 16z" />
<glyph unicode="u" horiz-adv-x="1148" d="M66 1030q0 8 8.5 16.5t15.5 8.5h262q8 0 16.5 -8.5t8.5 -16.5l-6 -424v-217q0 -85 45.5 -136.5t115.5 -51.5q91 0 160.5 85t69.5 242v78l-4 424q0 8 8.5 16.5t15.5 8.5h267q7 0 15.5 -8.5t8.5 -16.5l-10 -481l6 -524q0 -7 -8.5 -16t-16.5 -9h-247q-8 0 -16 9t-7 16l4 108 q-56 -72 -144.5 -115t-195.5 -43q-167 0 -265.5 109.5t-98.5 300.5v221z" />
<glyph unicode="v" horiz-adv-x="1069" d="M-12 1032q-2 8 3.5 15.5t12.5 7.5h283q11 0 20 -7.5t10 -17.5l224 -784l247 786q2 8 12.5 15.5t20.5 7.5h240q7 0 12.5 -7.5t3.5 -15.5l-352 -1014q-2 -8 -12.5 -15t-20.5 -7h-325q-10 0 -20.5 7t-12.5 15z" />
<glyph unicode="w" horiz-adv-x="1495" d="M0 1030q-2 8 4.5 16.5t13.5 8.5h261q10 0 18 -7t10 -18l119 -782l143 782q1 10 9.5 17.5t19.5 7.5h322q10 0 18 -7t10 -18l142 -766l120 766q1 10 9.5 17.5t19.5 7.5h236q7 0 13.5 -8.5t4.5 -16.5l-219 -1005q-1 -10 -10.5 -17.5t-20.5 -7.5h-313q-11 0 -19.5 7.5 t-9.5 17.5l-166 776l-143 -776q-1 -10 -9.5 -17.5t-19.5 -7.5h-311q-11 0 -20.5 7.5t-10.5 17.5z" />
<glyph unicode="x" horiz-adv-x="1009" d="M-6 7q-4 7 0 13l311 533l-297 481q-4 6 0 13.5t12 7.5h295q24 0 37 -23l174 -330l164 330q10 23 35 23h260q8 0 12 -7.5t0 -13.5l-286 -489l305 -525q4 -6 0 -13t-12 -7h-297q-25 0 -35 23l-178 346l-183 -346q-13 -23 -37 -23h-268q-8 0 -12 7z" />
<glyph unicode="y" horiz-adv-x="1050" d="M-12 1032q-2 8 3.5 15.5t12.5 7.5h297q10 0 20.5 -7.5t12.5 -15.5l227 -653l189 651q1 10 10 17.5t20 7.5h262q7 0 13 -7.5t4 -15.5l-465 -1358q-2 -8 -12.5 -15t-20.5 -7h-244q-7 0 -12.5 7t-3.5 15l109 316z" />
<glyph unicode="z" horiz-adv-x="1026" d="M70 25v168q0 25 14 43l471 602h-418q-7 0 -15.5 8t-8.5 16v168q0 8 8.5 16.5t15.5 8.5h768q7 0 16 -8.5t9 -16.5v-172q0 -26 -17 -43l-477 -598h500q8 0 16.5 -8.5t8.5 -15.5v-168q0 -7 -8.5 -16t-16.5 -9h-842q-7 0 -15.5 8.5t-8.5 16.5z" />
<glyph unicode="{" horiz-adv-x="593" d="M61 516v176q0 8 8.5 16.5t16.5 8.5h37q39 0 55 23t13.5 55t-17.5 71l-59 164q-38 98 -27.5 183t55.5 147.5t125.5 98.5t182.5 36h77q8 0 16.5 -8.5t8.5 -16.5v-182q0 -7 -8.5 -15.5t-16.5 -8.5h-75q-72 0 -93 -55.5t19 -178.5l59 -164q14 -38 14.5 -76t-12.5 -73.5 t-45 -66t-80 -48.5q101 -40 125 -117q21 -80 -2 -143l-51 -139q-33 -90 -32.5 -149.5t26.5 -84t72 -24.5h75q8 0 16.5 -8.5t8.5 -16.5v-182q0 -8 -8.5 -16.5t-16.5 -8.5h-77q-97 0 -170.5 26.5t-116 73.5t-62 109t-13.5 134t34 149l51 137q15 37 18 69.5t-13.5 56.5 t-55.5 24h-37q-8 0 -16.5 8.5t-8.5 15.5z" />
<glyph unicode="|" horiz-adv-x="401" d="M88 -262v1732q0 8 9 16.5t16 8.5h176q7 0 15.5 -8.5t8.5 -16.5v-1732q0 -8 -8.5 -16.5t-15.5 -8.5h-176q-7 0 -16 8.5t-9 16.5z" />
<glyph unicode="}" horiz-adv-x="593" d="M61 -80q0 8 8.5 16.5t16.5 8.5h76q46 0 71.5 24.5t26 84t-32.5 149.5l-51 139q-24 64 0 143q21 77 123 117q-48 18 -80 48.5t-45 66t-12.5 73.5t14.5 76l60 164q40 123 19 178.5t-93 55.5h-76q-8 0 -16.5 8.5t-8.5 15.5v182q0 8 8.5 16.5t16.5 8.5h78q102 0 182.5 -36 t125.5 -98.5t55.5 -147.5t-27.5 -183l-60 -164q-15 -39 -17.5 -71t14 -55t55.5 -23h36q8 0 16.5 -8.5t8.5 -16.5v-176q0 -7 -8.5 -15.5t-16.5 -8.5h-36q-39 0 -55.5 -24t-14 -56.5t17.5 -69.5l52 -137q28 -77 34 -149t-13.5 -134t-62 -109t-116 -73.5t-170.5 -26.5h-78 q-8 0 -16.5 8.5t-8.5 16.5v182z" />
<glyph unicode="~" horiz-adv-x="1136" d="M57 590q5 209 83.5 336t228.5 127q56 0 105 -20t82 -50t63.5 -64.5t52 -64.5t45 -50t45.5 -20q99 0 102 228q0 10 8.5 17t16.5 7h168q7 0 15.5 -8t8.5 -16q-5 -209 -81 -326t-224 -117q-64 0 -118.5 27.5t-91 67.5t-67.5 79.5t-63 67t-63 27.5q-96 0 -99 -248 q0 -10 -8 -17.5t-16 -7.5h-168q-8 0 -16.5 8.5t-8.5 16.5z" />
<glyph unicode="&#xa1;" horiz-adv-x="468" d="M82 -354v968q0 8 8.5 16.5t15.5 8.5h256q8 0 16.5 -8.5t8.5 -16.5v-968q0 -8 -8.5 -16.5t-16.5 -8.5h-256q-7 0 -15.5 8.5t-8.5 16.5zM82 784v246q0 8 8.5 16.5t15.5 8.5h256q8 0 16.5 -8.5t8.5 -16.5v-246q0 -7 -8.5 -15.5t-16.5 -8.5h-256q-8 0 -16 8t-8 16z" />
<glyph unicode="&#xa2;" horiz-adv-x="1144" d="M78 729q0 203 95.5 344.5t268.5 190.5v145q0 7 9 16t16 9h262q7 0 16 -9t9 -16v-135q145 -32 234 -128t106 -237q1 -7 -7 -15.5t-16 -8.5h-235q-11 0 -19.5 7t-9.5 17q-18 83 -68 126.5t-116 43.5q-230 -3 -230 -348q0 -178 56.5 -262t173.5 -86q77 -2 130.5 52t63.5 151 q2 11 9.5 17.5t17.5 6.5h241q8 0 16 -8.5t7 -15.5q-13 -145 -109 -250.5t-245 -140.5v-170q0 -7 -9 -16t-16 -9h-262q-7 0 -16 9t-9 16v176q-171 44 -267.5 184.5t-96.5 343.5z" />
<glyph unicode="&#xa3;" horiz-adv-x="1267" d="M8 674v162q0 7 8.5 15.5t16.5 8.5h127q-25 105 -25 176q0 188 137 307q136 121 377 121q211 0 357 -104q146 -107 176 -338q0 -8 -8 -16.5t-15 -8.5h-256q-22 0 -26 25q-14 97 -74 150t-158 53q-93 0 -140.5 -56t-47.5 -133q0 -62 20 -176h273q8 0 16 -8t8 -16v-162 q0 -8 -8.5 -16.5t-15.5 -8.5h-224q19 -105 19 -168q0 -75 -42.5 -146t-129.5 -104l352 -10q122 -3 160 68q36 68 39 186q0 10 8 17.5t16 7.5h262q8 0 16.5 -9t8.5 -16q-6 -257 -131.5 -378t-351.5 -115l-682 18q-10 0 -17.5 7t-7.5 18v172q0 11 7.5 20t17.5 10l34 11 q136 35 140 200q2 70 -31 211h-180q-7 0 -16 8.5t-9 16.5z" />
<glyph unicode="&#xa4;" horiz-adv-x="1187" d="M51.5 1128.5q0.5 10.5 7.5 16.5l105 106q8 6 18.5 6t16.5 -6l194 -194q101 53 213 53q120 0 209 -53l174 174q6 6 16.5 6t18.5 -6l104 -107q7 -6 7.5 -16t-5.5 -16l-165 -166q69 -106 69 -224q0 -121 -67 -219l161 -161q6 -6 6 -17t-6 -18l-106 -105q-6 -7 -16.5 -7.5 t-16.5 5.5l-170 170q-93 -55 -213 -55q-113 0 -217 55l-170 -170q-6 -6 -16.5 -5.5t-16.5 7.5l-106 105q-6 7 -6 18t6 17l164 163q-66 101 -66 217q0 118 68 222l-189 188q-6 6 -5.5 16.5zM389 702q0 -102 63.5 -169.5t153.5 -67.5q85 0 152 67q65 65 65 170t-64.5 171.5 t-152.5 66.5q-90 0 -153.5 -66t-63.5 -172z" />
<glyph unicode="&#xa5;" horiz-adv-x="1267" d="M2 1413q-4 6 0 13.5t12 7.5h308q24 0 34 -23l291 -588l293 588q10 23 35 23h278q8 0 12.5 -7.5t0.5 -13.5l-392 -655h218q7 0 15.5 -8.5t8.5 -16.5v-158q0 -7 -8 -15.5t-16 -8.5h-308l2 -131h306q7 0 15.5 -8.5t8.5 -16.5v-157q0 -8 -8.5 -16.5t-15.5 -8.5h-299l4 -188 q0 -7 -8.5 -16t-16.5 -9h-276q-8 0 -16.5 9t-8.5 16l6 188h-299q-7 0 -15.5 8.5t-8.5 16.5v157q0 8 8.5 16.5t15.5 8.5h305l2 131h-307q-8 0 -16 8.5t-8 15.5v158q0 8 8.5 16.5t15.5 8.5h217z" />
<glyph unicode="&#xa6;" horiz-adv-x="401" d="M88 -262v708q0 8 9 16.5t16 8.5h176q7 0 15.5 -8.5t8.5 -16.5v-708q0 -8 -8.5 -16.5t-15.5 -8.5h-176q-7 0 -16 8.5t-9 16.5zM88 762v708q0 8 9 16.5t16 8.5h176q7 0 15.5 -8.5t8.5 -16.5v-708q0 -8 -8.5 -16.5t-15.5 -8.5h-176q-7 0 -16 8.5t-9 16.5z" />
<glyph unicode="&#xa7;" horiz-adv-x="1298" d="M63 -72q0 8 8.5 16.5t16.5 8.5h248q11 0 19.5 -7.5t9.5 -17.5q14 -164 309 -164q128 0 198 34t70 96q0 96 -133 131q-64 16 -293 67q-162 35 -293 111q-135 73 -135 254q0 107 59 185t166 120q-225 89 -225 285q0 190 145 293.5t398 103.5q246 0 395.5 -88.5 t167.5 -257.5q1 -7 -7 -16t-16 -9h-235q-27 0 -31 25q-14 76 -83 117.5t-195 41.5q-115 0 -180.5 -36t-65.5 -111q0 -96 135 -123q51 -11 155 -33.5t138 -29.5q159 -35 293 -105q133 -71 133 -248q0 -102 -60 -181t-165 -124q225 -89 225 -305q0 -121 -74.5 -209.5 t-200.5 -133t-286 -44.5q-168 0 -302 39.5t-217.5 121t-91.5 193.5zM381 520q0 -27 11.5 -49.5t38 -39.5t52 -29t72.5 -23.5t78 -17.5t90 -17q219 43 219 160q0 19 -6.5 36t-22 31.5t-30.5 25.5t-43 22t-49 18.5t-59 17t-61 15t-67 14.5q-112 -25 -167.5 -62t-55.5 -102z " />
<glyph unicode="&#xa8;" horiz-adv-x="1024" d="M172 1212v228q0 7 8.5 15.5t16.5 8.5h200q8 0 16.5 -8.5t8.5 -15.5v-228q0 -7 -8.5 -15.5t-16.5 -8.5h-200q-8 0 -16.5 8.5t-8.5 15.5zM602 1212v228q0 7 8.5 15.5t16.5 8.5h200q8 0 16.5 -8.5t8.5 -15.5v-228q0 -7 -8.5 -15.5t-16.5 -8.5h-200q-8 0 -16.5 8.5t-8.5 15.5 z" />
<glyph unicode="&#xa9;" horiz-adv-x="1542" d="M47 713q0 341 197 546t526 205t527 -203t198 -548q0 -217 -89.5 -386t-255 -263.5t-380.5 -94.5q-216 0 -381 94.5t-253.5 263t-88.5 386.5zM184 713q0 -291 154.5 -459t433.5 -168t432.5 167t153.5 460q0 294 -153.5 464.5t-434.5 170.5q-284 0 -435 -168t-151 -467z M336 715q0 214 123 346q122 131 325 131q74 0 136.5 -16.5t116 -52t92 -96t57.5 -144.5q2 -8 -5 -16.5t-14 -8.5h-141q-12 0 -22 7.5t-11 17.5q-42 157 -211 157q-116 0 -179.5 -85t-63.5 -238t63 -236.5t178 -83.5q177 0 219 181q1 10 9.5 17t19.5 7h148q8 0 14.5 -8.5 t5.5 -15.5q-40 -173 -143 -251.5t-267 -78.5q-208 0 -327 131q-123 132 -123 336z" />
<glyph unicode="&#xaa;" horiz-adv-x="933" d="M47 1057q0 169 93.5 283t246.5 114q134 0 221 -72l-2 27q-1 10 5.5 17.5t17.5 7.5h219q7 0 15.5 -8.5t8.5 -16.5l-4 -350l4 -369q0 -8 -8 -16t-16 -8h-217q-8 0 -16.5 8.5t-8.5 15.5l2 39q-94 -84 -227 -84q-106 0 -183 55.5t-114 147.5t-37 209zM319 1053 q0 -120 39 -183t109 -61q149 0 149 244q1 112 -36.5 173.5t-106.5 63.5q-75 2 -114.5 -59t-39.5 -178z" />
<glyph unicode="&#xab;" horiz-adv-x="1120" d="M46 531q0 11 7 18l295 369q18 18 41 18h205q8 0 11 -7t-3 -11l-311 -388l311 -374q5 -6 2 -12.5t-10 -6.5h-205q-22 0 -41 19l-295 356q-7 8 -7 19zM510 531q0 11 8 18l295 369q18 18 41 18h205q8 0 11 -7t-3 -11l-311 -388l311 -374q5 -6 2 -12.5t-10 -6.5h-205 q-22 0 -41 19l-295 356q-8 8 -8 19z" />
<glyph unicode="&#xac;" horiz-adv-x="1167" d="M102 616v179q0 7 8.5 15.5t16.5 8.5h913q8 0 16.5 -8.5t8.5 -15.5v-586q0 -7 -8.5 -16t-16.5 -9h-186q-8 0 -16.5 9t-8.5 16v383h-702q-8 0 -16.5 8.5t-8.5 15.5z" />
<glyph unicode="&#xae;" horiz-adv-x="804" d="M47 1090q0 167 97.5 267.5t258.5 100.5t258 -99.5t97 -268.5q0 -159 -96 -263q-99 -102 -259 -102q-159 0 -258 102q-98 101 -98 263zM129 1090q0 -136 72 -213.5t202 -77.5q128 0 200.5 77.5t72.5 213.5t-72 215t-201 79q-133 0 -203.5 -77.5t-70.5 -216.5zM229 918v352 q0 7 8.5 15.5t16.5 8.5h143q83 0 128.5 -32t45.5 -93q0 -86 -90 -114l90 -142q5 -6 1 -13t-11 -7h-72q-20 0 -36 20l-41 70l-41 59h-37v-124q0 -8 -9 -16.5t-16 -8.5h-55q-8 0 -16.5 8.5t-8.5 16.5zM334 1114h67q28 0 48 14t20 39q0 26 -18.5 40t-51.5 14h-65v-107z" />
<glyph unicode="&#xaf;" horiz-adv-x="1024" d="M176 1212v156q0 8 9 16.5t16 8.5h620q7 0 16 -8.5t9 -16.5v-156q0 -7 -8.5 -15.5t-16.5 -8.5h-620q-8 0 -16.5 8.5t-8.5 15.5z" />
<glyph unicode="&#xb0;" horiz-adv-x="763" d="M37 1128q0 141 100 234q100 92 246 92q145 0 248 -92q98 -94 98 -234t-98 -231q-101 -94 -248 -94q-148 0 -246 94q-100 90 -100 231zM248 1128q0 -74 37 -114.5t98 -40.5q59 0 97 41t38 114t-38 114.5t-97 41.5q-61 0 -98 -41t-37 -115z" />
<glyph unicode="&#xb1;" horiz-adv-x="1136" d="M88 25v178q0 7 8.5 15.5t16.5 8.5h913q8 0 16.5 -8.5t8.5 -15.5v-178q0 -7 -8.5 -16t-16.5 -9h-913q-7 0 -16 9t-9 16zM88 698v179q0 7 8.5 15.5t16.5 8.5h340v385q0 8 8.5 16.5t15.5 8.5h187q7 0 15.5 -8.5t8.5 -16.5v-385h338q8 0 16.5 -8.5t8.5 -15.5v-179 q0 -7 -8.5 -15.5t-16.5 -8.5h-338v-383q0 -8 -8.5 -16.5t-15.5 -8.5h-187q-7 0 -15.5 8.5t-8.5 16.5v383h-340q-8 0 -16.5 8.5t-8.5 15.5z" />
<glyph unicode="&#xb2;" horiz-adv-x="681" d="M51 670v90q0 117 62 182q56 62 131 105q59 34 131 69q59 30 59 86q1 50 -22.5 76.5t-67.5 26.5q-39 -2 -65.5 -31t-30.5 -82q-1 -10 -9.5 -17.5t-19.5 -7.5h-135q-10 0 -17.5 8.5t-7.5 16.5q2 123 74.5 190t210.5 68q134 0 204 -63.5t75 -178.5q0 -60 -21 -109.5 t-54.5 -81t-74.5 -57t-81.5 -44.5t-74 -35.5t-54.5 -37t-21 -44.5l358 -2q8 0 16.5 -8.5t8.5 -16.5v-102q0 -8 -8.5 -16.5t-16.5 -8.5h-524q-8 0 -16.5 8.5t-8.5 16.5z" />
<glyph unicode="&#xb3;" horiz-adv-x="677" d="M49 868q-1 7 7 16t16 9h145q11 0 19.5 -7.5t9.5 -17.5q10 -101 94 -98q37 0 64 30t28 83q2 63 -22.5 89.5t-85.5 26.5h-45q-7 0 -16 8.5t-9 16.5v78q0 7 8.5 15.5t16.5 8.5h45q48 0 73 27t25 68q0 37 -23 63.5t-55 26.5q-73 0 -86 -80q-4 -25 -29 -25h-145q-8 0 -16 9 t-7 16q14 103 89.5 159t203.5 56q120 0 192.5 -57t74.5 -146q0 -126 -127 -170q70 -21 108.5 -67.5t38.5 -114.5q0 -121 -90 -188.5t-217 -67.5q-128 0 -199.5 59.5t-85.5 173.5z" />
<glyph unicode="&#xb4;" horiz-adv-x="1024" d="M268 1272q-4 7 0.5 17.5t12.5 15.5l477 206q7 4 17.5 0t12.5 -12l58 -182q2 -9 -2.5 -18.5t-14.5 -10.5l-487 -131q-23 -3 -35 17z" />
<glyph unicode="&#xb5;" horiz-adv-x="1138" d="M66 -324l4 752l-4 602q0 8 8.5 16.5t15.5 8.5h303q7 0 16 -8.5t9 -16.5l-6 -424v-217q0 -85 45.5 -136.5t115.5 -51.5q91 0 160.5 85t69.5 242v78l-4 424q0 8 8.5 16.5t15.5 8.5h267q7 0 15.5 -8.5t8.5 -16.5l-10 -481l6 -524q0 -7 -9 -16t-16 -9h-247q-8 0 -16 9t-7 16 l4 108q-56 -72 -144.5 -115t-195.5 -43q-50 0 -104 13l2 -312q0 -7 -8.5 -15.5t-16.5 -8.5h-262q-8 0 -16 8t-8 16z" />
<glyph unicode="&#xb6;" horiz-adv-x="1456" d="M57 973q0 225 142 343t403 118h744q7 0 15.5 -8.5t8.5 -16.5l-16 -836l16 -897q0 -8 -8 -16t-16 -8h-277q-8 0 -16.5 8.5t-8.5 15.5l9 592l4 230h-152l4 -232l11 -590q0 -7 -8.5 -15.5t-16.5 -8.5h-277q-8 0 -16 8t-8 16l8 586l4 236q-258 0 -403.5 125t-145.5 350z" />
<glyph unicode="&#xb7;" horiz-adv-x="446" d="M63 496v243q0 7 8.5 16t16.5 9h270q8 0 16.5 -9t8.5 -16v-243q0 -8 -8.5 -16.5t-16.5 -8.5h-270q-8 0 -16.5 8.5t-8.5 16.5z" />
<glyph unicode="&#xb8;" horiz-adv-x="1024" d="M283 -293l131 311q13 21 35 21l161 -19q8 0 15 -9.5t6 -16.5l-68 -338q-1 -10 -9 -16t-19 -5l-238 46q-8 2 -13 10.5t-1 15.5z" />
<glyph unicode="&#xb9;" horiz-adv-x="532" d="M59 1143v104q0 25 23 35q100 40 147 129q13 23 37 23h154q7 0 15.5 -8.5t8.5 -16.5l-14 -424l12 -315q1 -7 -6.5 -16t-15.5 -9h-170q-8 0 -16.5 8.5t-8.5 16.5l11 387l-7 151q-53 -53 -147 -82q-8 -2 -15.5 4t-7.5 13z" />
<glyph unicode="&#xba;" horiz-adv-x="929" d="M47 1047q0 189 111 301t309 112q196 0 306 -110t110 -297q0 -189 -110.5 -301.5t-305.5 -112.5q-199 0 -309.5 110t-110.5 298zM319 1044q0 -241 148 -241q72 0 106.5 58.5t34.5 185.5q0 249 -143 249q-75 -1 -110.5 -62.5t-35.5 -189.5z" />
<glyph unicode="&#xbb;" horiz-adv-x="1120" d="M50 929q3 7 11 7h205q23 0 41 -18l295 -369q8 -7 8 -18t-8 -19l-295 -356q-19 -19 -41 -19h-205q-7 0 -10 6.5t2 12.5l312 374l-312 388q-6 4 -3 11zM515 929q3 7 11 7h205q23 0 41 -18l295 -369q7 -7 7 -18t-7 -19l-295 -356q-19 -19 -41 -19h-205q-7 0 -10 6.5t2 12.5 l311 374l-311 388q-6 4 -3 11z" />
<glyph unicode="&#xbc;" horiz-adv-x="1634" d="M59 1143v104q0 25 23 35q100 40 147 129q13 23 37 23h154q7 0 15.5 -8.5t8.5 -16.5l-14 -424l12 -315q1 -7 -6.5 -16t-15.5 -9h-170q-8 0 -16.5 8.5t-8.5 16.5l11 387l-7 151q-53 -53 -147 -82q-8 -2 -15.5 4t-7.5 13zM183.5 7q-3.5 7 0.5 13l1000 1393q17 21 39 21h166 q7 0 11 -7.5t-1 -13.5l-1000 -1393q-16 -20 -39 -20h-165q-8 0 -11.5 7zM973 186v125q0 25 12 45l258 412q12 20 37 20h219q8 0 16.5 -8.5t8.5 -15.5v-453h61q8 0 16.5 -8.5t8.5 -15.5v-101q0 -7 -8.5 -15.5t-16.5 -8.5h-61v-139q0 -7 -9 -16t-16 -9h-156q-7 0 -15.5 8.5 t-8.5 16.5v139h-322q-7 0 -15.5 8t-8.5 16zM1126 311h193v156l6 170z" />
<glyph unicode="&#xbd;" horiz-adv-x="1689" d="M59 1143v104q0 25 23 35q100 40 147 129q13 23 37 23h154q7 0 15.5 -8.5t8.5 -16.5l-14 -424l12 -315q1 -7 -6.5 -16t-15.5 -9h-170q-8 0 -16.5 8.5t-8.5 16.5l11 387l-7 151q-53 -53 -147 -82q-8 -2 -15.5 4t-7.5 13zM183.5 7q-3.5 7 0.5 13l1000 1393q17 21 39 21h166 q7 0 11 -7.5t-1 -13.5l-1000 -1393q-16 -20 -39 -20h-165q-8 0 -11.5 7zM1075 25v90q0 117 62 182q54 60 131 104q70 40 131 70q59 30 59 86q1 50 -22.5 76t-67.5 26q-39 -2 -65.5 -30.5t-30.5 -81.5q-1 -10 -9.5 -17.5t-19.5 -7.5h-135q-10 0 -17.5 8.5t-7.5 16.5 q2 123 74.5 190t210.5 68q134 0 204 -63.5t75 -178.5q0 -60 -21 -109.5t-54.5 -81t-74.5 -57t-81.5 -44.5t-74 -35.5t-54.5 -37t-21 -44.5l358 -2q8 0 16.5 -9t8.5 -16v-102q0 -7 -8.5 -16t-16.5 -9h-524q-8 0 -16.5 9t-8.5 16z" />
<glyph unicode="&#xbe;" horiz-adv-x="1738" d="M51 868q-1 7 7 16t16 9h145q11 0 19.5 -7.5t9.5 -17.5q10 -101 94 -98q37 0 64 30t28 83q2 63 -22.5 89.5t-85.5 26.5h-45q-7 0 -16 8.5t-9 16.5v78q0 7 8.5 15.5t16.5 8.5h45q48 0 73 27t25 68q0 37 -23 63.5t-55 26.5q-73 0 -86 -80q-4 -25 -29 -25h-145q-8 0 -16 9 t-7 16q14 103 89.5 159t203.5 56q120 0 192.5 -57t74.5 -146q0 -126 -127 -170q70 -21 108.5 -67.5t38.5 -114.5q0 -121 -90 -188.5t-217 -67.5q-128 0 -199.5 59.5t-85.5 173.5zM288 7q-4 7 1 13l999 1393q17 21 39 21h166q7 0 11 -7.5t-1 -13.5l-999 -1393 q-16 -20 -39 -20h-166q-7 0 -11 7zM1077 186v125q0 23 13 45l258 412q12 20 36 20h220q8 0 16 -8t8 -16v-453h62q8 0 16 -8.5t8 -15.5v-101q0 -8 -8 -16t-16 -8h-62v-139q0 -8 -8.5 -16.5t-15.5 -8.5h-156q-8 0 -16.5 9t-8.5 16v139h-321q-8 0 -16.5 8.5t-8.5 15.5z M1231 311h192v156l7 170z" />
<glyph unicode="&#xbf;" horiz-adv-x="1062" d="M37 8q0 63 18 115.5t47 89t65 69.5t72.5 65.5t67.5 68t52 86.5t24 112q0 10 8.5 17.5t16.5 7.5h260q7 0 15.5 -8.5t8.5 -16.5q-3 -79 -24 -146t-52 -113.5t-67.5 -86t-72.5 -70.5t-65.5 -60.5t-48 -64t-18.5 -71.5q0 -90 54.5 -140t144.5 -52q199 -3 211 215q0 10 8 17 t16 7h244q8 0 15.5 -8.5t6.5 -15.5q-14 -204 -147 -313t-371 -109q-216 0 -352.5 107.5t-136.5 297.5zM383 784v246q0 8 8.5 16.5t16.5 8.5h262q7 0 15.5 -8.5t8.5 -16.5v-246q0 -8 -8 -16t-16 -8h-262q-8 0 -16.5 8.5t-8.5 15.5z" />
<glyph unicode="&#xc0;" horiz-adv-x="1384" d="M-6 23l481 1388q2 8 12.5 15.5t20.5 7.5h371q10 0 20 -7.5t12 -15.5l471 -1388q2 -8 -3.5 -15.5t-12.5 -7.5h-272q-10 0 -20.5 7.5t-12.5 15.5l-109 342h-536l-105 -342q-14 -23 -32 -23h-269q-7 0 -12.5 7.5t-3.5 15.5zM365 1696l59 182q2 8 13 12t18 0l477 -207 q8 -5 12 -15t0 -17l-39 -99q-12 -19 -35 -16l-489 131q-10 1 -14 10.5t-2 18.5zM492 612h382l-196 613z" />
<glyph unicode="&#xc1;" horiz-adv-x="1384" d="M-6 23l481 1388q2 8 12.5 15.5t20.5 7.5h371q10 0 20 -7.5t12 -15.5l471 -1388q2 -8 -3.5 -15.5t-12.5 -7.5h-272q-10 0 -20.5 7.5t-12.5 15.5l-109 342h-536l-105 -342q-14 -23 -32 -23h-269q-7 0 -12.5 7.5t-3.5 15.5zM444 1651q-4 7 0.5 17t12.5 15l477 207q7 4 18 0 t13 -12l57 -182q2 -9 -2 -18.5t-14 -10.5l-488 -131q-23 -3 -35 16zM492 612h382l-196 613z" />
<glyph unicode="&#xc2;" horiz-adv-x="1384" d="M-6 23l481 1388q2 8 12.5 15.5t20.5 7.5h371q10 0 20 -7.5t12 -15.5l471 -1388q2 -8 -3.5 -15.5t-12.5 -7.5h-272q-10 0 -20.5 7.5t-12.5 15.5l-109 342h-536l-105 -342q-14 -23 -32 -23h-269q-7 0 -12.5 7.5t-3.5 15.5zM321 1674.5q3 11.5 11 17.5l278 194q19 15 45 15 h74q26 0 45 -15l279 -194q8 -6 11 -17.5t-1 -19.5l-41 -103q-5 -8 -15.5 -12t-17.5 0l-297 148l-297 -148q-7 -4 -17.5 0t-15.5 12l-40 103q-4 8 -1 19.5zM492 612h382l-196 613z" />
<glyph unicode="&#xc3;" horiz-adv-x="1384" d="M-6 23l481 1388q2 8 12.5 15.5t20.5 7.5h371q10 0 20 -7.5t12 -15.5l471 -1388q2 -8 -3.5 -15.5t-12.5 -7.5h-272q-10 0 -20.5 7.5t-12.5 15.5l-109 342h-536l-105 -342q-14 -23 -32 -23h-269q-7 0 -12.5 7.5t-3.5 15.5zM365 1593q5 116 57 186t151 70q39 0 76.5 -17 t61 -37t49 -37t43.5 -17q58 0 61 82q0 10 8.5 17t16.5 7h106q8 0 16.5 -8.5t8.5 -15.5q-5 -121 -55.5 -188.5t-147.5 -67.5q-42 0 -80 17t-61 37t-49.5 37t-48.5 17q-55 0 -58 -82q0 -10 -8 -17t-16 -7h-107q-7 0 -15.5 8.5t-8.5 15.5zM492 612h382l-196 613z" />
<glyph unicode="&#xc4;" horiz-adv-x="1384" d="M-6 23l481 1388q2 8 12.5 15.5t20.5 7.5h371q10 0 20 -7.5t12 -15.5l471 -1388q2 -8 -3.5 -15.5t-12.5 -7.5h-272q-10 0 -20.5 7.5t-12.5 15.5l-109 342h-536l-105 -342q-14 -23 -32 -23h-269q-7 0 -12.5 7.5t-3.5 15.5zM352 1591v228q0 7 8.5 15.5t16.5 8.5h201 q8 0 16 -8.5t8 -15.5v-228q0 -7 -8 -15.5t-16 -8.5h-201q-8 0 -16.5 8.5t-8.5 15.5zM492 612h382l-196 613zM782 1591v228q0 7 8.5 15.5t16.5 8.5h201q8 0 16 -8.5t8 -15.5v-228q0 -7 -8 -15.5t-16 -8.5h-201q-8 0 -16.5 8.5t-8.5 15.5z" />
<glyph unicode="&#xc5;" horiz-adv-x="1384" d="M-6 23l481 1388q2 8 12.5 15.5t20.5 7.5h371q10 0 20 -7.5t12 -15.5l471 -1388q2 -8 -3.5 -15.5t-12.5 -7.5h-272q-10 0 -20.5 7.5t-12.5 15.5l-109 342h-536l-105 -342q-14 -23 -32 -23h-269q-7 0 -12.5 7.5t-3.5 15.5zM432 1794q0 104 75.5 174t188.5 70t189 -70 t76 -174t-76 -174t-189 -70t-188.5 70t-75.5 174zM492 612h382l-196 613zM592 1794q0 -64 29 -99.5t75 -35.5t75.5 35.5t29.5 99.5q0 65 -29.5 100t-75.5 35t-75 -35t-29 -100z" />
<glyph unicode="&#xc6;" horiz-adv-x="1890" d="M-2 23l682 1388q10 23 35 23h1079q8 0 16.5 -9t8.5 -16v-182q0 -7 -8.5 -16t-16.5 -9h-557l-12 -330h510q7 0 15.5 -8t8.5 -16v-182q0 -8 -8.5 -16.5t-15.5 -8.5h-510l12 -410h573q8 0 16.5 -8.5t8.5 -15.5v-182q0 -7 -8.5 -16t-16.5 -9h-870q-8 0 -16.5 9t-8.5 16l9 340 h-449l-160 -342q-10 -23 -34 -23h-269q-7 0 -11.5 7.5t-2.5 15.5zM590 612h338l2 105l-10 506h-48z" />
<glyph unicode="&#xc7;" horiz-adv-x="1445" d="M47 711q0 343 193 548t518 205q532 0 641 -503q1 -7 -6 -16t-15 -9h-256q-11 0 -20 7.5t-10 17.5q-31 126 -117 195t-221 69q-184 0 -284.5 -136t-100.5 -376q0 -238 100.5 -371t282.5 -133q284 0 346 297q1 10 9 17t19 7h263q8 0 14.5 -8.5t5.5 -15.5 q-60 -280 -224.5 -408.5t-424.5 -128.5q-216 0 -379 94.5t-248.5 262.5t-85.5 385zM498 -293l131 311q13 21 35 21l161 -19q8 0 15 -9.5t6 -16.5l-68 -338q-4 -24 -28 -21l-238 46q-8 2 -13 10.5t-1 15.5z" />
<glyph unicode="&#xc8;" horiz-adv-x="1163" d="M88 25l14 692l-14 692q0 7 9 16t16 9h956q7 0 16 -9t9 -16v-182q0 -7 -9 -16t-16 -9h-659l-13 -330h613q8 0 16 -8t8 -16v-182q0 -8 -8.5 -16.5t-15.5 -8.5h-613l13 -410h675q8 0 16.5 -8.5t8.5 -15.5v-182q0 -7 -9 -16t-16 -9h-972q-7 0 -16 9t-9 16zM295 1696l59 182 q2 8 13 12t18 0l477 -207q8 -5 12 -15t0 -17l-38 -99q-12 -19 -35 -16l-490 131q-10 1 -14 10.5t-2 18.5z" />
<glyph unicode="&#xc9;" horiz-adv-x="1163" d="M88 25l14 692l-14 692q0 7 9 16t16 9h956q7 0 16 -9t9 -16v-182q0 -7 -9 -16t-16 -9h-659l-13 -330h613q8 0 16 -8t8 -16v-182q0 -8 -8.5 -16.5t-15.5 -8.5h-613l13 -410h675q8 0 16.5 -8.5t8.5 -15.5v-182q0 -7 -9 -16t-16 -9h-972q-7 0 -16 9t-9 16zM403 1651 q-4 7 0.5 17t12.5 15l477 207q7 4 18 0t13 -12l57 -182q2 -9 -2 -18.5t-14 -10.5l-488 -131q-23 -3 -35 16z" />
<glyph unicode="&#xca;" horiz-adv-x="1163" d="M88 25l14 692l-14 692q0 7 9 16t16 9h956q7 0 16 -9t9 -16v-182q0 -7 -9 -16t-16 -9h-659l-13 -330h613q8 0 16 -8t8 -16v-182q0 -8 -8.5 -16.5t-15.5 -8.5h-613l13 -410h675q8 0 16.5 -8.5t8.5 -15.5v-182q0 -7 -9 -16t-16 -9h-972q-7 0 -16 9t-9 16zM275.5 1674.5 q3.5 11.5 11.5 17.5l278 194q19 15 45 15h74q26 0 45 -15l279 -194q8 -6 11 -17.5t-1 -19.5l-41 -103q-5 -8 -15.5 -12t-17.5 0l-297 148l-297 -148q-7 -4 -17.5 0t-15.5 12l-41 103q-4 8 -0.5 19.5z" />
<glyph unicode="&#xcb;" horiz-adv-x="1163" d="M88 25l14 692l-14 692q0 7 9 16t16 9h956q7 0 16 -9t9 -16v-182q0 -7 -9 -16t-16 -9h-659l-13 -330h613q8 0 16 -8t8 -16v-182q0 -8 -8.5 -16.5t-15.5 -8.5h-613l13 -410h675q8 0 16.5 -8.5t8.5 -15.5v-182q0 -7 -9 -16t-16 -9h-972q-7 0 -16 9t-9 16zM307 1591v228 q0 7 8.5 15.5t16.5 8.5h200q8 0 16.5 -8.5t8.5 -15.5v-228q0 -7 -8.5 -15.5t-16.5 -8.5h-200q-8 0 -16.5 8.5t-8.5 15.5zM737 1591v228q0 7 8.5 15.5t16.5 8.5h201q7 0 15.5 -8.5t8.5 -15.5v-228q0 -7 -8.5 -15.5t-15.5 -8.5h-201q-8 0 -16.5 8.5t-8.5 15.5z" />
<glyph unicode="&#xcc;" horiz-adv-x="516" d="M-92 1696l59 182q2 8 13 12t18 0l477 -207q8 -5 12 -15t0 -17l-38 -99q-12 -19 -35 -16l-490 131q-10 1 -14 10.5t-2 18.5zM98 25l15 692l-15 692q0 7 9 16t16 9h270q7 0 16 -9t9 -16l-15 -692l15 -692q0 -7 -9 -16t-16 -9h-270q-7 0 -16 9t-9 16z" />
<glyph unicode="&#xcd;" horiz-adv-x="516" d="M16 1651q-4 7 0.5 17t12.5 15l477 207q7 4 18 0t13 -12l57 -182q2 -9 -2 -18.5t-14 -10.5l-488 -131q-23 -3 -35 16zM98 25l15 692l-15 692q0 7 9 16t16 9h270q7 0 16 -9t9 -16l-15 -692l15 -692q0 -7 -9 -16t-16 -9h-270q-7 0 -16 9t-9 16z" />
<glyph unicode="&#xce;" horiz-adv-x="516" d="M-111.5 1674.5q3.5 11.5 11.5 17.5l278 194q19 15 45 15h74q26 0 45 -15l279 -194q8 -6 11 -17.5t-1 -19.5l-41 -103q-5 -8 -15.5 -12t-17.5 0l-297 148l-297 -148q-7 -4 -17.5 0t-15.5 12l-41 103q-4 8 -0.5 19.5zM98 25l15 692l-15 692q0 7 9 16t16 9h270q7 0 16 -9 t9 -16l-15 -692l15 -692q0 -7 -9 -16t-16 -9h-270q-7 0 -16 9t-9 16z" />
<glyph unicode="&#xcf;" horiz-adv-x="516" d="M-80 1591v228q0 7 8.5 15.5t16.5 8.5h200q8 0 16.5 -8.5t8.5 -15.5v-228q0 -7 -8.5 -15.5t-16.5 -8.5h-200q-8 0 -16.5 8.5t-8.5 15.5zM98 25l15 692l-15 692q0 7 9 16t16 9h270q7 0 16 -9t9 -16l-15 -692l15 -692q0 -7 -9 -16t-16 -9h-270q-7 0 -16 9t-9 16zM350 1591 v228q0 7 8.5 15.5t16.5 8.5h200q8 0 16.5 -8.5t8.5 -15.5v-228q0 -7 -8.5 -15.5t-16.5 -8.5h-200q-8 0 -16.5 8.5t-8.5 15.5z" />
<glyph unicode="&#xd0;" horiz-adv-x="1447" d="M-16 666v182q0 8 8 16t16 8h117l-10 537q0 8 8.5 16.5t15.5 8.5h502q158 0 292.5 -43.5t240.5 -129.5t166.5 -228t60.5 -326q0 -148 -40 -268t-109.5 -201t-166.5 -135t-206.5 -78.5t-233.5 -24.5h-506q-7 0 -15.5 8.5t-8.5 16.5l12 616h-119q-7 0 -15.5 8.5t-8.5 16.5z M424 641q0 -44 0.5 -90t1.5 -85t2.5 -75.5t3 -65t2.5 -49.5t2 -33v-12h226q89 0 163 27.5t131.5 83.5t90 149.5t32.5 217.5q0 243 -118 368t-308 125h-217v-9q-1 -9 -1.5 -26t-1.5 -39t-2 -51.5t-2 -60.5t-2 -69t-1 -75h356q8 0 16.5 -8.5t8.5 -15.5v-182q0 -8 -8.5 -16.5 t-16.5 -8.5h-358z" />
<glyph unicode="&#xd1;" horiz-adv-x="1423" d="M88 25l12 692l-12 692q0 7 9 16t16 9h331q20 0 37 -21l570 -1010v25l-11 406v575q0 7 9 16t16 9h246q7 0 15.5 -8.5t8.5 -16.5l-12 -692l12 -692q0 -8 -8.5 -16.5t-15.5 -8.5h-344q-21 0 -37 20l-561 1002l4 -82l10 -410v-505q0 -7 -8.5 -16t-16.5 -9h-245q-7 0 -16 9 t-9 16zM387 1593q5 116 57.5 186t151.5 70q39 0 76.5 -17t61 -37t48.5 -37t43 -17q59 0 62 82q0 10 8 17t16 7h107q8 0 16 -8.5t8 -15.5q-5 -121 -55 -188.5t-147 -67.5q-42 0 -80.5 17t-61 37t-49.5 37t-49 17q-54 0 -57 -82q0 -10 -8.5 -17t-16.5 -7h-106q-8 0 -16.5 8.5 t-8.5 15.5z" />
<glyph unicode="&#xd2;" horiz-adv-x="1542" d="M47 713q0 341 197 546t526 205t527 -203t198 -548q0 -217 -89.5 -386t-255 -263.5t-380.5 -94.5q-216 0 -381 94.5t-253.5 263t-88.5 386.5zM369 713q0 -234 106.5 -369t296.5 -135q191 0 296.5 134.5t105.5 369.5q0 237 -105 374.5t-299 137.5t-297.5 -135.5 t-103.5 -376.5zM416 1696l59 182q2 8 13 12t18 0l477 -207q8 -5 12 -15t0 -17l-39 -99q-12 -19 -34 -16l-490 131q-10 1 -14 10.5t-2 18.5z" />
<glyph unicode="&#xd3;" horiz-adv-x="1542" d="M47 713q0 341 197 546t526 205t527 -203t198 -548q0 -217 -89.5 -386t-255 -263.5t-380.5 -94.5q-216 0 -381 94.5t-253.5 263t-88.5 386.5zM369 713q0 -234 106.5 -369t296.5 -135q191 0 296.5 134.5t105.5 369.5q0 237 -105 374.5t-299 137.5t-297.5 -135.5 t-103.5 -376.5zM524 1651q-4 7 0.5 17t12.5 15l477 207q7 4 17.5 0t12.5 -12l58 -182q2 -9 -2.5 -18.5t-14.5 -10.5l-487 -131q-23 -3 -35 16z" />
<glyph unicode="&#xd4;" horiz-adv-x="1542" d="M47 713q0 341 197 546t526 205t527 -203t198 -548q0 -217 -89.5 -386t-255 -263.5t-380.5 -94.5q-216 0 -381 94.5t-253.5 263t-88.5 386.5zM369 713q0 -234 106.5 -369t296.5 -135q191 0 296.5 134.5t105.5 369.5q0 237 -105 374.5t-299 137.5t-297.5 -135.5 t-103.5 -376.5zM396.5 1674.5q3.5 11.5 11.5 17.5l278 194q19 15 45 15h74q26 0 45 -15l278 -194q8 -6 11.5 -17.5t-0.5 -19.5l-41 -103q-5 -8 -15.5 -12t-17.5 0l-297 148l-297 -148q-7 -4 -17.5 0t-15.5 12l-41 103q-4 8 -0.5 19.5z" />
<glyph unicode="&#xd5;" horiz-adv-x="1542" d="M47 713q0 341 197 546t526 205t527 -203t198 -548q0 -217 -89.5 -386t-255 -263.5t-380.5 -94.5q-216 0 -381 94.5t-253.5 263t-88.5 386.5zM369 713q0 -234 106.5 -369t296.5 -135q191 0 296.5 134.5t105.5 369.5q0 237 -105 374.5t-299 137.5t-297.5 -135.5 t-103.5 -376.5zM440 1593q5 116 57.5 186t151.5 70q39 0 76.5 -17t61 -37t49 -37t43.5 -17q58 0 61 82q0 10 8.5 17t16.5 7h106q8 0 16.5 -8.5t8.5 -15.5q-5 -121 -55.5 -188.5t-147.5 -67.5q-42 0 -80.5 17t-61 37t-49.5 37t-49 17q-54 0 -57 -82q0 -10 -8.5 -17t-16.5 -7 h-106q-8 0 -16.5 8.5t-8.5 15.5z" />
<glyph unicode="&#xd6;" horiz-adv-x="1542" d="M47 713q0 341 197 546t526 205t527 -203t198 -548q0 -217 -89.5 -386t-255 -263.5t-380.5 -94.5q-216 0 -381 94.5t-253.5 263t-88.5 386.5zM369 713q0 -234 106.5 -369t296.5 -135q191 0 296.5 134.5t105.5 369.5q0 237 -105 374.5t-299 137.5t-297.5 -135.5 t-103.5 -376.5zM428 1591v228q0 7 8.5 15.5t16.5 8.5h200q8 0 16.5 -8.5t8.5 -15.5v-228q0 -7 -8.5 -15.5t-16.5 -8.5h-200q-8 0 -16.5 8.5t-8.5 15.5zM858 1591v228q0 7 8.5 15.5t16.5 8.5h200q8 0 16.5 -8.5t8.5 -15.5v-228q0 -7 -8.5 -15.5t-16.5 -8.5h-200 q-8 0 -16.5 8.5t-8.5 15.5z" />
<glyph unicode="&#xd7;" horiz-adv-x="1136" d="M130 995.5q0 10.5 7 16.5l125 127q8 6 18.5 6t16.5 -6l272 -273l273 273q6 6 16.5 6t18.5 -6l124 -127q7 -6 8 -16.5t-5 -16.5l-273 -272l270 -271q6 -8 6 -18.5t-6 -18.5l-127 -125q-6 -7 -16 -7.5t-16 5.5l-273 273l-272 -273q-6 -6 -16.5 -5.5t-16.5 7.5l-127 125 q-6 8 -6 18.5t6 16.5l273 273l-273 272q-7 6 -7 16.5z" />
<glyph unicode="&#xd8;" horiz-adv-x="1542" d="M47 713q0 341 197 546t526 205q213 0 377 -88l133 158q6 7 17 7.5t18 -5.5l160 -147q7 -6 7.5 -17t-5.5 -18l-129 -154q147 -200 147 -487q0 -217 -89.5 -386t-255 -263.5t-380.5 -94.5q-212 0 -377 92l-131 -155q-6 -7 -17 -7.5t-18 5.5l-159 147q-8 6 -8.5 16.5 t6.5 18.5l127 152q-146 198 -146 475zM369 713q0 -140 43 -258l587 700q-96 70 -229 70q-194 0 -297.5 -135.5t-103.5 -376.5zM539 281q97 -72 233 -72q191 0 296.5 134.5t105.5 369.5q0 157 -46 270z" />
<glyph unicode="&#xd9;" horiz-adv-x="1312" d="M72 1409q0 8 8.5 16.5t15.5 8.5h281q7 0 15.5 -8.5t8.5 -16.5l-10 -479l2 -395q0 -318 269 -318q288 0 288 318v389l-8 485q0 7 9 16t16 9h250q7 0 15.5 -8.5t8.5 -16.5l-8 -487v-390q0 -274 -144.5 -418.5t-426.5 -144.5q-284 0 -434 145.5t-148 417.5l4 390zM303 1696 l59 182q2 8 13 12t18 0l477 -207q8 -5 12.5 -15t0.5 -17l-39 -99q-12 -19 -35 -16l-490 131q-10 1 -14 10.5t-2 18.5z" />
<glyph unicode="&#xda;" horiz-adv-x="1312" d="M72 1409q0 8 8.5 16.5t15.5 8.5h281q7 0 15.5 -8.5t8.5 -16.5l-10 -479l2 -395q0 -318 269 -318q288 0 288 318v389l-8 485q0 7 9 16t16 9h250q7 0 15.5 -8.5t8.5 -16.5l-8 -487v-390q0 -274 -144.5 -418.5t-426.5 -144.5q-284 0 -434 145.5t-148 417.5l4 390zM422 1651 q-4 7 0 17t12 15l477 207q7 4 18 0t13 -12l57 -182q2 -9 -2 -18.5t-14 -10.5l-487 -131q-23 -3 -35 16z" />
<glyph unicode="&#xdb;" horiz-adv-x="1312" d="M72 1409q0 8 8.5 16.5t15.5 8.5h281q7 0 15.5 -8.5t8.5 -16.5l-10 -479l2 -395q0 -318 269 -318q288 0 288 318v389l-8 485q0 7 9 16t16 9h250q7 0 15.5 -8.5t8.5 -16.5l-8 -487v-390q0 -274 -144.5 -418.5t-426.5 -144.5q-284 0 -434 145.5t-148 417.5l4 390z M286 1674.5q3 11.5 11 17.5l278 194q19 15 46 15h73q26 0 45 -15l279 -194q8 -6 11 -17.5t-1 -19.5l-41 -103q-5 -8 -15.5 -12t-17.5 0l-297 148l-297 -148q-7 -4 -17 0t-15 12l-41 103q-4 8 -1 19.5z" />
<glyph unicode="&#xdc;" horiz-adv-x="1312" d="M72 1409q0 8 8.5 16.5t15.5 8.5h281q7 0 15.5 -8.5t8.5 -16.5l-10 -479l2 -395q0 -318 269 -318q288 0 288 318v389l-8 485q0 7 9 16t16 9h250q7 0 15.5 -8.5t8.5 -16.5l-8 -487v-390q0 -274 -144.5 -418.5t-426.5 -144.5q-284 0 -434 145.5t-148 417.5l4 390zM317 1591 v228q0 7 8.5 15.5t16.5 8.5h201q7 0 15.5 -8.5t8.5 -15.5v-228q0 -7 -8.5 -15.5t-15.5 -8.5h-201q-8 0 -16.5 8.5t-8.5 15.5zM748 1591v228q0 7 8 15.5t16 8.5h201q7 0 15.5 -8.5t8.5 -15.5v-228q0 -7 -8.5 -15.5t-15.5 -8.5h-201q-8 0 -16 8.5t-8 15.5z" />
<glyph unicode="&#xdd;" horiz-adv-x="1259" d="M-2 1411q-4 7 0 15t12 8h307q25 0 35 -23l291 -655l293 655q10 23 35 23h278q8 0 12.5 -8t0.5 -15l-484 -928l13 -458q0 -7 -8.5 -16t-16.5 -9h-274q-8 0 -16.5 9t-8.5 16l12 460zM381 1651q-4 7 0 17t12 15l477 207q7 4 18 0t13 -12l57 -182q2 -9 -2 -18.5t-14 -10.5 l-487 -131q-23 -3 -35 16z" />
<glyph unicode="&#xde;" horiz-adv-x="1232" d="M88 25l12 692l-12 692q0 7 9 16t16 9h272q7 0 16 -9t9 -16l-4 -221h243q261 0 403 -118t142 -343t-145 -350t-402 -125h-241l4 -227q0 -7 -9 -16t-16 -9h-272q-7 0 -16 9t-9 16zM397 690l4 -211h269q98 0 160.5 60t62.5 182q0 240 -231 240h-261z" />
<glyph unicode="&#xdf;" horiz-adv-x="1218" d="M86 25l10 440v536q0 122 39.5 212t111.5 141.5t163 75.5t204 24q227 0 351.5 -100t126.5 -269q0 -115 -71 -191t-185 -97q166 -25 249.5 -120t83.5 -237q0 -107 -43.5 -192.5t-117.5 -138.5t-169 -81t-202 -28h-53q-8 0 -16.5 9t-8.5 16v170q0 7 8.5 15.5t16.5 8.5h53 q212 0 215 211q1 114 -63 173t-177 59h-28q-8 0 -16.5 8.5t-8.5 15.5v150q0 7 8.5 15.5t16.5 8.5h28q94 0 134 51t40 144q0 88 -48 134t-140 46q-98 0 -150.5 -56t-52.5 -186v-528l11 -440q0 -7 -9 -16t-16 -9h-270q-7 0 -16 9t-9 16z" />
<glyph unicode="&#xe0;" d="M47 524q0 153 55 277.5t161.5 199t246.5 74.5q191 0 305 -133l-4 88q-1 7 7 16t16 9h262q7 0 15.5 -8.5t8.5 -16.5l-10 -504l10 -501q0 -8 -8.5 -16.5t-15.5 -8.5h-260q-8 0 -16.5 9t-8.5 16l4 98q-118 -143 -311 -143q-144 0 -249 72.5t-156.5 194t-51.5 277.5z M240 1317l59 182q2 8 13 12t18 0l477 -206q8 -5 12 -15.5t0 -17.5l-39 -98q-12 -20 -35 -17l-489 131q-10 1 -14 10.5t-2 18.5zM360 541q0 -177 59.5 -268t170.5 -89q111 0 170.5 85.5t60.5 250.5q2 167 -56.5 258t-168.5 92q-116 1 -176 -83t-60 -246z" />
<glyph unicode="&#xe1;" d="M47 524q0 153 55 277.5t161.5 199t246.5 74.5q191 0 305 -133l-4 88q-1 7 7 16t16 9h262q7 0 15.5 -8.5t8.5 -16.5l-10 -504l10 -501q0 -8 -8.5 -16.5t-15.5 -8.5h-260q-8 0 -16.5 9t-8.5 16l4 98q-118 -143 -311 -143q-144 0 -249 72.5t-156.5 194t-51.5 277.5z M338 1272q-4 7 0 17.5t12 15.5l477 206q7 4 18 0t13 -12l57 -182q2 -9 -2 -18.5t-14 -10.5l-487 -131q-23 -3 -35 17zM360 541q0 -177 59.5 -268t170.5 -89q111 0 170.5 85.5t60.5 250.5q2 167 -56.5 258t-168.5 92q-116 1 -176 -83t-60 -246z" />
<glyph unicode="&#xe2;" d="M47 524q0 153 55 277.5t161.5 199t246.5 74.5q191 0 305 -133l-4 88q-1 7 7 16t16 9h262q7 0 15.5 -8.5t8.5 -16.5l-10 -504l10 -501q0 -8 -8.5 -16.5t-15.5 -8.5h-260q-8 0 -16.5 9t-8.5 16l4 98q-118 -143 -311 -143q-144 0 -249 72.5t-156.5 194t-51.5 277.5z M210 1295.5q3 11.5 11 17.5l279 194q19 15 45 15h73q27 0 46 -15l278 -194q8 -6 11 -17.5t-1 -19.5l-41 -102q-5 -8 -15 -12.5t-17 -0.5l-297 148l-297 -148q-7 -4 -17.5 0.5t-15.5 12.5l-41 102q-4 8 -1 19.5zM360 541q0 -177 59.5 -268t170.5 -89q111 0 170.5 85.5 t60.5 250.5q2 167 -56.5 258t-168.5 92q-116 1 -176 -83t-60 -246z" />
<glyph unicode="&#xe3;" d="M47 524q0 153 55 277.5t161.5 199t246.5 74.5q191 0 305 -133l-4 88q-1 7 7 16t16 9h262q7 0 15.5 -8.5t8.5 -16.5l-10 -504l10 -501q0 -8 -8.5 -16.5t-15.5 -8.5h-260q-8 0 -16.5 9t-8.5 16l4 98q-118 -143 -311 -143q-144 0 -249 72.5t-156.5 194t-51.5 277.5z M254 1214q5 116 57.5 186t151.5 70q39 0 76.5 -17t61 -37t48.5 -37t43 -17q59 0 62 82q0 10 8 17t16 7h107q7 0 15.5 -8t8.5 -16q-5 -121 -55 -188.5t-147 -67.5q-42 0 -80.5 17t-61 37t-49.5 37t-49 17q-54 0 -57 -82q0 -10 -8.5 -17t-16.5 -7h-106q-8 0 -16.5 8.5 t-8.5 15.5zM360 541q0 -177 59.5 -268t170.5 -89q111 0 170.5 85.5t60.5 250.5q2 167 -56.5 258t-168.5 92q-116 1 -176 -83t-60 -246z" />
<glyph unicode="&#xe4;" d="M47 524q0 153 55 277.5t161.5 199t246.5 74.5q191 0 305 -133l-4 88q-1 7 7 16t16 9h262q7 0 15.5 -8.5t8.5 -16.5l-10 -504l10 -501q0 -8 -8.5 -16.5t-15.5 -8.5h-260q-8 0 -16.5 9t-8.5 16l4 98q-118 -143 -311 -143q-144 0 -249 72.5t-156.5 194t-51.5 277.5z M242 1212v228q0 8 8 16t16 8h201q8 0 16.5 -8.5t8.5 -15.5v-228q0 -7 -8.5 -15.5t-16.5 -8.5h-201q-8 0 -16 8t-8 16zM360 541q0 -177 59.5 -268t170.5 -89q111 0 170.5 85.5t60.5 250.5q2 167 -56.5 258t-168.5 92q-116 1 -176 -83t-60 -246zM672 1212v228q0 8 8 16t16 8 h201q8 0 16.5 -8.5t8.5 -15.5v-228q0 -7 -8.5 -15.5t-16.5 -8.5h-201q-8 0 -16 8t-8 16z" />
<glyph unicode="&#xe5;" d="M47 524q0 153 55 277.5t161.5 199t246.5 74.5q191 0 305 -133l-4 88q-1 7 7 16t16 9h262q7 0 15.5 -8.5t8.5 -16.5l-10 -504l10 -501q0 -8 -8.5 -16.5t-15.5 -8.5h-260q-8 0 -16.5 9t-8.5 16l4 98q-118 -143 -311 -143q-144 0 -249 72.5t-156.5 194t-51.5 277.5z M317 1415q0 104 76 174t189 70t188.5 -70t75.5 -174t-75.5 -174t-188.5 -70t-189 70t-76 174zM360 541q0 -177 59.5 -268t170.5 -89q111 0 170.5 85.5t60.5 250.5q2 167 -56.5 258t-168.5 92q-116 1 -176 -83t-60 -246zM477 1415q0 -64 29.5 -99.5t75.5 -35.5t75 35.5 t29 99.5q0 65 -29 100t-75 35t-75.5 -35t-29.5 -100z" />
<glyph unicode="&#xe6;" horiz-adv-x="1972" d="M47 524q0 153 55 277.5t161.5 199t246.5 74.5q191 0 305 -133l-4 88q-1 7 7 16t16 9h260q7 0 15.5 -8.5t8.5 -16.5v-45q124 96 291 96q244 0 381 -158.5t143 -433.5q0 -7 -8.5 -15.5t-15.5 -8.5h-748q15 -287 238 -287q165 0 203 154q1 10 10.5 17t21.5 7h244 q8 0 16 -8.5t7 -15.5q-10 -71 -48.5 -135.5t-99.5 -114.5t-149 -79.5t-189 -29.5q-172 0 -297 97v-45q0 -8 -8.5 -16.5t-15.5 -8.5h-258q-8 0 -16.5 9t-8.5 16l4 98q-118 -143 -311 -143q-144 0 -249 72.5t-156.5 194t-51.5 277.5zM360 541q0 -177 59.5 -268t170.5 -89 q111 0 170.5 85.5t60.5 250.5q2 167 -56.5 258t-168.5 92q-116 1 -176 -83t-60 -246zM1169 659h433q-8 92 -62.5 156t-148.5 64q-184 0 -222 -220z" />
<glyph unicode="&#xe7;" horiz-adv-x="1116" d="M47 524q0 249 146 404q144 153 399 153q198 0 324 -103t147 -273q1 -7 -7 -16t-16 -9h-235q-11 0 -19.5 7.5t-9.5 17.5q-18 83 -68 126t-116 43q-230 -3 -230 -348q0 -178 56.5 -262t173.5 -86q77 -2 130.5 52t63.5 151q4 25 27 25h242q8 0 15.5 -9t6.5 -16 q-18 -179 -153 -293q-136 -115 -338 -115q-250 0 -396 152q-143 149 -143 399zM330 -293l131 311q13 21 35 21l161 -19q8 0 15 -9.5t6 -16.5l-68 -338q-4 -24 -28 -21l-238 46q-8 2 -13 10.5t-1 15.5z" />
<glyph unicode="&#xe8;" horiz-adv-x="1167" d="M47 524q0 252 143 404q144 153 394 153q253 0 395.5 -158.5t148.5 -433.5q0 -7 -8 -15.5t-16 -8.5h-748q15 -287 238 -287q165 0 203 154q1 10 10.5 17t21.5 7h244q8 0 16 -8.5t7 -15.5q-26 -150 -161.5 -254.5t-344.5 -104.5q-257 0 -400 152.5t-143 398.5zM248 1317 l59 182q2 8 13 12t18 0l477 -206q8 -5 12 -15.5t0 -17.5l-39 -98q-12 -20 -34 -17l-490 131q-10 1 -14 10.5t-2 18.5zM365 659h432q-8 92 -62.5 156t-148.5 64q-183 0 -221 -220z" />
<glyph unicode="&#xe9;" horiz-adv-x="1167" d="M47 524q0 252 143 404q144 153 394 153q253 0 395.5 -158.5t148.5 -433.5q0 -7 -8 -15.5t-16 -8.5h-748q15 -287 238 -287q165 0 203 154q1 10 10.5 17t21.5 7h244q8 0 16 -8.5t7 -15.5q-26 -150 -161.5 -254.5t-344.5 -104.5q-257 0 -400 152.5t-143 398.5zM336 1272 q-4 7 0 17.5t12 15.5l477 206q7 4 18 0t13 -12l57 -182q2 -9 -2 -18.5t-14 -10.5l-487 -131q-23 -3 -35 17zM365 659h432q-8 92 -62.5 156t-148.5 64q-183 0 -221 -220z" />
<glyph unicode="&#xea;" horiz-adv-x="1167" d="M47 524q0 252 143 404q144 153 394 153q253 0 395.5 -158.5t148.5 -433.5q0 -7 -8 -15.5t-16 -8.5h-748q15 -287 238 -287q165 0 203 154q1 10 10.5 17t21.5 7h244q8 0 16 -8.5t7 -15.5q-26 -150 -161.5 -254.5t-344.5 -104.5q-257 0 -400 152.5t-143 398.5zM214 1295.5 q3 11.5 11 17.5l279 194q19 15 45 15h74q26 0 45 -15l278 -194q8 -6 11 -17.5t-1 -19.5l-41 -102q-5 -8 -15 -12.5t-17 -0.5l-297 148l-297 -148q-7 -4 -17.5 0.5t-15.5 12.5l-41 102q-4 8 -1 19.5zM365 659h432q-8 92 -62.5 156t-148.5 64q-183 0 -221 -220z" />
<glyph unicode="&#xeb;" horiz-adv-x="1167" d="M47 524q0 252 143 404q144 153 394 153q253 0 395.5 -158.5t148.5 -433.5q0 -7 -8 -15.5t-16 -8.5h-748q15 -287 238 -287q165 0 203 154q1 10 10.5 17t21.5 7h244q8 0 16 -8.5t7 -15.5q-26 -150 -161.5 -254.5t-344.5 -104.5q-257 0 -400 152.5t-143 398.5zM246 1212 v228q0 8 8 16t16 8h201q8 0 16.5 -8.5t8.5 -15.5v-228q0 -7 -8.5 -15.5t-16.5 -8.5h-201q-8 0 -16 8t-8 16zM365 659h432q-8 92 -62.5 156t-148.5 64q-183 0 -221 -220zM676 1212v228q0 8 8 16t16 8h201q8 0 16.5 -8.5t8.5 -15.5v-228q0 -7 -8.5 -15.5t-16.5 -8.5h-201 q-8 0 -16 8t-8 16z" />
<glyph unicode="&#xec;" horiz-adv-x="479" d="M-115 1317l60 182q2 8 12.5 12t17.5 0l478 -206q8 -5 12 -15.5t0 -17.5l-39 -98q-12 -20 -35 -17l-489 131q-10 1 -14.5 10.5t-2.5 18.5zM82 25l10 501l-10 504q0 8 8.5 16.5t15.5 8.5h269q7 0 15.5 -8.5t8.5 -16.5l-10 -504l10 -501q0 -8 -8.5 -16.5t-15.5 -8.5h-269 q-7 0 -15.5 8.5t-8.5 16.5z" />
<glyph unicode="&#xed;" horiz-adv-x="479" d="M20 1272q-4 7 0.5 17.5t12.5 15.5l477 206q7 4 18 0t13 -12l57 -182q2 -9 -2 -18.5t-14 -10.5l-488 -131q-23 -3 -35 17zM82 25l10 501l-10 504q0 8 8.5 16.5t15.5 8.5h269q7 0 15.5 -8.5t8.5 -16.5l-10 -504l10 -501q0 -8 -8.5 -16.5t-15.5 -8.5h-269q-7 0 -15.5 8.5 t-8.5 16.5z" />
<glyph unicode="&#xee;" horiz-adv-x="479" d="M-132 1295.5q3 11.5 11 17.5l279 194q19 15 45 15h73q27 0 46 -15l278 -194q8 -6 11 -17.5t-1 -19.5l-41 -102q-5 -8 -15 -12.5t-17 -0.5l-297 148l-297 -148q-7 -4 -17.5 0.5t-15.5 12.5l-41 102q-4 8 -1 19.5zM82 25l10 501l-10 504q0 8 8.5 16.5t15.5 8.5h269 q7 0 15.5 -8.5t8.5 -16.5l-10 -504l10 -501q0 -8 -8.5 -16.5t-15.5 -8.5h-269q-7 0 -15.5 8.5t-8.5 16.5z" />
<glyph unicode="&#xef;" horiz-adv-x="479" d="M-100 1212v228q0 8 8 16t16 8h201q8 0 16.5 -8.5t8.5 -15.5v-228q0 -7 -8.5 -15.5t-16.5 -8.5h-201q-8 0 -16 8t-8 16zM82 25l10 501l-10 504q0 8 8.5 16.5t15.5 8.5h269q7 0 15.5 -8.5t8.5 -16.5l-10 -504l10 -501q0 -8 -8.5 -16.5t-15.5 -8.5h-269q-7 0 -15.5 8.5 t-8.5 16.5zM330 1212v228q0 8 8 16t16 8h201q8 0 16.5 -8.5t8.5 -15.5v-228q0 -7 -8.5 -15.5t-16.5 -8.5h-201q-8 0 -16 8t-8 16z" />
<glyph unicode="&#xf0;" horiz-adv-x="1198" d="M55 457q3 203 131 334t336 131q197 0 301 -119q-12 155 -127 280l-235 -112q-7 -4 -17.5 0t-15.5 12l-63 125q-4 7 0 17.5t12 15.5l155 76q-83 47 -184 81q-8 2 -11 11.5t1 17.5l86 143q4 7 15.5 11t19.5 2q184 -61 321 -150l260 125q7 4 17.5 0t15.5 -12l64 -125 q4 -7 -0.5 -17.5t-12.5 -15.5l-186 -88q205 -227 205 -616q0 -180 -65 -318t-192 -217.5t-298 -79.5q-227 0 -380 140.5t-153 347.5zM381 440q0 -115 61 -181t162 -66q99 0 154 69t55 191q0 120 -60 186t-165 66q-102 0 -154.5 -70t-52.5 -195z" />
<glyph unicode="&#xf1;" horiz-adv-x="1148" d="M76 25l10 481l-6 524q0 8 8.5 16.5t15.5 8.5h248q8 0 16 -9t7 -16l-4 -108q56 72 144.5 114.5t195.5 42.5q167 0 265.5 -109t98.5 -300v-221l8 -424q0 -8 -8.5 -16.5t-15.5 -8.5h-262q-7 0 -16 9t-9 16l6 424v217q0 85 -46 136.5t-116 51.5q-91 0 -160 -85.5t-69 -242.5 v-77l4 -424q0 -8 -8.5 -16.5t-15.5 -8.5h-267q-7 0 -15.5 8.5t-8.5 16.5zM250 1214q5 116 57.5 186t151.5 70q39 0 76.5 -17t61 -37t48.5 -37t43 -17q59 0 62 82q0 10 8 17t16 7h107q7 0 15.5 -8t8.5 -16q-5 -121 -55.5 -188.5t-147.5 -67.5q-42 0 -80 17t-61 37t-49.5 37 t-48.5 17q-54 0 -57 -82q0 -10 -8.5 -17t-16.5 -7h-107q-8 0 -16 8t-8 16z" />
<glyph unicode="&#xf2;" horiz-adv-x="1175" d="M47 524q0 252 143 404q144 153 400 153q257 0 397 -149q141 -150 141 -402q0 -250 -141 -403q-142 -154 -397 -154q-254 0 -400 152q-143 149 -143 399zM242 1317l59 182q2 8 13 12t18 0l477 -206q8 -5 12 -15.5t0 -17.5l-39 -98q-12 -20 -34 -17l-490 131 q-10 1 -14 10.5t-2 18.5zM360 522q0 -177 57 -260.5t173 -83.5q113 0 168 83.5t55 262.5q0 353 -225 353q-117 -1 -172.5 -88.5t-55.5 -266.5z" />
<glyph unicode="&#xf3;" horiz-adv-x="1175" d="M47 524q0 252 143 404q144 153 400 153q257 0 397 -149q141 -150 141 -402q0 -250 -141 -403q-142 -154 -397 -154q-254 0 -400 152q-143 149 -143 399zM340 1272q-4 7 0 17.5t12 15.5l477 206q7 4 18 0t13 -12l58 -182q2 -9 -2.5 -18.5t-14.5 -10.5l-487 -131 q-23 -3 -35 17zM360 522q0 -177 57 -260.5t173 -83.5q113 0 168 83.5t55 262.5q0 353 -225 353q-117 -1 -172.5 -88.5t-55.5 -266.5z" />
<glyph unicode="&#xf4;" horiz-adv-x="1175" d="M47 524q0 252 143 404q144 153 400 153q257 0 397 -149q141 -150 141 -402q0 -250 -141 -403q-142 -154 -397 -154q-254 0 -400 152q-143 149 -143 399zM216 1295.5q3 11.5 11 17.5l279 194q19 15 45 15h74q26 0 45 -15l278 -194q8 -6 11 -17.5t-1 -19.5l-40 -102 q-5 -8 -15.5 -12.5t-17.5 -0.5l-297 148l-297 -148q-7 -4 -17.5 0.5t-15.5 12.5l-41 102q-4 8 -1 19.5zM360 522q0 -177 57 -260.5t173 -83.5q113 0 168 83.5t55 262.5q0 353 -225 353q-117 -1 -172.5 -88.5t-55.5 -266.5z" />
<glyph unicode="&#xf5;" horiz-adv-x="1175" d="M47 524q0 252 143 404q144 153 400 153q257 0 397 -149q141 -150 141 -402q0 -250 -141 -403q-142 -154 -397 -154q-254 0 -400 152q-143 149 -143 399zM260 1214q5 116 57.5 186t151.5 70q39 0 76.5 -17t61 -37t48.5 -37t43 -17q59 0 62 82q0 10 8 17t16 7h107 q7 0 15.5 -8t8.5 -16q-5 -121 -55 -188.5t-147 -67.5q-42 0 -80.5 17t-61 37t-49.5 37t-49 17q-54 0 -57 -82q0 -10 -8.5 -17t-16.5 -7h-106q-8 0 -16.5 8.5t-8.5 15.5zM360 522q0 -177 57 -260.5t173 -83.5q113 0 168 83.5t55 262.5q0 353 -225 353q-117 -1 -172.5 -88.5 t-55.5 -266.5z" />
<glyph unicode="&#xf6;" horiz-adv-x="1175" d="M47 524q0 252 143 404q144 153 400 153q257 0 397 -149q141 -150 141 -402q0 -250 -141 -403q-142 -154 -397 -154q-254 0 -400 152q-143 149 -143 399zM248 1212v228q0 8 8 16t16 8h201q8 0 16.5 -8.5t8.5 -15.5v-228q0 -7 -8.5 -15.5t-16.5 -8.5h-201q-8 0 -16 8t-8 16 zM360 522q0 -177 57 -260.5t173 -83.5q113 0 168 83.5t55 262.5q0 353 -225 353q-117 -1 -172.5 -88.5t-55.5 -266.5zM678 1212v228q0 8 8 16t16 8h201q8 0 16.5 -8.5t8.5 -15.5v-228q0 -7 -8.5 -15.5t-16.5 -8.5h-201q-8 0 -16 8t-8 16z" />
<glyph unicode="&#xf7;" horiz-adv-x="1136" d="M88 616v179q0 7 8.5 15.5t16.5 8.5h913q8 0 16.5 -8.5t8.5 -15.5v-179q0 -7 -8.5 -15.5t-16.5 -8.5h-913q-8 0 -16.5 8.5t-8.5 15.5zM408 154v243q0 8 8.5 16.5t15.5 8.5h270q8 0 16.5 -9t8.5 -16v-243q0 -8 -8.5 -16.5t-16.5 -8.5h-270q-7 0 -15.5 8.5t-8.5 16.5z M408 1018v244q0 8 8 16t16 8h270q8 0 16.5 -8.5t8.5 -15.5v-244q0 -8 -8.5 -16.5t-16.5 -8.5h-270q-7 0 -15.5 8.5t-8.5 16.5z" />
<glyph unicode="&#xf8;" horiz-adv-x="1175" d="M47 524q0 252 143 404q144 153 400 153q148 0 272 -57l101 123q6 7 16.5 7.5t17.5 -5.5l111 -105q8 -6 8.5 -16t-6.5 -18l-92 -113q110 -141 110 -367q0 -250 -141 -403q-142 -154 -397 -154q-166 0 -281 62l-98 -121q-6 -7 -17 -7.5t-18 5.5l-108 106q-8 6 -8.5 16.5 t6.5 18.5l88 111q-107 145 -107 360zM360 522q0 -65 11 -129l356 432q-52 52 -139 52q-117 -1 -172.5 -88.5t-55.5 -266.5zM442 231q53 -53 148 -53q113 0 168 83.5t55 262.5q0 82 -12 144z" />
<glyph unicode="&#xf9;" horiz-adv-x="1148" d="M66 1030q0 8 8.5 16.5t15.5 8.5h262q8 0 16.5 -8.5t8.5 -16.5l-6 -424v-217q0 -85 45.5 -136.5t115.5 -51.5q91 0 160.5 85t69.5 242v78l-4 424q0 8 8.5 16.5t15.5 8.5h267q7 0 15.5 -8.5t8.5 -16.5l-10 -481l6 -524q0 -7 -8.5 -16t-16.5 -9h-247q-8 0 -16 9t-7 16l4 108 q-56 -72 -144.5 -115t-195.5 -43q-167 0 -265.5 109.5t-98.5 300.5v221zM217 1317l59 182q2 8 13 12t18 0l477 -206q8 -5 12.5 -15.5t0.5 -17.5l-39 -98q-12 -20 -35 -17l-490 131q-10 1 -14 10.5t-2 18.5z" />
<glyph unicode="&#xfa;" horiz-adv-x="1148" d="M66 1030q0 8 8.5 16.5t15.5 8.5h262q8 0 16.5 -8.5t8.5 -16.5l-6 -424v-217q0 -85 45.5 -136.5t115.5 -51.5q91 0 160.5 85t69.5 242v78l-4 424q0 8 8.5 16.5t15.5 8.5h267q7 0 15.5 -8.5t8.5 -16.5l-10 -481l6 -524q0 -7 -8.5 -16t-16.5 -9h-247q-8 0 -16 9t-7 16l4 108 q-56 -72 -144.5 -115t-195.5 -43q-167 0 -265.5 109.5t-98.5 300.5v221zM326 1272q-4 7 0 17.5t12 15.5l477 206q7 4 18 0t13 -12l57 -182q2 -9 -2 -18.5t-14 -10.5l-488 -131q-22 -3 -34 17z" />
<glyph unicode="&#xfb;" horiz-adv-x="1148" d="M66 1030q0 8 8.5 16.5t15.5 8.5h262q8 0 16.5 -8.5t8.5 -16.5l-6 -424v-217q0 -85 45.5 -136.5t115.5 -51.5q91 0 160.5 85t69.5 242v78l-4 424q0 8 8.5 16.5t15.5 8.5h267q7 0 15.5 -8.5t8.5 -16.5l-10 -481l6 -524q0 -7 -8.5 -16t-16.5 -9h-247q-8 0 -16 9t-7 16l4 108 q-56 -72 -144.5 -115t-195.5 -43q-167 0 -265.5 109.5t-98.5 300.5v221zM198 1295.5q3 11.5 11 17.5l278 194q19 15 45 15h74q26 0 45 -15l279 -194q8 -6 11 -17.5t-1 -19.5l-41 -102q-5 -8 -15.5 -12.5t-17.5 -0.5l-297 148l-297 -148q-7 -4 -17 0.5t-15 12.5l-41 102 q-4 8 -1 19.5z" />
<glyph unicode="&#xfc;" horiz-adv-x="1148" d="M66 1030q0 8 8.5 16.5t15.5 8.5h262q8 0 16.5 -8.5t8.5 -16.5l-6 -424v-217q0 -85 45.5 -136.5t115.5 -51.5q91 0 160.5 85t69.5 242v78l-4 424q0 8 8.5 16.5t15.5 8.5h267q7 0 15.5 -8.5t8.5 -16.5l-10 -481l6 -524q0 -7 -8.5 -16t-16.5 -9h-247q-8 0 -16 9t-7 16l4 108 q-56 -72 -144.5 -115t-195.5 -43q-167 0 -265.5 109.5t-98.5 300.5v221zM229 1212v228q0 7 8.5 15.5t16.5 8.5h201q7 0 15.5 -8t8.5 -16v-228q0 -8 -8.5 -16t-15.5 -8h-201q-8 0 -16.5 8.5t-8.5 15.5zM659 1212v228q0 7 8.5 15.5t16.5 8.5h201q7 0 15.5 -8t8.5 -16v-228 q0 -8 -8.5 -16t-15.5 -8h-201q-8 0 -16.5 8.5t-8.5 15.5z" />
<glyph unicode="&#xfd;" horiz-adv-x="1050" d="M-14 1032q-2 8 3.5 15.5t12.5 7.5h297q10 0 20.5 -7.5t12.5 -15.5l227 -653l189 651q1 10 10 17.5t20 7.5h262q7 0 13 -7.5t4 -15.5l-465 -1358q-2 -8 -12.5 -15t-20.5 -7h-244q-7 0 -12.5 7t-3.5 15l109 316zM287 1272q-4 7 0 17.5t12 15.5l477 206q7 4 18 0t13 -12 l57 -182q2 -9 -2 -18.5t-14 -10.5l-488 -131q-22 -3 -34 17z" />
<glyph unicode="&#xfe;" d="M72 -324l10 875l-10 858q0 8 8.5 16.5t15.5 8.5h262q8 0 16.5 -9t8.5 -16l-6 -481q115 147 313 147q144 0 249 -73t156.5 -194.5t51.5 -277.5q0 -153 -55 -277.5t-161.5 -198.5t-246.5 -74q-195 0 -299 129l4 -433q0 -8 -8.5 -16t-15.5 -8h-269q-8 0 -16 8t-8 16z M373 535q-2 -166 56.5 -257.5t168.5 -91.5q116 0 176 84t60 244q0 172 -59.5 262t-170.5 90t-170.5 -84t-60.5 -247z" />
<glyph unicode="&#xff;" horiz-adv-x="1050" d="M-14 1032q-2 8 3.5 15.5t12.5 7.5h297q10 0 20.5 -7.5t12.5 -15.5l227 -653l189 651q1 10 10 17.5t20 7.5h262q7 0 13 -7.5t4 -15.5l-465 -1358q-2 -8 -12.5 -15t-20.5 -7h-244q-7 0 -12.5 7t-3.5 15l109 316zM193 1212v228q0 8 8.5 16t15.5 8h201q8 0 16 -8t8 -16v-228 q0 -8 -8 -16t-16 -8h-201q-7 0 -15.5 8t-8.5 16zM623 1212v228q0 8 8.5 16t15.5 8h201q8 0 16 -8t8 -16v-228q0 -8 -8 -16t-16 -8h-201q-7 0 -15.5 8t-8.5 16z" />
<glyph unicode="&#x152;" horiz-adv-x="2076" d="M47 707q0 184 60.5 326t166.5 228t240.5 129.5t292.5 43.5h1188q7 0 15.5 -8.5t8.5 -16.5v-182q0 -8 -8.5 -16.5t-15.5 -8.5h-664l-4 -330h608q8 0 16.5 -8.5t8.5 -15.5v-182q0 -8 -9 -16.5t-16 -8.5h-608l4 -410h680q8 0 16.5 -8.5t8.5 -15.5v-182q0 -7 -9 -16t-16 -9 h-1208q-124 0 -233.5 24.5t-206.5 78.5t-166.5 135t-109.5 201t-40 268zM369 709q0 -124 32.5 -217.5t90 -149.5t131.5 -83.5t163 -27.5h226l1 13q1 12 2 34.5t2.5 50.5t2.5 66.5t2 75.5l2 246l-2 254l-2 74t-2.5 64t-2.5 48t-2 33l-1 12h-217q-190 0 -308 -125t-118 -368z " />
<glyph unicode="&#x153;" horiz-adv-x="1939" d="M45 524q0 252 137 404q138 153 385 153q276 0 408 -202q64 98 166.5 150t234.5 52q244 0 381.5 -158.5t143.5 -433.5q0 -7 -8.5 -15.5t-16.5 -8.5h-748q15 -287 238 -287q165 0 203 154q1 10 11 17t22 7h243q8 0 16 -8.5t7 -15.5q-10 -71 -48.5 -135.5t-99.5 -114.5 t-149 -79.5t-189 -29.5q-137 0 -240.5 53t-168.5 150q-64 -98 -167.5 -150.5t-238.5 -52.5q-245 0 -385 152q-137 149 -137 399zM358 522q0 -177 57 -260.5t173 -83.5q113 0 168 83.5t55 262.5q0 353 -225 353q-117 -1 -172.5 -88.5t-55.5 -266.5zM1137 659h432 q-8 92 -62.5 156t-148.5 64q-183 0 -221 -220z" />
<glyph unicode="&#x178;" horiz-adv-x="1259" d="M-2 1411q-4 7 0 15t12 8h307q25 0 35 -23l291 -655l293 655q10 23 35 23h278q8 0 12.5 -8t0.5 -15l-484 -928l13 -458q0 -7 -8.5 -16t-16.5 -9h-274q-8 0 -16.5 9t-8.5 16l12 460zM295 1591v228q0 7 8.5 15.5t15.5 8.5h201q8 0 16.5 -8.5t8.5 -15.5v-228q0 -7 -8.5 -15.5 t-16.5 -8.5h-201q-7 0 -15.5 8.5t-8.5 15.5zM725 1591v228q0 7 8.5 15.5t16.5 8.5h200q8 0 16.5 -8.5t8.5 -15.5v-228q0 -7 -8.5 -15.5t-16.5 -8.5h-200q-8 0 -16.5 8.5t-8.5 15.5z" />
<glyph unicode="&#x2c6;" horiz-adv-x="1024" d="M140.5 1295.5q3.5 11.5 11.5 17.5l278 194q19 15 45 15h74q26 0 45 -15l278 -194q8 -6 11.5 -17.5t-0.5 -19.5l-41 -102q-5 -8 -15.5 -12.5t-17.5 -0.5l-297 148l-297 -148q-7 -4 -17.5 0.5t-15.5 12.5l-41 102q-4 8 -0.5 19.5z" />
<glyph unicode="&#x2dc;" horiz-adv-x="1024" d="M184 1214q5 116 57.5 186t151.5 70q39 0 76.5 -17t61 -37t49 -37t43.5 -17q58 0 61 82q0 10 8.5 17t16.5 7h106q8 0 16.5 -8.5t8.5 -15.5q-5 -121 -55.5 -188.5t-147.5 -67.5q-42 0 -80.5 17t-61 37t-49.5 37t-49 17q-54 0 -57 -82q0 -10 -8.5 -17t-16.5 -7h-106 q-8 0 -16.5 8.5t-8.5 15.5z" />
<glyph unicode="&#x2000;" horiz-adv-x="1019" />
<glyph unicode="&#x2001;" horiz-adv-x="2038" />
<glyph unicode="&#x2002;" horiz-adv-x="1019" />
<glyph unicode="&#x2003;" horiz-adv-x="2038" />
<glyph unicode="&#x2004;" horiz-adv-x="679" />
<glyph unicode="&#x2005;" horiz-adv-x="509" />
<glyph unicode="&#x2006;" horiz-adv-x="339" />
<glyph unicode="&#x2007;" horiz-adv-x="339" />
<glyph unicode="&#x2008;" horiz-adv-x="254" />
<glyph unicode="&#x2009;" horiz-adv-x="407" />
<glyph unicode="&#x200a;" horiz-adv-x="113" />
<glyph unicode="&#x2010;" horiz-adv-x="571" d="M27 518v164q0 8 8.5 16.5t15.5 8.5h469q8 0 16.5 -8.5t8.5 -16.5v-164q0 -7 -8.5 -15.5t-16.5 -8.5h-469q-7 0 -15.5 8t-8.5 16z" />
<glyph unicode="&#x2011;" horiz-adv-x="571" d="M27 518v164q0 8 8.5 16.5t15.5 8.5h469q8 0 16.5 -8.5t8.5 -16.5v-164q0 -7 -8.5 -15.5t-16.5 -8.5h-469q-7 0 -15.5 8t-8.5 16z" />
<glyph unicode="&#x2012;" horiz-adv-x="571" d="M27 518v164q0 8 8.5 16.5t15.5 8.5h469q8 0 16.5 -8.5t8.5 -16.5v-164q0 -7 -8.5 -15.5t-16.5 -8.5h-469q-7 0 -15.5 8t-8.5 16z" />
<glyph unicode="&#x2013;" horiz-adv-x="854" d="M27 528v164q0 8 8.5 16.5t15.5 8.5h750q7 0 15.5 -8.5t8.5 -16.5v-164q0 -8 -8.5 -16t-15.5 -8h-750q-7 0 -15.5 8t-8.5 16z" />
<glyph unicode="&#x2014;" horiz-adv-x="1263" d="M27 528v164q0 8 8.5 16.5t15.5 8.5h1159q8 0 16.5 -8.5t8.5 -16.5v-164q0 -7 -8.5 -15.5t-16.5 -8.5h-1159q-7 0 -15.5 8t-8.5 16z" />
<glyph unicode="&#x2018;" horiz-adv-x="450" d="M53 926v233q0 26 15 45l157 209q17 21 39 21h125q7 0 14 -8.5t5 -16.5l-62 -223v-260q0 -8 -8.5 -16.5t-15.5 -8.5h-244q-8 0 -16.5 8.5t-8.5 16.5z" />
<glyph unicode="&#x2019;" horiz-adv-x="450" d="M45 926l61 223v260q0 7 9 16t16 9h244q7 0 15.5 -8.5t8.5 -16.5v-233q0 -28 -14 -46l-158 -208q-17 -21 -39 -21h-125q-7 0 -13.5 8.5t-4.5 16.5z" />
<glyph unicode="&#x201a;" horiz-adv-x="444" d="M41 -215l61 223v260q0 8 9 16.5t16 8.5h244q7 0 15.5 -8.5t8.5 -16.5v-233q0 -27 -14 -45l-158 -209q-17 -21 -39 -21h-125q-7 0 -13.5 8.5t-4.5 16.5z" />
<glyph unicode="&#x201c;" horiz-adv-x="833" d="M49 926v233q0 27 14 45l158 209q17 21 39 21h125q7 0 13.5 -8.5t4.5 -16.5l-61 -223v-260q0 -8 -9 -16.5t-16 -8.5h-243q-8 0 -16.5 8.5t-8.5 16.5zM432 926v233q0 27 14 45l158 209q17 21 39 21h125q7 0 13.5 -8.5t4.5 -16.5l-61 -223v-260q0 -8 -8.5 -16.5t-16.5 -8.5 h-243q-7 0 -16 8.5t-9 16.5z" />
<glyph unicode="&#x201d;" horiz-adv-x="833" d="M49 926l62 223v260q0 8 8.5 16.5t15.5 8.5h244q7 0 15.5 -8.5t8.5 -16.5v-233q0 -28 -14 -46l-158 -208q-17 -21 -38 -21h-125q-7 0 -14 8.5t-5 16.5zM432 926l62 223v260q0 8 8.5 16.5t15.5 8.5h244q7 0 15.5 -8.5t8.5 -16.5v-233q0 -28 -14 -46l-158 -208 q-17 -21 -39 -21h-124q-7 0 -14 8.5t-5 16.5z" />
<glyph unicode="&#x201e;" horiz-adv-x="806" d="M18 -215l62 223v260q0 8 8.5 16.5t15.5 8.5h244q8 0 16.5 -8.5t8.5 -16.5v-233q0 -26 -15 -45l-157 -209q-17 -21 -39 -21h-125q-7 0 -14 8.5t-5 16.5zM401 -215l62 223v260q0 8 8.5 16.5t15.5 8.5h244q7 0 16 -8.5t9 -16.5v-233q0 -26 -15 -45l-157 -209 q-17 -21 -39 -21h-125q-7 0 -14 8.5t-5 16.5z" />
<glyph unicode="&#x2022;" horiz-adv-x="606" d="M51 373v479q0 8 8.5 16.5t16.5 8.5h454q8 0 16.5 -8.5t8.5 -16.5v-479q0 -7 -8.5 -16t-16.5 -9h-454q-8 0 -16.5 9t-8.5 16z" />
<glyph unicode="&#x2026;" horiz-adv-x="1335" d="M63 25v243q0 8 8.5 16.5t16.5 8.5h270q8 0 16.5 -8.5t8.5 -16.5v-243q0 -7 -8.5 -16t-16.5 -9h-270q-8 0 -16.5 9t-8.5 16zM508 25v243q0 8 8.5 16.5t15.5 8.5h271q7 0 15.5 -8.5t8.5 -16.5v-243q0 -8 -8.5 -16.5t-15.5 -8.5h-271q-7 0 -15.5 8.5t-8.5 16.5zM954 25v243 q0 8 9 16.5t16 8.5h270q7 0 16 -8.5t9 -16.5v-243q0 -7 -9 -16t-16 -9h-270q-7 0 -16 9t-9 16z" />
<glyph unicode="&#x202f;" horiz-adv-x="407" />
<glyph unicode="&#x2039;" horiz-adv-x="653" d="M46 531q0 11 7 18l295 369q18 18 41 18h205q8 0 11 -7t-3 -11l-311 -388l311 -374q5 -6 2 -12.5t-10 -6.5h-205q-22 0 -41 19l-295 356q-7 8 -7 19z" />
<glyph unicode="&#x203a;" horiz-adv-x="653" d="M50 929q3 7 11 7h205q23 0 41 -18l295 -369q8 -7 8 -18t-8 -19l-295 -356q-19 -19 -41 -19h-205q-7 0 -10 6.5t2 12.5l312 374l-312 388q-6 4 -3 11z" />
<glyph unicode="&#x205f;" horiz-adv-x="509" />
<glyph unicode="&#x20ac;" horiz-adv-x="1398" d="M45 463v158q0 7 8.5 15.5t16.5 8.5h106q-2 18 -2 66q0 47 2 65h-106q-8 0 -16.5 9t-8.5 16v157q0 8 8.5 16.5t16.5 8.5h135q58 226 212.5 353.5t385.5 127.5q227 0 365.5 -97t191.5 -325q2 -8 -5 -16t-14 -8h-256q-11 0 -20 7t-10 17q-28 92 -86 137.5t-170 45.5 q-211 0 -275 -242h316q7 0 15.5 -8.5t8.5 -16.5v-157q0 -8 -8.5 -16.5t-15.5 -8.5h-342q-2 -18 -2 -63q0 -50 2 -68h342q8 0 16 -8.5t8 -15.5v-158q0 -8 -8.5 -16.5t-15.5 -8.5h-314q67 -229 271 -229q119 0 178 53t84 162q1 10 10.5 17.5t20.5 7.5h262q8 0 15 -8.5t5 -16.5 q-53 -240 -191.5 -347.5t-375.5 -107.5q-232 0 -386 125t-212 344h-137q-8 0 -16.5 9t-8.5 16z" />
<glyph unicode="&#x2122;" horiz-adv-x="1318" d="M35 1339v70q0 8 8.5 16.5t15.5 8.5h437q7 0 15.5 -8.5t8.5 -16.5v-70q0 -7 -8 -15.5t-16 -8.5h-142l-2 -185l4 -278q0 -8 -8.5 -16.5t-15.5 -8.5h-109q-7 0 -15.5 8.5t-8.5 16.5l4 278l-2 185h-142q-7 0 -15.5 8.5t-8.5 15.5zM567 852l2 278l-2 279q0 7 8.5 16t16.5 9 h145q10 0 20.5 -7.5t12.5 -15.5l145 -395l138 395q2 8 12 15.5t20 7.5h136q7 0 15.5 -8.5t8.5 -16.5l-2 -279l2 -278q0 -8 -8.5 -16.5t-15.5 -8.5h-103q-7 0 -15.5 8.5t-8.5 16.5v254l2 86l-119 -342q-2 -8 -12.5 -15.5t-20.5 -7.5h-76q-10 0 -20 7.5t-12 15.5l-136 364 l7 -108v-254q0 -8 -8.5 -16.5t-16.5 -8.5h-90q-8 0 -16.5 8.5t-8.5 16.5z" />
<glyph unicode="&#x25fc;" horiz-adv-x="1054" d="M0 0v1055h1055v-1055h-1055z" />
</font>
</defs>
</svg>
