<?xml version="1.0" standalone="no"?>
<!DOCTYPE svg PUBLIC "-//W3C//DTD SVG 1.1//EN" "http://www.w3.org/Graphics/SVG/1.1/DTD/svg11.dtd" >
<svg xmlns="http://www.w3.org/2000/svg" xmlns:xlink="http://www.w3.org/1999/xlink" version="1.1">
<metadata></metadata>
<defs>
<font id="formadjrtextitalic" horiz-adv-x="1116" >
<font-face units-per-em="2048" ascent="1536" descent="-512" />
<missing-glyph horiz-adv-x="370" />
<glyph horiz-adv-x="0" />
<glyph horiz-adv-x="682" />
<glyph unicode=" "  horiz-adv-x="370" />
<glyph unicode="&#x09;" horiz-adv-x="370" />
<glyph unicode="&#xa0;" horiz-adv-x="370" />
<glyph unicode="!" horiz-adv-x="417" d="M-53 20l41 175q2 7 9 13.5t15 6.5h158q8 0 13 -6.5t3 -13.5l-39 -175q-1 -8 -9 -14t-15 -6h-160q-7 0 -12 6t-4 14zM45 418l231 995q2 8 10 14.5t15 6.5h145q8 0 13 -7t4 -14l-232 -995q-2 -8 -9.5 -14.5t-14.5 -6.5h-146q-7 0 -12.5 6.5t-3.5 14.5z" />
<glyph unicode="&#x22;" horiz-adv-x="659" d="M193 1038l57 375q2 8 9.5 14.5t14.5 6.5h144q7 0 11.5 -6.5t2.5 -14.5l-104 -375q-1 -7 -10 -13.5t-17 -6.5h-92q-7 0 -12 6t-4 14zM477 1038l58 375q2 8 9.5 14.5t14.5 6.5h143q7 0 12 -6.5t3 -14.5l-105 -375q-1 -7 -9.5 -13.5t-16.5 -6.5h-92q-8 0 -13 6.5t-4 13.5z " />
<glyph unicode="#" horiz-adv-x="1357" d="M-55 348l28 107q1 7 10 13.5t17 6.5h285l149 492h-276q-8 0 -13 6.5t-4 13.5l29 107q1 7 9 13.5t16 6.5h284l92 299q1 7 10 14t17 7h133q7 0 11.5 -6.5t2.5 -14.5l-92 -299h287l92 299q1 7 10 14t17 7h133q7 0 11.5 -6.5t2.5 -14.5l-92 -299h281q7 0 12 -6t4 -14 l-29 -107q-2 -8 -9 -14t-15 -6h-289l-149 -492h278q7 0 11.5 -6t2.5 -14l-28 -107q-1 -7 -10 -13.5t-17 -6.5h-283l-94 -308q-1 -7 -9.5 -13.5t-16.5 -6.5h-133q-7 0 -12 6t-3 14l94 308h-286l-95 -308q-1 -7 -9.5 -13.5t-16.5 -6.5h-133q-7 0 -12 6t-3 14l95 308h-281 q-7 0 -11.5 6t-2.5 14zM459 475h286l150 492h-287z" />
<glyph unicode="$" horiz-adv-x="1159" d="M10 473q0 7 7.5 14t15.5 7h155q7 0 13 -6.5t6 -14.5q-11 -158 76.5 -251t255.5 -93q145 0 222 76.5t77 183.5q0 119 -105 172q-131 64 -231 103q-121 47 -230 127q-106 75 -106 245q0 182 125 298.5t346 123.5l29 119q2 7 9 13.5t15 6.5h146q8 0 13 -6t3 -14l-31 -133 q154 -32 239.5 -137t78.5 -279q-2 -8 -9 -14t-14 -6h-158q-7 0 -12.5 6t-5.5 14q10 130 -64.5 202.5t-216.5 72.5q-134 0 -216.5 -66t-82.5 -172q0 -120 107 -172q105 -53 231 -102q118 -46 232 -127q104 -76 104 -246q0 -92 -33.5 -171.5t-96.5 -140.5t-161 -96t-219 -35 h-16l-39 -159q-2 -8 -10 -14.5t-15 -6.5h-145q-7 0 -12.5 6.5t-3.5 14.5l43 186q-161 46 -248.5 169t-67.5 302z" />
<glyph unicode="%" horiz-adv-x="1675" d="M152 5.5q-2 5.5 0 10.5l1191 1401q10 17 33 17h133q6 0 8.5 -6t0.5 -11l-1192 -1401q-10 -16 -33 -16h-133q-6 0 -8 5.5zM164 1112q38 167 135.5 254.5t245.5 87.5q149 0 221.5 -99.5t34.5 -264.5t-136.5 -250.5t-242.5 -85.5q-147 0 -221 96t-37 262zM322 1100 q-26 -108 4 -165.5t106 -57.5t129.5 56.5t79.5 166.5q26 113 -4 172t-105 59q-76 0 -130 -58.5t-80 -172.5zM874 346q38 165 135 249.5t244 84.5q150 0 222.5 -95.5t35.5 -262.5q-38 -166 -136.5 -254t-244.5 -88t-219.5 99.5t-36.5 266.5zM1032 334q-26 -114 4.5 -173 t104.5 -59q75 0 130 58.5t81 173.5q24 107 -5 165t-104 58q-76 0 -130.5 -57t-80.5 -166z" />
<glyph unicode="&#x26;" horiz-adv-x="1359" d="M-10 408q18 79 60.5 145.5t106.5 117t124.5 86t142.5 72.5q-111 197 -76 353q27 128 130.5 206t269.5 78q106 0 187 -40.5t119 -114.5t19 -166q-12 -52 -42 -98.5t-66 -80t-90.5 -67.5t-100.5 -56.5t-112 -51.5q16 -23 34 -52t43.5 -70t42.5 -67l129 -199 q103 151 152 322q1 7 10 13.5t17 6.5h131q7 0 11.5 -6t2.5 -14q-74 -253 -236 -455l166 -254q2 -5 -1 -10.5t-9 -5.5h-176q-21 0 -31 16l-82 127q-208 -168 -458 -168q-99 0 -185 30.5t-145.5 85t-84 137.5t-3.5 180zM174 401q-30 -129 40 -206.5t212 -77.5q193 0 362 147 l-217 338q-12 18 -37 56t-38 57q-64 -31 -111.5 -59.5t-93 -66.5t-75 -85t-42.5 -103zM524 1178q-13 -62 2.5 -123.5t67.5 -153.5q70 30 115 52.5t93 54.5t75.5 68.5t37.5 80.5q19 82 -31 134t-149 52q-173 0 -211 -165z" />
<glyph unicode="'" horiz-adv-x="382" d="M201 1038l57 375q2 8 10 14.5t15 6.5h143q7 0 11.5 -6.5t2.5 -14.5l-104 -375q-1 -7 -10 -13.5t-17 -6.5h-92q-7 0 -12 6t-4 14z" />
<glyph unicode="(" horiz-adv-x="512" d="M43 614q102 452 412 865q13 16 32 16h109q6 0 9 -5.5t-1 -10.5q-283 -416 -389 -865q-105 -454 -12 -880q1 -7 -4 -14t-13 -7h-108q-8 0 -17 7t-10 14q-110 428 -8 880z" />
<glyph unicode=")" horiz-adv-x="512" d="M-146 -280.5q-3 6.5 1 10.5q289 422 395 884q102 441 10 861q-2 7 3 13.5t13 6.5h109q8 0 17 -6.5t10 -13.5q114 -402 10 -861q-54 -242 -158.5 -456.5t-259.5 -427.5q-14 -17 -33 -17h-108q-6 0 -9 6.5z" />
<glyph unicode="*" horiz-adv-x="698" d="M127 1077q-5 24 10 27l207 100l-162 92q-7 4 -9 12.5t3 14.5l53 80q4 6 13.5 7.5t15.5 -3.5l160 -109l28 218q0 7 7.5 13.5t15.5 6.5h78q7 0 12 -6t4 -14l-39 -213l213 118q8 4 15.5 1t9.5 -9l26 -74q2 -8 -1.5 -16.5t-10.5 -9.5l-215 -105l160 -90q13 -8 8 -26l-53 -82 q-1 -6 -11 -7.5t-16 3.5l-160 108l-24 -211q0 -7 -7.5 -13.5t-15.5 -6.5h-80q-8 0 -13 6.5t-3 13.5l37 209l-203 -113q-8 -4 -16 -1.5t-10 10.5z" />
<glyph unicode="+" horiz-adv-x="1034" d="M43 649l25 113q1 8 8.5 14t15.5 6h369l94 408q1 7 9 13.5t16 6.5h108q8 0 13 -6.5t4 -13.5l-95 -408h363q7 0 12 -6t4 -14l-24 -113q-1 -7 -9 -13.5t-16 -6.5h-367l-94 -406q-2 -8 -9.5 -14t-14.5 -6h-109q-8 0 -13 6.5t-3 13.5l94 406h-365q-7 0 -12 6.5t-4 13.5z" />
<glyph unicode="," horiz-adv-x="342" d="M-166 -182l94 186l43 191q1 7 9 13.5t16 6.5h143q8 0 13 -6.5t4 -13.5l-39 -168q-4 -18 -19 -37l-153 -174q-14 -17 -35 -17h-64q-7 0 -10.5 6t-1.5 13z" />
<glyph unicode="-" horiz-adv-x="526" d="M0 541l23 106q2 8 9.5 14.5t14.5 6.5h406q7 0 12.5 -6.5t3.5 -14.5l-23 -106q-2 -8 -9.5 -14.5t-14.5 -6.5h-406q-7 0 -12.5 6.5t-3.5 14.5z" />
<glyph unicode="&#xad;" horiz-adv-x="526" d="M0 541l23 106q2 8 9.5 14.5t14.5 6.5h406q7 0 12.5 -6.5t3.5 -14.5l-23 -106q-2 -8 -9.5 -14.5t-14.5 -6.5h-406q-7 0 -12.5 6.5t-3.5 14.5z" />
<glyph unicode="." horiz-adv-x="342" d="M-94 20l41 175q2 7 9 13.5t15 6.5h166q8 0 13 -6.5t4 -13.5l-41 -175q-1 -7 -9 -13.5t-16 -6.5h-166q-8 0 -13 6t-3 14z" />
<glyph unicode="/" horiz-adv-x="661" d="M-220 -286.5q-3 6.5 1 12.5l917 1744q11 19 31 19h102q8 0 11.5 -6.5t-0.5 -12.5l-918 -1744q-11 -19 -30 -19h-103q-8 0 -11 6.5z" />
<glyph unicode="0" horiz-adv-x="1169" d="M74 737q81 353 252 538t403 185q246 0 348 -203q103 -204 21 -565q-81 -348 -252.5 -533.5t-401.5 -185.5q-248 0 -350.5 207.5t-19.5 556.5zM250 291.5q49 -158.5 213 -158.5q307 0 438 559q69 293 21.5 450.5t-211.5 157.5q-310 0 -441 -563q-69 -287 -20 -445.5z" />
<glyph unicode="1" horiz-adv-x="724" d="M133 1061l27 119q2 8 8.5 16.5t13.5 9.5q209 75 338 213q19 15 35 15h147q8 0 13 -7t4 -14l-182 -739l-142 -654q-2 -8 -9.5 -14t-14.5 -6h-160q-7 0 -12 6t-4 14l167 689l115 499q-132 -102 -327 -161q-8 -2 -13 2.5t-4 11.5z" />
<glyph unicode="2" horiz-adv-x="1046" d="M-90 20l39 168q53 222 205 338q158 118 317 195q144 67 291 158q129 77 129 227q0 93 -61.5 147.5t-174.5 53.5q-286 0 -358 -340q-2 -8 -10 -14.5t-15 -6.5h-131q-7 0 -12.5 6.5t-3.5 14.5q93 491 545 491q180 0 290 -91.5t109 -244.5q0 -191 -133 -303t-299 -194 q-147 -73 -315 -172q-152 -89 -189 -236l-14 -61h704q8 0 13 -7t4 -14l-25 -115q-2 -8 -9.5 -14t-14.5 -6h-865q-8 0 -13 6t-3 14z" />
<glyph unicode="3" horiz-adv-x="1107" d="M-8 430q0 7 7 14t15 7h150q7 0 12.5 -6.5t3.5 -14.5q-20 -149 45.5 -228t212.5 -79q170 0 261.5 96t91.5 238q0 118 -67 178.5t-196 60.5h-94q-7 0 -12.5 6.5t-3.5 14.5l20 96q2 8 10 14.5t15 6.5h96q158 0 247 69.5t89 186.5q0 105 -71 163t-181 58q-265 0 -313 -287 q-2 -8 -9 -14t-14 -6h-141q-8 0 -13 6t-3 14q36 213 167.5 321.5t341.5 108.5q182 0 305 -96t123 -250q0 -139 -88.5 -231t-238.5 -119q110 -32 167.5 -110t57.5 -185q0 -210 -157 -346.5t-402 -136.5q-233 0 -348 118t-86 332z" />
<glyph unicode="4" horiz-adv-x="1103" d="M-25 403l29 129q4 20 19 35l768 852q15 15 34 15h224q7 0 12.5 -6.5t3.5 -14.5l-203 -874h131q8 0 13 -7t4 -14l-25 -115q-1 -8 -9 -14t-15 -6h-136l-84 -365q-1 -8 -9 -14t-15 -6h-150q-7 0 -12 6.5t-4 13.5l86 365h-645q-8 0 -13 6.5t-4 13.5zM186 539h488l117 503 l57 232z" />
<glyph unicode="5" horiz-adv-x="1101" d="M-10 375q0 7 7 13.5t15 6.5h150q7 0 12.5 -6t5.5 -14q-12 -118 43 -188t170 -70q120 0 215.5 69t147 182t51.5 246q0 124 -58 193.5t-169 69.5q-103 0 -184.5 -53.5t-133.5 -151.5q-1 -7 -11 -13t-18 -6h-127q-7 0 -11.5 6.5t-2.5 14.5l219 739q1 7 10 14t17 7h752 q7 0 12.5 -6.5t3.5 -14.5l-25 -115q-1 -8 -9 -14t-15 -6h-608l-123 -381q127 127 309 127q174 0 271.5 -112t97.5 -296q0 -131 -46.5 -249t-127.5 -205t-198 -138t-251 -51q-199 0 -301 110t-90 292z" />
<glyph unicode="6" horiz-adv-x="1136" d="M39 438q0 159 41 334q28 119 68.5 220.5t98.5 189t128.5 148.5t162 95.5t197.5 34.5q189 0 289 -93.5t92 -254.5q-2 -8 -8.5 -14t-13.5 -6h-148q-7 0 -12.5 6t-5.5 14q5 91 -47 147t-160 56q-157 0 -269.5 -136.5t-162.5 -375.5q130 155 350 155q169 0 281 -112t112 -301 q0 -160 -70 -290.5t-196.5 -206t-284.5 -75.5q-191 0 -317 129q-125 125 -125 336zM223 406q0 -121 68 -201t186 -80q155 0 251.5 115.5t96.5 285.5q0 130 -67 207.5t-187 77.5q-124 0 -210.5 -75t-118.5 -197q-19 -78 -19 -133z" />
<glyph unicode="7" horiz-adv-x="935" d="M117 16q298 747 706 1262h-637q-8 0 -13 6t-3 14l27 115q2 8 9.5 14.5t14.5 6.5h821q8 0 13 -7t4 -14l-25 -115q-4 -21 -16 -36q-463 -631 -699 -1246q-11 -18 -28 -18h-162q-7 0 -10.5 5.5t-1.5 12.5z" />
<glyph unicode="8" horiz-adv-x="1142" d="M-14 369q0 150 106.5 271.5t274.5 145.5q-83 43 -126.5 112.5t-43.5 150.5q0 182 139 294.5t346 112.5q190 0 315 -96q121 -95 121 -256q0 -75 -35 -147.5t-110 -134t-178 -87.5q104 -42 160.5 -122t56.5 -181q0 -128 -74 -232.5t-198 -162t-271 -57.5 q-134 0 -243.5 47.5t-174.5 137t-65 204.5zM178 375q0 -111 85.5 -184.5t215.5 -73.5q148 0 246 94q96 96 96 227q0 112 -83 183t-212 71q-150 0 -249 -94.5t-99 -222.5zM381 1040q0 -97 72 -160t184 -63q127 0 209 84.5t82 194.5q0 101 -73 162t-181 61q-115 0 -205 -78 q-88 -76 -88 -201z" />
<glyph unicode="9" horiz-adv-x="1136" d="M18 324q2 8 9 14t14 6h147q7 0 13 -6t6 -14q-5 -92 48 -147.5t161 -55.5q158 0 270 135t160 375q-128 -156 -348 -156q-169 0 -281 115q-113 113 -113 299q0 159 72 290t198.5 206t280.5 75q201 0 322 -127q121 -130 121 -338q0 -172 -45 -348q-38 -152 -94.5 -272 t-135.5 -211.5t-186 -141t-236 -49.5q-190 0 -290.5 94.5t-92.5 256.5zM311 907q0 -130 67 -206t187 -76q121 0 208 70.5t120 189.5q20 67 20 145q0 119 -69.5 199t-184.5 80q-155 0 -251.5 -116t-96.5 -286z" />
<glyph unicode=":" horiz-adv-x="348" d="M-94 20l41 175q2 7 9 13.5t15 6.5h166q8 0 13 -6.5t4 -13.5l-41 -175q-1 -7 -9 -13.5t-16 -6.5h-166q-8 0 -13 6t-3 14zM104 860l41 174q2 8 10 14.5t15 6.5h166q7 0 12.5 -6.5t3.5 -14.5l-41 -174q-2 -8 -9.5 -14t-14.5 -6h-166q-8 0 -13 6.5t-4 13.5z" />
<glyph unicode=";" horiz-adv-x="348" d="M-164 -182l94 186l43 191q1 7 9 13.5t16 6.5h143q8 0 13 -6.5t4 -13.5l-39 -168q-4 -18 -19 -37l-153 -174q-14 -17 -35 -17h-64q-7 0 -10.5 6t-1.5 13zM106 860l41 174q2 8 10 14.5t15 6.5h166q7 0 12.5 -6.5t3.5 -14.5l-41 -174q-1 -8 -9 -14t-15 -6h-166q-8 0 -13 6.5 t-4 13.5z" />
<glyph unicode="&#x3c;" horiz-adv-x="1034" d="M43 649l25 113q2 8 8.5 18t13.5 11l981 405q6 2 10.5 -2t3.5 -10l-28 -129q-3 -17 -23 -29l-827 -330l670 -329q7 -1 11.5 -11t2.5 -18l-25 -109q-2 -8 -8 -11t-14 1l-787 399q-18 11 -14 31z" />
<glyph unicode="=" horiz-adv-x="1034" d="M-14 412l26 112q2 8 10 14.5t15 6.5h881q7 0 12.5 -6.5t3.5 -14.5l-27 -112q-2 -8 -9.5 -14.5t-14.5 -6.5h-881q-7 0 -12.5 6.5t-3.5 14.5zM94 889l27 112q2 8 9.5 14.5t14.5 6.5h881q7 0 12.5 -6.5t3.5 -14.5l-26 -112q-2 -8 -10 -14.5t-15 -6.5h-880q-8 0 -13 7t-4 14z " />
<glyph unicode="&#x3e;" horiz-adv-x="1034" d="M-57 229l26 125q3 17 23 29l831 332l-671 327q-7 1 -12 11t-3 18l25 113q2 8 8 11t14 -1l789 -401q18 -11 14 -31l-24 -113q-2 -8 -9 -17.5t-14 -10.5l-983 -404q-6 -2 -10.5 1.5t-3.5 10.5z" />
<glyph unicode="?" horiz-adv-x="989" d="M102 1026q58 211 188.5 318.5t346.5 107.5q119 0 213 -48.5t141 -141t25 -209.5q-10 -56 -32 -102.5t-60.5 -86t-67 -63t-80.5 -60.5q-43 -31 -65.5 -48t-59.5 -50t-59 -62t-45 -72t-37 -91q-2 -8 -10 -14.5t-15 -6.5h-145q-7 0 -12.5 6.5t-3.5 14.5q21 80 59 147 t81.5 113.5t92 87t94.5 74t84.5 67t65.5 74.5t35 88q17 97 -33.5 161.5t-145.5 76.5q-12 4 -67 4q-122 -4 -195.5 -75t-111.5 -210q-1 -7 -10 -13.5t-17 -6.5h-139q-7 0 -12 6t-3 14zM223 20l39 175q1 7 9 13.5t16 6.5h162q7 0 12 -6.5t4 -13.5l-39 -175q-1 -7 -9 -13.5 t-16 -6.5h-161q-8 0 -13 6.5t-4 13.5z" />
<glyph unicode="@" horiz-adv-x="1730" d="M11 277.5q-12 144.5 16 310.5q38 208 119 365.5t197.5 258t263.5 151t323 50.5q151 0 278 -46t216.5 -130t145.5 -203t65 -266t-25 -317q-50 -229 -158 -318q-109 -92 -225 -92q-88 0 -154.5 47t-73.5 133q-133 -190 -333 -190q-99 0 -172.5 43t-110.5 116t-47.5 170.5 t16.5 206.5q46 209 170.5 337t306.5 128q104 0 177.5 -48.5t105.5 -139.5l31 149q2 8 9.5 14.5t14.5 6.5h131q8 0 13 -7t4 -14l-154 -665q-25 -93 0 -139t84 -46q74 0 146 66q69 63 110 254q29 151 23.5 281t-50.5 235t-120.5 179.5t-186 114.5t-247.5 40 q-310 0 -514.5 -185.5t-272.5 -554.5q-35 -185 -7.5 -339.5t101 -266t196.5 -173.5t279 -62q318 0 478 213q13 16 32 16h78q6 0 9 -5.5t1 -10.5q-114 -167 -261.5 -240.5t-344.5 -73.5q-141 0 -262.5 47t-208.5 132t-143.5 204t-68.5 263.5zM508 361q7 -92 59 -147.5 t140 -55.5q250 0 335 352q42 178 -9 284.5t-175 108.5q-252 3 -332 -332q-25 -118 -18 -210z" />
<glyph unicode="A" horiz-adv-x="1284" d="M-152 18l824 1397q11 19 30 19h209q8 0 15.5 -7t7.5 -14l174 -1393q0 -8 -5.5 -14t-12.5 -6h-144q-7 0 -13.5 6t-8.5 14l-45 408h-590l-234 -410q-11 -18 -30 -18h-166q-15 0 -11 18zM381 590h479l-78 704z" />
<glyph unicode="B" horiz-adv-x="1269" d="M-49 20l176 717l145 676q2 8 10 14.5t15 6.5h502q239 0 359 -98q93 -75 93 -204q0 -38 -8 -81q-23 -120 -113.5 -198.5t-226.5 -98.5q240 -73 240 -286q0 -39 -8 -83q-20 -99 -76.5 -175t-137.5 -121t-176 -67t-202 -22h-576q-7 0 -12 6t-4 14zM176 147h383 q156 0 257 59.5t126 188.5q7 40 7 73q-1 33 -7 60q-14 55 -56.5 89.5t-99.5 50.5t-129 16h-364zM326 829h383q296 0 342 209q6 32 6 60q0 80 -53 127q-72 63 -218 63h-344z" />
<glyph unicode="C" horiz-adv-x="1394" d="M47 575q0 180 54 341t151 282t242 191.5t317 70.5q160 0 285.5 -60.5t201 -180t78.5 -281.5q0 -8 -6 -14t-14 -6h-148q-8 0 -14 6t-6 14q-5 164 -109.5 264.5t-281.5 100.5q-108 0 -199 -40t-155.5 -109t-110 -161t-67 -197t-21.5 -216q0 -212 112.5 -330.5t305.5 -118.5 q343 0 450 350q1 7 10 14t17 7h149q7 0 12 -6.5t3 -14.5q-72 -245 -237 -376.5t-404 -131.5q-276 0 -445.5 165.5t-169.5 436.5z" />
<glyph unicode="D" horiz-adv-x="1376" d="M-49 20l176 715l147 678q2 8 10 14.5t15 6.5h412q142 0 262 -47.5t202.5 -132.5t120.5 -210q26 -85 27 -181q0 -45 -6 -91q-16 -153 -69.5 -280.5t-133.5 -217.5t-184 -152.5t-221 -92t-244 -29.5h-498q-7 0 -12 6t-4 14zM178 154h316q86 0 167.5 21.5t157.5 69 t136.5 116.5t103.5 170.5t59 224.5q8 52 8 100q0 64 -14 120q-24 100 -79.5 166t-138 102t-183.5 36h-267l-28 -107q-28 -107 -62 -242t-47 -192q-12 -58 -44.5 -204.5t-58.5 -263t-26 -117.5z" />
<glyph unicode="E" horiz-adv-x="1103" d="M-49 20l178 719l145 674q2 8 10 14.5t15 6.5h862q8 0 13 -7t4 -14l-25 -113q-1 -7 -9 -13.5t-16 -6.5h-686l-112 -438h645q7 0 12.5 -6.5t3.5 -14.5l-26 -112q-2 -8 -10 -14.5t-15 -6.5h-645l-117 -534h703q7 0 12.5 -6.5t3.5 -14.5l-27 -113q-2 -8 -9 -14t-15 -6h-879 q-7 0 -12 6t-4 14z" />
<glyph unicode="F" horiz-adv-x="1042" d="M-49 20l170 697l151 696q2 8 10 14.5t15 6.5h838q7 0 12.5 -6.5t3.5 -14.5l-25 -113q-2 -8 -9 -14t-15 -6h-662l-127 -502h635q8 0 13 -6.5t4 -13.5l-25 -113q-1 -7 -9 -13.5t-16 -6.5h-634l-134 -605q-1 -8 -9 -14t-15 -6h-156q-7 0 -12 6t-4 14z" />
<glyph unicode="G" horiz-adv-x="1421" d="M47 561q0 144 39 279.5t111 247t169 195.5t220.5 130.5t257.5 46.5q228 0 377 -126t161 -337q1 -7 -4.5 -13.5t-13.5 -6.5h-154q-7 0 -13.5 6t-8.5 14q-13 141 -109.5 224.5t-244.5 83.5q-126 0 -237 -60.5t-187.5 -162t-121 -237.5t-44.5 -284q0 -198 102.5 -315 t284.5 -117q197 0 319.5 112.5t177.5 354.5h-428q-8 0 -13 6t-3 14l25 109q1 7 9 13.5t15 6.5h606q8 0 13 -6.5t4 -13.5q-143 -752 -735 -752q-263 0 -418 162q-156 159 -156 426z" />
<glyph unicode="H" horiz-adv-x="1370" d="M-49 20l168 689l153 704q2 8 10 14.5t15 6.5h158q7 0 12.5 -6.5t3.5 -14.5l-139 -567h766l123 567q2 8 9.5 14.5t14.5 6.5h158q7 0 12.5 -6.5t3.5 -14.5l-174 -704l-147 -689q-1 -7 -9 -13.5t-16 -6.5h-158q-7 0 -12 6t-4 14l164 672h-766l-147 -672q-1 -7 -9 -13.5 t-16 -6.5h-158q-7 0 -12 6t-4 14z" />
<glyph unicode="I" horiz-adv-x="442" d="M-39 20l174 709l150 684q2 8 9.5 14.5t14.5 6.5h154q7 0 12.5 -6.5t3.5 -14.5l-168 -684l-153 -709q-1 -7 -9 -13.5t-16 -6.5h-156q-7 0 -12 6t-4 14z" />
<glyph unicode="J" horiz-adv-x="1005" d="M-14 489q2 8 9.5 14.5t14.5 6.5h146q7 0 12.5 -6.5t3.5 -14.5q-14 -71 -14 -131q0 -68 18 -122q34 -105 178 -105q133 0 201.5 88t114.5 281l94 385l113 528q2 8 9.5 14.5t14.5 6.5h162q7 0 12.5 -6.5t3.5 -14.5l-129 -528l-90 -385q-58 -268 -181.5 -398.5 t-334.5 -130.5q-218 0 -312 143q-62 94 -62 229q0 68 16 146z" />
<glyph unicode="K" horiz-adv-x="1163" d="M-49 20l174 715l147 678q2 8 10 14.5t15 6.5h156q7 0 12.5 -6.5t3.5 -14.5l-160 -661l674 667q15 15 35 15h203q11 0 6 -15l-604 -563l366 -838q2 -7 -1.5 -12.5t-10.5 -5.5h-174q-8 0 -18 5.5t-11 12.5l-88 209l-209 490l-221 -211l-109 -486q-1 -8 -9 -14t-15 -6h-156 q-7 0 -12 6t-4 14z" />
<glyph unicode="L" horiz-adv-x="976" d="M-49 20l180 730l143 663q2 8 10 14.5t15 6.5h156q7 0 12.5 -6.5t3.5 -14.5l-160 -653l-135 -606h631q7 0 12.5 -6.5t3.5 -14.5l-24 -113q-1 -7 -9 -13.5t-16 -6.5h-807q-7 0 -12 6t-4 14z" />
<glyph unicode="M" horiz-adv-x="1642" d="M-49 20l166 685l157 708q2 8 10 14.5t15 6.5h199q7 0 14.5 -6.5t9.5 -14.5l183 -1171l716 1173q11 19 31 19h223q8 0 13 -7t4 -14l-172 -708l-150 -685q-2 -8 -9 -14t-15 -6h-154q-8 0 -13 6t-3 14l129 539l104 436l47 187l-713 -1164q-11 -18 -30 -18h-113q-8 0 -16 6.5 t-9 13.5l-184 1174l-43 -203l-94 -432l-125 -539q-1 -7 -9 -13.5t-16 -6.5h-137q-7 0 -12 6t-4 14z" />
<glyph unicode="N" horiz-adv-x="1384" d="M-49 20l172 707l151 686q2 8 10 14.5t15 6.5h168q8 0 18 -6t11 -13l489 -1171l27 127l100 450l137 592q2 8 10 14.5t15 6.5h143q8 0 13 -7t4 -14l-168 -686l-156 -707q-1 -7 -9 -13.5t-16 -6.5h-178q-8 0 -17.5 5.5t-10.5 12.5l-486 1153l-33 -153l-92 -420l-135 -578 q-2 -8 -9.5 -14t-14.5 -6h-142q-7 0 -12 6t-4 14z" />
<glyph unicode="O" horiz-adv-x="1499" d="M47 557q0 184 59.5 350t164.5 288t256.5 193.5t326.5 71.5q269 0 433.5 -158.5t164.5 -422.5q0 -146 -38 -282.5t-110 -249t-170 -197t-224 -131t-265 -46.5q-275 0 -436.5 160t-161.5 424zM244 561q0 -197 109.5 -313.5t299.5 -116.5q178 0 316.5 100t212 266.5 t73.5 368.5q0 201 -112 319t-299 118q-136 0 -250.5 -60.5t-190 -162.5t-117.5 -236.5t-42 -282.5z" />
<glyph unicode="P" horiz-adv-x="1155" d="M-49 20l174 715l149 678q2 8 10 14.5t15 6.5h436q207 0 328 -99.5t121 -281.5q0 -230 -161 -368t-427 -138h-332l-117 -527q-1 -8 -9 -14t-15 -6h-156q-7 0 -12 6t-4 14zM297 698h332q151 0 260 86q104 85 104 250q0 122 -71 185t-205 63h-279l-137 -563z" />
<glyph unicode="Q" horiz-adv-x="1501" d="M39 557q0 184 59.5 350t164.5 288t256.5 193.5t326.5 71.5q269 0 433.5 -158.5t164.5 -422.5q0 -214 -82 -404.5t-225 -316.5l10 2h12h141q8 0 13 -7t4 -14l-27 -119q-2 -8 -9 -14t-15 -6h-426q-106 -27 -203 -27q-275 0 -436.5 160t-161.5 424zM236 561 q0 -197 109.5 -313.5t299.5 -116.5q178 0 316.5 100t212 266.5t73.5 368.5q0 201 -112 319t-299 118q-136 0 -250.5 -60.5t-190 -162.5t-117.5 -236.5t-42 -282.5z" />
<glyph unicode="R" horiz-adv-x="1236" d="M-49 20l174 717l149 676q2 8 10 14.5t15 6.5h471q211 0 335 -92.5t124 -260.5q0 -195 -119 -322.5t-319 -160.5l231 -580q2 -7 -1.5 -12.5t-10.5 -5.5h-176q-8 0 -17 5.5t-10 12.5l-84 230l-139 338h-312l-125 -566q-1 -8 -9 -14t-15 -6h-156q-7 0 -12 6t-4 14zM307 735 h369q160 0 261 86.5t101 241.5q0 105 -72 162t-202 57h-326z" />
<glyph unicode="S" horiz-adv-x="1259" d="M0 473q0 7 7.5 14t15.5 7h155q7 0 13 -6.5t6 -14.5q-1 -16 -1 -31q0 -138 92 -221q102 -92 298 -92q172 0 263 79.5t91 188.5q0 123 -123 170q-119 45 -268 90q-144 40 -270 115q-123 74 -123 248q0 186 151 312t410 126q247 0 389 -108q135 -102 136 -302q0 -10 -1 -20 q-2 -8 -8.5 -14t-13.5 -6h-158q-7 0 -13 6t-6 14q1 10 1 19q0 115 -82 183q-88 72 -254 73q-159 0 -258 -69.5t-99 -178.5q0 -121 123 -168t270 -90q145 -43 271 -115q123 -74 123 -246q0 -90 -37.5 -172t-106.5 -147t-178.5 -103.5t-243.5 -38.5q-177 0 -311 57 q-132 58 -204 172q-58 94 -59 214q0 27 3 55z" />
<glyph unicode="T" horiz-adv-x="1071" d="M160 1300l24 113q2 8 10 14.5t15 6.5h987q7 0 12.5 -6.5t3.5 -14.5l-26 -113q-1 -7 -9 -13.5t-16 -6.5h-393l-143 -569l-148 -691q-2 -8 -9.5 -14t-14.5 -6h-162q-8 0 -13 6.5t-4 13.5l172 691l123 569h-393q-8 0 -13 6t-3 14z" />
<glyph unicode="U" horiz-adv-x="1243" d="M51 543l107 446l90 424q2 8 9.5 14.5t14.5 6.5h160q8 0 13 -7t4 -14l-103 -420l-104 -450q-18 -78 -18 -142q0 -93 38 -157q65 -108 250 -109q327 0 422 408l104 446l92 424q2 8 10 14.5t15 6.5h145q8 0 13 -7t4 -14l-103 -424l-104 -446q-66 -280 -216 -425t-409 -145 q-261 1 -379 157q-77 102 -76 247q0 77 21 166z" />
<glyph unicode="V" horiz-adv-x="1251" d="M172 1413q0 8 5.5 14.5t12.5 6.5h158q7 0 14 -6.5t9 -14.5l121 -1274l708 1276q11 19 31 19h160q15 0 10 -19l-807 -1397q-11 -18 -31 -18h-203q-8 0 -15 6.5t-7 13.5z" />
<glyph unicode="W" horiz-adv-x="1794" d="M180 1413q0 7 7 14t14 7h143q8 0 14.5 -7t6.5 -14l8 -1233l565 1235q1 7 11 13t18 6h178q7 0 13.5 -6.5t6.5 -14.5l-4 -1235l582 1237q1 7 11 13t18 6h151q7 0 10.5 -6t1.5 -13l-686 -1397q-1 -7 -10.5 -12.5t-17.5 -5.5h-183q-8 0 -14 6t-6 14l-21 1154l-542 -1156 q-1 -7 -11 -12.5t-18 -5.5h-188q-8 0 -14.5 6.5t-6.5 13.5z" />
<glyph unicode="X" horiz-adv-x="1214" d="M-139 6q-2 6 2 10l645 750l-279 649q-2 6 2 12.5t11 6.5h172q8 0 17.5 -6t10.5 -13l209 -506l422 508q10 17 33 17h186q6 0 8 -6t-2 -11l-577 -674l303 -725q2 -7 -1.5 -12.5t-10.5 -5.5h-168q-8 0 -18 5.5t-11 12.5l-235 584l-492 -586q-10 -16 -33 -16h-186q-6 0 -8 6z " />
<glyph unicode="Y" horiz-adv-x="1159" d="M178 1413q-2 8 3 14.5t12 6.5h159q8 0 17 -7t10 -14l190 -731l525 735q14 17 32 17h172q6 0 9.5 -6t-0.5 -11l-686 -913l-107 -484q-1 -7 -9 -13.5t-16 -6.5h-157q-8 0 -13 6.5t-4 13.5l123 488z" />
<glyph unicode="Z" horiz-adv-x="1161" d="M-109 20l27 127q4 20 19 35l1060 1098h-739q-8 0 -13 6t-3 14l26 113q2 8 10 14.5t15 6.5h948q7 0 12.5 -6.5t3.5 -14.5l-28 -131q-4 -20 -19 -35l-1054 -1093h798q8 0 13 -7t4 -14l-25 -113q-2 -8 -9 -14t-15 -6h-1014q-8 0 -13 6.5t-4 13.5z" />
<glyph unicode="[" horiz-adv-x="522" d="M-129 -266l403 1741q1 7 9 13.5t16 6.5h315q8 0 13 -6.5t4 -13.5l-27 -113q-2 -8 -9.5 -14.5t-14.5 -6.5h-168l-344 -1474h168q7 0 12.5 -6.5t3.5 -14.5l-25 -112q-2 -8 -9.5 -14.5t-14.5 -6.5h-316q-7 0 -12.5 6.5t-3.5 14.5z" />
<glyph unicode="\" horiz-adv-x="661" d="M68 1468q-2 8 3.5 14.5t12.5 6.5h102q7 0 15 -6.5t10 -14.5l375 -1740q1 -7 -4 -14t-13 -7h-102q-7 0 -15 6.5t-10 14.5z" />
<glyph unicode="]" horiz-adv-x="522" d="M-162 -266l25 112q2 8 9.5 14.5t14.5 6.5h170l344 1474h-170q-7 0 -12.5 6.5t-3.5 14.5l27 113q1 7 8.5 13.5t15.5 6.5h316q8 0 13 -6.5t3 -13.5l-403 -1741q-2 -8 -10 -14.5t-15 -6.5h-315q-8 0 -13 7t-4 14z" />
<glyph unicode="^" horiz-adv-x="1026" d="M24 573.5q-3 6.5 1 10.5l577 833q14 17 33 17h90q7 0 15 -6.5t10 -14.5l198 -825q2 -8 -3.5 -14.5t-12.5 -6.5h-101q-7 0 -14.5 6.5t-9.5 14.5l-154 686l-469 -690q-14 -17 -32 -17h-119q-6 0 -9 6.5z" />
<glyph unicode="_" horiz-adv-x="815" d="M-203 -328l23 105q2 7 9 13.5t15 6.5h697q7 0 12 -6.5t4 -13.5l-25 -105q-2 -7 -9 -13.5t-15 -6.5h-694q-8 0 -13 6.5t-4 13.5z" />
<glyph unicode="`" horiz-adv-x="1024" d="M334 1356l45 112q1 7 10 10t17 1l428 -211q15 -3 10 -27l-25 -59q-1 -7 -9.5 -11t-16.5 -2l-449 162q-14 3 -10 25z" />
<glyph unicode="a" horiz-adv-x="1101" d="M4 252q0 74 24.5 131t64 94t102 63.5t126.5 40.5t150 25q205 28 285 60q84 35 84 120q0 63 -63 102.5t-167 39.5q-117 0 -182 -45t-92 -135q-1 -7 -10 -14t-17 -7h-147q-7 0 -12 6.5t-3 14.5q51 159 173 245t301 86q180 0 284.5 -78.5t104.5 -218.5q0 -40 -13 -94 l-65 -278l-86 -390q-1 -7 -9 -13.5t-16 -6.5h-137q-8 0 -13 6t-3 14l37 142q-141 -187 -383 -187q-141 0 -229.5 76.5t-88.5 200.5zM193 270q0 -77 49.5 -117t142.5 -40q131 1 223.5 71t136.5 191l43 182q-32 -16 -85 -30t-91.5 -21.5t-132.5 -22.5q-70 -11 -118 -25 t-88.5 -38t-60 -61.5t-19.5 -88.5z" />
<glyph unicode="b" d="M-63 20l186 766l137 627q2 8 10 14.5t15 6.5h149q8 0 13 -7t4 -14l-121 -493q134 153 327 153q102 0 181 -44.5t123 -122.5q44 -80 58 -188q5 -35 5 -72q0 -77 -20 -163q-19 -99 -61 -187.5t-104.5 -159.5t-151.5 -112.5t-193 -41.5q-123 0 -209 58.5t-121 164.5 l-39 -185q-1 -7 -9 -13.5t-16 -6.5h-147q-7 0 -12 6t-4 14zM240 553q-18 -85 -18 -155q0 -97 35 -164q61 -115 204 -115q138 0 230 103.5t126 275.5q16 82 16 150q1 100 -33 170q-56 118 -206 118q-130 0 -223.5 -101.5t-130.5 -281.5z" />
<glyph unicode="c" horiz-adv-x="1062" d="M4 420q0 183 73.5 332.5t209 237t305.5 87.5q188 0 296 -99q108 -98 107 -273q0 -11 -6.5 -17t-13.5 -6h-135q-8 0 -14.5 6.5t-6.5 13.5q0 115 -62.5 175.5t-178.5 60.5q-121 0 -210.5 -74.5t-133.5 -193t-44 -260.5q0 -141 66 -218t193 -77q114 0 195 67.5t114 184.5 q1 7 9.5 13.5t16.5 6.5h140q7 0 11.5 -6t2.5 -14q-53 -178 -182.5 -284t-319.5 -106q-198 0 -315 120t-117 323z" />
<glyph unicode="d" d="M20 276q-12 56 -11 121q0 89 22 193q23 99 66.5 184.5t106.5 153t150 106.5t187 39q121 0 204.5 -53.5t120.5 -153.5l123 547q2 8 10 14.5t15 6.5h149q8 0 13 -7t4 -14l-187 -770l-135 -623q-2 -8 -9 -14t-15 -6h-148q-7 0 -11.5 6t-2.5 14l30 117q-134 -153 -329 -153 q-139 0 -232 79t-121 213zM219 575q-22 -95 -22 -173q1 -91 31 -158q56 -123 206 -123h2h5q124 0 215 91q93 93 137 273q23 97 23 175q0 87 -28 150q-54 120 -196 126h-39q-125 -6 -211 -103.5t-123 -257.5z" />
<glyph unicode="e" horiz-adv-x="1101" d="M4 428q0 94 22.5 185.5t70.5 175.5t116 148t165 102t210 38q232 1 348 -151q80 -104 80 -256q0 -69 -17 -148q-2 -8 -9.5 -14t-14.5 -6h-785q-4 -50 -4 -72q0 -150 67 -232.5t200 -82.5q123 0 204 59t113 172q1 7 10 14t17 7h137q7 0 11.5 -6.5t2.5 -14.5 q-47 -169 -173.5 -269t-328.5 -100q-215 0 -328.5 124.5t-113.5 326.5zM215 633h608q8 36 8 68q0 83 -49 149q-71 92 -211 92q-129 0 -222.5 -86.5t-133.5 -222.5z" />
<glyph unicode="f" horiz-adv-x="690" d="M43 20l111 455l102 436h-143q-8 0 -13 7t-4 14l23 102q2 8 9.5 14.5t14.5 6.5h148l20 92q20 83 58 145.5t86 98t99 52.5t105 17q71 0 132 -14q8 -2 12.5 -9t3.5 -14l-23 -102q-1 -7 -8.5 -11.5t-15.5 -2.5q-45 10 -92 10q-133 0 -179 -184l-18 -78h227q8 0 13 -7t4 -14 l-23 -102q-2 -8 -9.5 -14.5t-14.5 -6.5h-228l-102 -436l-98 -455q-1 -7 -9 -13.5t-16 -6.5h-156q-7 0 -12 6t-4 14z" />
<glyph unicode="g" horiz-adv-x="1110" d="M-92 -78q0 7 7 14t15 7h142q8 0 15 -7t7 -14q6 -88 74.5 -137t171.5 -49q140 0 223.5 81.5t126.5 256.5l21 88q-138 -164 -340 -164q-105 0 -185.5 45t-124 124t-55.5 189q-3 28 -3 59q0 84 24 179q23 98 67.5 182.5t107.5 152t150 106t187 38.5q123 0 206.5 -55 t120.5 -160l35 176q2 8 10 14.5t15 6.5h145q7 0 12.5 -6.5t3.5 -14.5l-94 -401l-129 -561q-53 -232 -185.5 -352.5t-359.5 -120.5h-18q-103 0 -191 33q-94 35 -150 111q-52 70 -52 162v17zM215 580q-21 -92 -21 -167q0 -91 30 -157q56 -121 207 -121h3h5q123 0 214 88 q93 90 135 264q23 97 23 175q0 85 -28 148q-54 118 -191 126h-41q-126 -6 -213 -102t-123 -254z" />
<glyph unicode="h" horiz-adv-x="1079" d="M-61 20l112 461l209 932q2 8 10 14.5t15 6.5h149q8 0 13 -7t4 -14l-134 -532q60 86 157.5 142t203.5 56q170 -1 252 -111q54 -73 54 -182q0 -57 -15 -124l-47 -211l-97 -431q-2 -8 -9.5 -14t-14.5 -6h-148q-7 0 -12 6t-4 14l104 431l47 202q12 50 12 91q0 68 -32 114 q-52 72 -160 72q-102 0 -194 -84t-148 -236l-39 -159l-98 -431q-1 -7 -9 -13.5t-16 -6.5h-149q-7 0 -12 6t-4 14z" />
<glyph unicode="i" horiz-adv-x="409" d="M-53 20l127 523l108 491q2 8 10 14.5t15 6.5h151q8 0 13 -7t4 -14l-121 -489l-115 -525q-2 -8 -9.5 -14t-14.5 -6h-152q-7 0 -12 6t-4 14zM221 1200l37 164q1 7 9 13.5t16 6.5h147q8 0 13 -6t3 -14l-38 -164q-1 -7 -9 -13.5t-16 -6.5h-145q-8 0 -13 6.5t-4 13.5z" />
<glyph unicode="j" horiz-adv-x="409" d="M-346 -332l22 101q1 7 9 11.5t16 2.5q6 -1 19 -3t26 -3.5t25 -1.5q120 0 163 174l93 391l155 694q2 8 10 14.5t15 6.5h151q8 0 13 -7t4 -14l-168 -694l-90 -408q-38 -167 -135 -233q-94 -67 -203 -70q-58 0 -109 15q-8 1 -13 9t-3 15zM223 1200l37 164q1 7 9 13.5t16 6.5 h147q8 0 13 -6.5t4 -13.5l-39 -164q-1 -7 -9 -13.5t-16 -6.5h-145q-8 0 -13 6.5t-4 13.5z" />
<glyph unicode="k" horiz-adv-x="956" d="M-63 20l167 691l154 702q2 8 10 14.5t15 6.5h149q8 0 13 -7t4 -14l-170 -698l-19 -86l467 411q19 15 37 15h201q6 0 7.5 -5.5t-3.5 -7.5l-434 -372l239 -652q2 -6 -2.5 -12t-11.5 -6h-152q-8 0 -16.5 6.5t-9.5 13.5l-47 150l-144 383l-184 -164l-82 -369q-1 -7 -9 -13.5 t-16 -6.5h-147q-7 0 -12 6t-4 14z" />
<glyph unicode="l" horiz-adv-x="405" d="M-53 20l172 705l151 688q2 8 10 14.5t15 6.5h147q8 0 13 -7t4 -14l-168 -686l-156 -707q-1 -8 -9 -14t-15 -6h-148q-7 0 -12 6t-4 14z" />
<glyph unicode="m" horiz-adv-x="1665" d="M-63 20l98 392l139 622q2 8 10 14.5t15 6.5h143q7 0 11.5 -6.5t2.5 -14.5l-43 -157q147 202 344 202q107 0 179.5 -59t91.5 -162q152 221 358 221q162 0 238 -114q49 -72 48 -175q0 -59 -16 -128l-55 -250l-88 -392q-1 -8 -9 -14t-15 -6h-152q-7 0 -12 6t-4 14l98 392 l55 241q13 56 13 101q0 61 -24 103q-42 73 -132 73q-91 0 -175 -74.5t-141 -208.5l-53 -235l-84 -392q-2 -8 -9 -14t-15 -6h-152q-8 0 -13 6t-3 14l96 392l55 241q13 56 13 101q0 62 -24 104q-42 72 -134 72q-95 0 -183.5 -85t-144.5 -235l-47 -198l-86 -392q-1 -7 -9 -13.5 t-16 -6.5h-153q-7 0 -12 6t-4 14z" />
<glyph unicode="n" horiz-adv-x="1079" d="M-61 20l112 461l125 553q2 8 10 14.5t15 6.5h141q7 0 11.5 -6.5t2.5 -14.5l-43 -157q64 88 161 145t204 57q170 -1 252 -111q54 -73 54 -182q0 -57 -15 -124l-47 -211l-97 -431q-2 -8 -9.5 -14t-14.5 -6h-148q-7 0 -12 6t-4 14l104 431l47 202q12 49 12 90q0 68 -32 114 q-52 73 -160 73q-102 0 -194 -84t-148 -236l-39 -159l-98 -431q-1 -7 -9 -13.5t-16 -6.5h-149q-7 0 -12 6t-4 14z" />
<glyph unicode="o" horiz-adv-x="1122" d="M4 422q0 182 73.5 331.5t207.5 236.5t303 87q198 0 319 -121t121 -323q0 -178 -73 -327.5t-207 -239t-302 -89.5q-198 0 -319 121q-123 120 -123 324zM190 410q0 -140 68 -217.5t195 -77.5q175 0 281 148t106 378q0 141 -68.5 221t-191.5 80q-117 0 -206 -70 t-136.5 -190.5t-47.5 -271.5z" />
<glyph unicode="p" d="M-143 -328l190 787l125 575q2 8 10 14.5t15 6.5h147q7 0 11.5 -6.5t2.5 -14.5l-28 -106q134 147 317 147q195 0 295 -150q76 -114 76 -281q0 -53 -8 -112q-8 -83 -32.5 -161.5t-68 -149.5t-101 -124.5t-136.5 -85t-170 -31.5q-123 0 -209 59.5t-123 169.5l-121 -537 q-2 -7 -9.5 -13.5t-14.5 -6.5h-152q-7 0 -12 6t-4 14zM231 500q-5 -43 -5 -82q0 -123 49 -200q64 -101 194 -101q152 0 244 123t110 313q6 48 6 90q0 117 -46 193q-63 104 -197 104q-97 0 -175 -61.5t-123 -160t-57 -218.5z" />
<glyph unicode="q" d="M20 276q-11 56 -11 119q0 90 22 195q23 99 66.5 184.5t106.5 153t150 106.5t187 39q123 0 206.5 -55t120.5 -158l37 174q2 8 10 14.5t15 6.5h147q8 0 13 -7t4 -14l-152 -620l-166 -742q-2 -7 -9 -13.5t-15 -6.5h-150q-8 0 -13 6t-3 14l110 461q-136 -149 -325 -149 q-140 0 -232.5 79t-118.5 213zM217 575q-22 -96 -22 -173q0 -91 30 -158q56 -123 209 -123h2h5q122 0 213 91q94 93 137 273q23 98 23 176q0 85 -28 147q-53 120 -190 128h-43q-125 -6 -212 -104t-124 -257z" />
<glyph unicode="r" horiz-adv-x="729" d="M-63 20l126 519l109 495q2 8 10 14.5t15 6.5h145q7 0 11.5 -6.5t2.5 -14.5l-47 -180q78 101 182 156t211 55q8 0 56 -6q8 -2 12.5 -9t3.5 -14l-24 -110q-2 -8 -10 -14t-15 -5q-28 4 -49 4q-129 0 -245.5 -88t-174.5 -243l-129 -560q-1 -7 -9 -13.5t-16 -6.5h-149 q-7 0 -12 6t-4 14z" />
<glyph unicode="s" horiz-adv-x="1026" d="M-27 346q0 7 7.5 14t15.5 7h139q8 0 14 -7t5 -14v-5q0 -107 78 -171q80 -64 219 -64q110 0 176.5 51t66.5 128q0 87 -94 121q-60 22 -209 67q-114 35 -207 92q-96 59 -96 193q0 133 120.5 226t317.5 93q112 0 207 -35q95 -36 157 -110q59 -71 58 -165v-9 q-2 -8 -8.5 -14.5t-13.5 -6.5h-133q-7 0 -14 6.5t-7 14.5q-1 88 -74 140t-182 52q-108 0 -174 -49t-66 -125q0 -82 95 -117q60 -22 209 -67q116 -35 206 -88q95 -59 95 -189q0 -147 -123 -241q-126 -97 -318 -97q-214 -1 -346 101q-121 93 -122 241q0 13 1 27z" />
<glyph unicode="t" horiz-adv-x="663" d="M69 145q-2 17 -2 35q0 48 13 111l145 618h-114q-8 0 -13 7t-4 14l25 104q2 8 9.5 14.5t14.5 6.5h115l53 243q2 8 10 14.5t15 6.5h149q8 0 13 -7t4 -14l-60 -243h240q7 0 12.5 -6.5t3.5 -14.5l-22 -104q-2 -8 -10 -14.5t-15 -6.5h-243l-142 -614q-11 -45 -11 -76 q1 -34 13 -53q24 -37 99 -37q55 0 102 14q7 1 12 -4t4 -12l-20 -94q-2 -8 -10 -17t-15 -10q-74 -24 -143 -24q-61 0 -107 16t-80 52t-41 95z" />
<glyph unicode="u" horiz-adv-x="1079" d="M25 395l47 209l96 430q2 8 10 14.5t15 6.5h147q7 0 12.5 -6.5t3.5 -14.5l-106 -430l-45 -203q-12 -50 -12 -92q-1 -68 31 -112q50 -72 159 -72q102 0 193.5 83t150.5 236l39 160l98 430q2 8 10 14.5t15 6.5h149q8 0 13 -7t4 -14l-115 -461l-123 -553q-2 -8 -9.5 -14 t-14.5 -6h-142q-7 0 -11.5 6t-2.5 14l41 160q-65 -89 -161 -147t-202 -58q-169 -1 -251 111q-54 73 -54 184q0 57 15 125z" />
<glyph unicode="v" horiz-adv-x="1001" d="M82 1034q0 8 5.5 14.5t12.5 6.5h146q7 0 13.5 -6.5t8.5 -14.5l90 -882l510 884q11 19 31 19h156q15 0 10 -19l-606 -1022q-11 -18 -31 -18h-184q-8 0 -15.5 6.5t-7.5 13.5z" />
<glyph unicode="w" horiz-adv-x="1439" d="M90 1034q0 8 7 14.5t14 6.5h129q7 0 13.5 -6.5t6.5 -14.5v-880l408 882q1 7 10.5 13t17.5 6h183q7 0 13.5 -6.5t6.5 -14.5l8 -866l400 868q1 7 10.5 13t17.5 6h150q7 0 10.5 -6t1.5 -13l-496 -1018q-1 -7 -10.5 -12.5t-17.5 -5.5h-176q-8 0 -14.5 6.5t-6.5 13.5l-18 887 l-406 -889q-1 -7 -10.5 -12.5t-17.5 -5.5h-177q-7 0 -13.5 6t-6.5 14z" />
<glyph unicode="x" horiz-adv-x="958" d="M-149 6q-2 6 2 10l481 559l-217 461q-2 7 1.5 13t10.5 6h156q8 0 17.5 -6t10.5 -13l162 -360l299 362q10 17 33 17h168q6 0 8 -6t0 -11l-432 -508l227 -512q2 -7 -1.5 -12.5t-10.5 -5.5h-156q-8 0 -17.5 5.5t-10.5 12.5l-174 408l-345 -410q-10 -16 -32 -16h-172 q-6 0 -8 6z" />
<glyph unicode="y" horiz-adv-x="972" d="M55 -330l199 348l-170 1016q-2 8 3.5 14.5t12.5 6.5h150q8 0 15 -7t7 -14l115 -803l447 805q11 19 30 19h162q15 0 10 -19l-790 -1366q-11 -18 -31 -18h-149q-7 0 -10 5.5t-1 12.5z" />
<glyph unicode="z" horiz-adv-x="956" d="M-98 20l22 105q4 20 19 35l737 749h-506q-7 0 -12.5 6.5t-3.5 14.5l22 104q2 8 10 14.5t15 6.5h721q7 0 12.5 -6.5t3.5 -14.5l-24 -106q-4 -20 -19 -35l-743 -748h583q8 0 13 -6.5t4 -13.5l-25 -105q-2 -8 -9 -14t-15 -6h-789q-8 0 -13 6t-3 14z" />
<glyph unicode="{" horiz-adv-x="534" d="M-62.5 -89.5q8.5 92.5 74.5 216.5l133 252q34 58 37 104q2 23 -15.5 34t-55.5 11h-33q-8 0 -13 7t-4 14l9 39l16 71q2 8 10 14.5t15 6.5h32q36 0 59.5 12t33 32.5t13 47.5t-0.5 57l-12 279q-15 177 81 283q94 104 254 104h58q7 0 12 -6.5t4 -13.5l-27 -113 q-2 -8 -9.5 -14.5t-14.5 -6.5h-55q-77 0 -111 -54.5t-27 -178.5l13 -279q5 -79 -32 -139.5t-120 -85.5q48 -19 67.5 -55.5t13.5 -79t-32 -90.5l-133 -254q-51 -97 -63.5 -154.5t8 -80.5t72.5 -23h55q7 0 12.5 -6.5t3.5 -14.5l-24 -112q-2 -8 -10 -14.5t-15 -6.5h-57 q-119 0 -175 52.5t-47.5 145z" />
<glyph unicode="|" horiz-adv-x="286" d="M-156 -266l402 1741q1 7 8.5 13.5t15.5 6.5h105q7 0 12 -6.5t4 -13.5l-403 -1741q-2 -8 -10 -14.5t-15 -6.5h-102q-8 0 -13 7t-4 14z" />
<glyph unicode="}" horiz-adv-x="534" d="M-154 -266l25 112q2 8 10 14.5t15 6.5h55q78 0 111.5 58t23.5 200l-8 254q-7 75 29.5 136t119.5 89q-48 17 -68 52t-14 78t33 95l148 279q66 128 56.5 180.5t-87.5 52.5h-55q-8 0 -13 7t-4 14l27 113q2 7 9 13.5t15 6.5h58q161 0 207.5 -104.5t-47.5 -282.5l-148 -279 q-34 -58 -37 -104q-1 -23 16.5 -34t55.5 -11h33q7 0 12.5 -6.5t3.5 -14.5l-8 -36l-17 -74q-2 -8 -9.5 -14.5t-14.5 -6.5h-33q-36 0 -59 -12t-32.5 -32.5t-12 -47.5t1.5 -57l8 -252q14 -191 -70 -302.5t-262 -111.5h-57q-8 0 -13 7t-4 14z" />
<glyph unicode="~" horiz-adv-x="1032" d="M35 614q40 189 122.5 300.5t211.5 111.5q63 0 111 -30.5t76.5 -74t52.5 -86.5t52 -73.5t62 -30.5q133 0 180 258q2 8 10 14.5t15 6.5h98q7 0 12.5 -6.5t3.5 -14.5q-83 -401 -331 -401q-46 0 -83.5 16t-63 42t-46.5 57t-39 62.5t-36 57.5t-42 42t-53 16q-66 0 -110.5 -72 t-65.5 -195q-1 -7 -9 -13.5t-16 -6.5h-96q-7 0 -12 6t-4 14z" />
<glyph unicode="&#xa1;" horiz-adv-x="417" d="M-98 -344l231 995q2 8 10 14.5t15 6.5h145q7 0 12.5 -6.5t3.5 -14.5l-231 -995q-2 -8 -10 -14.5t-15 -6.5h-145q-7 0 -12.5 6.5t-3.5 14.5zM178 874l39 175q1 7 9 13.5t16 6.5h159q8 0 13 -6.5t4 -13.5l-41 -175q-1 -7 -9 -13.5t-16 -6.5h-157q-8 0 -13 6.5t-4 13.5z" />
<glyph unicode="&#xa2;" horiz-adv-x="1081" d="M55 625q0 175 68 320t194 234.5t287 100.5l33 143q2 8 10 14.5t15 6.5h147q7 0 12.5 -6.5t3.5 -14.5l-39 -159q124 -33 193 -126t68 -231q0 -7 -6.5 -13.5t-14.5 -6.5h-135q-8 0 -14.5 6.5t-6.5 13.5q0 115 -62.5 175.5t-178.5 60.5q-120 0 -210 -75t-133.5 -193.5 t-43.5 -260.5t65.5 -218.5t192.5 -76.5q114 0 195 67.5t114 184.5q1 7 10 14t17 7h139q7 0 11.5 -6.5t2.5 -14.5q-49 -165 -165 -269.5t-287 -117.5l-37 -164q-1 -7 -9 -13.5t-16 -6.5h-147q-8 0 -13 6.5t-4 13.5l43 179q-141 37 -220 149t-79 277z" />
<glyph unicode="&#xa3;" horiz-adv-x="1165" d="M-129 20l23 103q2 8 9.5 17t14.5 10l45 14q181 56 225 225q17 72 13 264h-189q-7 0 -12.5 6.5t-3.5 14.5l22 102q2 8 10 14.5t15 6.5h150q-4 159 16 243q40 180 176 301q135 117 342 117q208 0 319 -113t91 -323q0 -7 -7.5 -14t-15.5 -7h-145q-7 0 -13 6.5t-6 14.5 q14 127 -45.5 202.5t-189.5 75.5q-118 0 -202 -75t-112 -185q-20 -84 -16 -243h322q7 0 12.5 -6.5t3.5 -14.5l-23 -102q-2 -8 -9.5 -14.5t-14.5 -6.5h-283q4 -155 -16 -239q-20 -83 -85.5 -154.5t-164.5 -105.5l399 -15q146 -6 222 66.5t116 228.5q2 8 10 14.5t15 6.5h149 q8 0 13 -7t4 -14q-59 -241 -190.5 -350.5t-338.5 -101.5l-639 18q-7 0 -12 6t-4 14z" />
<glyph unicode="&#xa4;" horiz-adv-x="1095" d="M-9 295.5q1 8.5 7 13.5l223 193q-38 84 -35 190q9 156 101 262l-105 150q-12 17 2 31l72 65q5 6 13.5 5t13.5 -7l110 -156q85 48 187 48q132 0 221 -80l213 182q6 5 15 4t15 -8l56 -64q13 -17 -2 -28l-219 -189q37 -76 34 -192q-3 -152 -100 -264l100 -140q12 -16 -2 -30 l-71 -68q-5 -6 -13.5 -5t-13.5 7l-106 147q-77 -47 -185 -47q-131 0 -223 82l-217 -186q-6 -5 -15.5 -3.5t-13.5 7.5l-59 66q-4 6 -3 14.5zM324 692q-8 -111 48 -183.5t152 -72.5q104 0 175 78.5t79 200.5q7 110 -49.5 182t-150.5 72q-104 0 -175 -77.5t-79 -199.5z" />
<glyph unicode="&#xa5;" horiz-adv-x="1173" d="M14 229l23 101q1 8 9 14t15 6h347l34 137h-348q-7 0 -12.5 6.5t-3.5 14.5l22 100q2 8 10 14.5t15 6.5h330l-269 786q-2 6 3 12.5t12 6.5h155q8 0 17 -7t10 -14l205 -672l514 676q14 17 33 17h172q6 0 8 -6t0 -11l-635 -788h326q7 0 12.5 -6.5t3.5 -14.5l-23 -100 q-2 -8 -9.5 -14.5t-14.5 -6.5h-348l-31 -137h346q8 0 13 -6t3 -14l-22 -101q-1 -7 -9 -13.5t-16 -6.5h-346l-41 -189q-2 -8 -9 -14t-15 -6h-158q-8 0 -13 6t-3 14l47 189h-342q-8 0 -13 6.5t-4 13.5z" />
<glyph unicode="&#xa6;" horiz-adv-x="286" d="M-156 -266l166 717q1 7 9 13.5t16 6.5h102q8 0 13 -6.5t4 -13.5l-166 -717q-2 -8 -10 -14.5t-15 -6.5h-102q-8 0 -13 7t-4 14zM80 758l166 717q1 7 8.5 13.5t15.5 6.5h105q7 0 12 -6.5t4 -13.5l-168 -717q-2 -8 -9.5 -14.5t-14.5 -6.5h-103q-7 0 -12.5 6.5t-3.5 14.5z " />
<glyph unicode="&#xa7;" horiz-adv-x="1241" d="M-90 -12q0 7 7 13.5t15 6.5h140q8 0 14 -6t6 -14q-2 -129 88.5 -204.5t253.5 -76.5q133 1 212 66t79 166q0 95 -104 141q-93 40 -232 88q-126 40 -231 108q-107 64 -107 205q0 118 85 207.5t224 128.5q-127 88 -127 230q0 159 132.5 266.5t357.5 107.5q216 0 353 -97.5 t130 -272.5q0 -7 -7 -14t-15 -7h-133q-7 0 -14 7t-7 14q0 112 -80.5 177.5t-236.5 65.5q-133 0 -212 -64t-79 -165q0 -96 106 -139q108 -45 230 -84q112 -36 231 -107q105 -68 105 -207q0 -124 -82 -217.5t-215 -132.5q114 -82 114 -211q0 -166 -129 -274 q-126 -106 -336 -115h-45q-148 3 -263.5 54.5t-177 145t-50.5 210.5zM240 508q0 -29 11 -54t35 -45.5t48.5 -36t65 -32t70.5 -27t79 -27t78 -26.5q122 7 201 72.5t79 154.5q0 35 -17.5 65t-40 49.5t-68 41.5t-76.5 33t-91.5 32t-89.5 31q-115 -15 -198 -75q-86 -62 -86 -156 z" />
<glyph unicode="&#xa8;" horiz-adv-x="1024" d="M381 1223l39 163q2 8 9.5 14.5t14.5 6.5h125q8 0 13 -7t4 -14l-39 -163q-2 -8 -10 -14.5t-15 -6.5h-125q-7 0 -12.5 6.5t-3.5 14.5zM707 1223l38 163q2 8 10 14.5t15 6.5h125q7 0 12.5 -6.5t3.5 -14.5l-39 -163q-2 -8 -9.5 -14.5t-14.5 -6.5h-125q-7 0 -12.5 6.5 t-3.5 14.5z" />
<glyph unicode="&#xa9;" horiz-adv-x="1509" d="M70 715q0 342 186.5 543.5t497.5 201.5q312 0 499 -201t187 -544q0 -336 -188 -539t-498 -203q-204 0 -359.5 92t-240 260.5t-84.5 389.5zM168 715q0 -297 158 -475q157 -177 428 -177q274 0 430 175q155 174 155 477q0 302 -155 479q-156 176 -430 176q-276 0 -431 -174 t-155 -481zM340 719q0 216 115 344.5t311 128.5q70 0 129.5 -17t111 -52t87 -96t51.5 -144q1 -7 -4 -14t-13 -7h-86q-7 0 -14.5 6.5t-9.5 14.5q-20 99 -88 149.5t-166 50.5q-138 0 -214.5 -98t-76.5 -266q0 -178 77 -272.5t214 -94.5q108 0 177.5 58t82.5 165q2 8 9 14.5 t14 6.5h90q7 0 12.5 -6.5t5.5 -14.5q-26 -163 -128.5 -246t-260.5 -83q-198 0 -312 126.5t-114 346.5z" />
<glyph unicode="&#xaa;" horiz-adv-x="886" d="M133 1020q9 84 41.5 161t84 138.5t127 98t163.5 36.5q172 0 239 -131l19 92q2 8 9.5 14.5t14.5 6.5h125q8 0 13 -7t4 -14l-86 -352l-84 -379q-1 -7 -9 -13.5t-16 -6.5h-125q-7 0 -11.5 6t-2.5 14l16 61q-115 -100 -256 -100q-146 0 -217 109q-70 108 -49 266zM303 1022 q-14 -121 27.5 -192t132.5 -70q108 0 184 91t90 228q12 110 -24 178t-111 80q-2 0 -25 1t-28 1q-112 -9 -172 -102q-62 -95 -74 -215z" />
<glyph unicode="&#xab;" horiz-adv-x="888" d="M12 555q-4 23 6 33l312 340q14 14 35 14h131q6 0 8 -5t-2 -9l-340 -367l174 -344q4 -6 1 -12t-11 -6h-119q-8 0 -18 5.5t-11 12.5zM385 555q-5 23 6 33l311 340q14 14 35 14h131q6 0 8 -5t-2 -9l-337 -367l174 -344q2 -6 -2 -12t-11 -6h-116q-8 0 -18 5.5t-11 12.5z" />
<glyph unicode="&#xac;" horiz-adv-x="1054" d="M53 649l25 113q2 8 9 14t15 6h883q7 0 12 -6t4 -14l-24 -105l-6 -28l-94 -406q-1 -7 -9 -13.5t-16 -6.5h-109q-7 0 -12 6.5t-4 13.5l94 406h-751q-8 0 -13 6.5t-4 13.5z" />
<glyph unicode="&#xae;" horiz-adv-x="751" d="M147 1116q0 157 88.5 249.5t235.5 92.5q144 0 232 -92.5t88 -249.5q0 -154 -87 -248t-233 -94t-235 94t-89 248zM209 1116q0 -134 69.5 -209.5t192.5 -75.5t191.5 75.5t68.5 209.5q0 132 -69 209.5t-191 77.5q-123 0 -192.5 -76.5t-69.5 -210.5zM317 938v360 q0 8 6.5 14.5t14.5 6.5h129q77 0 120.5 -31t43.5 -90q0 -44 -25.5 -74t-70.5 -41l96 -149q2 -5 -1 -10.5t-9 -5.5h-46q-19 0 -30 18l-29 49l-61 90h-66l2 -137q0 -8 -6.5 -14t-13.5 -6h-33q-8 0 -14.5 6.5t-6.5 13.5zM389 1133h82q40 0 63 16t23 47q0 32 -22.5 50t-63.5 18 h-80z" />
<glyph unicode="&#xaf;" horiz-adv-x="1024" d="M336 1255l24 99q1 7 9 13.5t16 6.5h559q8 0 13 -6.5t4 -13.5l-25 -99q-1 -7 -9 -13.5t-16 -6.5h-559q-8 0 -13 6.5t-3 13.5z" />
<glyph unicode="&#xb0;" horiz-adv-x="706" d="M145 1157q0 128 88 213q89 86 220 86q130 0 219 -86q88 -85 88 -213q0 -130 -88 -215q-89 -86 -219 -86q-131 0 -220 86q-88 85 -88 215zM276 1157q0 -84 49 -134t128 -50q76 0 126 50.5t50 133.5q0 84 -49.5 133t-126.5 49q-79 0 -128 -48.5t-49 -133.5z" />
<glyph unicode="&#xb1;" horiz-adv-x="1034" d="M-102 20l24 113q2 8 10 14.5t15 6.5h880q8 0 13 -7t4 -14l-25 -113q-2 -8 -9.5 -14t-14.5 -6h-881q-8 0 -13 6t-3 14zM55 694l25 113q1 7 8.5 13.5t15.5 6.5h369l94 408q1 7 9 13.5t16 6.5h108q8 0 13 -6.5t4 -13.5l-94 -408h362q7 0 12 -6.5t4 -13.5l-24 -113 q-1 -7 -9 -13.5t-16 -6.5h-366l-94 -406q-1 -7 -9 -13.5t-16 -6.5h-109q-8 0 -13 6t-3 14l94 406h-364q-8 0 -13 6.5t-4 13.5z" />
<glyph unicode="&#xb2;" horiz-adv-x="618" d="M57 698l19 82q14 62 46 111.5t72.5 80.5t87 56t92 45t83.5 40t66 48.5t36 63.5q12 55 -18 88.5t-92 32.5q-61 0 -102 -38.5t-54 -109.5q-1 -7 -9 -13.5t-16 -6.5h-78q-8 0 -13 6t-3 14q49 250 289 250q114 0 177 -61.5t40 -163.5q-14 -64 -53 -113t-87 -77t-103.5 -54.5 t-102.5 -46.5t-83 -52.5t-46 -72.5l-6 -25h356q7 0 12 -6t4 -14l-14 -64q-1 -7 -9 -13.5t-16 -6.5h-458q-8 0 -13 6.5t-4 13.5z" />
<glyph unicode="&#xb3;" horiz-adv-x="638" d="M98 895q0 7 7.5 13.5t15.5 6.5h88q7 0 12 -6.5t4 -13.5q-8 -63 22 -98t93 -35q127 0 156 131q18 70 -13 105.5t-102 35.5h-39q-7 0 -12.5 6.5t-3.5 14.5l12 49q1 8 8.5 14t15.5 6h39q67 0 107.5 29t52.5 80q10 52 -20.5 84.5t-83.5 32.5q-119 0 -146 -119 q-2 -8 -9.5 -14.5t-14.5 -6.5h-86q-8 0 -13 7t-4 14q25 104 97 159.5t182 55.5q111 0 178 -60.5t47 -152.5q-13 -60 -56.5 -99t-105.5 -53q60 -18 90 -70t13 -124q-25 -102 -102.5 -160.5t-188.5 -58.5q-124 0 -188.5 59t-51.5 168z" />
<glyph unicode="&#xb4;" horiz-adv-x="1024" d="M387 1239q-2 8 1.5 18t10.5 11l484 209q6 2 13.5 -2t8.5 -11l31 -112q2 -8 -3.5 -17t-12.5 -10l-490 -156q-8 -2 -17 3t-10 12z" />
<glyph unicode="&#xb5;" horiz-adv-x="1071" d="M-154 -328l189 787l127 575q2 8 9.5 14.5t14.5 6.5h152q7 0 12.5 -6.5t3.5 -14.5l-69 -278l-86 -373q-25 -125 26.5 -191.5t155.5 -66.5q102 0 193.5 83t150.5 236l39 160l98 430q2 8 10 14.5t15 6.5h149q8 0 13 -7t4 -14l-115 -461l-123 -553q-2 -8 -9.5 -14t-14.5 -6 h-142q-7 0 -11.5 6t-2.5 14l41 160q-65 -89 -161 -147t-202 -58q-112 0 -194 56l-82 -359q-1 -7 -9 -13.5t-16 -6.5h-149q-8 0 -13 6.5t-4 13.5z" />
<glyph unicode="&#xb6;" horiz-adv-x="1314" d="M128 826q-20 89 7 200q93 408 588 408h643q7 0 12.5 -6.5t3.5 -14.5l-231 -942l-180 -827q-2 -8 -10 -14.5t-15 -6.5h-158q-7 0 -12.5 6.5t-3.5 14.5l160 659l59 244h-235l-58 -244l-147 -659q-2 -8 -10 -14.5t-15 -6.5h-157q-8 0 -13 7t-4 14l160 655l59 248h-24 q-110 0 -198 33t-144.5 95t-76.5 151z" />
<glyph unicode="&#xb7;" horiz-adv-x="346" d="M25 528l41 174q2 8 9.5 14.5t14.5 6.5h166q7 0 12.5 -6.5t3.5 -14.5l-41 -174q-2 -8 -9.5 -14t-14.5 -6h-166q-7 0 -12 6t-4 14z" />
<glyph unicode="&#xb8;" horiz-adv-x="1024" d="M117 -297l192 320q11 18 31 14l102 -14q8 -2 11.5 -8.5t-0.5 -14.5l-170 -336q-11 -18 -31 -14l-125 31q-14 3 -10 22z" />
<glyph unicode="&#xb9;" horiz-adv-x="460" d="M172 1212l16 68q2 8 9 17t14 10q107 41 168 110q14 17 35 17h88q7 0 12.5 -6.5t3.5 -14.5l-92 -379l-74 -336q-2 -8 -9 -14t-15 -6h-97q-7 0 -12 6t-4 14l80 338l55 244q-72 -54 -162 -82q-8 -2 -12.5 2.5t-3.5 11.5z" />
<glyph unicode="&#xba;" horiz-adv-x="872" d="M131 1008q21 197 142.5 323.5t312.5 126.5q164 0 249 -102t64 -264q-21 -197 -142.5 -324t-310.5 -127q-164 0 -249.5 102t-65.5 265zM299 1012q-14 -119 29 -187.5t135 -68.5q112 0 182 90t84 237q14 123 -27.5 191.5t-134.5 68.5q-112 -1 -183 -93t-85 -238z" />
<glyph unicode="&#xbb;" horiz-adv-x="890" d="M-55 203.5q-2 4.5 2 9.5l342 375l-176 336q-4 6 -1 12t11 6h119q8 0 17.5 -5.5t10.5 -12.5l168 -332q4 -22 -6 -33l-313 -346q-14 -14 -35 -14h-131q-6 0 -8 4.5zM320 203.5q-2 4.5 2 9.5l340 375l-175 336q-4 6 -0.5 12t11.5 6h116q20 0 31 -18l166 -332q11 -18 -4 -33 l-315 -346q-14 -14 -35 -14h-129q-6 0 -8 4.5z" />
<glyph unicode="&#xbc;" horiz-adv-x="1433" d="M69 6q-3 6 1 10l1032 1401q14 17 33 17h96q6 0 9 -6t-1 -11l-1030 -1401q-13 -16 -33 -16h-98q-6 0 -9 6zM174 1212l16 68q2 8 9 17t14 10q107 41 168 110q14 17 35 17h88q7 0 12.5 -6.5t3.5 -14.5l-92 -379l-74 -336q-2 -8 -9 -14t-15 -6h-97q-7 0 -12 6t-4 14l80 338 l55 244q-72 -54 -162 -82q-8 -2 -12.5 2.5t-3.5 11.5zM674 205l18 78q4 19 19 34l372 424q15 15 35 15h137q8 0 13 -7t4 -14l-103 -446h58q7 0 12.5 -6.5t3.5 -14.5l-14 -63q-2 -8 -10 -14.5t-15 -6.5h-59l-39 -166q-1 -7 -9 -13.5t-16 -6.5h-92q-7 0 -12 6.5t-4 13.5 l39 166h-322q-7 0 -12.5 6.5t-3.5 14.5zM805 289h231l54 223l36 143z" />
<glyph unicode="&#xbd;" horiz-adv-x="1449" d="M69 6q-3 6 1 10l1032 1401q14 17 33 17h96q6 0 9 -6t-1 -11l-1030 -1401q-13 -16 -33 -16h-98q-6 0 -9 6zM174 1212l16 68q2 8 9 17t14 10q107 41 168 110q14 17 35 17h88q7 0 12.5 -6.5t3.5 -14.5l-92 -379l-74 -336q-2 -8 -9 -14t-15 -6h-97q-7 0 -12 6t-4 14l80 338 l55 244q-72 -54 -162 -82q-8 -2 -12.5 2.5t-3.5 11.5zM700 20l19 82q14 62 46 111.5t72.5 80.5t87 56t92 45t83.5 40t66 48.5t36 63.5q12 55 -18 88.5t-92 32.5q-61 0 -102 -38.5t-54 -109.5q-1 -7 -9 -13.5t-16 -6.5h-77q-8 0 -13 6.5t-4 13.5q49 250 289 250 q114 0 177 -61.5t40 -163.5q-14 -64 -53 -113t-87 -77t-103.5 -54.5t-102.5 -46.5t-83 -52.5t-46 -72.5l-6 -25h356q8 0 13 -6.5t3 -13.5l-14 -64q-2 -8 -9 -14t-15 -6h-459q-8 0 -13 6.5t-4 13.5z" />
<glyph unicode="&#xbe;" horiz-adv-x="1593" d="M100 895q0 7 7.5 13.5t15.5 6.5h88q7 0 12 -6.5t4 -13.5q-8 -63 22 -98t93 -35q127 0 156 131q18 70 -13 105.5t-102 35.5h-39q-7 0 -12.5 6.5t-3.5 14.5l12 49q1 7 9 13.5t16 6.5h38q67 0 107.5 29t52.5 80q10 52 -20.5 84.5t-83.5 32.5q-119 0 -146 -119 q-2 -8 -9.5 -14.5t-14.5 -6.5h-86q-8 0 -13 7t-4 14q25 104 97 159.5t182 55.5q111 0 178 -60.5t47 -152.5q-13 -60 -56.5 -99t-105.5 -53q60 -18 90 -70t13 -124q-25 -102 -102.5 -160.5t-188.5 -58.5q-124 0 -188.5 59t-51.5 168zM228.5 6q-3.5 6 0.5 10l1033 1401 q14 17 32 17h97q6 0 9 -6t-1 -11l-1030 -1401q-13 -16 -33 -16h-98q-6 0 -9.5 6zM821 205l19 78q4 20 18 34l373 424q15 15 35 15h137q7 0 12.5 -6.5t3.5 -14.5l-102 -446h57q8 0 13 -7t4 -14l-15 -63q-2 -8 -9.5 -14.5t-14.5 -6.5h-60l-39 -166q-2 -7 -9.5 -13.5 t-14.5 -6.5h-92q-8 0 -13 6.5t-4 13.5l39 166h-321q-8 0 -13 7t-4 14zM952 289h232l53 223l37 143z" />
<glyph unicode="&#xbf;" horiz-adv-x="989" d="M-104 2q10 56 32 102.5t60 86t66.5 62.5t80.5 60q53 38 82 61.5t70.5 64.5t69 90t44.5 108q1 7 9 13.5t16 6.5h145q8 0 13 -6.5t4 -13.5q-21 -80 -59 -147t-81.5 -113.5t-92 -87t-94.5 -74t-84.5 -67t-65.5 -74.5t-35 -88q-17 -98 33 -162t145 -76q12 -4 68 -4 q122 4 195.5 75t111.5 210q1 7 9.5 13.5t16.5 6.5h140q7 0 11.5 -6t2.5 -14q-58 -211 -188.5 -318.5t-346.5 -107.5q-119 0 -212.5 48.5t-140.5 141t-25 209.5zM446 860l39 174q2 8 10 14.5t15 6.5h162q7 0 12.5 -6.5t3.5 -14.5l-39 -174q-2 -8 -9.5 -14t-14.5 -6h-162 q-8 0 -13 6.5t-4 13.5z" />
<glyph unicode="&#xc0;" horiz-adv-x="1284" d="M-154 18l824 1397q11 19 30 19h209q8 0 15.5 -7t7.5 -14l174 -1393q0 -8 -6 -14t-13 -6h-143q-7 0 -13.5 6t-8.5 14l-45 408h-590l-234 -410q-11 -18 -30 -18h-166q-15 0 -11 18zM379 590h479l-78 704zM547 1735l45 112q1 7 9.5 10t16.5 1l429 -211q15 -3 10 -27l-25 -59 q-1 -7 -9.5 -11t-16.5 -2l-449 162q-14 3 -10 25z" />
<glyph unicode="&#xc1;" horiz-adv-x="1284" d="M-154 18l824 1397q11 19 30 19h209q8 0 15.5 -7t7.5 -14l174 -1393q0 -8 -6 -14t-13 -6h-143q-7 0 -13.5 6t-8.5 14l-45 408h-590l-234 -410q-11 -18 -30 -18h-166q-15 0 -11 18zM379 590h479l-78 704zM592 1618q-2 8 1.5 18t10.5 11l483 208q7 2 14.5 -1.5t8.5 -10.5 l31 -112q2 -8 -4 -17t-13 -10l-489 -156q-8 -2 -17 3t-10 12z" />
<glyph unicode="&#xc2;" horiz-adv-x="1284" d="M-154 18l824 1397q11 19 30 19h209q8 0 15.5 -7t7.5 -14l174 -1393q0 -8 -6 -14t-13 -6h-143q-7 0 -13.5 6t-8.5 14l-45 408h-590l-234 -410q-11 -18 -30 -18h-166q-15 0 -11 18zM379 590h479l-78 704zM492 1626q-4 21 10 29l313 162q17 10 39 10h39q22 0 37 -12 l227 -164q6 -4 7.5 -13.5t-3.5 -15.5l-45 -63q-5 -6 -14 -8.5t-17 1.5l-233 129l-309 -127q-8 -2 -17 1t-10 10z" />
<glyph unicode="&#xc3;" horiz-adv-x="1284" d="M-154 18l824 1397q11 19 30 19h209q8 0 15.5 -7t7.5 -14l174 -1393q0 -8 -6 -14t-13 -6h-143q-7 0 -13.5 6t-8.5 14l-45 408h-590l-234 -410q-11 -18 -30 -18h-166q-15 0 -11 18zM379 590h479l-78 704zM547 1599q59 224 209 224q34 0 62 -14t46.5 -33.5t35 -39.5 t34.5 -34t37 -14q36 0 55.5 26.5t32.5 79.5q1 7 9.5 14t16.5 7h64q7 0 12.5 -6.5t3.5 -14.5q-59 -225 -211 -225q-35 0 -62.5 14t-45.5 33.5t-34 39.5t-35 34t-40 14q-34 0 -53 -27t-33 -78q-1 -7 -9 -13.5t-15 -6.5h-64q-7 0 -12 6.5t-4 13.5z" />
<glyph unicode="&#xc4;" horiz-adv-x="1284" d="M-154 18l824 1397q11 19 30 19h209q8 0 15.5 -7t7.5 -14l174 -1393q0 -8 -6 -14t-13 -6h-143q-7 0 -13.5 6t-8.5 14l-45 408h-590l-234 -410q-11 -18 -30 -18h-166q-15 0 -11 18zM379 590h479l-78 704zM582 1602l39 163q2 8 9.5 14.5t14.5 6.5h125q7 0 12.5 -6.5 t3.5 -14.5l-38 -163q-2 -8 -10 -14.5t-15 -6.5h-125q-7 0 -12.5 6.5t-3.5 14.5zM907 1602l39 163q2 8 10 14.5t15 6.5h125q7 0 12.5 -6.5t3.5 -14.5l-39 -163q-2 -8 -9.5 -14.5t-14.5 -6.5h-125q-8 0 -13 7t-4 14z" />
<glyph unicode="&#xc5;" horiz-adv-x="1284" d="M-154 18l824 1397q11 19 30 19h209q8 0 15.5 -7t7.5 -14l174 -1393q0 -8 -6 -14t-13 -6h-143q-7 0 -13.5 6t-8.5 14l-45 408h-590l-234 -410q-11 -18 -30 -18h-166q-15 0 -11 18zM379 590h479l-78 704zM649 1733q0 108 73.5 177.5t178.5 69.5q86 0 142.5 -51t56.5 -129 q0 -108 -72.5 -178t-177.5 -70q-87 0 -144 51.5t-57 129.5zM754 1737q0 -47 28 -76t72 -29q57 0 99 46.5t42 117.5q0 49 -27 75.5t-75 26.5q-54 0 -96.5 -45.5t-42.5 -115.5z" />
<glyph unicode="&#xc6;" horiz-adv-x="1777" d="M-154.5 6q-3.5 6 0.5 10l1026 1401q14 17 33 17h930q7 0 12.5 -6.5t3.5 -14.5l-24 -113q-1 -7 -9 -13.5t-16 -6.5h-583l-115 -438h545q7 0 12.5 -6.5t3.5 -14.5l-25 -112q-2 -8 -9.5 -14.5t-14.5 -6.5h-545l-117 -534h600q8 0 13 -7t4 -14l-25 -113q-2 -8 -9 -14t-15 -6 h-779q-7 0 -12 6t-4 14l102 408h-475l-297 -412q-13 -16 -32 -16h-170q-6 0 -9.5 6zM471 590h397l37 149l119 553h-47z" />
<glyph unicode="&#xc7;" horiz-adv-x="1394" d="M47 575q0 180 54 341t151 282t242 191.5t317 70.5q160 0 285.5 -60.5t201 -180t78.5 -281.5q0 -8 -6 -14t-14 -6h-148q-8 0 -14 6t-6 14q-5 164 -109.5 264.5t-281.5 100.5q-108 0 -199 -40t-155.5 -109t-110 -161t-67 -197t-21.5 -216q0 -212 112.5 -330.5t305.5 -118.5 q343 0 450 350q1 7 10 14t17 7h149q7 0 12 -6.5t3 -14.5q-72 -245 -237 -376.5t-404 -131.5q-276 0 -445.5 165.5t-169.5 436.5zM342 -297l193 320q11 18 30 14l103 -14q8 -2 11 -8.5t-1 -14.5l-170 -336q-11 -18 -31 -14l-125 31q-14 3 -10 22z" />
<glyph unicode="&#xc8;" horiz-adv-x="1103" d="M-49 20l178 719l145 674q2 8 10 14.5t15 6.5h862q8 0 13 -7t4 -14l-25 -113q-1 -7 -9 -13.5t-16 -6.5h-686l-112 -438h645q7 0 12.5 -6.5t3.5 -14.5l-26 -112q-2 -8 -10 -14.5t-15 -6.5h-645l-117 -534h703q7 0 12.5 -6.5t3.5 -14.5l-27 -113q-2 -8 -9 -14t-15 -6h-879 q-7 0 -12 6t-4 14zM514 1735l45 112q1 7 10 10t17 1l428 -211q15 -3 10 -27l-25 -59q-1 -7 -9.5 -11t-16.5 -2l-449 162q-14 3 -10 25z" />
<glyph unicode="&#xc9;" horiz-adv-x="1103" d="M-49 20l178 719l145 674q2 8 10 14.5t15 6.5h862q8 0 13 -7t4 -14l-25 -113q-1 -7 -9 -13.5t-16 -6.5h-686l-112 -438h645q7 0 12.5 -6.5t3.5 -14.5l-26 -112q-2 -8 -10 -14.5t-15 -6.5h-645l-117 -534h703q7 0 12.5 -6.5t3.5 -14.5l-27 -113q-2 -8 -9 -14t-15 -6h-879 q-7 0 -12 6t-4 14zM555 1618q-2 8 1.5 18t10.5 11l484 208q7 2 14 -1.5t8 -10.5l31 -112q2 -8 -4 -17t-13 -10l-489 -156q-8 -2 -17 3t-10 12z" />
<glyph unicode="&#xca;" horiz-adv-x="1103" d="M-49 20l178 719l145 674q2 8 10 14.5t15 6.5h862q8 0 13 -7t4 -14l-25 -113q-1 -7 -9 -13.5t-16 -6.5h-686l-112 -438h645q7 0 12.5 -6.5t3.5 -14.5l-26 -112q-2 -8 -10 -14.5t-15 -6.5h-645l-117 -534h703q7 0 12.5 -6.5t3.5 -14.5l-27 -113q-2 -8 -9 -14t-15 -6h-879 q-7 0 -12 6t-4 14zM461 1626q-4 21 10 29l313 162q17 10 39 10h39q22 0 37 -12l227 -164q6 -4 7.5 -13.5t-3.5 -15.5l-45 -63q-13 -17 -30 -7l-234 129l-309 -127q-8 -2 -17 1t-10 10z" />
<glyph unicode="&#xcb;" horiz-adv-x="1103" d="M-49 20l178 719l145 674q2 8 10 14.5t15 6.5h862q8 0 13 -7t4 -14l-25 -113q-1 -7 -9 -13.5t-16 -6.5h-686l-112 -438h645q7 0 12.5 -6.5t3.5 -14.5l-26 -112q-2 -8 -10 -14.5t-15 -6.5h-645l-117 -534h703q7 0 12.5 -6.5t3.5 -14.5l-27 -113q-2 -8 -9 -14t-15 -6h-879 q-7 0 -12 6t-4 14zM559 1602l39 163q2 8 10 14.5t15 6.5h125q7 0 12.5 -6.5t3.5 -14.5l-39 -163q-2 -8 -10 -14.5t-15 -6.5h-125q-7 0 -12.5 6.5t-3.5 14.5zM885 1602l39 163q2 8 9.5 14.5t14.5 6.5h125q8 0 13 -7t4 -14l-39 -163q-2 -8 -10 -14.5t-15 -6.5h-125 q-7 0 -12.5 6.5t-3.5 14.5z" />
<glyph unicode="&#xcc;" horiz-adv-x="442" d="M-39 20l174 709l150 684q2 8 9.5 14.5t14.5 6.5h154q7 0 12.5 -6.5t3.5 -14.5l-168 -684l-153 -709q-1 -7 -9 -13.5t-16 -6.5h-156q-7 0 -12 6t-4 14zM121 1735l45 112q1 7 10 10t17 1l428 -211q15 -3 10 -27l-25 -59q-1 -7 -9.5 -11t-16.5 -2l-449 162q-14 3 -10 25z " />
<glyph unicode="&#xcd;" horiz-adv-x="442" d="M-39 20l174 709l150 684q2 8 9.5 14.5t14.5 6.5h154q7 0 12.5 -6.5t3.5 -14.5l-168 -684l-153 -709q-1 -7 -9 -13.5t-16 -6.5h-156q-7 0 -12 6t-4 14zM186 1618q-2 8 2 18t11 11l483 208q7 2 14.5 -1.5t8.5 -10.5l30 -112q2 -8 -3.5 -17t-12.5 -10l-490 -156 q-8 -2 -16.5 3t-9.5 12z" />
<glyph unicode="&#xce;" horiz-adv-x="442" d="M-39 20l174 709l150 684q2 8 9.5 14.5t14.5 6.5h154q7 0 12.5 -6.5t3.5 -14.5l-168 -684l-153 -709q-1 -7 -9 -13.5t-16 -6.5h-156q-7 0 -12 6t-4 14zM82 1626q-4 21 10 29l314 162q17 10 38 10h39q22 0 37 -12l228 -164q6 -4 7.5 -13.5t-3.5 -15.5l-45 -63 q-5 -6 -14 -8.5t-17 1.5l-234 129l-309 -127q-8 -2 -17 1t-10 10z" />
<glyph unicode="&#xcf;" horiz-adv-x="442" d="M-39 20l174 709l150 684q2 8 9.5 14.5t14.5 6.5h154q7 0 12.5 -6.5t3.5 -14.5l-168 -684l-153 -709q-1 -7 -9 -13.5t-16 -6.5h-156q-7 0 -12 6t-4 14zM172 1602l39 163q2 8 10 14.5t15 6.5h124q8 0 13 -7t4 -14l-39 -163q-2 -8 -10 -14.5t-15 -6.5h-125q-7 0 -12.5 6.5 t-3.5 14.5zM498 1602l39 163q2 8 9.5 14.5t14.5 6.5h125q7 0 12.5 -6.5t3.5 -14.5l-38 -163q-2 -8 -10 -14.5t-15 -6.5h-125q-7 0 -12.5 6.5t-3.5 14.5z" />
<glyph unicode="&#xd0;" horiz-adv-x="1390" d="M-35 20l162 658h-135q-8 0 -13 6.5t-4 13.5l27 115q2 8 10 14.5t15 6.5h135l127 579q2 8 9.5 14.5t14.5 6.5h412q142 0 262 -47.5t202.5 -132.5t121 -210t20.5 -272q-16 -153 -69.5 -280.5t-133.5 -217.5t-184 -152.5t-221 -92t-244 -29.5h-497q-8 0 -13 6.5t-4 13.5z M193 154h315q86 0 167.5 21.5t158 69t137 116.5t103.5 170.5t59 224.5q18 120 -5.5 219.5t-79.5 166t-139 102.5t-184 36h-266q-74 -276 -115 -446h379q7 0 12.5 -6.5t3.5 -14.5l-24 -115q-1 -7 -9 -13.5t-16 -6.5h-381q-16 -77 -45.5 -208.5t-50 -223t-20.5 -92.5z" />
<glyph unicode="&#xd1;" horiz-adv-x="1384" d="M-49 20l172 707l151 686q2 8 10 14.5t15 6.5h168q8 0 18 -6t11 -13l489 -1171l27 127l100 450l137 592q2 8 10 14.5t15 6.5h143q8 0 13 -7t4 -14l-168 -686l-156 -707q-1 -7 -9 -13.5t-16 -6.5h-178q-8 0 -17.5 5.5t-10.5 12.5l-486 1153l-33 -153l-92 -420l-135 -578 q-2 -8 -9.5 -14t-14.5 -6h-142q-7 0 -12 6t-4 14zM610 1599q59 224 209 224q34 0 62 -14t46.5 -33.5t35 -39.5t34.5 -34t37 -14q36 0 55.5 26.5t32.5 79.5q1 7 10 14t17 7h63q8 0 13 -7t4 -14q-59 -225 -211 -225q-35 0 -62.5 14t-45.5 33.5t-34 39.5t-35 34t-40 14 q-34 0 -53 -27t-33 -78q-1 -7 -9 -13.5t-16 -6.5h-63q-8 0 -13 6.5t-4 13.5z" />
<glyph unicode="&#xd2;" horiz-adv-x="1499" d="M47 557q0 184 59.5 350t164.5 288t256.5 193.5t326.5 71.5q269 0 433.5 -158.5t164.5 -422.5q0 -146 -38 -282.5t-110 -249t-170 -197t-224 -131t-265 -46.5q-275 0 -436.5 160t-161.5 424zM244 561q0 -197 109.5 -313.5t299.5 -116.5q178 0 316.5 100t212 266.5 t73.5 368.5q0 201 -112 319t-299 118q-136 0 -250.5 -60.5t-190 -162.5t-117.5 -236.5t-42 -282.5zM651 1735l45 112q1 7 10 10t17 1l428 -211q15 -3 10 -27l-24 -59q-1 -7 -10 -11t-17 -2l-448 162q-15 3 -11 25z" />
<glyph unicode="&#xd3;" horiz-adv-x="1499" d="M47 557q0 184 59.5 350t164.5 288t256.5 193.5t326.5 71.5q269 0 433.5 -158.5t164.5 -422.5q0 -146 -38 -282.5t-110 -249t-170 -197t-224 -131t-265 -46.5q-275 0 -436.5 160t-161.5 424zM244 561q0 -197 109.5 -313.5t299.5 -116.5q178 0 316.5 100t212 266.5 t73.5 368.5q0 201 -112 319t-299 118q-136 0 -250.5 -60.5t-190 -162.5t-117.5 -236.5t-42 -282.5zM680 1618q-2 8 1.5 18t10.5 11l484 208q7 2 14 -1.5t8 -10.5l31 -112q2 -8 -4 -17t-13 -10l-489 -156q-8 -2 -17 3t-10 12z" />
<glyph unicode="&#xd4;" horiz-adv-x="1499" d="M47 557q0 184 59.5 350t164.5 288t256.5 193.5t326.5 71.5q269 0 433.5 -158.5t164.5 -422.5q0 -146 -38 -282.5t-110 -249t-170 -197t-224 -131t-265 -46.5q-275 0 -436.5 160t-161.5 424zM244 561q0 -197 109.5 -313.5t299.5 -116.5q178 0 316.5 100t212 266.5 t73.5 368.5q0 201 -112 319t-299 118q-136 0 -250.5 -60.5t-190 -162.5t-117.5 -236.5t-42 -282.5zM578 1626q-4 21 10 29l313 162q17 10 39 10h39q22 0 37 -12l227 -164q6 -4 7.5 -13.5t-3.5 -15.5l-45 -63q-5 -6 -14 -8.5t-17 1.5l-233 129l-309 -127q-8 -2 -17 1t-10 10z " />
<glyph unicode="&#xd5;" horiz-adv-x="1499" d="M47 557q0 184 59.5 350t164.5 288t256.5 193.5t326.5 71.5q269 0 433.5 -158.5t164.5 -422.5q0 -146 -38 -282.5t-110 -249t-170 -197t-224 -131t-265 -46.5q-275 0 -436.5 160t-161.5 424zM244 561q0 -197 109.5 -313.5t299.5 -116.5q178 0 316.5 100t212 266.5 t73.5 368.5q0 201 -112 319t-299 118q-136 0 -250.5 -60.5t-190 -162.5t-117.5 -236.5t-42 -282.5zM641 1599q59 224 209 224q34 0 62 -14t46.5 -33.5t35 -39.5t34.5 -34t37 -14q36 0 55.5 26.5t32.5 79.5q1 7 10 14t17 7h63q8 0 13 -7t4 -14q-59 -225 -211 -225 q-35 0 -63 14t-46 33.5t-34 39.5t-35 34t-40 14q-34 0 -53 -27t-33 -78q-2 -7 -9.5 -13.5t-14.5 -6.5h-64q-7 0 -12 6.5t-4 13.5z" />
<glyph unicode="&#xd6;" horiz-adv-x="1499" d="M47 557q0 184 59.5 350t164.5 288t256.5 193.5t326.5 71.5q269 0 433.5 -158.5t164.5 -422.5q0 -146 -38 -282.5t-110 -249t-170 -197t-224 -131t-265 -46.5q-275 0 -436.5 160t-161.5 424zM244 561q0 -197 109.5 -313.5t299.5 -116.5q178 0 316.5 100t212 266.5 t73.5 368.5q0 201 -112 319t-299 118q-136 0 -250.5 -60.5t-190 -162.5t-117.5 -236.5t-42 -282.5zM674 1602l39 163q2 8 9.5 14.5t14.5 6.5h125q8 0 13 -7t4 -14l-39 -163q-2 -8 -10 -14.5t-15 -6.5h-125q-7 0 -12.5 6.5t-3.5 14.5zM999 1602l39 163q2 8 10 14.5t15 6.5 h125q7 0 12.5 -6.5t3.5 -14.5l-39 -163q-2 -8 -9.5 -14.5t-14.5 -6.5h-125q-8 0 -13 7t-4 14z" />
<glyph unicode="&#xd7;" horiz-adv-x="1034" d="M35.5 406.5q1.5 9.5 7.5 13.5l369 299l-211 272q-12 17 2 31l84 78q14 14 26 -2l217 -281l355 287q6 4 14.5 3t13.5 -7l68 -78q5 -6 3.5 -15.5t-7.5 -13.5l-359 -291l220 -282q12 -17 -2 -31l-84 -76q-6 -6 -14 -5t-13 7l-225 291l-367 -299q-6 -5 -15.5 -3.5t-13.5 7.5 l-65 80q-5 6 -3.5 15.5z" />
<glyph unicode="&#xd8;" horiz-adv-x="1499" d="M-27 23q-10 17 2 30l164 164q-92 143 -92 340q0 184 59.5 350t164.5 288t256.5 193.5t326.5 71.5q242 0 397 -127l172 172q6 6 14 5t13 -7l74 -86q11 -18 -2 -31l-166 -165q96 -150 96 -342q0 -146 -38 -282.5t-110 -249t-170 -197t-224 -131t-265 -46.5q-247 0 -403 131 l-168 -170q-6 -6 -14 -4.5t-13 7.5zM244 561q0 -121 43 -215l848 848q-115 109 -291 109q-136 0 -250.5 -60.5t-190 -162.5t-117.5 -236.5t-42 -282.5zM358 242q105 -111 295 -111q178 0 316.5 100t212 266.5t73.5 368.5q0 135 -47 224z" />
<glyph unicode="&#xd9;" horiz-adv-x="1243" d="M51 543l107 446l90 424q2 8 9.5 14.5t14.5 6.5h160q8 0 13 -7t4 -14l-103 -420l-104 -450q-45 -191 20 -299.5t250 -108.5q327 0 422 408l104 446l92 424q2 8 10 14.5t15 6.5h145q8 0 13 -7t4 -14l-103 -424l-104 -446q-66 -280 -216 -425t-409 -145q-261 0 -378.5 156.5 t-55.5 413.5zM522 1735l45 112q1 7 10 10t17 1l428 -211q15 -3 10 -27l-24 -59q-1 -7 -10 -11t-17 -2l-449 162q-14 3 -10 25z" />
<glyph unicode="&#xda;" horiz-adv-x="1243" d="M51 543l107 446l90 424q2 8 9.5 14.5t14.5 6.5h160q8 0 13 -7t4 -14l-103 -420l-104 -450q-45 -191 20 -299.5t250 -108.5q327 0 422 408l104 446l92 424q2 8 10 14.5t15 6.5h145q8 0 13 -7t4 -14l-103 -424l-104 -446q-66 -280 -216 -425t-409 -145q-261 0 -378.5 156.5 t-55.5 413.5zM584 1618q-2 8 1.5 18t10.5 11l483 208q7 2 14.5 -1.5t8.5 -10.5l31 -112q2 -8 -4 -17t-13 -10l-489 -156q-8 -2 -17 3t-10 12z" />
<glyph unicode="&#xdb;" horiz-adv-x="1243" d="M51 543l107 446l90 424q2 8 9.5 14.5t14.5 6.5h160q8 0 13 -7t4 -14l-103 -420l-104 -450q-45 -191 20 -299.5t250 -108.5q327 0 422 408l104 446l92 424q2 8 10 14.5t15 6.5h145q8 0 13 -7t4 -14l-103 -424l-104 -446q-66 -280 -216 -425t-409 -145q-261 0 -378.5 156.5 t-55.5 413.5zM483 1626q-4 20 11 29l313 162q17 10 39 10h39q22 0 37 -12l227 -164q6 -4 7.5 -13.5t-3.5 -15.5l-45 -63q-5 -6 -14 -8.5t-17 1.5l-233 129l-309 -127q-8 -2 -17 1t-10 10z" />
<glyph unicode="&#xdc;" horiz-adv-x="1243" d="M51 543l107 446l90 424q2 8 9.5 14.5t14.5 6.5h160q8 0 13 -7t4 -14l-103 -420l-104 -450q-45 -191 20 -299.5t250 -108.5q327 0 422 408l104 446l92 424q2 8 10 14.5t15 6.5h145q8 0 13 -7t4 -14l-103 -424l-104 -446q-66 -280 -216 -425t-409 -145q-261 0 -378.5 156.5 t-55.5 413.5zM573 1602l39 163q2 8 10 14.5t15 6.5h125q7 0 12.5 -6.5t3.5 -14.5l-39 -163q-2 -8 -9.5 -14.5t-14.5 -6.5h-125q-8 0 -13 7t-4 14zM899 1602l39 163q2 8 10 14.5t15 6.5h124q8 0 13 -7t4 -14l-39 -163q-2 -8 -10 -14.5t-15 -6.5h-125q-7 0 -12.5 6.5 t-3.5 14.5z" />
<glyph unicode="&#xdd;" horiz-adv-x="1159" d="M178 1413q-2 8 3 14.5t12 6.5h159q8 0 17 -7t10 -14l190 -731l525 735q14 17 32 17h172q6 0 9.5 -6t-0.5 -11l-686 -913l-107 -484q-1 -7 -9 -13.5t-16 -6.5h-157q-8 0 -13 6.5t-4 13.5l123 488zM537 1618q-2 8 1.5 18t10.5 11l483 208q7 2 14.5 -1.5t8.5 -10.5l30 -112 q2 -8 -3.5 -17t-12.5 -10l-489 -156q-8 -2 -17 3t-10 12z" />
<glyph unicode="&#xde;" horiz-adv-x="1159" d="M-49 20l174 715l149 678q2 8 10 14.5t15 6.5h156q7 0 12.5 -6.5t3.5 -14.5l-61 -248h262q207 0 327.5 -99.5t120.5 -281.5q0 -230 -161 -367.5t-427 -137.5h-327l-58 -259q-1 -8 -9 -14t-15 -6h-156q-7 0 -12 6t-4 14zM238 430h327q151 0 260 86q105 86 105 248 q0 122 -71.5 186t-205.5 64h-280l-72 -295z" />
<glyph unicode="&#xdf;" horiz-adv-x="1120" d="M-55 18l112 455l127 549q53 227 185 331.5t321 104.5q187 3 301 -96q111 -102 90 -260q-15 -136 -112 -217q-102 -85 -221 -111q144 -29 210 -123t52 -233q-16 -134 -98.5 -230t-210.5 -143t-291 -47h-60q-8 0 -13 6.5t-3 13.5l22 107q1 7 9 13.5t16 6.5h59 q164 0 263 75.5t112 211.5q13 124 -57.5 193t-206.5 69h-41q-7 0 -12.5 6.5t-3.5 14.5l22 96q1 7 9 13.5t16 6.5h41q117 0 209 74q89 74 98 191q10 104 -46.5 161.5t-166.5 57.5q-241 0 -309 -297l-127 -545l-97 -455q-1 -7 -9 -13.5t-15 -6.5h-158q-7 0 -12 6.5t-4 13.5z " />
<glyph unicode="&#xe0;" d="M19.5 276.5q-26.5 134.5 11.5 313.5q23 99 66.5 184.5t106.5 153t150 106.5t187 39q123 0 207.5 -56.5t119.5 -160.5l37 178q2 8 10 14.5t15 6.5h149q8 0 13 -7t4 -14l-123 -497l-113 -517q-2 -8 -9 -14t-15 -6h-148q-7 0 -11.5 6t-2.5 14l31 121q-135 -157 -334 -157 q-140 0 -232.5 79t-119 213.5zM217 575q-48 -207 8 -331t211 -123q125 -2 218.5 91t136.5 273q49 204 -4.5 323.5t-190.5 127.5h-43q-125 -6 -212 -104t-124 -257zM350 1356l45 112q1 7 10 10t17 1l428 -211q15 -3 10 -27l-24 -59q-1 -7 -10 -11t-17 -2l-449 162 q-14 3 -10 25z" />
<glyph unicode="&#xe1;" d="M19.5 276.5q-26.5 134.5 11.5 313.5q23 99 66.5 184.5t106.5 153t150 106.5t187 39q123 0 207.5 -56.5t119.5 -160.5l37 178q2 8 10 14.5t15 6.5h149q8 0 13 -7t4 -14l-123 -497l-113 -517q-2 -8 -9 -14t-15 -6h-148q-7 0 -11.5 6t-2.5 14l31 121q-135 -157 -334 -157 q-140 0 -232.5 79t-119 213.5zM217 575q-48 -207 8 -331t211 -123q125 -2 218.5 91t136.5 273q49 204 -4.5 323.5t-190.5 127.5h-43q-125 -6 -212 -104t-124 -257zM395 1239q-2 8 2 18t11 11l483 209q6 2 13.5 -2t8.5 -11l31 -112q2 -8 -3.5 -17t-12.5 -10l-490 -156 q-8 -2 -16.5 3t-9.5 12z" />
<glyph unicode="&#xe2;" d="M19.5 276.5q-26.5 134.5 11.5 313.5q23 99 66.5 184.5t106.5 153t150 106.5t187 39q123 0 207.5 -56.5t119.5 -160.5l37 178q2 8 10 14.5t15 6.5h149q8 0 13 -7t4 -14l-123 -497l-113 -517q-2 -8 -9 -14t-15 -6h-148q-7 0 -11.5 6t-2.5 14l31 121q-135 -157 -334 -157 q-140 0 -232.5 79t-119 213.5zM217 575q-48 -207 8 -331t211 -123q125 -2 218.5 91t136.5 273q49 204 -4.5 323.5t-190.5 127.5h-43q-125 -6 -212 -104t-124 -257zM305 1247q-4 21 10 29l314 162q17 10 39 10h39q21 0 36 -12l228 -164q6 -4 7.5 -13.5t-3.5 -15.5l-45 -63 q-5 -6 -14 -8t-17 2l-233 129l-310 -127q-23 -5 -26 10z" />
<glyph unicode="&#xe3;" d="M19.5 276.5q-26.5 134.5 11.5 313.5q23 99 66.5 184.5t106.5 153t150 106.5t187 39q123 0 207.5 -56.5t119.5 -160.5l37 178q2 8 10 14.5t15 6.5h149q8 0 13 -7t4 -14l-123 -497l-113 -517q-2 -8 -9 -14t-15 -6h-148q-7 0 -11.5 6t-2.5 14l31 121q-135 -157 -334 -157 q-140 0 -232.5 79t-119 213.5zM217 575q-48 -207 8 -331t211 -123q125 -2 218.5 91t136.5 273q49 204 -4.5 323.5t-190.5 127.5h-43q-125 -6 -212 -104t-124 -257zM369 1221q59 223 209 223q34 0 62 -14t46.5 -34t35 -39.5t34.5 -33.5t37 -14q36 0 55.5 26.5t32.5 79.5 q1 7 9.5 14t16.5 7h64q7 0 12.5 -6.5t3.5 -14.5q-59 -225 -211 -225q-35 0 -62.5 14t-45.5 34t-34 39.5t-35 33.5t-40 14q-34 0 -53 -26.5t-33 -77.5q-2 -8 -9.5 -14.5t-14.5 -6.5h-64q-7 0 -12.5 6.5t-3.5 14.5z" />
<glyph unicode="&#xe4;" d="M19.5 276.5q-26.5 134.5 11.5 313.5q23 99 66.5 184.5t106.5 153t150 106.5t187 39q123 0 207.5 -56.5t119.5 -160.5l37 178q2 8 10 14.5t15 6.5h149q8 0 13 -7t4 -14l-123 -497l-113 -517q-2 -8 -9 -14t-15 -6h-148q-7 0 -11.5 6t-2.5 14l31 121q-135 -157 -334 -157 q-140 0 -232.5 79t-119 213.5zM217 575q-48 -207 8 -331t211 -123q125 -2 218.5 91t136.5 273q49 204 -4.5 323.5t-190.5 127.5h-43q-125 -6 -212 -104t-124 -257zM399 1223l39 163q2 8 10 14.5t15 6.5h125q7 0 12.5 -6.5t3.5 -14.5l-39 -163q-2 -8 -9.5 -14.5t-14.5 -6.5 h-125q-8 0 -13 7t-4 14zM725 1223l39 163q2 8 9.5 14.5t14.5 6.5h125q8 0 13 -7t4 -14l-39 -163q-2 -8 -10 -14.5t-15 -6.5h-125q-7 0 -12.5 6.5t-3.5 14.5z" />
<glyph unicode="&#xe5;" d="M19.5 276.5q-26.5 134.5 11.5 313.5q23 99 66.5 184.5t106.5 153t150 106.5t187 39q123 0 207.5 -56.5t119.5 -160.5l37 178q2 8 10 14.5t15 6.5h149q8 0 13 -7t4 -14l-123 -497l-113 -517q-2 -8 -9 -14t-15 -6h-148q-7 0 -11.5 6t-2.5 14l31 121q-135 -157 -334 -157 q-140 0 -232.5 79t-119 213.5zM217 575q-48 -207 8 -331t211 -123q125 -2 218.5 91t136.5 273q49 204 -4.5 323.5t-190.5 127.5h-43q-125 -6 -212 -104t-124 -257zM463 1354q0 108 73.5 178t178.5 70q86 0 142 -51.5t56 -129.5q0 -108 -72 -177.5t-177 -69.5 q-88 0 -144.5 51t-56.5 129zM567 1358q0 -47 28 -76t73 -29q57 0 99 46.5t42 117.5q0 49 -27 76t-75 27q-54 0 -97 -46t-43 -116z" />
<glyph unicode="&#xe6;" horiz-adv-x="1878" d="M17.5 276.5q-26.5 134.5 11.5 313.5q23 99 66.5 184.5t106.5 153t150 106.5t187 39q125 0 209 -58t116 -167l39 186q2 8 10 14.5t15 6.5h119q7 0 11.5 -6.5t2.5 -14.5l-29 -112q142 155 363 155q107 0 192 -38.5t137.5 -110.5t69.5 -175t-10 -231q-1 -7 -9 -13.5 t-16 -6.5h-780q-4 -50 -4 -72q0 -150 65.5 -232.5t198.5 -82.5q122 0 203 60t114 171q1 7 10 14t17 7h137q7 0 12 -6.5t3 -14.5q-47 -169 -170.5 -269t-321.5 -100q-144 0 -237.5 67.5t-131.5 186.5l-47 -211q-2 -8 -9.5 -14t-14.5 -6h-117q-8 0 -13 6t-3 14l32 123 q-130 -159 -333 -159q-140 0 -232.5 79t-119 213.5zM215 575q-46 -208 9.5 -331t209.5 -123q126 0 219 92.5t135 271.5q50 213 -9 332t-208 119q-132 0 -224 -97.5t-132 -263.5zM1004 633h606q24 126 -43 217q-71 92 -211 92q-131 0 -223 -86.5t-129 -222.5z" />
<glyph unicode="&#xe7;" horiz-adv-x="1062" d="M4 420q0 183 73.5 332.5t209 237t305.5 87.5q187 0 295.5 -99t107.5 -276q0 -8 -6.5 -14t-13.5 -6h-135q-8 0 -14.5 6.5t-6.5 13.5q0 115 -62.5 175.5t-178.5 60.5q-121 0 -210.5 -74.5t-133.5 -193t-44 -260.5q0 -141 66 -218t193 -77q114 0 195 67.5t114 184.5 q1 7 9.5 13.5t16.5 6.5h140q7 0 11.5 -6t2.5 -14q-53 -178 -182.5 -284t-319.5 -106q-198 0 -315 120t-117 323zM139 -297l193 320q11 18 30 14l103 -14q8 -2 11 -8.5t-1 -14.5l-170 -336q-11 -18 -31 -14l-124 31q-15 3 -11 22z" />
<glyph unicode="&#xe8;" horiz-adv-x="1101" d="M4 428q0 94 22.5 185.5t70.5 175.5t116 148t165 102t210 38q232 0 348 -151.5t63 -403.5q-2 -8 -9.5 -14t-14.5 -6h-785q-4 -50 -4 -72q0 -150 67 -232.5t200 -82.5q123 0 204 59t113 172q1 7 10 14t17 7h137q7 0 11.5 -6.5t2.5 -14.5q-47 -169 -173.5 -269t-328.5 -100 q-215 0 -328.5 124.5t-113.5 326.5zM215 633h608q27 125 -41 217q-71 92 -211 92q-129 0 -222.5 -86.5t-133.5 -222.5zM360 1356l46 112q1 7 9.5 10t16.5 1l428 -211q15 -3 10 -27l-24 -59q-1 -7 -10 -11t-17 -2l-448 162q-15 3 -11 25z" />
<glyph unicode="&#xe9;" horiz-adv-x="1101" d="M4 428q0 94 22.5 185.5t70.5 175.5t116 148t165 102t210 38q232 0 348 -151.5t63 -403.5q-2 -8 -9.5 -14t-14.5 -6h-785q-4 -50 -4 -72q0 -150 67 -232.5t200 -82.5q123 0 204 59t113 172q1 7 10 14t17 7h137q7 0 11.5 -6.5t2.5 -14.5q-47 -169 -173.5 -269t-328.5 -100 q-215 0 -328.5 124.5t-113.5 326.5zM215 633h608q27 125 -41 217q-71 92 -211 92q-129 0 -222.5 -86.5t-133.5 -222.5zM399 1239q-2 8 2 18t11 11l483 209q7 2 14.5 -2t8.5 -11l30 -112q2 -8 -3.5 -17t-12.5 -10l-490 -156q-8 -2 -16.5 3t-9.5 12z" />
<glyph unicode="&#xea;" horiz-adv-x="1101" d="M4 428q0 94 22.5 185.5t70.5 175.5t116 148t165 102t210 38q232 0 348 -151.5t63 -403.5q-2 -8 -9.5 -14t-14.5 -6h-785q-4 -50 -4 -72q0 -150 67 -232.5t200 -82.5q123 0 204 59t113 172q1 7 10 14t17 7h137q7 0 11.5 -6.5t2.5 -14.5q-47 -169 -173.5 -269t-328.5 -100 q-215 0 -328.5 124.5t-113.5 326.5zM215 633h608q27 125 -41 217q-71 92 -211 92q-129 0 -222.5 -86.5t-133.5 -222.5zM303 1247q-4 21 10 29l314 162q17 10 39 10h39q21 0 36 -12l228 -164q6 -4 7.5 -13.5t-3.5 -15.5l-45 -63q-5 -6 -14 -8t-17 2l-233 129l-310 -127 q-23 -5 -26 10z" />
<glyph unicode="&#xeb;" horiz-adv-x="1101" d="M4 428q0 94 22.5 185.5t70.5 175.5t116 148t165 102t210 38q232 0 348 -151.5t63 -403.5q-2 -8 -9.5 -14t-14.5 -6h-785q-4 -50 -4 -72q0 -150 67 -232.5t200 -82.5q123 0 204 59t113 172q1 7 10 14t17 7h137q7 0 11.5 -6.5t2.5 -14.5q-47 -169 -173.5 -269t-328.5 -100 q-215 0 -328.5 124.5t-113.5 326.5zM215 633h608q27 125 -41 217q-71 92 -211 92q-129 0 -222.5 -86.5t-133.5 -222.5zM393 1223l39 163q2 8 10 14.5t15 6.5h125q7 0 12.5 -6.5t3.5 -14.5l-39 -163q-2 -8 -9.5 -14.5t-14.5 -6.5h-125q-8 0 -13 7t-4 14zM719 1223l39 163 q2 8 9.5 14.5t14.5 6.5h125q8 0 13 -7t4 -14l-39 -163q-2 -8 -10 -14.5t-15 -6.5h-125q-7 0 -12.5 6.5t-3.5 14.5z" />
<glyph unicode="&#xec;" horiz-adv-x="409" d="M-53 20l127 523l108 491q2 8 10 14.5t15 6.5h151q8 0 13 -7t4 -14l-121 -489l-115 -525q-2 -8 -9.5 -14t-14.5 -6h-152q-7 0 -12 6t-4 14zM18 1356l45 112q1 7 10 10t17 1l428 -211q15 -3 10 -27l-24 -59q-1 -7 -10 -11t-17 -2l-448 162q-15 3 -11 25z" />
<glyph unicode="&#xed;" horiz-adv-x="409" d="M-53 20l127 523l108 491q2 8 10 14.5t15 6.5h151q8 0 13 -7t4 -14l-121 -489l-115 -525q-2 -8 -9.5 -14t-14.5 -6h-152q-7 0 -12 6t-4 14zM74 1239q-2 8 1.5 18t10.5 11l483 209q7 2 14.5 -2t8.5 -11l31 -112q2 -8 -4 -17t-13 -10l-489 -156q-8 -2 -17 3t-10 12z" />
<glyph unicode="&#xee;" horiz-adv-x="409" d="M-53 20l127 523l108 491q2 8 10 14.5t15 6.5h151q8 0 13 -7t4 -14l-121 -489l-115 -525q-2 -8 -9.5 -14t-14.5 -6h-152q-7 0 -12 6t-4 14zM-18 1247q-4 21 10 29l313 162q17 10 39 10h39q22 0 37 -12l227 -164q6 -4 7.5 -13.5t-3.5 -15.5l-45 -63q-5 -6 -14 -8t-17 2 l-233 129l-309 -127q-24 -5 -27 10z" />
<glyph unicode="&#xef;" horiz-adv-x="409" d="M-53 20l127 523l108 491q2 8 10 14.5t15 6.5h151q8 0 13 -7t4 -14l-121 -489l-115 -525q-2 -8 -9.5 -14t-14.5 -6h-152q-7 0 -12 6t-4 14zM70 1223l39 163q2 8 9.5 14.5t14.5 6.5h125q7 0 12.5 -6.5t3.5 -14.5l-38 -163q-2 -8 -10 -14.5t-15 -6.5h-125q-7 0 -12.5 6.5 t-3.5 14.5zM395 1223l39 163q2 8 10 14.5t15 6.5h125q7 0 12.5 -6.5t3.5 -14.5l-39 -163q-2 -8 -9.5 -14.5t-14.5 -6.5h-125q-8 0 -13 7t-4 14z" />
<glyph unicode="&#xf0;" horiz-adv-x="1146" d="M0 401q0 102 40 198.5t108 170t166 118t206 44.5q134 0 232 -64.5t135 -175.5q45 213 -80 412l-301 -100q-6 -2 -14 2.5t-9 11.5l-22 80q-2 8 3.5 16.5t12.5 9.5l248 82q-83 89 -219 160q-7 1 -9 10t3 15l67 79q8 14 31 9q183 -90 295 -217l272 90q6 2 14 -3t9 -12 l20 -80q2 -8 -2.5 -16.5t-11.5 -9.5l-223 -74q102 -164 102 -377q0 -122 -26.5 -239.5t-79.5 -219.5t-126 -179.5t-173 -122t-213 -44.5q-197 0 -326 117t-129 309zM193 393q0 -135 74.5 -207.5t189.5 -72.5q106 0 190 60t127 151t43 190q0 126 -73.5 201.5t-186.5 75.5 q-151 0 -257.5 -118.5t-106.5 -279.5z" />
<glyph unicode="&#xf1;" horiz-adv-x="1079" d="M-61 20l112 461l125 553q2 8 10 14.5t15 6.5h141q7 0 11.5 -6.5t2.5 -14.5l-43 -157q64 88 161 145t204 57q169 0 251.5 -110.5t39.5 -306.5l-47 -211l-97 -431q-2 -8 -9.5 -14t-14.5 -6h-148q-7 0 -12 6t-4 14l104 431l47 202q31 131 -20.5 204t-159.5 73 q-102 0 -194 -84t-148 -236l-39 -159l-98 -431q-1 -7 -9 -13.5t-16 -6.5h-149q-7 0 -12 6t-4 14zM375 1221q59 223 209 223q34 0 62 -14t46.5 -34t35 -39.5t34.5 -33.5t37 -14q36 0 55.5 26.5t32.5 79.5q1 7 9.5 14t16.5 7h64q7 0 12.5 -6.5t3.5 -14.5q-59 -225 -211 -225 q-35 0 -62.5 14t-45.5 34t-34 39.5t-35 33.5t-40 14q-34 0 -53 -26.5t-33 -77.5q-2 -8 -9.5 -14.5t-14.5 -6.5h-64q-7 0 -12.5 6.5t-3.5 14.5z" />
<glyph unicode="&#xf2;" horiz-adv-x="1120" d="M4 422q0 182 73.5 331.5t207.5 236.5t303 87q198 0 319 -121t121 -323q0 -178 -73 -327.5t-207 -239t-302 -89.5q-198 0 -319 121q-123 120 -123 324zM190 410q0 -140 68 -217.5t195 -77.5q175 0 281 148t106 378q0 141 -68.5 221t-191.5 80q-117 0 -206 -70 t-136.5 -190.5t-47.5 -271.5zM371 1356l45 112q1 7 9.5 10t16.5 1l428 -211q7 -1 10 -10t1 -17l-25 -59q-1 -7 -10 -11t-17 -2l-448 162q-14 3 -10 25z" />
<glyph unicode="&#xf3;" horiz-adv-x="1120" d="M4 422q0 182 73.5 331.5t207.5 236.5t303 87q198 0 319 -121t121 -323q0 -178 -73 -327.5t-207 -239t-302 -89.5q-198 0 -319 121q-123 120 -123 324zM190 410q0 -140 68 -217.5t195 -77.5q175 0 281 148t106 378q0 141 -68.5 221t-191.5 80q-117 0 -206 -70 t-136.5 -190.5t-47.5 -271.5zM418 1239q-2 8 1.5 18t10.5 11l483 209q7 2 14.5 -2t8.5 -11l31 -112q2 -8 -4 -17t-13 -10l-489 -156q-8 -2 -17 3t-10 12z" />
<glyph unicode="&#xf4;" horiz-adv-x="1120" d="M4 422q0 182 73.5 331.5t207.5 236.5t303 87q198 0 319 -121t121 -323q0 -178 -73 -327.5t-207 -239t-302 -89.5q-198 0 -319 121q-123 120 -123 324zM190 410q0 -140 68 -217.5t195 -77.5q175 0 281 148t106 378q0 141 -68.5 221t-191.5 80q-117 0 -206 -70 t-136.5 -190.5t-47.5 -271.5zM303 1247q-4 21 10 29l314 162q17 10 39 10h39q21 0 36 -12l228 -164q6 -4 7.5 -13.5t-3.5 -15.5l-45 -63q-5 -6 -14 -8t-17 2l-233 129l-310 -127q-23 -5 -26 10z" />
<glyph unicode="&#xf5;" horiz-adv-x="1120" d="M4 422q0 182 73.5 331.5t207.5 236.5t303 87q198 0 319 -121t121 -323q0 -178 -73 -327.5t-207 -239t-302 -89.5q-198 0 -319 121q-123 120 -123 324zM190 410q0 -140 68 -217.5t195 -77.5q175 0 281 148t106 378q0 141 -68.5 221t-191.5 80q-117 0 -206 -70 t-136.5 -190.5t-47.5 -271.5zM377 1221q59 223 209 223q34 0 62 -14t46.5 -34t35 -39.5t34.5 -33.5t37 -14q36 0 55.5 26.5t32.5 79.5q1 7 9.5 14t16.5 7h64q7 0 12.5 -6.5t3.5 -14.5q-59 -225 -211 -225q-35 0 -62.5 14t-45.5 34t-34 39.5t-35 33.5t-40 14q-34 0 -53 -26.5 t-33 -77.5q-2 -8 -9.5 -14.5t-14.5 -6.5h-64q-7 0 -12.5 6.5t-3.5 14.5z" />
<glyph unicode="&#xf6;" horiz-adv-x="1120" d="M4 422q0 182 73.5 331.5t207.5 236.5t303 87q198 0 319 -121t121 -323q0 -178 -73 -327.5t-207 -239t-302 -89.5q-198 0 -319 121q-123 120 -123 324zM190 410q0 -140 68 -217.5t195 -77.5q175 0 281 148t106 378q0 141 -68.5 221t-191.5 80q-117 0 -206 -70 t-136.5 -190.5t-47.5 -271.5zM410 1223l39 163q2 8 9.5 14.5t14.5 6.5h125q7 0 12.5 -6.5t3.5 -14.5l-39 -163q-2 -8 -9.5 -14.5t-14.5 -6.5h-125q-7 0 -12.5 6.5t-3.5 14.5zM735 1223l39 163q2 8 10 14.5t15 6.5h125q7 0 12.5 -6.5t3.5 -14.5l-39 -163q-2 -8 -9.5 -14.5 t-14.5 -6.5h-125q-8 0 -13 7t-4 14z" />
<glyph unicode="&#xf7;" horiz-adv-x="1034" d="M45 649l25 113q1 8 9 14t15 6h881q7 0 12 -6t4 -14l-24 -113q-1 -7 -9 -13.5t-16 -6.5h-881q-7 0 -12 6.5t-4 13.5zM287 193l41 174q1 7 9 13.5t15 6.5h166q8 0 13 -6.5t4 -13.5l-41 -174q-2 -8 -10 -14.5t-15 -6.5h-166q-7 0 -12.5 6.5t-3.5 14.5zM483 1049l41 174 q1 7 9 13.5t16 6.5h166q7 0 12 -6.5t4 -13.5l-41 -174q-2 -8 -9.5 -14.5t-14.5 -6.5h-166q-8 0 -13 7t-4 14z" />
<glyph unicode="&#xf8;" horiz-adv-x="1120" d="M-37 -2q-14 17 0 31l119 123q-78 110 -78 270q0 182 73.5 331.5t207.5 236.5t303 87q180 0 295 -98l4 4l131 137q14 14 26 -2l54 -59q11 -18 -2 -31l-133 -139q65 -103 65 -256q0 -178 -73 -327.5t-207 -239t-302 -89.5q-166 0 -282 86l-123 -124q-13 -13 -29 2zM190 410 q0 -78 21 -136l567 582q-67 86 -198 86q-117 0 -206 -70t-136.5 -190.5t-47.5 -271.5zM266 184q69 -69 187 -69q175 0 281 148t106 378q0 61 -17 121z" />
<glyph unicode="&#xf9;" horiz-adv-x="1079" d="M27 395l47 209l96 430q2 8 10 14.5t15 6.5h147q7 0 12.5 -6.5t3.5 -14.5l-106 -430l-45 -203q-31 -132 19.5 -204t158.5 -72q102 0 193.5 83t150.5 236l39 160l98 430q2 8 10 14.5t15 6.5h149q8 0 13 -7t4 -14l-115 -461l-123 -553q-2 -8 -9.5 -14t-14.5 -6h-142 q-7 0 -11.5 6t-2.5 14l41 160q-65 -89 -161 -147t-202 -58q-169 0 -251 111.5t-39 308.5zM348 1356l45 112q1 7 10 10t17 1l428 -211q15 -3 10 -27l-24 -59q-1 -7 -10 -11t-17 -2l-449 162q-14 3 -10 25z" />
<glyph unicode="&#xfa;" horiz-adv-x="1079" d="M27 395l47 209l96 430q2 8 10 14.5t15 6.5h147q7 0 12.5 -6.5t3.5 -14.5l-106 -430l-45 -203q-31 -132 19.5 -204t158.5 -72q102 0 193.5 83t150.5 236l39 160l98 430q2 8 10 14.5t15 6.5h149q8 0 13 -7t4 -14l-115 -461l-123 -553q-2 -8 -9.5 -14t-14.5 -6h-142 q-7 0 -11.5 6t-2.5 14l41 160q-65 -89 -161 -147t-202 -58q-169 0 -251 111.5t-39 308.5zM403 1239q-2 8 2 18t11 11l483 209q7 2 14.5 -2t8.5 -11l30 -112q2 -8 -3.5 -17t-12.5 -10l-490 -156q-8 -2 -16.5 3t-9.5 12z" />
<glyph unicode="&#xfb;" horiz-adv-x="1079" d="M27 395l47 209l96 430q2 8 10 14.5t15 6.5h147q7 0 12.5 -6.5t3.5 -14.5l-106 -430l-45 -203q-31 -132 19.5 -204t158.5 -72q102 0 193.5 83t150.5 236l39 160l98 430q2 8 10 14.5t15 6.5h149q8 0 13 -7t4 -14l-115 -461l-123 -553q-2 -8 -9.5 -14t-14.5 -6h-142 q-7 0 -11.5 6t-2.5 14l41 160q-65 -89 -161 -147t-202 -58q-169 0 -251 111.5t-39 308.5zM309 1247q-4 21 10 29l314 162q17 10 39 10h39q22 0 37 -12l227 -164q6 -4 7.5 -13.5t-3.5 -15.5l-45 -63q-5 -6 -14 -8t-17 2l-233 129l-310 -127q-23 -5 -26 10z" />
<glyph unicode="&#xfc;" horiz-adv-x="1079" d="M27 395l47 209l96 430q2 8 10 14.5t15 6.5h147q7 0 12.5 -6.5t3.5 -14.5l-106 -430l-45 -203q-31 -132 19.5 -204t158.5 -72q102 0 193.5 83t150.5 236l39 160l98 430q2 8 10 14.5t15 6.5h149q8 0 13 -7t4 -14l-115 -461l-123 -553q-2 -8 -9.5 -14t-14.5 -6h-142 q-7 0 -11.5 6t-2.5 14l41 160q-65 -89 -161 -147t-202 -58q-169 0 -251 111.5t-39 308.5zM397 1223l39 163q2 8 10 14.5t15 6.5h125q7 0 12.5 -6.5t3.5 -14.5l-39 -163q-2 -8 -9.5 -14.5t-14.5 -6.5h-125q-8 0 -13 7t-4 14zM723 1223l39 163q2 8 9.5 14.5t14.5 6.5h125 q8 0 13 -7t4 -14l-39 -163q-2 -8 -10 -14.5t-15 -6.5h-125q-7 0 -12.5 6.5t-3.5 14.5z" />
<glyph unicode="&#xfd;" horiz-adv-x="972" d="M55 -330l199 348l-170 1016q-2 8 3.5 14.5t12.5 6.5h150q8 0 15 -7t7 -14l115 -803l447 805q11 19 30 19h162q15 0 10 -19l-790 -1366q-11 -18 -31 -18h-149q-7 0 -10 5.5t-1 12.5zM358 1239q-2 8 2 18t11 11l483 209q6 2 14 -2t9 -11l30 -112q2 -8 -3.5 -17t-12.5 -10 l-490 -156q-8 -2 -16.5 3t-9.5 12z" />
<glyph unicode="&#xfe;" d="M-143 -328l204 854l199 887q2 8 10 14.5t15 6.5h147q8 0 13 -7t4 -14l-121 -487q136 149 319 149q195 0 295 -150t68 -393q-8 -83 -32.5 -161.5t-68 -149.5t-101 -124.5t-136.5 -85t-170 -31.5q-123 0 -209 59.5t-123 169.5l-121 -537q-2 -7 -9.5 -13.5t-14.5 -6.5h-152 q-7 0 -12 6t-4 14zM231 500q-20 -181 44 -282t194 -101q152 0 244 123t110 313q23 179 -40 283t-197 104q-97 0 -175 -61.5t-123 -160t-57 -218.5z" />
<glyph unicode="&#xff;" horiz-adv-x="972" d="M55 -330l199 348l-170 1016q-2 8 3.5 14.5t12.5 6.5h150q8 0 15 -7t7 -14l115 -803l447 805q11 19 30 19h162q15 0 10 -19l-790 -1366q-11 -18 -31 -18h-149q-7 0 -10 5.5t-1 12.5zM336 1223l39 163q2 8 9.5 14.5t14.5 6.5h125q8 0 13 -7t4 -14l-39 -163q-2 -8 -10 -14.5 t-15 -6.5h-125q-7 0 -12.5 6.5t-3.5 14.5zM662 1223l38 163q2 8 10 14.5t15 6.5h125q7 0 12.5 -6.5t3.5 -14.5l-39 -163q-2 -8 -9.5 -14.5t-14.5 -6.5h-125q-7 0 -12.5 6.5t-3.5 14.5z" />
<glyph unicode="&#x152;" horiz-adv-x="2070" d="M78 664q20 187 97 335.5t193.5 242.5t259.5 143t302 49h1206q7 0 12.5 -6.5t3.5 -14.5l-26 -113q-1 -7 -9 -13.5t-16 -6.5h-688l-108 -438h643q7 0 12.5 -6.5t3.5 -14.5l-25 -112q-2 -8 -9.5 -14.5t-14.5 -6.5h-643l-92 -397l-29 -137h702q8 0 13 -7t4 -14l-25 -113 q-2 -8 -9.5 -14t-14.5 -6h-1137q-143 0 -262.5 45.5t-202 129t-121 210t-20.5 279.5zM276 680q-18 -123 7 -224t82.5 -166t139.5 -100.5t179 -35.5h266l28 107q28 107 62 241.5t47 191.5q12 58 44.5 204.5t59 263.5t26.5 118h-316q-84 0 -165 -21.5t-157.5 -69 t-137.5 -116.5t-105 -170t-60 -223z" />
<glyph unicode="&#x153;" horiz-adv-x="1912" d="M4 422q0 182 73.5 331.5t207.5 236.5t303 87q130 0 231 -56.5t152 -156.5q73 99 183 156t251 57q231 0 347 -151.5t63 -403.5q-1 -7 -9 -13.5t-16 -6.5h-772q-4 -50 -4 -72q0 -151 63 -233t193 -82q122 0 203 60t114 171q1 7 10 14t17 7h137q7 0 11.5 -6.5t2.5 -14.5 q-47 -169 -173 -269t-330 -100q-137 0 -234.5 57t-148.5 159q-77 -101 -189 -158.5t-244 -57.5q-198 0 -319 121q-123 120 -123 324zM190 410q0 -140 68 -217.5t195 -77.5q171 0 276 148t105 378q0 142 -66 221.5t-188 79.5q-117 0 -206 -70t-136.5 -190.5t-47.5 -271.5z M1042 633h598q24 126 -43 217q-71 92 -211 92q-127 0 -216 -86t-128 -223z" />
<glyph unicode="&#x178;" horiz-adv-x="1159" d="M178 1413q-2 8 3 14.5t12 6.5h159q8 0 17 -7t10 -14l190 -731l525 735q14 17 32 17h172q6 0 9.5 -6t-0.5 -11l-686 -913l-107 -484q-1 -7 -9 -13.5t-16 -6.5h-157q-8 0 -13 6.5t-4 13.5l123 488zM528 1602l39 163q2 8 10 14.5t15 6.5h125q7 0 12.5 -6.5t3.5 -14.5 l-39 -163q-2 -8 -9.5 -14.5t-14.5 -6.5h-125q-8 0 -13 7t-4 14zM854 1602l39 163q2 8 10 14.5t15 6.5h124q8 0 13 -7t4 -14l-39 -163q-2 -8 -10 -14.5t-15 -6.5h-125q-7 0 -12.5 6.5t-3.5 14.5z" />
<glyph unicode="&#x2c6;" horiz-adv-x="1024" d="M293 1247q-4 21 10 29l313 162q17 10 39 10h39q22 0 37 -12l227 -164q6 -5 7.5 -14t-2.5 -15l-45 -63q-5 -6 -14 -8t-17 2l-234 129l-309 -127q-24 -5 -27 10z" />
<glyph unicode="&#x2dc;" horiz-adv-x="1024" d="M348 1221q59 223 209 223q34 0 62 -14t46.5 -34t35 -39.5t34.5 -33.5t37 -14q36 0 55.5 26.5t32.5 79.5q1 7 10 14t17 7h63q8 0 13 -7t4 -14q-59 -225 -211 -225q-35 0 -62.5 14t-45.5 34t-34 39.5t-35 33.5t-40 14q-34 0 -53 -26.5t-33 -77.5q-2 -8 -10 -14.5t-15 -6.5 h-63q-8 0 -13 7t-4 14z" />
<glyph unicode="&#x2000;" horiz-adv-x="990" />
<glyph unicode="&#x2001;" horiz-adv-x="1980" />
<glyph unicode="&#x2002;" horiz-adv-x="990" />
<glyph unicode="&#x2003;" horiz-adv-x="1980" />
<glyph unicode="&#x2004;" horiz-adv-x="660" />
<glyph unicode="&#x2005;" horiz-adv-x="495" />
<glyph unicode="&#x2006;" horiz-adv-x="330" />
<glyph unicode="&#x2007;" horiz-adv-x="330" />
<glyph unicode="&#x2008;" horiz-adv-x="247" />
<glyph unicode="&#x2009;" horiz-adv-x="396" />
<glyph unicode="&#x200a;" horiz-adv-x="110" />
<glyph unicode="&#x2010;" horiz-adv-x="526" d="M0 541l23 106q2 8 9.5 14.5t14.5 6.5h406q7 0 12.5 -6.5t3.5 -14.5l-23 -106q-2 -8 -9.5 -14.5t-14.5 -6.5h-406q-7 0 -12.5 6.5t-3.5 14.5z" />
<glyph unicode="&#x2011;" horiz-adv-x="526" d="M0 541l23 106q2 8 9.5 14.5t14.5 6.5h406q7 0 12.5 -6.5t3.5 -14.5l-23 -106q-2 -8 -9.5 -14.5t-14.5 -6.5h-406q-7 0 -12.5 6.5t-3.5 14.5z" />
<glyph unicode="&#x2012;" horiz-adv-x="526" d="M0 541l23 106q2 8 9.5 14.5t14.5 6.5h406q7 0 12.5 -6.5t3.5 -14.5l-23 -106q-2 -8 -9.5 -14.5t-14.5 -6.5h-406q-7 0 -12.5 6.5t-3.5 14.5z" />
<glyph unicode="&#x2013;" horiz-adv-x="815" d="M0 555l25 104q2 8 9.5 14.5t14.5 6.5h696q8 0 13 -7t4 -14l-25 -104q-2 -7 -9 -13.5t-15 -6.5h-697q-8 0 -13 6.5t-3 13.5z" />
<glyph unicode="&#x2014;" horiz-adv-x="1224" d="M0 555l25 104q2 8 9.5 14.5t14.5 6.5h1106q7 0 12.5 -6.5t3.5 -14.5l-24 -104q-1 -7 -9 -13.5t-16 -6.5h-1106q-8 0 -13 6.5t-3 13.5z" />
<glyph unicode="&#x2018;" horiz-adv-x="337" d="M139 1038l39 168q4 18 19 37l153 174q14 17 35 17h64q7 0 10.5 -6t1.5 -13l-94 -186l-43 -191q-1 -7 -9 -13.5t-16 -6.5h-143q-8 0 -13 6.5t-4 13.5z" />
<glyph unicode="&#x2019;" horiz-adv-x="337" d="M119 1036l94 187l41 190q2 8 10 14.5t15 6.5h143q7 0 12.5 -6.5t3.5 -14.5l-37 -168q-4 -19 -18 -37l-154 -174q-13 -16 -34 -16h-64q-7 0 -10.5 5.5t-1.5 12.5z" />
<glyph unicode="&#x201a;" horiz-adv-x="344" d="M-176 -182l94 186l43 191q1 7 9 13.5t16 6.5h143q7 0 12 -6.5t4 -13.5l-39 -168q-4 -19 -18 -37l-154 -174q-14 -17 -34 -17h-64q-7 0 -10.5 6t-1.5 13z" />
<glyph unicode="&#x201c;" horiz-adv-x="626" d="M135 1038l37 168q4 19 18 37l154 174q14 17 35 17h63q7 0 11 -6.5t2 -12.5l-93 -186l-43 -191q-2 -8 -9 -14t-15 -6h-143q-8 0 -13 6.5t-4 13.5zM424 1038l39 168q4 19 18 37l152 174q14 17 35 17h63q7 0 10.5 -6t1.5 -13l-92 -186l-43 -191q-2 -8 -9 -14t-15 -6h-144 q-8 0 -13 6t-3 14z" />
<glyph unicode="&#x201d;" horiz-adv-x="626" d="M119 1036l94 187l41 190q2 8 10 14.5t15 6.5h143q7 0 12.5 -6.5t3.5 -14.5l-37 -168q-4 -19 -18 -37l-154 -174q-13 -16 -34 -16h-64q-7 0 -10.5 5.5t-1.5 12.5zM408 1036l94 187l43 190q2 8 9.5 14.5t14.5 6.5h144q7 0 12.5 -6.5t3.5 -14.5l-39 -168q-4 -19 -18 -37 l-154 -174q-13 -16 -35 -16h-63q-7 0 -10.5 5.5t-1.5 12.5z" />
<glyph unicode="&#x201e;" horiz-adv-x="626" d="M-35 -182l94 186l41 191q1 7 9 13.5t16 6.5h143q8 0 13 -6.5t4 -13.5l-37 -168q-4 -18 -19 -37l-153 -174q-14 -17 -35 -17h-64q-7 0 -10.5 6t-1.5 13zM254 -182l94 186l43 191q1 7 9 13.5t16 6.5h143q7 0 12 -6.5t4 -13.5l-38 -168q-4 -18 -19 -37l-153 -174 q-14 -17 -35 -17h-64q-7 0 -10.5 6t-1.5 13z" />
<glyph unicode="&#x2022;" horiz-adv-x="524" d="M-8 416l90 395q1 7 8.5 13.5t15.5 6.5h361q7 0 12 -6t4 -14l-90 -395q-2 -8 -9.5 -14.5t-14.5 -6.5h-361q-7 0 -12.5 6.5t-3.5 14.5z" />
<glyph unicode="&#x2026;" horiz-adv-x="1048" d="M-94 20l41 175q2 7 9 13.5t15 6.5h166q8 0 13 -6.5t4 -13.5l-41 -175q-1 -7 -9 -13.5t-16 -6.5h-166q-8 0 -13 6t-3 14zM260 20l41 175q1 7 9 13.5t16 6.5h166q8 0 13 -6.5t3 -13.5l-41 -175q-1 -7 -9 -13.5t-16 -6.5h-166q-8 0 -13 6t-3 14zM612 20l41 175q1 7 9 13.5 t16 6.5h166q8 0 13 -6.5t3 -13.5l-41 -175q-2 -8 -9.5 -14t-14.5 -6h-166q-8 0 -13 6.5t-4 13.5z" />
<glyph unicode="&#x202f;" horiz-adv-x="396" />
<glyph unicode="&#x2039;" horiz-adv-x="514" d="M12 555q-4 23 6 33l310 340q14 14 34 14h134q6 0 8 -5t-2 -9l-340 -365l174 -346q4 -6 1 -12t-11 -6h-119q-8 0 -18 5.5t-11 12.5z" />
<glyph unicode="&#x203a;" horiz-adv-x="514" d="M-55 203.5q-2 4.5 2 9.5l342 373l-176 338q-4 6 -1 12t11 6h119q8 0 17.5 -5.5t10.5 -12.5l168 -332q4 -22 -6 -33l-313 -346q-14 -14 -35 -14h-131q-6 0 -8 4.5z" />
<glyph unicode="&#x205f;" horiz-adv-x="495" />
<glyph unicode="&#x20ac;" horiz-adv-x="1318" d="M-20 500l24 102q2 8 10 14.5t15 6.5h137q9 105 33 208h-121q-8 0 -13 7t-4 14l25 102q2 8 10 14.5t15 6.5h133q86 219 247 352t373 133q209 0 335.5 -110.5t127.5 -315.5q0 -8 -6.5 -14t-13.5 -6h-148q-7 0 -13.5 6t-6.5 14q-5 127 -76.5 198t-208.5 71 q-131 0 -236.5 -89.5t-171.5 -238.5h412q7 0 12.5 -6.5t3.5 -14.5l-24 -102q-2 -8 -10 -14.5t-15 -6.5h-430q-27 -116 -35 -208h416q8 0 13 -7t4 -14l-25 -102q-2 -8 -10 -14.5t-15 -6.5h-385q7 -166 83 -257t204 -91q141 0 231.5 71.5t145.5 229.5q1 7 10 14t17 7h151 q7 0 11.5 -6.5t2.5 -12.5q-90 -244 -226 -352.5t-345 -108.5q-207 0 -335.5 135.5t-141.5 370.5h-170q-7 0 -12.5 6.5t-3.5 14.5z" />
<glyph unicode="&#x2122;" horiz-adv-x="1159" d="M156 1370v43q0 8 6.5 14.5t13.5 6.5h369q7 0 13.5 -6.5t6.5 -14.5v-43q0 -8 -6.5 -14t-13.5 -6h-135l-2 -197l2 -254q0 -7 -6.5 -13.5t-14.5 -6.5h-59q-8 0 -14.5 6.5t-6.5 13.5l2 254l-2 197h-133q-8 0 -14 6t-6 14zM623 899l2 252l-2 262q0 8 6.5 14.5t13.5 6.5h84 q18 0 29 -19l155 -411l154 411q1 7 10 13t17 6h77q7 0 14 -7t7 -14l-2 -262l2 -252q0 -7 -6.5 -13.5t-14.5 -6.5h-57q-8 0 -14 6.5t-6 13.5l2 240v127l-138 -369q-11 -18 -28 -18h-43q-18 0 -29 18l-145 383v-20l4 -121v-240q0 -7 -6.5 -13.5t-14.5 -6.5h-51q-7 0 -13.5 6.5 t-6.5 13.5z" />
<glyph unicode="&#x25fc;" horiz-adv-x="1054" d="M0 0v1055h1055v-1055h-1055z" />
</font>
</defs>
</svg>
